<?xml version="1.0" encoding="UTF-8"?>
<svg width="31px" height="32px" viewBox="0 0 31 32" version="1.1" xmlns="http://www.w3.org/2000/svg" xmlns:xlink="http://www.w3.org/1999/xlink">
    <!-- Generator: Sketch 44.1 (41455) - http://www.bohemiancoding.com/sketch -->
    <title>23957</title>
    <desc>Created with Sketch.</desc>
    <defs></defs>
    <g id="Symbols" stroke="none" stroke-width="1" fill="none" fill-rule="evenodd">
        <g id="footer" transform="translate(-1268.000000, -102.000000)" fill-rule="nonzero" fill="#F8F9FB">
            <g id="FOLLOW-US" transform="translate(1148.000000, 57.500000)">
                <g id="Icons" transform="translate(0.000000, 45.000000)">
                    <g id="23957" transform="translate(120.000000, 0.000000)">
                        <g id="9310">
                            <path d="M15.485541,0 C17.6328694,0 19.6445149,0.406290503 21.5204198,1.21887151 C23.396556,2.03145251 25.0364328,3.13844693 26.4403974,4.53985475 C27.8444776,5.94126257 28.9535373,7.57820112 29.7676343,9.45067039 C30.5815,11.3231397 30.9886063,13.3310391 30.9886063,15.4743687 C30.9886063,17.6176406 30.5815,19.6256555 29.7676343,21.498067 C28.9535373,23.3706518 27.8444776,25.0074171 26.4403974,26.4088827 C25.0364328,27.8102328 23.3964403,28.9172272 21.5204198,29.7298082 C19.6444571,30.5423892 17.6328694,30.948622 15.485541,30.948622 C13.3382127,30.948622 11.3265672,30.5423892 9.45060448,29.7299236 C7.57464179,28.9173426 5.93464925,27.8103482 4.53062687,26.4089981 C3.12660448,25.0075326 2.02344403,23.370594 1.22114552,21.4981825 C0.418847015,19.6256555 0.0176977612,17.6176983 0.0176977612,15.4743687 C0.0176977612,13.3310391 0.418847015,11.3231397 1.22114552,9.45067039 C2.02344403,7.57820112 3.12660448,5.94126257 4.53062687,4.53985475 C5.93464925,3.13844693 7.57464179,2.03145251 9.45060448,1.21887151 C11.3265672,0.406290503 13.3382127,0 15.485541,0 Z M15.485541,1.69582123 C13.5741828,1.69582123 11.7808097,2.05500559 10.1054216,2.7733743 C8.43003358,3.49174302 6.96701866,4.4750838 5.71637687,5.72339665 C4.46573507,6.9717095 3.4805597,8.432 2.76085075,10.1042682 C2.04114179,11.7765363 1.68128731,13.5665698 1.68128731,15.4743687 C1.68128731,17.3821099 2.04114179,19.1721434 2.76085075,20.8444693 C3.4805597,22.5167952 4.46573507,23.9770279 5.71637687,25.2253985 C6.96701866,26.4736536 8.43003358,27.4570521 10.1054216,28.1754209 C11.7808097,28.8937318 13.5741828,29.2529739 15.485541,29.2529739 C17.3968993,29.2529739 19.1902724,28.8937318 20.8657183,28.1754209 C22.5410485,27.4572253 24.0041213,26.4736536 25.2547052,25.2253985 C26.5054049,23.9770279 27.4905224,22.5167952 28.2102313,20.8444693 C28.9299981,19.1720279 29.2897948,17.3819944 29.2897948,15.4743687 C29.2897948,13.5666853 28.9299981,11.7765363 28.2102313,10.1042682 C27.4906959,8.432 26.5054049,6.9717095 25.2547052,5.72339665 C24.0041213,4.4750838 22.5410485,3.49174302 20.8657183,2.7733743 C19.1902724,2.05500559 17.3968993,1.69582123 15.485541,1.69582123 Z M19.4498396,18.0181583 C20.9363937,17.4998175 21.6796996,16.5225382 21.6796996,15.085743 C21.6796996,14.3320447 21.5558731,13.7373296 21.3080466,13.3015978 C21.0603358,12.8658659 20.6650858,12.5066816 20.1222966,12.2240447 C19.8627295,12.0827263 19.5560261,12.0002905 19.2020131,11.9767374 C18.8481157,11.9531844 18.4706791,11.9472961 18.0693563,11.9590726 C17.6682071,11.9708492 17.2436343,11.9944022 16.7951754,12.0297318 C16.3468321,12.0650615 15.8984888,12.0827263 15.4502612,12.0827263 C15.0019179,12.0827263 14.5535746,12.0650615 14.1052313,12.0297318 C13.6568881,11.9944022 13.2321418,11.9708492 12.8309925,11.9590726 C12.4298433,11.9472961 12.052291,11.9531844 11.6983358,11.9767374 C11.3443806,12.0002905 11.0376194,12.0827263 10.7780522,12.2240447 C10.2353209,12.5066816 9.84597015,12.8658659 9.61,13.3015978 C9.37402985,13.7373296 9.25604478,14.3320447 9.25604478,15.085743 C9.25604478,16.5225382 9.99935075,17.499933 11.4859627,18.0181583 C11.7455299,18.0887598 12.028694,18.1593035 12.3354552,18.2301359 C12.5950224,18.2770689 12.9194813,18.3242905 13.3088321,18.3712812 C13.6981828,18.4183873 14.1524254,18.4421136 14.6715597,18.4421136 L16.2289049,18.4421136 C16.7244422,18.4421136 17.1727854,18.4185605 17.574166,18.3712812 C17.9753153,18.3242905 18.317472,18.2770112 18.6006362,18.2301359 C18.9307052,18.159419 19.2138694,18.0887598 19.4498396,18.0181583 Z M23.6973022,12.8953073 C23.6973022,13.6490056 23.614597,14.361486 23.4495914,15.0327486 C23.2843545,15.703838 22.9776511,16.3105605 22.5293078,16.8522235 C22.0809646,17.3940019 21.4614851,17.8415102 20.6709851,18.1947486 C19.8804851,18.5481024 18.8717705,18.7717989 17.6446679,18.8660689 C17.833444,18.9602235 18.0753713,19.0780466 18.370334,19.2193073 C18.6652966,19.3606834 18.9189646,19.6315438 19.1313377,20.0318883 C19.2492649,20.2908566 19.3259552,20.6678212 19.3613507,21.1624358 C19.3968041,21.6569348 19.414444,22.1634413 19.414444,22.6814935 C19.414444,23.1998343 19.4085448,23.6766108 19.3968041,24.1122849 C19.3849478,24.5480745 19.4027034,24.813162 19.4498974,24.9072588 C19.5442276,25.0956834 19.6800261,25.2604972 19.8568881,25.4017579 C20.0339235,25.5430186 20.1814049,25.6490074 20.2993321,25.7197244 C20.4172593,25.7905568 20.452597,25.8788231 20.4055187,25.9848119 C20.3583246,26.0908007 20.1931455,26.1556294 19.9099813,26.1789516 C19.7684571,26.1789516 19.5914216,26.1556294 19.3790485,26.1083501 C19.1666754,26.0612439 18.9659272,25.9788082 18.7773246,25.8609851 C18.5886642,25.7432775 18.4292687,25.596013 18.2994851,25.4195959 C18.1697015,25.2427747 18.1048675,25.0132477 18.1048675,24.7304376 L18.1048675,21.8334097 C18.1048675,21.5037244 18.0281772,21.2681937 17.874681,21.1268175 C17.7215317,20.9855568 17.5622519,20.8912868 17.3968414,20.8442384 L17.3968414,24.6598361 C17.3968414,25.3428752 17.479431,25.7903836 17.6446679,26.0023613 C17.7154011,26.0966313 17.7803507,26.1967318 17.8392854,26.3027207 C17.8982201,26.4087095 17.9337313,26.4969758 17.945472,26.5676927 C17.9573284,26.6382942 17.9159757,26.6795698 17.8214142,26.6914041 C17.727084,26.7031229 17.550222,26.6736816 17.2904813,26.6031378 C16.794944,26.4854302 16.4409888,26.2145121 16.2286735,25.7905568 C16.0163582,25.3666015 15.9101138,24.9190931 15.9101138,24.4480317 L15.9101138,20.7031508 L15.1315858,20.7031508 L15.1315858,24.4480317 C15.1315858,24.9190931 15.0312985,25.3666015 14.8307239,25.7905568 C14.6301493,26.2145121 14.2702948,26.4854302 13.7511604,26.6031378 C13.4915933,26.6738547 13.3205149,26.7031229 13.2379254,26.6914041 C13.1553358,26.6796853 13.114041,26.6382942 13.114041,26.5676927 C13.114041,26.4969758 13.1494366,26.4087095 13.2202276,26.3027207 C13.2910187,26.1967318 13.3618097,26.0966313 13.4326007,26.0023613 C13.4797948,25.9082067 13.5328881,25.7432775 13.5918806,25.5077467 C13.6508731,25.2723315 13.6803694,24.9896369 13.6803694,24.6598361 L13.6803694,20.8442384 C13.5151903,20.8912291 13.3618097,20.9853836 13.2202276,21.1268752 C13.0786455,21.2681359 13.0078545,21.5036667 13.0078545,21.8334674 L13.0078545,24.7304953 C13.0078545,25.0131322 12.9429627,25.2427169 12.8131791,25.4195382 C12.6833955,25.5962439 12.5241157,25.7432197 12.3353396,25.8610428 C12.1465634,25.9787505 11.9459888,26.0614171 11.7336157,26.1082924 C11.5212425,26.1553985 11.3442649,26.1790093 11.2026828,26.1790093 C10.9195187,26.1555717 10.7543396,26.0908585 10.7071455,25.9848696 C10.6599515,25.8788808 10.695347,25.7904991 10.8133321,25.7198976 C10.9313172,25.6490652 11.0787985,25.5430764 11.2557761,25.4017002 C11.4327537,25.2605549 11.5684366,25.095568 11.6628246,24.9073166 C11.7100187,24.7894935 11.7277164,24.4774153 11.7159179,23.9709088 C11.7041194,23.4645754 11.6982201,22.9050745 11.6982201,22.2928678 C11.509444,22.3635847 11.2616754,22.4106909 10.9549142,22.4342439 C10.648153,22.4575661 10.3059963,22.4342439 9.92844403,22.3634115 C9.29132463,22.2455885 8.80758582,22.03973 8.47722761,21.7450857 C8.1468694,21.4506723 7.8283097,20.9854991 7.52154851,20.3495661 C7.3563694,20.0434339 7.17349254,19.7902384 6.97291791,19.5899795 C6.77234328,19.3898361 6.59536567,19.2308529 6.44198507,19.1130298 C6.28860448,18.9953222 6.1706194,18.8952216 6.08802985,18.8127858 C6.0054403,18.7303501 5.99954104,18.6538026 6.07033209,18.5830857 C6.21191418,18.4182719 6.40658955,18.3475549 6.65435821,18.3709926 C6.90212687,18.3945456 7.04960821,18.429933 7.09680224,18.4769814 C7.37996642,18.594689 7.6631306,18.842054 7.94629478,19.2190186 C8.22945896,19.596041 8.52442164,19.913892 8.83118284,20.1728603 C8.97276493,20.290568 9.14974254,20.4082756 9.36211567,20.5260987 C9.57448881,20.6438063 9.81045896,20.726473 10.0700261,20.7733482 C10.3295933,20.8204544 10.6127575,20.8204544 10.9195187,20.7733482 C11.2262799,20.7264153 11.533041,20.5967579 11.8398022,20.3848957 C11.9105933,20.0785326 12.0226791,19.8372868 12.1760597,19.6604655 C12.3294403,19.4837598 12.4946194,19.3424991 12.671597,19.2365102 C12.8485746,19.1305214 13.0137537,19.0480857 13.1671343,18.9891453 C13.3205149,18.9302626 13.4443993,18.8772682 13.5387873,18.830162 C12.2409515,18.7360074 11.1790858,18.5183147 10.3531903,18.1767952 C9.52729478,17.8352756 8.87247761,17.3993706 8.38873881,16.8694842 C7.905,16.33954 7.57464179,15.7330484 7.39766418,15.0499516 C7.22068657,14.3669125 7.13219776,13.6485438 7.13219776,12.8948454 C7.13219776,12.117594 7.25018284,11.4227784 7.48615299,10.8103985 C7.72212313,10.1980186 8.05248134,9.65629795 8.47722761,9.1852365 C8.28845149,8.61996276 8.2235597,8.02524767 8.28255224,7.40109125 C8.34154478,6.77693482 8.4654291,6.21754935 8.65420522,5.72293482 C9.55089179,5.77004097 10.300097,5.95846555 10.9018209,6.28820857 C11.5035448,6.61795158 11.9223918,6.88881192 12.1583619,7.10078957 C13.1730336,6.8181527 14.2231007,6.67683426 15.3085634,6.67683426 L15.5563321,6.67683426 C16.5709459,6.67683426 17.5504534,6.79459963 18.4941026,7.03013035 C18.7536698,6.8181527 19.178416,6.5590689 19.7683993,6.25287896 C20.3582668,5.94668901 21.0899478,5.77004097 21.9628638,5.72293482 C22.1516399,6.19399628 22.2755243,6.72394041 22.3345168,7.31276723 C22.3935672,7.90159404 22.3522724,8.46686778 22.2106903,9.00858845 C22.6826306,9.47964991 23.048153,10.0390354 23.3078937,10.6867449 C23.5675187,11.3349162 23.6973022,12.0709497 23.6973022,12.8953073 Z M15.41475,12.0827263 L15.46475,12.0827263 L15.51475,12.0827263 L15.41475,12.0827263 Z M19.9807724,14.8384358 C19.9807724,15.1681788 19.8924571,15.4508156 19.715306,15.6863464 C19.5382705,15.9218771 19.320056,16.0395847 19.0604888,16.0395847 C18.8010373,16.0395847 18.5886642,15.9218771 18.4233694,15.6863464 C18.258306,15.4507579 18.1755429,15.168121 18.1755429,14.8384358 C18.1755429,14.5087505 18.2583638,14.2260559 18.4233694,13.9905251 C18.5884907,13.7549944 18.8008638,13.6372291 19.0604888,13.6372291 C19.3201138,13.6372291 19.538444,13.7549944 19.715306,13.9905251 C19.8923414,14.2260559 19.9807724,14.5086927 19.9807724,14.8384358 Z M13.04325,14.8384358 C13.04325,15.1681788 12.9547612,15.4508156 12.7777836,15.6863464 C12.600806,15.9218771 12.3825336,16.0395847 12.1229664,16.0395847 C11.8633993,16.0395847 11.6510261,15.9218771 11.485847,15.6863464 C11.3206679,15.4507579 11.2380784,15.168121 11.2380784,14.8384358 C11.2380784,14.5087505 11.3206679,14.2260559 11.485847,13.9905251 C11.6510261,13.7549944 11.8633993,13.6372291 12.1229664,13.6372291 C12.3825336,13.6372291 12.600806,13.7549944 12.7777836,13.9905251 C12.954819,14.2260559 13.04325,14.5086927 13.04325,14.8384358 Z" id="Shape"></path>
                        </g>
                    </g>
                </g>
            </g>
        </g>
    </g>
</svg>