<?xml version="1.0" encoding="UTF-8"?>
<svg width="90px" height="94px" viewBox="0 0 90 94" version="1.1" xmlns="http://www.w3.org/2000/svg" xmlns:xlink="http://www.w3.org/1999/xlink">
    <!-- Generator: Sketch 48.2 (47327) - http://www.bohemiancoding.com/sketch -->
    <title>Artboard 5</title>
    <desc>Created with Sketch.</desc>
    <defs></defs>
    <g id="Case-Studies" stroke="none" stroke-width="1" fill="none" fill-rule="evenodd">
        <g id="Artboard-5" fill="#72C02C" fill-rule="nonzero">
            <g id="002-message-on-phone-copy" transform="translate(7.000000, 2.000000)">
                <path d="M51.8,49.2192773 C51.02685,49.2192773 50.4,49.8489258 50.4,50.6255273 L50.4,75.9375 L2.8,75.9375 L2.8,14.0625 L18.2,14.0625 C18.97315,14.0625 19.6,13.4328516 19.6,12.65625 C19.6,11.8796484 18.97315,11.25 18.2,11.25 L2.8,11.25 L2.8,9.84375 C2.8,5.96671875 5.9402,2.8125 9.8,2.8125 L43.4,2.8125 C44.17315,2.8125 44.8,2.18285156 44.8,1.40625 C44.8,0.629648438 44.17315,0 43.4,0 L9.8,0 C4.39635,0 0,4.41597656 0,9.84375 L0,80.15625 C0,85.5840234 4.39635,90 9.8,90 L43.4,90 C48.80365,90 53.2,85.5840234 53.2,80.15625 L53.2,50.6255273 C53.2,49.8489258 52.57315,49.2192773 51.8,49.2192773 Z M43.4,87.1875 L9.8,87.1875 C5.9402,87.1875 2.8,84.0332813 2.8,80.15625 L2.8,78.75 L50.4,78.75 L50.4,80.15625 C50.4,84.0332813 47.2598,87.1875 43.4,87.1875 Z" id="Shape"></path>
                <path d="M29.4,81.5625 L23.8,81.5625 C23.02685,81.5625 22.4,82.1921484 22.4,82.96875 C22.4,83.7453516 23.02685,84.375 23.8,84.375 L29.4,84.375 C30.17315,84.375 30.8,83.7453516 30.8,82.96875 C30.8,82.1921484 30.17315,81.5625 29.4,81.5625 Z" id="Shape"></path>
                <path d="M17.2095,6.03632813 C16.94875,6.29824219 16.8,6.66210938 16.8,7.03125 C16.8,7.40039062 16.94875,7.76425781 17.2095,8.02617187 C17.47025,8.28808594 17.83075,8.4375 18.2,8.4375 C18.56925,8.4375 18.92975,8.28808594 19.1905,8.02617187 C19.45125,7.76425781 19.6,7.40214844 19.6,7.03125 C19.6,6.66035156 19.45125,6.29824219 19.1905,6.03632813 C18.92975,5.77441406 18.56925,5.625 18.2,5.625 C17.83075,5.625 17.47025,5.77441406 17.2095,6.03632813 Z" id="Shape"></path>
                <path d="M30.8,23.90625 L39.2,23.90625 C39.97315,23.90625 40.6,23.2766016 40.6,22.5 C40.6,21.7233984 39.97315,21.09375 39.2,21.09375 L30.8,21.09375 C30.02685,21.09375 29.4,21.7233984 29.4,22.5 C29.4,23.2766016 30.02685,23.90625 30.8,23.90625 Z" id="Shape"></path>
                <path d="M67.2,21.09375 L44.8,21.09375 C44.02685,21.09375 43.4,21.7233984 43.4,22.5 C43.4,23.2766016 44.02685,23.90625 44.8,23.90625 L67.2,23.90625 C67.97315,23.90625 68.6,23.2766016 68.6,22.5 C68.6,21.7233984 67.97315,21.09375 67.2,21.09375 Z" id="Shape"></path>
                <path d="M67.2,28.125 L58.8,28.125 C58.02685,28.125 57.4,28.7546484 57.4,29.53125 C57.4,30.3078516 58.02685,30.9375 58.8,30.9375 L67.2,30.9375 C67.97315,30.9375 68.6,30.3078516 68.6,29.53125 C68.6,28.7546484 67.97315,28.125 67.2,28.125 Z" id="Shape"></path>
                <path d="M30.8,30.9375 L53.2,30.9375 C53.97315,30.9375 54.6,30.3078516 54.6,29.53125 C54.6,28.7546484 53.97315,28.125 53.2,28.125 L30.8,28.125 C30.02685,28.125 29.4,28.7546484 29.4,29.53125 C29.4,30.3078516 30.02685,30.9375 30.8,30.9375 Z" id="Shape"></path>
                <path d="M67.2,14.0625 L30.8,14.0625 C30.02685,14.0625 29.4,14.6921484 29.4,15.46875 C29.4,16.2453516 30.02685,16.875 30.8,16.875 L67.2,16.875 C67.97315,16.875 68.6,16.2453516 68.6,15.46875 C68.6,14.6921484 67.97315,14.0625 67.2,14.0625 Z" id="Shape"></path>
                <path d="M67.2,35.15625 L30.8,35.15625 C30.02685,35.15625 29.4,35.7858984 29.4,36.5625 C29.4,37.3391016 30.02685,37.96875 30.8,37.96875 L67.2,37.96875 C67.97315,37.96875 68.6,37.3391016 68.6,36.5625 C68.6,35.7858984 67.97315,35.15625 67.2,35.15625 Z" id="Shape"></path>
                <path d="M67.2,5.625 L30.8,5.625 C25.39635,5.625 21,10.0409766 21,15.46875 L21,36.5625 C21,41.5130273 24.656975,45.6217383 29.4,46.3060547 L29.4,51.4487109 C29.4,52.5904102 30.078475,53.610293 31.128475,54.0471094 C31.477075,54.1921289 31.8416,54.2626172 32.202975,54.2626172 C32.9301,54.2626172 33.64305,53.9767969 34.17995,53.4375 L41.17995,46.40625 L67.2,46.40625 C72.60365,46.40625 77,41.9902734 77,36.5625 L77,15.46875 C77,10.0409766 72.60365,5.625 67.2,5.625 Z M74.2,36.5625 C74.2,40.4395313 71.0598,43.59375 67.2,43.59375 L40.6,43.59375 C40.22865,43.59375 39.872525,43.7419336 39.610025,44.0056055 L32.2,51.4476563 L32.2,45 C32.2,44.2233984 31.57315,43.59375 30.8,43.59375 C26.9402,43.59375 23.8,40.4395313 23.8,36.5625 L23.8,15.46875 C23.8,11.5917188 26.9402,8.4375 30.8,8.4375 L67.2,8.4375 C71.0598,8.4375 74.2,11.5917188 74.2,15.46875 L74.2,36.5625 Z" id="Shape"></path>
            </g>
        </g>
    </g>
</svg>