<?xml version="1.0" encoding="UTF-8"?>
<svg width="90px" height="94px" viewBox="0 0 90 94" version="1.1" xmlns="http://www.w3.org/2000/svg" xmlns:xlink="http://www.w3.org/1999/xlink">
    <!-- Generator: Sketch 48.2 (47327) - http://www.bohemiancoding.com/sketch -->
    <title>Artboard 5 Copy</title>
    <desc>Created with Sketch.</desc>
    <defs></defs>
    <g id="Case-Studies" stroke="none" stroke-width="1" fill="none" fill-rule="evenodd">
        <g id="Artboard-5-Copy" fill="#72C02C" fill-rule="nonzero">
            <g id="001-settings-copy-2" transform="translate(2.000000, 4.000000)">
                <path d="M57.0543281,28.5987012 C56.5275703,28.1193516 55.7119453,28.157584 55.2329355,28.6845117 C54.7535859,29.2112695 54.7919883,30.0267246 55.3187461,30.5059043 C58.9703672,33.8294062 61.0648242,38.5656387 61.0648242,43.5001699 C61.0648242,53.185377 53.185207,61.0649941 43.5,61.0649941 C33.814793,61.0649941 25.9351758,53.185207 25.9351758,43.5 C25.9351758,33.814793 33.814793,25.9351758 43.5,25.9351758 C45.8717695,25.9351758 48.172002,26.3994023 50.3366367,27.3149414 C50.9921953,27.5922539 51.7491973,27.2855449 52.0265098,26.6296465 C52.3039922,25.973748 51.9971133,25.2170859 51.3413848,24.9397734 C48.857127,23.8891465 46.2189199,23.3562715 43.5001699,23.3562715 C32.3928867,23.3562715 23.3564414,32.3925469 23.3564414,43.4998301 C23.3564414,54.6071133 32.3927168,63.6435586 43.5,63.6435586 C54.6072832,63.6435586 63.6437285,54.6072832 63.6437285,43.5 C63.6437285,37.8409219 61.2420527,32.4095391 57.0543281,28.5987012 Z" id="Shape"></path>
                <path d="M43.7723848,17.6256563 C29.5050645,17.6256563 17.898041,29.2328496 17.898041,43.5 C17.898041,53.9221582 24.1008691,63.2802656 33.7004355,67.3405488 C34.356334,67.6178613 35.1128262,67.3111523 35.3903086,66.6552539 C35.667791,65.9995254 35.3609121,65.2428633 34.7051836,64.9653809 C26.0619375,61.3095117 20.4769453,52.8839355 20.4769453,43.5 C20.4769453,30.6547559 30.9273105,20.2043906 43.7725547,20.2043906 C56.6177988,20.2043906 67.0678242,30.6547559 67.0678242,43.5 C67.0678242,56.3452441 56.617459,66.7956094 43.7722148,66.7956094 C42.7054453,66.7956094 41.6325586,66.7228828 40.5836309,66.5792988 C39.8787949,66.4826133 39.2278242,66.9764062 39.1313086,67.6820918 C39.034793,68.3876074 39.5285859,69.0378984 40.2341016,69.1344141 C41.3985762,69.2938008 42.5890488,69.3745137 43.7722148,69.3745137 C58.0395352,69.3745137 69.6465586,57.7673203 69.6465586,43.5001699 C69.6465586,29.2330195 58.0395352,17.6256563 43.7723848,17.6256563 Z" id="Shape"></path>
                <path d="M83.9750508,37.2788203 C83.9748809,37.2788203 83.9748809,37.2788203 83.9750508,37.2788203 L78.8580234,36.8156133 C78.5445176,35.1488496 78.1120664,33.5023066 77.5667871,31.8996035 L81.7890059,28.9783066 C83.2131211,27.9930996 83.6437031,26.1135937 82.7908652,24.6065566 L79.9241133,19.5415254 C79.0709355,18.0343184 77.2381582,17.4360234 75.6604336,18.1498652 L70.9736484,20.2694707 C69.9519082,19.0625156 68.8491152,17.9201309 67.6802227,16.8581191 L69.963123,12.2488184 C70.7315098,10.6972617 70.1979551,8.84443359 68.7218438,7.93908984 L63.7604648,4.89646875 C62.2843535,3.99129492 60.3909141,4.35594727 59.3564297,5.74420898 L56.2881504,9.86175586 C54.3105996,9.10968164 52.2649102,8.53330664 50.1845566,8.14197656 L49.7213496,3.02511914 C49.5653613,1.30058203 48.1417559,0 46.410082,0 L40.589918,0 C38.8582441,0 37.4346387,1.30058203 37.2786504,3.02494922 L36.8154434,8.14197656 C35.1488496,8.45548242 33.5024766,8.88793359 31.8996035,9.43321289 L28.9781367,5.21099414 C27.9925898,3.78704883 26.1134238,3.3564668 24.6065566,4.20947461 L19.5413555,7.07622656 C18.0343184,7.92923438 17.4361934,9.76218164 18.1496953,11.3397363 L20.2694707,16.0265215 C19.0623457,17.0484316 17.9199609,18.1512246 16.8582891,19.3199473 L12.2489883,17.0370469 C10.6972617,16.2688301 8.84443359,16.8022148 7.93908984,18.2783262 L4.89646875,23.2397051 C3.99095508,24.7159863 4.3554375,26.6092559 5.74420898,27.6437402 L9.86175586,30.7118496 C9.10951172,32.6897402 8.53330664,34.7350898 8.14180664,36.8156133 L3.02494922,37.2788203 C1.30058203,37.4348086 0,38.858584 0,40.589918 L0,46.4099121 C0,48.141416 1.30058203,49.5650215 3.02511914,49.7211797 L8.14180664,50.1843867 C8.45548242,51.8509805 8.88810352,53.4976934 9.43321289,55.1003965 L5.21099414,58.0216934 C3.78687891,59.0069004 3.35629688,60.8864063 4.20913477,62.3934434 L7.07588672,67.4584746 C7.92872461,68.9653418 9.76150195,69.5638066 11.3395664,68.8501348 L16.0263516,66.7303594 C17.0480918,67.9374844 18.1510547,69.0798691 19.3197773,70.1417109 L17.036877,74.7510117 C16.2684902,76.3025684 16.8020449,78.1553965 18.2781563,79.0607402 L23.2395352,82.1031914 C24.7159863,83.0087051 26.6090859,82.6442227 27.6435703,81.2556211 L30.7118496,77.1380742 C32.6894004,77.8901484 34.7350898,78.4665234 36.8154434,78.8578535 L37.2786504,83.9747109 C37.4346387,85.699248 38.8582441,86.9998301 40.589918,86.9998301 L46.410082,86.9998301 C48.1417559,86.9998301 49.5653613,85.699248 49.7213496,83.9748809 L50.1845566,78.8580234 C51.8513203,78.5445176 53.4975234,78.1120664 55.1003965,77.5667871 L58.0218633,81.7890059 C59.0072402,83.2129512 60.8867461,83.6433633 62.3934434,82.7905254 L67.4586445,79.9237734 C68.9656816,79.0707656 69.5638066,77.2378184 68.8503047,75.6600938 L66.7305293,70.9734785 C67.9374844,69.9517383 69.0800391,68.8487754 70.1417109,67.6800527 L74.7510117,69.9629531 C76.3025684,70.731 78.1553965,70.1977852 79.0609102,68.7216738 L82.1035312,63.7602949 C83.008875,62.2840137 82.6445625,60.3907441 81.255791,59.3560898 L77.1382441,56.2879805 C77.8904883,54.3099199 78.4666934,52.2645703 78.8580234,50.1842168 L83.9750508,49.7210098 C85.699418,49.5650215 87,48.141416 87,46.4097422 L87,40.589748 C87,38.858584 85.699418,37.4348086 83.9750508,37.2788203 Z M84.4214355,46.410082 L84.4210957,46.410082 C84.4210957,46.7985234 84.1293398,47.1179766 83.7424277,47.1529805 L77.6405332,47.7052266 C77.0526035,47.7584121 76.5759727,48.2039473 76.4831953,48.7869492 C76.077082,51.3418945 75.3705469,53.8494316 74.3834707,56.2395527 C74.1583242,56.784832 74.3319844,57.4132031 74.804877,57.7656211 L79.7149395,61.4240391 C80.0264063,61.6561523 80.1081387,62.080957 79.9049121,62.4121348 L76.862291,67.3735137 C76.6590645,67.7048613 76.2434355,67.8244863 75.8954355,67.6520156 L70.4015215,64.9308867 C69.8734043,64.669207 69.2348379,64.7991973 68.8508145,65.2464316 C67.492459,66.8285742 65.9757363,68.292791 64.3432969,69.5983008 C63.8831484,69.9663516 63.7310684,70.5996504 63.9737168,71.1367734 L66.5004551,76.723125 C66.6605215,77.0770723 66.5262832,77.4882832 66.1881387,77.6794453 L61.1229375,80.5461973 C60.784793,80.7375293 60.3632168,80.6408437 60.1423184,80.3213906 L56.6589199,75.2867754 C56.3233242,74.8018184 55.70175,74.6058984 55.1486543,74.8120137 C53.0956582,75.5761523 50.9551523,76.1382539 48.7866094,76.4830254 C48.2036074,76.5758027 47.7580723,77.0524336 47.7048867,77.6401934 L47.1524707,83.7420879 C47.1174668,84.129 46.7981836,84.4207559 46.4097422,84.4207559 L40.5895781,84.4207559 C40.2011367,84.4207559 39.8816836,84.129 39.8468496,83.7420879 L39.2944336,77.6401934 C39.241248,77.0524336 38.795543,76.5758027 38.2127109,76.4830254 C35.6574258,76.0765723 33.1498887,75.370207 30.7602773,74.3833008 C30.6003809,74.3173711 30.4335176,74.2855957 30.2685234,74.2855957 C29.8702266,74.2855957 29.4833145,74.4703008 29.234209,74.804707 L25.5754512,79.7147695 C25.3433379,80.0262363 24.9185332,80.1079687 24.5875254,79.9047422 L19.6261465,76.862291 C19.2951387,76.6590645 19.1753437,76.2434355 19.3476445,75.8952656 L22.0687734,70.4011816 C22.3302832,69.8730645 22.2006328,69.234498 21.7532285,68.8506445 C20.1710859,67.4922891 18.7070391,65.9757363 17.4013594,64.343127 C17.0331387,63.8828086 16.3998398,63.7305586 15.8628867,63.9735469 L10.2763652,66.5002852 C9.92275781,66.6600117 9.51103711,66.5259434 9.32004492,66.1879687 L6.45363281,61.1232773 C6.26230078,60.7851328 6.35898633,60.3635566 6.67843945,60.1424883 L11.7128848,56.6589199 C12.1978418,56.3233242 12.3934219,55.7015801 12.1876465,55.1488242 C11.4236777,53.096168 10.8614062,50.955832 10.5164648,48.7867793 C10.4236875,48.2037773 9.94688672,47.7584121 9.35912695,47.7052266 L3.25757227,47.1529805 C2.87066016,47.1178066 2.57873437,46.7985234 2.57873437,46.410082 L2.57873437,40.5900879 C2.57873437,40.2016465 2.87049023,39.8821934 3.25740234,39.8471895 L9.35912695,39.2949434 C9.94705664,39.2417578 10.4235176,38.7962227 10.5164648,38.2133906 C10.922748,35.6581055 11.6292832,33.1507383 12.6163594,30.7606172 C12.8415059,30.2153379 12.6678457,29.5869668 12.1949531,29.2345488 L7.28489062,25.5759609 C6.97342383,25.3438477 6.89169141,24.9192129 7.09491797,24.5880352 L10.1375391,19.6266563 C10.3407656,19.2954785 10.7567344,19.1760234 11.1043945,19.3481543 L16.5984785,22.0691133 C17.1260859,22.330793 17.7648223,22.2008027 18.1490156,21.7535684 C19.5073711,20.1714258 21.0239238,18.7073789 22.6565332,17.4016992 C23.1166816,17.0336484 23.2687617,16.4003496 23.0261133,15.8632266 L20.499375,10.276875 C20.3393086,9.92292773 20.4735469,9.51188672 20.8116914,9.32055469 L25.8768926,6.45380273 C26.2148672,6.2624707 26.6366133,6.35932617 26.8575117,6.67860938 L30.3409102,11.7132246 C30.6765059,12.1981816 31.2979102,12.3939316 31.8511758,12.1879863 C33.9041719,11.4238477 36.0446777,10.8617461 38.2132207,10.5169746 C38.7962227,10.4241973 39.2417578,9.94756641 39.2949434,9.35980664 L39.8473594,3.25774219 C39.8823633,2.871 40.2016465,2.57924414 40.5900879,2.57924414 L46.410252,2.57924414 C46.7986934,2.57924414 47.1181465,2.871 47.1529805,3.25791211 L47.7053965,9.35980664 C47.758582,9.94756641 48.2042871,10.4241973 48.7871191,10.5169746 C51.3424043,10.9232578 53.8499414,11.629623 56.2395527,12.6166992 C56.784832,12.8416758 57.4132031,12.6681855 57.7656211,12.195293 L61.4243789,7.28523047 C61.6563223,6.97376367 62.080957,6.89152148 62.4123047,7.09508789 L67.3736836,10.137709 C67.7046914,10.3409355 67.8244863,10.7565645 67.6521855,11.1047344 L64.9310566,16.5986484 C64.6695469,17.1267656 64.7991973,17.7651621 65.2466016,18.1491855 C66.8287441,19.5078809 68.2929609,21.0244336 69.5984707,22.656873 C69.9665215,23.1171914 70.5998203,23.2691016 71.1369434,23.0264531 L76.7234648,20.4998848 C77.0769023,20.3398184 77.488623,20.4738867 77.6797852,20.8122012 L80.5465371,25.8772324 C80.7378691,26.215377 80.6411836,26.6369531 80.3217305,26.8580215 L75.2872852,30.3414199 C74.8023281,30.6770156 74.606748,31.2987598 74.8125234,31.8515156 C75.5766621,33.9043418 76.1389336,36.0446777 76.4835352,38.2135605 C76.5761426,38.7965625 77.0529434,39.2420977 77.640873,39.2952832 L83.7425977,39.8475293 C84.1295098,39.8825332 84.4214355,40.2019863 84.4214355,40.5904277 L84.4214355,46.410082 Z" id="Shape"></path>
                <path d="M37.666752,48.802582 L32.9379961,44.0738262 L37.4519707,39.5600215 C37.9554492,39.056373 37.9554492,38.2400684 37.4519707,37.7364199 C36.9484922,37.2329414 36.1321875,37.2327715 35.6283691,37.7364199 L30.2027637,43.1620254 C29.9609648,43.4038242 29.8251973,43.7317734 29.8251973,44.0738262 C29.8251973,44.4158789 29.9609648,44.7438281 30.2027637,44.985627 L35.8431504,50.6260137 C36.0949746,50.8778379 36.4249629,51.00375 36.7549512,51.00375 C37.0849395,51.00375 37.4149277,50.8778379 37.666752,50.6260137 C38.1702305,50.1223652 38.1702305,49.3058906 37.666752,48.802582 Z" id="Shape"></path>
                <path d="M56.7972363,43.5380625 L51.1568496,37.8975059 C50.6533711,37.3938574 49.8370664,37.3938574 49.333248,37.8975059 C48.8297695,38.4009844 48.8297695,39.217459 49.333248,39.7209375 L54.0620039,44.4496934 L49.5480293,48.963498 C49.0445508,49.4671465 49.0445508,50.2836211 49.5480293,50.7870996 C49.7998535,51.0389238 50.1298418,51.1648359 50.4598301,51.1648359 C50.7898184,51.1648359 51.1198066,51.0389238 51.3716309,50.7870996 L56.7972363,45.3614941 C57.3007148,44.8578457 57.3007148,44.0413711 56.7972363,43.5380625 Z" id="Shape"></path>
                <path d="M46.9099922,33.7109707 C46.2325137,33.4916016 45.505248,33.8633906 45.2862188,34.5408691 L39.2016563,53.3496914 C38.982457,54.0273398 39.3540762,54.7542656 40.0315547,54.9734648 C40.163584,55.0161152 40.2971426,55.0365059 40.428832,55.0365059 C40.972752,55.0365059 41.4787793,54.6891855 41.6553281,54.1435664 L47.7398906,35.3347441 C47.9590898,34.6570957 47.5874707,33.9301699 46.9099922,33.7109707 Z" id="Shape"></path>
            </g>
        </g>
    </g>
</svg>