<?xml version="1.0" encoding="utf-8"?>
<!-- Generator: Adobe Illustrator 20.1.0, SVG Export Plug-In . SVG Version: 6.00 Build 0)  -->
<svg version="1.1" id="Layer_1" xmlns="http://www.w3.org/2000/svg" xmlns:xlink="http://www.w3.org/1999/xlink" x="0px" y="0px"
	 viewBox="0 0 105 131" style="enable-background:new 0 0 105 131;" xml:space="preserve">
<style type="text/css">
	.st0{fill:#FFFFFF;}
</style>
<title>Page 1</title>
<desc>Created with Sketch.</desc>
<g>
	<path class="st0" d="M52.6,18.8c-9.5,0-17.2,7.7-17.2,17.2s7.7,17.2,17.2,17.2s17.2-7.7,17.2-17.2S62,18.8,52.6,18.8L52.6,18.8z
		 M52.6,46.9c-6.1,0-11-4.9-11-11c0-6.1,4.9-11,11-11c6.1,0,11,4.9,11,11S58.6,46.9,52.6,46.9L52.6,46.9z M52.6,46.9"/>
	<path class="st0" d="M81,54.2l2.2-0.6l-2.7-10.2l7.5-7.4l-7.4-7.5l2.8-10.2L73,15.6L70.3,5.4L60.1,8.1l-7.4-7.5L45.2,8L35,5.3
		l-2.8,10.2L22,18.2l2.7,10.2l-7.5,7.4l7.4,7.5l-2.8,10.2l1.7,0.4L11.4,84.2l18.2-1L44.1,97l8.1-20.2L60.3,97l14.5-13.8l18.2,1
		L81,54.2z M41.8,86.2L32,76.9l-11.2,0.6l8.8-21.9l2.5,0.7l2.7,10.2L45,63.8l4.1,4.1L41.8,86.2z M46.9,56.9l-7.7,2l-2-7.7l-7.7-2.1
		l2.1-7.7L26,35.9l5.6-5.6l-2-7.7l7.7-2l2.1-7.7l7.7,2.1l5.6-5.6l5.6,5.6l7.7-2l2,7.7l7.7,2.1l-2.1,7.7l5.6,5.6l-5.6,5.6l2,7.7
		l-7.7,2L65.8,59l-7.7-2.1l-5.6,5.6L46.9,56.9z M72.5,76.9l-9.8,9.3l-7.2-18l4.5-4.5l10.2,2.8l2.8-10.2l2-0.5l8.7,21.7L72.5,76.9z
		 M72.5,76.9"/>
</g>
</svg>
