<?xml version="1.0" encoding="UTF-8"?>
<svg width="32px" height="32px" viewBox="0 0 32 32" version="1.1" xmlns="http://www.w3.org/2000/svg" xmlns:xlink="http://www.w3.org/1999/xlink">
    <!-- Generator: Sketch 45 (43475) - http://www.bohemiancoding.com/sketch -->
    <title>sharelinkedin</title>
    <desc>Created with Sketch.</desc>
    <defs></defs>
    <g id="Page-1" stroke="none" stroke-width="1" fill="none" fill-rule="evenodd">
        <g id="Blog-Article" transform="translate(-108.000000, -879.000000)" fill-rule="nonzero" fill="#72C02C">
            <g id="FOLLOW-US" transform="translate(98.000000, 754.000000)">
                <g id="Icons" transform="translate(10.000000, 36.000000)">
                    <g id="linkedin" transform="translate(0.000000, 89.000000)">
                        <path d="M15.9823238,0 C7.1696254,0 0,7.1696254 0,15.9823238 C0,24.7950222 7.1696254,31.9646476 15.9823238,31.9646476 C24.7950222,31.9646476 31.9646476,24.7950222 31.9646476,15.9823238 C31.9646476,7.1696254 24.7950222,0 15.9823238,0 Z M15.9823238,30.1360762 C8.17787937,30.1360762 1.82857143,23.7866667 1.82857143,15.9823238 C1.82857143,8.17798095 8.17787937,1.82857143 15.9823238,1.82857143 C23.7867683,1.82857143 30.1360762,8.17798095 30.1360762,15.9823238 C30.1360762,23.7866667 23.7867683,30.1360762 15.9823238,30.1360762 Z" id="Shape"></path>
                        <path d="M11.4108952,12.3041524 C10.9059048,12.3041524 10.4966095,12.7134476 10.4966095,13.2184381 L10.4966095,20.7779556 C10.4966095,21.282946 10.9059048,21.6922413 11.4108952,21.6922413 C11.9158857,21.6922413 12.325181,21.282946 12.325181,20.7779556 L12.325181,13.2184381 C12.325181,12.7134476 11.9158857,12.3041524 11.4108952,12.3041524 Z" id="Shape"></path>
                        <path d="M11.4108952,8.03718095 C11.1701333,8.03718095 10.9344508,8.13470476 10.7648,8.30537143 C10.5941333,8.47502222 10.4966095,8.71070476 10.4966095,8.95146667 C10.4966095,9.19222857 10.5941333,9.42780952 10.7648,9.59857778 C10.9344508,9.76822857 11.1701333,9.86575238 11.4108952,9.86575238 C11.6516571,9.86575238 11.8873397,9.76822857 12.0569905,9.59857778 C12.2276571,9.42780952 12.325181,9.19222857 12.325181,8.95146667 C12.325181,8.71070476 12.2276571,8.47502222 12.0569905,8.30537143 C11.8873397,8.13470476 11.6516571,8.03718095 11.4108952,8.03718095 Z" id="Shape"></path>
                        <path d="M19.3093079,13.0152635 C18.3523556,13.0152635 17.4666159,13.3236825 16.7442286,13.8451302 L16.7442286,13.2184381 C16.7442286,12.7134476 16.3349333,12.3041524 15.8299429,12.3041524 C15.3249524,12.3041524 14.9156571,12.7134476 14.9156571,13.2184381 L14.9156571,20.7779556 C14.9156571,21.282946 15.3249524,21.6922413 15.8299429,21.6922413 C16.3349333,21.6922413 16.7442286,21.282946 16.7442286,20.7779556 L16.7442286,17.4089143 C16.7442286,15.9945143 17.8949079,14.8438349 19.3093079,14.8438349 C20.7237079,14.8438349 21.8743873,15.9945143 21.8743873,17.4089143 L21.8743873,20.9811302 C21.8743873,21.4861206 22.2836825,21.8954159 22.788673,21.8954159 C23.2936635,21.8954159 23.7029587,21.4861206 23.7029587,20.9811302 L23.7029587,17.4089143 C23.7029587,14.9862603 21.7319619,13.0152635 19.3093079,13.0152635 Z" id="Shape"></path>
                    </g>
                </g>
            </g>
        </g>
    </g>
</svg>