<?xml version="1.0" encoding="UTF-8"?>
<svg width="1129px" height="480px" viewBox="0 0 1129 480" version="1.1" xmlns="http://www.w3.org/2000/svg" xmlns:xlink="http://www.w3.org/1999/xlink">
    <!-- Generator: Sketch 45 (43475) - http://www.bohemiancoding.com/sketch -->
    <title>stripes-deco</title>
    <desc>Created with Sketch.</desc>
    <defs>
        <linearGradient x1="50%" y1="21.0688277%" x2="12.5695238%" y2="95.44979%" id="linearGradient-1">
            <stop stop-color="#FFFFFF" stop-opacity="0" offset="0%"></stop>
            <stop stop-color="#FFFFFF" stop-opacity="0.2" offset="100%"></stop>
        </linearGradient>
        <linearGradient x1="50%" y1="0%" x2="30.0633799%" y2="98.0906046%" id="linearGradient-2">
            <stop stop-color="#FFFFFF" stop-opacity="0.1" offset="0%"></stop>
            <stop stop-color="#FFFFFF" stop-opacity="0" offset="100%"></stop>
        </linearGradient>
        <linearGradient x1="85.8103291%" y1="-4.59853208%" x2="29.7708181%" y2="100%" id="linearGradient-3">
            <stop stop-color="#FEFFFF" stop-opacity="0.4" offset="0%"></stop>
            <stop stop-color="#FFFFFF" stop-opacity="0.1" offset="62.5097703%"></stop>
            <stop stop-color="#FFFFFF" stop-opacity="0.1" offset="100%"></stop>
        </linearGradient>
    </defs>
    <g id="Page-1" stroke="none" stroke-width="1" fill="none" fill-rule="evenodd">
        <g id="Blog" transform="translate(-124.000000, 0.000000)">
            <g id="stripes-deco" transform="translate(121.000000, 0.000000)">
                <g id="lines" transform="translate(724.000000, -100.000000)">
                    <polygon id="Fill-1" fill="url(#linearGradient-1)" points="227.688733 0.0389540084 13.9087328 467.448183 205.591176 467.448183 208.547925 460.998756 419.875603 0.0389540084"></polygon>
                    <polygon id="Fill-2" fill="url(#linearGradient-2)" points="311.783083 292.85469 407.876518 292.85469 300.734838 526.55877 204.893617 526.55877"></polygon>
                    <polygon id="Fill-2-Copy" fill-opacity="0.5" fill="url(#linearGradient-3)" points="360.307147 182.593672 399.287644 182.593672 355.825404 277.396206 316.947218 277.396206"></polygon>
                    <polygon id="Fill-3" fill-opacity="0.01" fill="#FFFFFF" points="106.890321 485.239566 -0.000213740458 718.943647 95.8420763 718.943647 202.982687 485.239566"></polygon>
                </g>
                <g id="lines-copy" transform="translate(128.500000, 457.000000) rotate(-180.000000) translate(-128.500000, -457.000000) translate(-15.000000, 211.000000)">
                    <polygon id="Fill-1" fill="url(#linearGradient-1)" points="155.587301 0.026655594 9.50430076 319.867185 140.487303 319.867185 142.507748 315.453947 286.914995 0.026655594"></polygon>
                    <polygon id="Fill-2" fill="url(#linearGradient-2)" points="213.051773 200.395699 278.71562 200.395699 205.50214 360.315598 140.010638 360.315598"></polygon>
                    <polygon id="Fill-3" fill-opacity="0.01" fill="#FFFFFF" points="73.0417191 332.041539 -0.00014605598 491.961438 65.4920855 491.961438 138.704836 332.041539"></polygon>
                </g>
            </g>
        </g>
    </g>
</svg>