<?xml version="1.0" encoding="utf-8"?>
<!-- Generator: Adobe Illustrator 20.1.0, SVG Export Plug-In . SVG Version: 6.00 Build 0)  -->
<svg version="1.1" id="Layer_1" xmlns="http://www.w3.org/2000/svg" xmlns:xlink="http://www.w3.org/1999/xlink" x="0px" y="0px"
	 viewBox="0 0 854 853" style="enable-background:new 0 0 854 853;" xml:space="preserve">
<style type="text/css">
	.st0{fill:#FFFFFF;}
	.st1{fill:none;stroke:#CCCCCC;stroke-width:2.5496;stroke-linecap:round;stroke-linejoin:round;}
	.st2{fill:#CCCCCC;}
	.st3{enable-background:new    ;}
	.st4{fill:none;stroke:#666666;stroke-width:2.5496;}
	.st5{fill:#74BE44;}
	.st6{fill:none;stroke:#666666;stroke-width:2.5496;stroke-linejoin:round;}
	.st7{fill:none;stroke:#666666;stroke-width:2.5496;stroke-dasharray:2.5757,2.5757;}
	.st8{fill:none;stroke:#74BE44;stroke-width:2.5496;}
	.st9{fill:#666666;}
	.st10{fill:#999999;}
	.st11{fill:none;stroke:#666666;stroke-width:2.5496;stroke-dasharray:2.5496,2.5496;}
</style>
<g>
	<polygon id="path-9" class="st0" points="-4,852.7 895.7,852.7 895.7,10.5 -4,10.5 	"/>
</g>
<g>
	<polygon id="path-7" class="st0" points="-4,852.7 895.7,852.7 895.7,10.5 -4,10.5 	"/>
</g>
<g>
	<polygon id="path-5" class="st0" points="-4,852.7 895.7,852.7 895.7,10.5 -4,10.5 	"/>
</g>
<g>
	<polygon id="path-3" class="st0" points="-4,852.7 895.7,852.7 895.7,10.5 -4,10.5 	"/>
</g>
<g>
	<polygon id="path-1" class="st0" points="-4,852.7 895.7,852.7 895.7,10.5 -4,10.5 	"/>
</g>
<title>teamStructure</title>
<desc>Created with Sketch.</desc>
<g id="Page-1">
	<g id="teamStructure" transform="translate(-4.000000, -6.000000)">
		<polyline id="Stroke-1" class="st1" points="6.2,38.8 71.2,38.8 71.2,69.4 		"/>
		<polyline id="Stroke-2" class="st1" points="489.7,38.8 316.6,38.8 316.6,68.1 		"/>
		<polygon id="Fill-3" class="st2" points="72.5,574.8 75,574.8 75,519.1 72.5,519.1 		"/>
		<polygon id="Fill-4" class="st2" points="72.5,479.6 75,479.6 75,371.8 72.5,371.8 		"/>
		<polygon id="Fill-5" class="st2" points="72.5,775.3 75,775.3 75,714.9 72.5,714.9 		"/>
		<polygon id="Fill-6" class="st2" points="72.5,673.1 75,673.1 75,619 72.5,619 		"/>
		<g id="Group-19" transform="translate(0.000000, 16.000000)">
			<path id="Fill-7" class="st2" d="M73.5,840.2H9.1c-0.7,0-1.3,0.6-1.3,1.3s0.6,1.3,1.3,1.3h65.7c0.7,0,1.3-0.6,1.3-1.3v-25.1h-2.5
				L73.5,840.2L73.5,840.2z"/>
			<path id="Fill-9" class="st2" d="M77,268.1c0-0.7-0.6-1.3-1.3-1.3s-1.3,0.6-1.3,1.3v47.5h2.5v-47.5H77z"/>
			<path id="Fill-11" class="st2" d="M301.8,264.1c0-0.7-0.6-1.3-1.3-1.3c-0.7,0-1.3,0.6-1.3,1.3v47.5h2.5L301.8,264.1L301.8,264.1z
				"/>
			<g id="Fill-13-Clipped">
				<g id="path-1_1_">
				</g>
				<polygon id="Fill-13" class="st2" points="299.2,458.9 301.8,458.9 301.8,351.1 299.2,351.1 				"/>
			</g>
			<g id="Fill-15-Clipped">
				<g id="path-1_2_">
				</g>
				<polygon id="Fill-15" class="st2" points="299.2,561.1 301.8,561.1 301.8,505.3 299.2,505.3 				"/>
			</g>
			<g id="Fill-16-Clipped">
				<g id="path-1_3_">
				</g>
				<path id="Fill-16" class="st2" d="M473.6,840.2H301.8v-23.8h-2.5v25.1c0,0.7,0.6,1.3,1.3,1.3h173.1c0.7,0,1.3-0.6,1.3-1.3
					C474.9,840.7,474.3,840.2,473.6,840.2"/>
			</g>
			<g id="Fill-17-Clipped">
				<g id="path-1_4_">
				</g>
				<polygon id="Fill-17" class="st2" points="299.2,761.6 301.8,761.6 301.8,701.1 299.2,701.1 				"/>
			</g>
			<g id="Fill-18-Clipped">
				<g id="path-1_5_">
				</g>
				<polygon id="Fill-18" class="st2" points="299.2,657.4 301.8,657.4 301.8,603.3 299.2,603.3 				"/>
			</g>
		</g>
		<g id="ACKLEN-SIDE" transform="translate(315.000000, 0.000000)">
			<g class="st3">
				<path class="st2" d="M9.9,16H4.4l-0.9,2.3H0.1L5.6,5.5H9l5.4,12.8h-3.6L9.9,16z M9,13.5L7.2,8.9l-1.8,4.6H9z"/>
				<path class="st2" d="M21.3,8.2c-2,0-3.5,1.6-3.5,3.6c0,2.1,1.5,3.6,3.5,3.6c1.1,0,2.3-0.6,3.2-1.5l2,2.1
					c-1.4,1.4-3.4,2.4-5.3,2.4c-3.9,0-6.7-2.8-6.7-6.6c0-3.7,2.9-6.5,6.8-6.5c1.9,0,3.9,0.8,5.2,2.2l-1.9,2.3
					C23.6,8.9,22.4,8.2,21.3,8.2z"/>
				<path class="st2" d="M36.1,18.3l-3.3-4.9l-1.6,1.8v3.1h-3.3V5.5h3.3v5.4L36,5.5h3.9l-4.7,5.3l5,7.5H36.1z"/>
				<path class="st2" d="M44.8,5.5v9.9h5.4v2.8h-8.8V5.5H44.8z"/>
				<path class="st2" d="M61.9,5.5v2.7h-6.8v2.4h6.1v2.7h-6.1v2.4H62v2.7H51.8V5.5H61.9z"/>
				<path class="st2" d="M67,5.5l5.8,7.7V5.5h3.1v12.8H73l-5.8-7.7v7.7h-3.1V5.5H67z"/>
				<path class="st2" d="M87.3,8C86.5,8,86,8.3,86,8.9c0,2.1,6.7,0.9,6.7,5.5c0,2.6-2.3,3.9-5.1,3.9c-2.1,0-4.4-0.8-5.9-2l1.3-2.6
					c1.3,1.1,3.3,1.9,4.6,1.9c1,0,1.6-0.4,1.6-1c0-2.2-6.7-0.9-6.7-5.4c0-2.4,2-3.9,5.1-3.9c1.9,0,3.8,0.6,5.1,1.4l-1.3,2.6
					C90.1,8.7,88.4,8,87.3,8z"/>
				<path class="st2" d="M97.8,5.5v12.8h-3.3V5.5H97.8z"/>
				<path class="st2" d="M112.6,11.9c0,3.8-2.8,6.4-6.9,6.4h-5.4V5.5h5.5C109.8,5.5,112.6,8.1,112.6,11.9z M109.2,11.9
					c0-2.2-1.4-3.7-3.5-3.7h-2.1v7.4h2.3C107.8,15.6,109.2,14.1,109.2,11.9z"/>
				<path class="st2" d="M124.3,5.5v2.7h-6.8v2.4h6.1v2.7h-6.1v2.4h6.9v2.7h-10.3V5.5H124.3z"/>
			</g>
		</g>
		<g id="ACKLEN-SIDE_1_" transform="translate(315.000000, 0.000000)">
			<g class="st3">
				<path class="st2" d="M-303.7,8.2c-2,0-3.5,1.6-3.5,3.6c0,2.1,1.5,3.6,3.5,3.6c1.1,0,2.3-0.6,3.2-1.5l2,2.1
					c-1.4,1.4-3.4,2.4-5.3,2.4c-3.9,0-6.7-2.8-6.7-6.6c0-3.7,2.9-6.5,6.8-6.5c1.9,0,3.9,0.8,5.2,2.2l-1.9,2.3
					C-301.3,8.9-302.6,8.2-303.7,8.2z"/>
				<path class="st2" d="M-293.8,5.5v9.9h5.4v2.8h-8.8V5.5H-293.8z"/>
				<path class="st2" d="M-283.5,5.5v12.8h-3.3V5.5H-283.5z"/>
				<path class="st2" d="M-270.9,5.5v2.7h-6.8v2.4h6.1v2.7h-6.1v2.4h6.9v2.7H-281V5.5H-270.9z"/>
				<path class="st2" d="M-265.8,5.5l5.8,7.7V5.5h3.1v12.8h-2.9l-5.8-7.7v7.7h-3.1V5.5H-265.8z"/>
				<path class="st2" d="M-244.5,5.5v2.8h-3.8v10h-3.3v-10h-3.8V5.5H-244.5z"/>
				<path class="st2" d="M-234.3,8c-0.8,0-1.3,0.3-1.3,0.9c0,2.1,6.7,0.9,6.7,5.5c0,2.6-2.3,3.9-5.1,3.9c-2.1,0-4.4-0.8-5.9-2
					l1.3-2.6c1.3,1.1,3.3,1.9,4.6,1.9c1,0,1.6-0.4,1.6-1c0-2.2-6.7-0.9-6.7-5.4c0-2.4,2-3.9,5.1-3.9c1.9,0,3.8,0.6,5.1,1.4l-1.3,2.6
					C-231.5,8.7-233.2,8-234.3,8z"/>
				<path class="st2" d="M-223.8,5.5v12.8h-3.3V5.5H-223.8z"/>
				<path class="st2" d="M-209,11.9c0,3.8-2.8,6.4-6.9,6.4h-5.4V5.5h5.5C-211.8,5.5-209,8.1-209,11.9z M-212.4,11.9
					c0-2.2-1.4-3.7-3.5-3.7h-2.1v7.4h2.3C-213.8,15.6-212.4,14.1-212.4,11.9z"/>
				<path class="st2" d="M-197.2,5.5v2.7h-6.8v2.4h6.1v2.7h-6.1v2.4h6.9v2.7h-10.3V5.5H-197.2z"/>
			</g>
		</g>
		<g id="Group-76" transform="translate(34.487252, 90.621631)">
			<path id="Stroke-20" class="st4" d="M39.9,61h12.9c5.2,0,9.4,3.7,9.4,8.3v19.1"/>
			<path id="Stroke-22" class="st4" d="M22.8,61h-13c-5.2,0-9.4,3.7-9.4,8.3v19.1"/>
			<path id="Stroke-24" class="st4" d="M24.1,62.6V55"/>
			<path id="Stroke-26" class="st4" d="M39.9,55.1v7.6"/>
			<polygon id="Stroke-28" class="st4" points="22.7,73.5 32,67.4 23.5,62.5 			"/>
			<polygon id="Stroke-30" class="st4" points="41.3,73.5 32,67.4 40.5,62.5 			"/>
			<path id="Stroke-32" class="st4" d="M51,27.6h0.3c2,0,3.7,1.6,3.7,3.7V38c0,2-1.6,3.7-3.7,3.7H51"/>
			<path id="Stroke-34" class="st4" d="M50.7,23.8v14.8c0,10.2-8.3,18.5-18.5,18.5s-18.5-8.3-18.5-18.5V23.8"/>
			<path id="Stroke-36" class="st4" d="M25.6,4.2c-3,0-5.6,1.5-7.2,3.9h-2.9c-3.7,0-6.6,3-6.6,6.6v31.9h4.7V24.5
				c0-2.6,2.1-4.7,4.7-4.7H21h23h4.3c4.7,0,8.6-3.8,8.6-8.6v-7C56.9,4.2,25.6,4.2,25.6,4.2z"/>
			<path id="Stroke-38" class="st4" d="M13.7,27.6c-1.8,0.2-4.8,1.7-4.8,3.6V38c0,1.9,3,3.4,4.8,3.6V27.6z"/>
			<path id="Stroke-40" class="st4" d="M28.3,45.6c0.9,1.5,2.3,2.6,4,2.6c1.6,0,3.1-1,4-2.6"/>
			<path id="Stroke-42" class="st4" d="M14.1,27.7v3c0,4.2,3.4,7.7,7.7,7.7c4.2,0,7.7-3.4,7.7-7.7v-3H14.1z"/>
			<path id="Stroke-44" class="st4" d="M35.4,27.7v3c0,4.2,3.4,7.7,7.7,7.7c4.2,0,7.7-3.4,7.7-7.7v-3H35.4z"/>
			<path id="Stroke-46" class="st4" d="M25,31.8h-3.4"/>
			<path id="Stroke-48" class="st4" d="M43.7,31.8h-3.4"/>
			<path id="Stroke-50" class="st4" d="M29.4,27.7h7"/>
			<path id="Stroke-52" class="st4" d="M303.5,28.5v28.4c0,4.2-1.6,8-4.3,10.8"/>
			<path id="Stroke-54" class="st4" d="M269.3,67c-2.3-2.7-3.7-6.2-3.7-10.1V28.5"/>
			<path id="Stroke-56" class="st4" d="M275.9,65.8c-10.8,2.2-19.6,8.7-24.1,17.3"/>
			<path id="Stroke-58" class="st4" d="M316.4,83.1c-4.5-8.6-13.3-15.1-24-17.3"/>
			<path id="Stroke-60" class="st4" d="M302.5,35c3.7,0,6.7,3,6.7,6.7s-3,6.7-6.7,6.7"/>
			<path id="Stroke-62" class="st4" d="M266.7,48.4c-3.7,0-6.7-3-6.7-6.7s3-6.7,6.7-6.7"/>
			<path id="Stroke-64" class="st4" d="M291.1,59.4v6.8c0,3.9-3.1,7-7,7s-7-3.1-7-7v-6.8"/>
			<path id="Stroke-66" class="st4" d="M303.5,44.6c0,8.6-7,15.6-15.6,15.6h-6.6c-8.6,0-15.6-7-15.6-15.6V16.1
				c0-8.6,7-15.6,15.6-15.6h6.6c8.6,0,15.6,7,15.6,15.6V44.6z"/>
			<path id="Stroke-68" class="st4" d="M287.9,0.5h-6.6c-8.6,0-15.6,7-15.6,15.6v18.7c7.8-0.7,15.3-8,18.9-18.4
				c3.7,10.4,11.1,17.7,18.9,18.4V16.1C303.5,7.5,296.5,0.5,287.9,0.5z"/>
			<path id="Stroke-70" class="st4" d="M271.1,38c0-1.6,2.2-2.9,4.8-2.9c2.7,0,4.8,1.3,4.8,2.9"/>
			<path id="Stroke-72" class="st4" d="M286.7,38c0-1.6,2.2-2.9,4.8-2.9c2.7,0,4.8,1.3,4.8,2.9"/>
			<path id="Stroke-74" class="st4" d="M277.9,45v2.9c0,2.3,1.8,4.1,4.1,4.1h2.9c2.3,0,4.1-1.8,4.1-4.1V45H277.9z"/>
		</g>
		<g id="CLIENT-PO" transform="translate(21.000000, 191.000000)">
			<g class="st3">
				<path class="st5" d="M7.4,8.5C5.4,8.5,4,10,4,12c0,2.1,1.5,3.6,3.5,3.6c1.1,0,2.3-0.6,3.2-1.5l2,2.1c-1.4,1.4-3.4,2.4-5.3,2.4
					c-3.9,0-6.7-2.8-6.7-6.6c0-3.7,2.9-6.5,6.8-6.5c1.9,0,3.9,0.8,5.2,2.2L10.8,10C9.8,9.1,8.5,8.5,7.4,8.5z"/>
				<path class="st5" d="M17.3,5.7v9.9h5.4v2.8H14V5.7H17.3z"/>
				<path class="st5" d="M27.6,5.7v12.8h-3.3V5.7H27.6z"/>
				<path class="st5" d="M40.2,5.7v2.7h-6.8v2.4h6.1v2.7h-6.1v2.4h6.9v2.7H30.1V5.7H40.2z"/>
				<path class="st5" d="M45.3,5.7l5.8,7.7V5.7h3.1v12.8h-2.9l-5.8-7.7v7.7h-3.1V5.7H45.3z"/>
				<path class="st5" d="M66.6,5.7v2.8h-3.8v10h-3.3v-10h-3.8V5.7H66.6z"/>
				<path class="st5" d="M82.9,10.2c0,3-1.9,4.8-5.1,4.8h-2.3v3.5h-3.3V5.7h5.6C81,5.7,82.9,7.4,82.9,10.2z M79.8,10.3
					c0-1.3-0.8-1.9-2.1-1.9h-2.1v3.9h2.1C79,12.3,79.8,11.6,79.8,10.3z"/>
				<path class="st5" d="M97.6,12.1c0,3.7-3,6.6-6.9,6.6c-4,0-6.9-2.8-6.9-6.6c0-3.7,3-6.5,6.9-6.5C94.6,5.6,97.6,8.4,97.6,12.1z
					 M87.2,12.1c0,2.1,1.6,3.7,3.5,3.7s3.4-1.6,3.4-3.7s-1.5-3.6-3.4-3.6C88.8,8.5,87.2,10,87.2,12.1z"/>
			</g>
		</g>
		<g id="ENGAGEMENT" transform="translate(250.000000, 187.000000)">
			<g class="st3">
				<path class="st5" d="M11.7,5.9v2.7H5V11h6.1v2.7H5V16h6.9v2.7H1.6V5.9H11.7z"/>
				<path class="st5" d="M16.9,5.9l5.8,7.7V5.9h3.1v12.8h-2.9L17.1,11v7.7H14V5.9H16.9z"/>
			</g>
			<g class="st3">
				<path class="st5" d="M37,12.2h2.9v5c-1.4,0.9-3.5,1.6-5.3,1.6c-3.9,0-6.8-2.8-6.8-6.5s3-6.5,7.1-6.5c1.9,0,3.9,0.7,5.3,1.9
					L38.1,10c-0.9-0.9-2.2-1.4-3.4-1.4c-2.1,0-3.6,1.6-3.6,3.7s1.6,3.7,3.6,3.7c0.6,0,1.4-0.2,2.2-0.6v-3.2H37z"/>
			</g>
			<g class="st3">
				<path class="st5" d="M50.5,16.4H45l-0.9,2.3h-3.4l5.5-12.8h3.4L55,18.7h-3.6L50.5,16.4z M49.5,13.9l-1.8-4.6L46,13.9H49.5z"/>
				<path class="st5" d="M64.2,12.2h2.9v5c-1.4,0.9-3.5,1.6-5.3,1.6c-3.9,0-6.8-2.8-6.8-6.5s3-6.5,7.1-6.5c1.9,0,3.9,0.7,5.3,1.9
					L65.3,10c-0.9-0.9-2.2-1.4-3.4-1.4c-2.1,0-3.6,1.6-3.6,3.7s1.6,3.7,3.6,3.7c0.6,0,1.4-0.2,2.2-0.6L64.2,12.2L64.2,12.2z"/>
				<path class="st5" d="M79.4,5.9v2.7h-6.8V11h6.1v2.7h-6.1V16h6.9v2.7H69.3V5.9H79.4z"/>
				<path class="st5" d="M85.3,5.9l3.4,7.5l3.4-7.5h3.6v12.8h-3v-8.1l-3,6.8h-2.2l-3-6.8v8.1h-3V5.9H85.3z"/>
				<path class="st5" d="M108.3,5.9v2.7h-6.8V11h6.1v2.7h-6.1V16h6.9v2.7H98.2V5.9H108.3z"/>
				<path class="st5" d="M113.5,5.9l5.8,7.7V5.9h3.1v12.8h-2.9l-5.8-7.7v7.7h-3.1V5.9H113.5z"/>
				<path class="st5" d="M134.7,5.9v2.8h-3.8v10h-3.3v-10h-3.8V5.9H134.7z"/>
			</g>
		</g>
		<g id="MANAGER" transform="translate(268.000000, 209.000000)">
			<g class="st3">
				<path class="st5" d="M5.6,5.8L9,13.3l3.4-7.5H16v12.8h-3v-8.1l-3,6.8H7.9l-3-6.8v8.1h-3V5.8H5.6z"/>
				<path class="st5" d="M27,16.3h-5.5l-0.9,2.3h-3.4l5.5-12.8h3.4l5.4,12.8h-3.6L27,16.3z M26.1,13.8l-1.8-4.6l-1.8,4.6
					C22.5,13.8,26.1,13.8,26.1,13.8z"/>
				<path class="st5" d="M35.6,5.8l5.8,7.7V5.8h3.1v12.8h-2.9l-5.8-7.7v7.7h-3.1V5.8H35.6z"/>
				<path class="st5" d="M55.5,16.3H50l-0.9,2.3h-3.4l5.5-12.8h3.4L60,18.6h-3.6L55.5,16.3z M54.5,13.8l-1.8-4.6L51,13.8H54.5z"/>
				<path class="st5" d="M69.2,12.1h2.9v5c-1.4,0.9-3.5,1.6-5.3,1.6c-3.9,0-6.8-2.8-6.8-6.5s3-6.5,7.1-6.5c1.9,0,3.9,0.7,5.3,1.9
					L70.3,10c-0.9-0.9-2.2-1.4-3.4-1.4c-2.1,0-3.6,1.6-3.6,3.7s1.6,3.7,3.6,3.7c0.6,0,1.4-0.2,2.2-0.6L69.2,12.1L69.2,12.1z"/>
				<path class="st5" d="M84.4,5.8v2.7h-6.8v2.4h6.1v2.7h-6.1V16h6.9v2.7H74.3V5.8H84.4z"/>
				<path class="st5" d="M94.3,18.6l-1.9-3.5h-0.1H90v3.5h-3.3V5.8h5.7c3.4,0,5.3,1.6,5.3,4.5c0,1.9-0.8,3.4-2.3,4.1l2.7,4.2
					C98.1,18.6,94.3,18.6,94.3,18.6z M90,12.4h2.4c1.4,0,2.1-0.7,2.1-2s-0.8-1.9-2.1-1.9H90V12.4z"/>
			</g>
		</g>
		<g id="PRODUCT" transform="translate(505.000000, 187.000000)">
			<g class="st3">
				<path class="st5" d="M12.5,10.4c0,3-1.9,4.8-5.1,4.8H5.1v3.5H1.7V5.9h5.6C10.6,5.9,12.5,7.5,12.5,10.4z M9.3,10.5
					c0-1.3-0.8-1.9-2.1-1.9H5.1v3.9h2.1C8.6,12.5,9.3,11.8,9.3,10.5z"/>
			</g>
			<g class="st3">
				<path class="st5" d="M21.8,18.7l-1.9-3.5h-0.1h-2.4v3.5h-3.3V5.9h5.7c3.4,0,5.3,1.6,5.3,4.5c0,1.9-0.8,3.4-2.3,4.1l2.7,4.2H21.8
					z M17.4,12.5h2.4c1.4,0,2.1-0.7,2.1-2s-0.8-1.9-2.1-1.9h-2.4V12.5z"/>
			</g>
			<g class="st3">
				<path class="st5" d="M40.1,12.3c0,3.7-3,6.6-6.9,6.6s-6.9-2.8-6.9-6.6c0-3.7,3-6.5,6.9-6.5S40.1,8.6,40.1,12.3z M29.7,12.3
					c0,2.1,1.6,3.7,3.5,3.7c1.9,0,3.4-1.6,3.4-3.7s-1.5-3.6-3.4-3.6C31.3,8.7,29.7,10.2,29.7,12.3z"/>
				<path class="st5" d="M54.1,12.3c0,3.8-2.8,6.4-6.9,6.4h-5.4V5.9h5.5C51.4,5.9,54.1,8.5,54.1,12.3z M50.7,12.3
					c0-2.2-1.4-3.7-3.5-3.7h-2.1V16h2.3C49.3,16,50.7,14.5,50.7,12.3z"/>
				<path class="st5" d="M61.5,16c1.5,0,2.5-1,2.5-2.7V5.9h3.3v7.4c0,3.4-2.3,5.5-5.9,5.5s-5.9-2.1-5.9-5.5V5.9h3.3v7.4
					C58.9,15,60,16,61.5,16z"/>
				<path class="st5" d="M75.7,8.6c-2,0-3.5,1.6-3.5,3.6c0,2.1,1.5,3.6,3.5,3.6c1.1,0,2.3-0.6,3.2-1.5l2,2.1
					c-1.4,1.4-3.4,2.4-5.3,2.4c-3.9,0-6.7-2.8-6.7-6.6c0-3.7,2.9-6.5,6.8-6.5c1.9,0,3.9,0.8,5.2,2.2L79,10.2
					C78,9.3,76.8,8.6,75.7,8.6z"/>
				<path class="st5" d="M92.1,5.9v2.8h-3.8v10H85v-10h-3.8V5.9H92.1z"/>
			</g>
		</g>
		<g id="OWNER" transform="translate(515.000000, 209.000000)">
			<g class="st3">
				<path class="st5" d="M14.3,12.2c0,3.7-3,6.6-6.9,6.6S0.5,16,0.5,12.2c0-3.7,3-6.5,6.9-6.5S14.3,8.5,14.3,12.2z M3.9,12.2
					c0,2.1,1.6,3.7,3.5,3.7s3.4-1.6,3.4-3.7S9.3,8.6,7.4,8.6S3.9,10.1,3.9,12.2z"/>
			</g>
			<g class="st3">
				<path class="st5" d="M18.3,5.8l2.4,9.3l2.4-9.3h3.3l2.4,9.3l2.4-9.3h3.4l-4.2,12.8H27L24.7,10l-2.4,8.6h-3.4L14.7,5.8H18.3z"/>
				<path class="st5" d="M38.8,5.8l5.8,7.7V5.8h3.1v12.8h-2.9L39,10.9v7.7h-3.1V5.8H38.8z"/>
				<path class="st5" d="M60.3,5.8v2.7h-6.8v2.4h6.1v2.7h-6.1V16h6.9v2.7H50.2V5.8H60.3z"/>
				<path class="st5" d="M70.2,18.6l-1.9-3.5h-0.1h-2.4v3.5h-3.3V5.8h5.7c3.4,0,5.3,1.6,5.3,4.5c0,1.9-0.8,3.4-2.3,4.1l2.7,4.2
					C73.9,18.6,70.2,18.6,70.2,18.6z M65.8,12.4h2.4c1.4,0,2.1-0.7,2.1-2s-0.8-1.9-2.1-1.9h-2.4V12.4z"/>
			</g>
		</g>
		<g id="DEV" transform="translate(571.000000, 442.000000)">
			<g class="st3">
				<path class="st5" d="M14.2,12.3c0,3.8-2.8,6.4-6.9,6.4H1.9V5.9h5.5C11.4,5.9,14.2,8.5,14.2,12.3z M10.8,12.3
					c0-2.2-1.4-3.7-3.5-3.7H5.2V16h2.3C9.4,16,10.8,14.5,10.8,12.3z"/>
				<path class="st5" d="M25.9,5.9v2.7h-6.8V11h6.1v2.7h-6.1V16H26v2.7H15.8V5.9H25.9z"/>
				<path class="st5" d="M30.5,5.9l3.2,9.3l3.2-9.3h3.4l-5,12.8h-3.5l-5-12.8C26.8,5.9,30.5,5.9,30.5,5.9z"/>
			</g>
		</g>
		<g id="DEV-OPS" transform="translate(412.000000, 753.000000)">
			<g class="st3">
				<path class="st5" d="M13.7,11.7c0,3.8-2.8,6.4-6.9,6.4H1.4V5.3h5.5C11,5.3,13.7,7.9,13.7,11.7z M10.3,11.8C10.3,9.5,8.9,8,6.9,8
					H4.8v7.4H7C9,15.4,10.3,13.9,10.3,11.8z"/>
				<path class="st5" d="M25.5,5.3V8h-6.8v2.4h6.1V13h-6.1v2.4h6.9v2.7H15.4V5.3H25.5z"/>
				<path class="st5" d="M30,5.3l3.2,9.3l3.2-9.3h3.4l-5,12.8h-3.5l-5-12.8H30z"/>
				<path class="st5" d="M58.3,11.7c0,3.7-3,6.6-6.9,6.6c-4,0-6.9-2.8-6.9-6.6c0-3.7,3-6.5,6.9-6.5C55.3,5.2,58.3,8,58.3,11.7z
					 M47.9,11.7c0,2.1,1.6,3.7,3.5,3.7s3.4-1.6,3.4-3.7s-1.5-3.6-3.4-3.6S47.9,9.7,47.9,11.7z"/>
				<path class="st5" d="M70.7,9.8c0,3-1.9,4.8-5.1,4.8h-2.3v3.5H60V5.3h5.6C68.9,5.3,70.7,7,70.7,9.8z M67.6,9.9
					c0-1.3-0.8-1.9-2.1-1.9h-2.1v3.9h2.1C66.8,11.9,67.6,11.2,67.6,9.9z"/>
				<path class="st5" d="M77.1,7.9c-0.8,0-1.3,0.3-1.3,0.9c0,2.1,6.7,0.9,6.7,5.5c0,2.6-2.3,3.9-5.1,3.9c-2.1,0-4.4-0.8-5.9-2
					l1.3-2.6c1.3,1.1,3.3,1.9,4.6,1.9c1,0,1.6-0.4,1.6-1c0-2.2-6.7-0.9-6.7-5.4c0-2.4,2-3.9,5.1-3.9c1.9,0,3.8,0.6,5.1,1.4l-1.3,2.6
					C79.8,8.5,78.1,7.9,77.1,7.9z"/>
			</g>
		</g>
		<g id="SCRUM" transform="translate(568.000000, 760.000000)">
			<g class="st3">
				<path class="st5" d="M6.7,7.9c-0.8,0-1.3,0.3-1.3,0.9c0,2.1,6.7,0.9,6.7,5.5c0,2.6-2.3,3.9-5.1,3.9c-2.1,0-4.4-0.8-5.9-2
					l1.3-2.6c1.3,1.1,3.3,1.9,4.6,1.9c1,0,1.6-0.4,1.6-1c0-2.2-6.7-0.9-6.7-5.4c0-2.4,2-3.9,5.1-3.9c1.9,0,3.8,0.6,5.1,1.4l-1.3,2.6
					C9.4,8.5,7.7,7.9,6.7,7.9z"/>
				<path class="st5" d="M19.8,8.1c-2,0-3.5,1.6-3.5,3.6c0,2.1,1.5,3.6,3.5,3.6c1.1,0,2.3-0.6,3.2-1.5l2,2.1
					c-1.4,1.4-3.4,2.4-5.3,2.4c-3.9,0-6.7-2.8-6.7-6.6c0-3.7,2.9-6.5,6.8-6.5c1.9,0,3.9,0.8,5.2,2.2l-2,2.4
					C22.2,8.7,21,8.1,19.8,8.1z"/>
				<path class="st5" d="M34.1,18.1l-1.9-3.5h-0.1h-2.4v3.5h-3.3V5.3h5.7c3.4,0,5.3,1.6,5.3,4.5c0,1.9-0.8,3.4-2.3,4.1l2.7,4.2
					C37.8,18.1,34.1,18.1,34.1,18.1z M29.7,11.9h2.4c1.4,0,2.1-0.7,2.1-2S33.4,8,32.1,8h-2.4C29.7,8,29.7,11.9,29.7,11.9z"/>
				<path class="st5" d="M45.3,15.4c1.5,0,2.5-1,2.5-2.7V5.3h3.3v7.4c0,3.4-2.3,5.5-5.9,5.5c-3.6,0-5.9-2.1-5.9-5.5V5.3h3.3v7.4
					C42.7,14.4,43.8,15.4,45.3,15.4z"/>
				<path class="st5" d="M57.1,5.3l3.4,7.5l3.4-7.5h3.6v12.8h-3V10l-3,6.8h-2.2l-3-6.8v8.1h-3V5.3H57.1z"/>
			</g>
		</g>
		<g id="MASTERS" transform="translate(558.000000, 782.000000)">
			<g class="st3">
				<path class="st5" d="M5.1,5.3l3.4,7.5l3.4-7.5h3.7V18h-3V9.9l-3,6.8H7.4l-3-6.8V18h-3V5.3H5.1z"/>
			</g>
			<g class="st3">
				<path class="st5" d="M27.4,15.8h-5.5L21,18h-3.4L23,5.3h3.4L31.8,18h-3.6L27.4,15.8z M26.4,13.2l-1.8-4.6l-1.8,4.6
					C22.8,13.2,26.4,13.2,26.4,13.2z"/>
			</g>
			<g class="st3">
				<path class="st5" d="M37,7.8c-0.8,0-1.3,0.3-1.3,0.9c0,2.1,6.7,0.9,6.7,5.5c0,2.6-2.3,3.9-5.1,3.9c-2.1,0-4.4-0.8-5.9-2l1.3-2.6
					c1.3,1.1,3.3,1.9,4.6,1.9c1,0,1.6-0.4,1.6-1c0-2.2-6.7-0.9-6.7-5.4c0-2.4,2-3.9,5.1-3.9c1.9,0,3.8,0.6,5.1,1.4l-1.3,2.6
					C39.8,8.4,38.1,7.8,37,7.8z"/>
			</g>
			<g class="st3">
				<path class="st5" d="M53.6,5.3V8h-3.8v10h-3.3V8h-3.8V5.3H53.6z"/>
				<path class="st5" d="M65,5.3V8h-6.8v2.4h6.1V13h-6.1v2.4h6.9V18H54.9V5.3H65z"/>
				<path class="st5" d="M75,18l-1.9-3.5H73h-2.4V18h-3.3V5.3H73c3.4,0,5.3,1.6,5.3,4.5c0,1.9-0.8,3.4-2.3,4.1l2.7,4.2L75,18L75,18z
					 M70.6,11.8H73c1.4,0,2.1-0.7,2.1-2S74.3,7.9,73,7.9h-2.4V11.8z"/>
				<path class="st5" d="M85.2,7.8c-0.8,0-1.3,0.3-1.3,0.9c0,2.1,6.7,0.9,6.7,5.5c0,2.6-2.3,3.9-5.1,3.9c-2.1,0-4.4-0.8-5.9-2
					l1.3-2.6c1.3,1.1,3.3,1.9,4.6,1.9c1,0,1.6-0.4,1.6-1c0-2.2-6.7-0.9-6.7-5.4c0-2.4,2-3.9,5.1-3.9c1.9,0,3.8,0.6,5.1,1.4l-1.3,2.6
					C87.9,8.4,86.2,7.8,85.2,7.8z"/>
			</g>
		</g>
		<g id="ARCHITECT" transform="translate(691.000000, 760.000000)">
			<g class="st3">
				<path class="st5" d="M9.8,15.9H4.3l-0.9,2.3H0L5.4,5.3h3.4l5.4,12.8h-3.6L9.8,15.9z M8.8,13.3L7.1,8.8l-1.8,4.6L8.8,13.3
					L8.8,13.3z"/>
				<path class="st5" d="M23.1,18.1l-1.9-3.5h-0.1h-2.4v3.5h-3.3V5.3h5.7c3.4,0,5.3,1.6,5.3,4.5c0,1.9-0.8,3.4-2.3,4.1l2.7,4.2
					C26.8,18.1,23.1,18.1,23.1,18.1z M18.7,11.9h2.4c1.4,0,2.1-0.7,2.1-2S22.4,8,21.1,8h-2.4V11.9z"/>
				<path class="st5" d="M34.7,8.1c-2,0-3.5,1.6-3.5,3.6c0,2.1,1.5,3.6,3.5,3.6c1.1,0,2.3-0.6,3.2-1.5l2,2.1
					c-1.4,1.4-3.4,2.4-5.3,2.4c-3.9,0-6.7-2.8-6.7-6.6c0-3.7,2.9-6.5,6.8-6.5c1.9,0,3.9,0.8,5.2,2.2L38,9.7
					C37,8.7,35.8,8.1,34.7,8.1z"/>
				<path class="st5" d="M44.6,5.3v5.2h5.2V5.3h3.3v12.8h-3.3v-4.9h-5.2v4.9h-3.3V5.3H44.6z"/>
				<path class="st5" d="M58.9,5.3v12.8h-3.3V5.3H58.9z"/>
				<path class="st5" d="M71.2,5.3v2.8h-3.8v10h-3.3v-10h-3.8V5.3H71.2z"/>
				<path class="st5" d="M82.7,5.3V8h-6.8v2.4H82v2.7h-6.1v2.4h6.9v2.7H72.6V5.3H82.7z"/>
				<path class="st5" d="M91,8.1c-2,0-3.5,1.6-3.5,3.6c0,2.1,1.5,3.6,3.5,3.6c1.1,0,2.3-0.6,3.2-1.5l2,2.1c-1.4,1.4-3.4,2.4-5.3,2.4
					c-3.9,0-6.7-2.8-6.7-6.6c0-3.7,2.9-6.5,6.8-6.5c1.9,0,3.9,0.8,5.2,2.2l-1.9,2.3C93.3,8.7,92.1,8.1,91,8.1z"/>
				<path class="st5" d="M107.4,5.3v2.8h-3.8v10h-3.3v-10h-3.8V5.3H107.4z"/>
			</g>
		</g>
		<g id="QA" transform="translate(812.000000, 449.000000)">
			<g class="st3">
				<path class="st5" d="M15,19.7c-1,0.9-2.4,1.4-3.7,1.4c-1.8,0-3.3-1.1-4.1-2.9c-3.8-0.1-6.6-2.9-6.6-6.6s3-6.5,6.9-6.5
					c4,0,6.9,2.8,6.9,6.5c0,2.8-1.7,5.1-4.2,6.1c0.4,0.5,0.9,0.8,1.5,0.8s1.4-0.4,2.2-0.9L15,19.7z M7.5,15.3c1.9,0,3.4-1.6,3.4-3.7
					C11,9.6,9.4,8,7.5,8S4,9.6,4,11.7C4,13.7,5.6,15.3,7.5,15.3z"/>
				<path class="st5" d="M24.3,15.8h-5.5L17.9,18h-3.4L20,5.2h3.4L28.7,18h-3.6L24.3,15.8z M23.3,13.2l-1.8-4.6l-1.8,4.6
					C19.7,13.2,23.3,13.2,23.3,13.2z"/>
			</g>
		</g>
		<g id="SR-DEV" transform="translate(399.000000, 442.000000)">
			<g class="st3">
				<path class="st5" d="M6.9,8.5c-0.8,0-1.3,0.3-1.3,0.9c0,2.1,6.7,0.9,6.7,5.5c0,2.6-2.3,3.9-5.1,3.9c-2.1,0-4.4-0.8-5.9-2
					l1.3-2.6c1.3,1.1,3.3,1.9,4.6,1.9c1,0,1.6-0.4,1.6-1c0-2.2-6.7-0.9-6.7-5.4c0-2.4,2-3.9,5.1-3.9c1.9,0,3.8,0.6,5.1,1.4L11,9.8
					C9.7,9.1,8,8.5,6.9,8.5z"/>
				<path class="st5" d="M21.7,18.7l-1.9-3.5h-0.1h-2.4v3.5H14V5.9h5.7c3.4,0,5.3,1.6,5.3,4.5c0,1.9-0.8,3.4-2.3,4.1l2.7,4.2H21.7z
					 M17.3,12.5h2.4c1.4,0,2.1-0.7,2.1-2S21,8.6,19.7,8.6h-2.4V12.5z"/>
				<path class="st5" d="M43.7,12.3c0,3.8-2.8,6.4-6.9,6.4h-5.4V5.9h5.5C41,5.9,43.7,8.5,43.7,12.3z M40.3,12.3
					c0-2.2-1.4-3.7-3.5-3.7h-2.1V16H37C39,16,40.3,14.5,40.3,12.3z"/>
				<path class="st5" d="M55.5,5.9v2.7h-6.8V11h6.1v2.7h-6.1V16h6.9v2.7H45.4V5.9H55.5z"/>
				<path class="st5" d="M60,5.9l3.2,9.3l3.2-9.3h3.4l-5,12.8h-3.5l-5-12.8C56.3,5.9,60,5.9,60,5.9z"/>
			</g>
		</g>
		<g id="DESIGNERS" transform="translate(715.000000, 187.000000)">
			<g class="st3">
				<path class="st5" d="M13.9,12.3c0,3.8-2.8,6.4-6.9,6.4H1.6V5.9h5.5C11.2,5.9,13.9,8.5,13.9,12.3z M10.5,12.3
					c0-2.2-1.4-3.7-3.5-3.7H4.9V16h2.3C9.1,16,10.5,14.5,10.5,12.3z"/>
				<path class="st5" d="M25.7,5.9v2.7h-6.8V11H25v2.7h-6.1V16h6.9v2.7H15.6V5.9H25.7z"/>
				<path class="st5" d="M32.6,8.5c-0.8,0-1.3,0.3-1.3,0.9c0,2.1,6.7,0.9,6.7,5.5c0,2.6-2.3,3.9-5.1,3.9c-2.1,0-4.4-0.8-5.9-2
					l1.3-2.6c1.3,1.1,3.3,1.9,4.6,1.9c1,0,1.6-0.4,1.6-1c0-2.2-6.7-0.9-6.7-5.4c0-2.4,2-3.9,5.1-3.9c1.9,0,3.8,0.6,5.1,1.4l-1.3,2.6
					C35.4,9.1,33.6,8.5,32.6,8.5z"/>
				<path class="st5" d="M43,5.9v12.8h-3.3V5.9H43z"/>
				<path class="st5" d="M54,12.2h2.9v5c-1.4,0.9-3.5,1.6-5.3,1.6c-3.9,0-6.8-2.8-6.8-6.5s3-6.5,7.1-6.5c1.9,0,3.9,0.7,5.3,1.9
					L55.1,10c-0.9-0.9-2.2-1.4-3.4-1.4c-2.1,0-3.6,1.6-3.6,3.7s1.6,3.7,3.6,3.7c0.6,0,1.4-0.2,2.2-0.6v-3.2H54z"/>
				<path class="st5" d="M62,5.9l5.8,7.7V5.9h3.1v12.8H68L62.2,11v7.7h-3.1V5.9H62z"/>
				<path class="st5" d="M83.5,5.9v2.7h-6.8V11h6.1v2.7h-6.1V16h6.9v2.7H73.4V5.9H83.5z"/>
				<path class="st5" d="M93.4,18.7l-1.9-3.5h-0.1H89v3.5h-3.3V5.9h5.7c3.4,0,5.3,1.6,5.3,4.5c0,1.9-0.8,3.4-2.3,4.1l2.7,4.2H93.4z
					 M89.1,12.5h2.4c1.4,0,2.1-0.7,2.1-2s-0.8-1.9-2.1-1.9h-2.4V12.5z"/>
				<path class="st5" d="M103.7,8.5c-0.8,0-1.3,0.3-1.3,0.9c0,2.1,6.7,0.9,6.7,5.5c0,2.6-2.3,3.9-5.1,3.9c-2.1,0-4.4-0.8-5.9-2
					l1.3-2.6c1.3,1.1,3.3,1.9,4.6,1.9c1,0,1.6-0.4,1.6-1c0-2.2-6.7-0.9-6.7-5.4c0-2.4,2-3.9,5.1-3.9c1.9,0,3.8,0.6,5.1,1.4l-1.3,2.6
					C106.4,9.1,104.7,8.5,103.7,8.5z"/>
			</g>
		</g>
		<g id="Group-320" transform="translate(132.645892, 87.434320)">
			<polygon id="Fill-77" class="st5" points="53,36.7 55.8,36.7 55.8,33.9 53,33.9 			"/>
			<polygon id="Fill-79" class="st5" points="53,47.1 55.8,47.1 55.8,44.4 53,44.4 			"/>
			<polygon id="Fill-80" class="st5" points="49.6,43.7 52.3,43.7 52.3,40.9 49.6,40.9 			"/>
			<polygon id="Fill-81" class="st5" points="53,43.6 55.8,43.6 55.8,40.9 53,40.9 			"/>
			<polygon id="Fill-82" class="st5" points="49.5,40.2 52.3,40.2 52.3,37.4 49.5,37.4 			"/>
			<polygon id="Fill-83" class="st5" points="53,40.2 55.8,40.2 55.8,37.4 53,37.4 			"/>
			<polygon id="Fill-84" class="st5" points="60,50.6 62.7,50.6 62.7,47.9 60,47.9 			"/>
			<polygon id="Fill-85" class="st5" points="56.5,36.7 59.3,36.7 59.3,33.9 56.5,33.9 			"/>
			<polygon id="Fill-86" class="st5" points="63.5,36.7 66.2,36.7 66.2,33.9 63.5,33.9 			"/>
			<polygon id="Fill-87" class="st5" points="67,36.7 69.7,36.7 69.7,33.9 67,33.9 			"/>
			<polygon id="Fill-88" class="st5" points="56.5,40.2 59.2,40.2 59.2,37.4 56.5,37.4 			"/>
			<polygon id="Fill-89" class="st5" points="60,43.7 62.7,43.7 62.7,40.9 60,40.9 			"/>
			<polygon id="Fill-90" class="st5" points="63.5,43.7 66.2,43.7 66.2,40.9 63.5,40.9 			"/>
			<polygon id="Fill-91" class="st5" points="67,43.7 69.7,43.7 69.7,40.9 67,40.9 			"/>
			<polygon id="Fill-92" class="st5" points="70.5,43.7 73.2,43.7 73.2,40.9 70.5,40.9 			"/>
			<polygon id="Fill-93" class="st5" points="70.5,40.2 73.2,40.2 73.2,37.4 70.5,37.4 			"/>
			<polygon id="Fill-94" class="st5" points="67,40.2 69.7,40.2 69.7,37.4 67,37.4 			"/>
			<polygon id="Fill-95" class="st5" points="56.5,43.7 59.3,43.7 59.3,40.9 56.5,40.9 			"/>
			<polygon id="Fill-96" class="st5" points="56.5,47.1 59.2,47.1 59.2,44.4 56.5,44.4 			"/>
			<polygon id="Fill-97" class="st5" points="60,47.2 62.7,47.2 62.7,44.4 60,44.4 			"/>
			<polygon id="Fill-98" class="st5" points="63.5,47.1 66.2,47.1 66.2,44.4 63.5,44.4 			"/>
			<polygon id="Fill-99" class="st5" points="67,47.1 69.7,47.1 69.7,44.4 67,44.4 			"/>
			<polygon id="Fill-100" class="st5" points="63.5,40.2 66.2,40.2 66.2,37.4 63.5,37.4 			"/>
			<polygon id="Fill-101" class="st5" points="60,40.2 62.7,40.2 62.7,37.4 60,37.4 			"/>
			<polygon id="Fill-102" class="st5" points="56.5,50.6 59.3,50.6 59.3,47.9 56.5,47.9 			"/>
			<polygon id="Fill-103" class="st5" points="63.5,50.6 66.2,50.6 66.2,47.9 63.5,47.9 			"/>
			<polygon id="Fill-104" class="st5" points="60,54.1 62.7,54.1 62.7,51.4 60,51.4 			"/>
			<polyline id="Stroke-105" class="st4" points="409.2,32.9 416.1,32.9 416.1,45.8 			"/>
			<path id="Stroke-106" class="st4" d="M422.8,32.9h6.9"/>
			<path id="Stroke-107" class="st4" d="M413.1,55.1c0,1.8,1.4,3.2,3.2,3.2h5.6c1.8,0,3.2-1.4,3.2-3.2c0-0.5-0.1-1.1-0.4-1.5"/>
			<path id="Stroke-108" class="st4" d="M407.9,11.4h-4.7c-2.1,0-3.9,1.7-3.9,3.9v14.6c0,2.1,1.7,3.9,3.9,3.9l8.6-18.7"/>
			<path id="Stroke-109" class="st4" d="M439.2,42.4V18.5c0-9.3-7.5-16.8-16.8-16.8h-1.7c-6,0-11.3,3.2-14.3,7.9L439.2,42.4z"/>
			<path id="Stroke-110" class="st4" d="M420.5,14.2l24.3,24.3"/>
			<path id="Stroke-111" class="st4" d="M402.7,61.5h-4.4c-6.2,0-11.2,5-11.2,11.2v10.9"/>
			<path id="Stroke-112" class="st4" d="M435.1,61.5h4.4c6.2,0,11.2,5,11.2,11.2v11.6"/>
			<path id="Stroke-113" class="st4" d="M435.6,38.1v17c0,3.6-2.9,15.5-6.5,15.5h-19.8c-3.6,0-6.5-11.9-6.5-15.5V33.5"/>
			<polyline id="Stroke-114" class="st4" points="402.7,61.8 402.7,80.4 419.2,70.5 			"/>
			<polyline id="Stroke-115" class="st4" points="434.8,63.2 434.8,80.4 418.3,70.5 			"/>
			<path id="Stroke-116" class="st4" d="M418,78.1v3.6"/>
			<path id="Stroke-117" class="st4" d="M418,86v3.6"/>
			<path id="Stroke-118" class="st4" d="M604,45c0,9.8,7.9,17.7,17.7,17.7c0.7,0,1.4,0,2.1-0.1"/>
			<path id="Stroke-119" class="st4" d="M608.3,33.1c-4.1,0-7.5,2.8-7.5,6.4c0,3.5,3.3,6.4,7.5,6.4c1,0,2-0.2,2.9-0.5"/>
			<path id="Stroke-120" class="st4" d="M623.3,60.1v9.2"/>
			<path id="Stroke-121" class="st4" d="M642.4,69.3v-9.2"/>
			<path id="Stroke-122" class="st4" d="M609.3,31.3v5.2c0,13.7,11.1,24.7,24.7,24.7c4.7,0,20.2-1.2,20.2-16.5"/>
			<path id="Stroke-123" class="st4" d="M654.2,44.8v-5.2c0-2-0.2-6.9-0.7-8.7"/>
			<path id="Stroke-124" class="st4" d="M634.2,53c-2.2,0-4.1-1.3-5.3-3.4"/>
			<path id="Stroke-125" class="st4" d="M621.2,74.9H612c-4.5,0-8.2,3.7-8.2,8.2"/>
			<path id="Stroke-126" class="st4" d="M662.9,83.1c0-4.5-3.7-8.2-8.2-8.2h-9.3"/>
			<path id="Stroke-127" class="st4" d="M616.9,33.9c2.5,2.5,6.6,2.5,9.1,0"/>
			<path id="Stroke-128" class="st4" d="M637.7,33.9c2.5,2.5,6.6,2.5,9.1,0"/>
			<path id="Stroke-129" class="st4" d="M632.8,0.3v2.3c-2,15.7-14,28.1-29.5,30.8v-1.9C603.3,14.8,616.4,1.2,632.8,0.3z"/>
			<path id="Stroke-130" class="st4" d="M632.5,7.7h1.9c13,1.6,23.4,11.7,25.6,24.5h-1.6C644.7,32.3,633.3,21.4,632.5,7.7z"/>
			<path id="Stroke-131" class="st4" d="M621.1,80.7c0,1.1,0.9,2.1,2.1,2.1h19.4c1.1,0,2.1-0.9,2.1-2.1v-9.4c0-1.2-0.9-2.1-2.1-2.1
				h-19.4c-1.1,0-2.1,0.9-2.1,2.1V80.7z"/>
			<path id="Stroke-132" class="st4" d="M637.3,82.1v-8"/>
			<path id="Stroke-133" class="st4" d="M294.4,338.7h-11.7c-4.8,0-8.7,3.4-8.7,7.6v4"/>
			<path id="Stroke-134" class="st4" d="M329,348.5v-2.3c0-4.2-3.8-7.6-8.5-7.6h-12.1"/>
			<path id="Stroke-135" class="st4" d="M307.7,313.5c-1.8,0-3.2-1.4-3.2-3.2v-5.1c0-1.8,1.4-3.2,3.2-3.2h10.2
				c1.8,0,3.2,1.4,3.2,3.2v5.1c0,1.8-1.4,3.2-3.2,3.2H307.7z"/>
			<path id="Stroke-136" class="st4" d="M284.7,313.5c-1.8,0-3.2-1.4-3.2-3.2v-5.1c0-1.8,1.4-3.2,3.2-3.2h10.2
				c1.8,0,3.2,1.4,3.2,3.2v5.1c0,1.8-1.4,3.2-3.2,3.2H284.7z"/>
			<path id="Stroke-137" class="st4" d="M298.1,305.1h6.4"/>
			<path id="Stroke-138" class="st4" d="M318.9,313.5v9c0,9.7-7.9,17.6-17.6,17.6s-17.6-7.9-17.6-17.6v-9"/>
			<path id="Stroke-139" class="st4" d="M289.8,284v3.7c0,3.6,2.9,6.6,6.6,6.6h24.8c3.6,0,6.6-2.9,6.6-6.6v-10.2h-19.6"/>
			<path id="Stroke-140" class="st4" d="M295.7,283.6c0,2.5,0.2,4.6,4.6,4.6h18.9"/>
			<path id="Stroke-141" class="st4" d="M320.7,271h-22.4c-4.7,0-8.5,3.8-8.5,8.5"/>
			<path id="Stroke-142" class="st4" d="M290.9,277.9h-1.1c-3.6,0-6.5,2.9-6.5,6.5v14"/>
			<path id="Stroke-143" class="st4" d="M297.6,327.4h7.4"/>
			<path id="Stroke-144" class="st4" d="M304,352h-2.7c-3.6,0-6.5-2.9-6.5-6.5v-7.6"/>
			<path id="Stroke-145" class="st4" d="M475.8,284.1v23.5c0,8.3-6.8,15.1-15.1,15.1c-8.3,0-15.1-6.8-15.1-15.1v-3.1"/>
			<path id="Stroke-146" class="st4" d="M435.7,338.3V294c0-13.9,11.3-25.2,25.2-25.2c13.9,0,25.2,11.3,25.2,25.2v59"/>
			<path id="Stroke-147" class="st4" d="M460.9,280l25.2,25.2V294c0-13.9-11.3-25.2-25.2-25.2c-13.9,0-25.2,11.3-25.2,25.2v11.2
				L460.9,280z"/>
			<path id="Stroke-148" class="st4" d="M470.7,279.3l15.8,15.8"/>
			<path id="Stroke-149" class="st4" d="M461,288.3l-22.3,22.3"/>
			<path id="Stroke-150" class="st6" d="M454.9,311.5c0,2,1.6,3.6,3.5,3.6h2.6"/>
			<path id="Stroke-151" class="st4" d="M449.2,317.2v0.2c0,5-4.1,9.1-9.1,9.1"/>
			<path id="Stroke-152" class="st4" d="M460.2,323.7v0.2c0,5,4.1,9.1,9.1,9.1"/>
			<path id="Stroke-153" class="st4" d="M475.9,298.6c0,3.4-2.8,6.2-6.2,6.2c-3.4,0-6.2-2.8-6.2-6.2s2.8-6.2,6.2-6.2
				C473.2,292.4,475.9,295.2,475.9,298.6z"/>
			<path id="Stroke-154" class="st4" d="M455.9,294.2c2.4,2.4,2.4,6.3,0,8.7c-2.4,2.4-6.3,2.4-8.7,0"/>
			<path id="Stroke-155" class="st4" d="M460.8,333.2H472c4,0,7.2,3.2,7.2,7.2v15.1"/>
			<path id="Stroke-156" class="st4" d="M431.8,327.5c-4,0-7.2,3.2-7.2,7.2v7.2"/>
			<path id="Stroke-157" class="st4" d="M433.5,348.5c1.1-2.6,3.6-5.8,6.6-5.8h23c4,0,7.2,3.2,7.2,7.2"/>
			<path id="Stroke-158" class="st4" d="M627.5,616.3v18.1"/>
			<path id="Stroke-159" class="st4" d="M594.4,634.4v-26"/>
			<path id="Stroke-160" class="st4" d="M627.5,623.3v12.2c-3.4-6-9.9-10-17.3-10c-7.4,0-13.8,4-17.3,10v-12.2
				c-6.6,5.1-10.8,13.1-10.8,22.1c0,15.5,12.6,28,28,28c15.5,0,28-12.6,28-28C638.3,636.4,634.1,628.5,627.5,623.3z"/>
			<polyline id="Stroke-161" class="st4" points="599.6,611.1 607.3,611.1 607.3,625.5 			"/>
			<path id="Stroke-162" class="st4" d="M614.7,611.1h7.7"/>
			<path id="Stroke-163" class="st4" d="M604.3,634.2c-0.3,0.5-0.4,1.1-0.4,1.7c0,2,1.6,3.6,3.6,3.6h6.2c2,0,3.6-1.6,3.6-3.6
				c0-0.6-0.2-1.2-0.4-1.7H604.3z"/>
			<path id="Stroke-164" class="st4" d="M598.2,587.2h-5.3c-2.4,0-4.3,1.9-4.3,4.3v16.3c0,2.4,1.9,4.3,4.3,4.3l9.6-20.8"/>
			<path id="Stroke-165" class="st4" d="M632.9,621.7v-26.6c0-10.3-8.4-18.7-18.7-18.7h-1.9c-6.7,0-12.6,3.5-15.9,8.8L632.9,621.7z"
				/>
			<path id="Stroke-166" class="st4" d="M461,660.1v-12"/>
			<path id="Stroke-167" class="st4" d="M477.8,648.1v12"/>
			<path id="Stroke-168" class="st4" d="M454.5,636h-0.3c-2.2,0-3.9-1.7-3.9-3.9v-1.3"/>
			<path id="Stroke-169" class="st4" d="M494,624.4h0.3c2.1,0,3.9,1.7,3.9,3.9v3.8c0,2.2-1.7,3.9-3.9,3.9H494"/>
			<path id="Stroke-170" class="st4" d="M493.4,611.1v27.8c0,5.5-4.5,10-10,10h-19.1c-5.5,0-10-4.5-10-10v-13.2"/>
			<path id="Stroke-171" class="st4" d="M461.6,631.2v7.2c0,1.8,1.5,3.3,3.3,3.3h7.2L461.6,631.2z"/>
			<path id="Stroke-172" class="st4" d="M472.2,620.7c-2.2,2.2-5.9,2.2-8.1,0"/>
			<path id="Stroke-173" class="st4" d="M489.9,620.7c-2.2,2.2-5.9,2.2-8.1,0"/>
			<path id="Stroke-174" class="st4" d="M467.8,591c-6.3,0-11.6,4.3-13.1,10.2c-2.6,1.8-4.4,4.8-4.4,8.2V626h0.9c5.5,0,10-4.5,10-10
				v-4.8c1,0.3,2,0.5,3.1,0.5h26.1c5.5,0,10-4.5,10-10V591H467.8z"/>
			<path id="Stroke-175" class="st4" d="M479,631c0-1.8,1.5-3.3,3.3-3.3s3.3,1.5,3.3,3.3s-1.5,3.3-3.3,3.3"/>
			<path id="Stroke-176" class="st4" d="M478.5,631v-19.1"/>
			<path id="Stroke-177" class="st4" d="M296.9,601.8v8.8c0,1.4,1.2,2.6,2.6,2.6s2.6-1.2,2.6-2.6v-8.8H296.9z"/>
			<path id="Stroke-178" class="st4" d="M340.2,601.8v8.8c0,1.4,1.2,2.6,2.6,2.6s2.6-1.2,2.6-2.6v-8.8H340.2z"/>
			<path id="Stroke-179" class="st4" d="M329.1,636.2h12.7c5.2,0,9.4,3.7,9.4,8.3v9"/>
			<path id="Stroke-180" class="st4" d="M291,652.8v-8.2c0-4.6,4.2-8.3,9.4-8.3h12.5"/>
			<polyline id="Stroke-181" class="st4" points="307.7,636.2 307.7,642.9 321.1,650.6 334.5,642.9 334.5,636.2 			"/>
			<polyline id="Stroke-182" class="st4" points="329,632.8 329,639.7 321.1,644.3 313.2,639.7 313.2,632.8 			"/>
			<path id="Stroke-183" class="st4" d="M339.9,590c0-6.1-4.9-11-11-11h-15.8c-6.1,0-11,4.9-11,11v30.9l10.4,12h17l10.4-12V590z"/>
			<polyline id="Stroke-184" class="st4" points="304.3,623.5 312.6,633 329.6,633 337.7,623.6 			"/>
			<path id="Stroke-185" class="st4" d="M316.5,620.8c0,0.2,0,0.3,0,0.5c0,2.4,1.9,4.3,4.3,4.3h0.6c2.4,0,4.3-1.9,4.3-4.3
				c0-0.2,0-0.3,0-0.5H316.5z"/>
			<polyline id="Stroke-186" class="st4" points="324.6,597.1 324.6,608.2 317.4,608.2 317.4,597.1 308.8,597.1 			"/>
			<path id="Stroke-187" class="st4" d="M305.2,601.9c2.5,2.5,6.6,2.5,9.1,0"/>
			<path id="Stroke-188" class="st4" d="M326.8,601.9c2.5,2.5,6.6,2.5,9.1,0"/>
			<path id="Stroke-189" class="st4" d="M712.8,337.5c6.5,2,11,6.8,11,12.4v4.7"/>
			<path id="Stroke-190" class="st4" d="M661.3,354.6v-4.7c0-5.3,4.1-9.8,10-12.1"/>
			<path id="Stroke-191" class="st4" d="M708.4,301.7v6.5c0,7.8-5.3,24.1-15.8,24.5c-10.5-0.4-15.9-16.7-15.8-24.5v-6.5"/>
			<path id="Stroke-192" class="st4" d="M692.5,288.7c-0.2-1.4-1.7-3.9-4.8-4.2c-3.5-0.3-6.6,1.7-8.5,7l-9.9,40.9"/>
			<path id="Stroke-193" class="st4" d="M692.6,288.7c0.2-1.4,1.7-3.9,4.8-4.2c3.5-0.3,6.6,1.7,8.5,7l9.9,40.9"/>
			<path id="Stroke-194" class="st4" d="M715.9,291v39.5c0,7.5-6,13.5-13.5,13.5h-2.1"/>
			<path id="Stroke-195" class="st4" d="M684.8,344h-2.1c-7.5,0-13.5-6-13.5-13.5V291"/>
			<path id="Stroke-196" class="st4" d="M700.3,329.8v14.5c0,4.3-3.5,7.8-7.8,7.8s-7.8-3.5-7.8-7.8v-14.5"/>
			<path id="Stroke-197" class="st4" d="M688.2,318.7c0,0.2,0,0.3,0,0.5c0,2.4,1.9,4.3,4.3,4.3h0.6c2.4,0,4.3-1.9,4.3-4.3
				c0-0.2,0-0.3,0-0.5H688.2z"/>
			<polyline id="Stroke-198" class="st4" points="694.5,299.5 699.8,311.1 693.1,311.1 			"/>
			<path id="Stroke-199" class="st4" d="M669.2,292.2c0-12.6,10.5-22.7,23.4-22.7s23.4,10.2,23.4,22.7"/>
			<path id="Stroke-200" class="st4" d="M699.5,307.1c-1.8,0-3.2-1.4-3.2-3.2v-5.1c0-1.8,1.4-3.2,3.2-3.2h10.2
				c1.8,0,3.2,1.4,3.2,3.2v5.1c0,1.8-1.4,3.2-3.2,3.2H699.5z"/>
			<path id="Stroke-201" class="st4" d="M676.5,307.1c-1.8,0-3.2-1.4-3.2-3.2v-5.1c0-1.8,1.4-3.2,3.2-3.2h10.2
				c1.8,0,3.2,1.4,3.2,3.2v5.1c0,1.8-1.4,3.2-3.2,3.2H676.5z"/>
			<path id="Stroke-202" class="st4" d="M689.9,298.8h6.4"/>
			<path id="Fill-203" class="st5" d="M392.1,309.9c0,0.7-0.5,1.2-1.2,1.2h-2.4v4.6l-5.8-4.6H375c-0.7,0-1.2-0.5-1.2-1.2v-10.7
				c0-0.7,0.5-1.2,1.2-1.2h15.9c0.7,0,1.2,0.6,1.2,1.2V309.9z"/>
			<path id="Stroke-204" class="st4" d="M363.6,316.8c0,0.7,0.5,1.2,1.2,1.2h2.4v4.6l5.8-4.6h7.7c0.7,0,1.2-0.5,1.2-1.2v-10.7
				c0-0.7-0.5-1.2-1.2-1.2h-15.9c-0.7,0-1.2,0.5-1.2,1.2V316.8z"/>
			<path id="Stroke-205" class="st7" d="M8,71.3h101.4"/>
			<path id="Stroke-206" class="st4" d="M111.8,71.3h2.3"/>
			<polyline id="Stroke-207" class="st4" points="5.1,76.5 0,71.4 5.1,66.3 			"/>
			<polyline id="Stroke-208" class="st4" points="117.3,66.3 122.4,71.4 117.3,76.5 			"/>
			<path id="Stroke-209" class="st4" d="M270.7,71.3h2.3"/>
			<path id="Stroke-210" class="st7" d="M277.7,71.3h63.2"/>
			<path id="Stroke-211" class="st4" d="M343.3,71.3h2.3"/>
			<polyline id="Stroke-212" class="st4" points="268.5,76.5 263.4,71.4 268.5,66.3 			"/>
			<polyline id="Stroke-213" class="st4" points="348.8,66.3 353.9,71.4 348.8,76.5 			"/>
			<path id="Stroke-214" class="st4" d="M361.8,163.5l-1.6,1.6"/>
			<path id="Stroke-215" class="st7" d="M356.8,168.4l-31.9,31.9"/>
			<polyline id="Stroke-216" class="st4" points="367.1,165.6 367.1,158.4 359.8,158.4 			"/>
			<path id="Stroke-217" class="st4" d="M490.9,71.3h2.3"/>
			<path id="Stroke-218" class="st7" d="M497.9,71.3h63.2"/>
			<path id="Stroke-219" class="st4" d="M563.5,71.3h2.3"/>
			<polyline id="Stroke-220" class="st4" points="488.7,76.5 483.6,71.4 488.7,66.3 			"/>
			<polyline id="Stroke-221" class="st4" points="569,66.3 574.1,71.4 569,76.5 			"/>
			<path id="Stroke-222" class="st4" d="M305.3,38.3v9"/>
			<path id="Stroke-223" class="st4" d="M309.8,42.8h-9"/>
			<path id="Stroke-224" class="st8" d="M318.3,33.8c0,2.1-1.7,3.8-3.8,3.8c-2.1,0-3.8-1.7-3.8-3.8s1.7-3.8,3.8-3.8
				C316.6,30,318.3,31.7,318.3,33.8z"/>
			<path id="Stroke-225" class="st8" d="M314.5,29.2v-3.6"/>
			<path id="Stroke-226" class="st8" d="M314.5,41.9v-3.6"/>
			<path id="Stroke-227" class="st8" d="M310.5,31.5l-3.1-1.8"/>
			<path id="Stroke-228" class="st8" d="M321.6,37.8l-3.1-1.8"/>
			<path id="Stroke-229" class="st8" d="M310.5,36.1l-3.1,1.8"/>
			<path id="Stroke-230" class="st8" d="M321.6,29.7l-3.1,1.8"/>
			<polyline id="Stroke-231" class="st8" points="529.9,38.1 534.1,23.5 538.3,38.1 			"/>
			<path id="Stroke-232" class="st8" d="M537.9,20.2c0,2.1-1.7,3.8-3.8,3.8s-3.8-1.7-3.8-3.8s1.7-3.8,3.8-3.8
				C536.2,16.4,537.9,18.1,537.9,20.2z"/>
			<path id="Stroke-233" class="st8" d="M534.1,16v-5.8"/>
			<path id="Stroke-234" class="st8" d="M525.3,28c5.5,2.6,12,2.6,17.6,0"/>
			<path id="Fill-235" class="st0" d="M513.3,50.3c0,0.7,0.5,1.2,1.2,1.2h2.4v4.6l5.8-4.6h7.7c0.7,0,1.2-0.5,1.2-1.2V39.6
				c0-0.7-0.5-1.2-1.2-1.2h-15.9c-0.7,0-1.2,0.6-1.2,1.2V50.3z"/>
			<path id="Stroke-236" class="st4" d="M513.3,50.3c0,0.7,0.5,1.2,1.2,1.2h2.4v4.6l5.8-4.6h7.7c0.7,0,1.2-0.5,1.2-1.2V39.6
				c0-0.7-0.5-1.2-1.2-1.2h-15.9c-0.7,0-1.2,0.6-1.2,1.2V50.3z"/>
			<path id="Fill-237" class="st2" d="M281.2,244.9h-7.6c-0.5,0-1-0.4-1-1s0.4-1,1-1h7.6c0.5,0,1,0.4,1,1S281.7,244.9,281.2,244.9
				 M299,244.9h-7.6c-0.5,0-1-0.4-1-1s0.4-1,1-1h7.6c0.5,0,1,0.4,1,1S299.5,244.9,299,244.9 M352.5,244.9h-7.6c-0.5,0-1-0.4-1-1
				s0.4-1,1-1h7.6c0.5,0,1,0.4,1,1S353.1,244.9,352.5,244.9 M370.4,244.9h-7.6c-0.5,0-1-0.4-1-1s0.4-1,1-1h7.6c0.5,0,1,0.4,1,1
				S370.9,244.9,370.4,244.9 M388.2,244.9h-7.6c-0.5,0-1-0.4-1-1s0.4-1,1-1h7.6c0.5,0,1,0.4,1,1S388.8,244.9,388.2,244.9
				 M406.1,244.9h-7.6c-0.5,0-1-0.4-1-1s0.4-1,1-1h7.6c0.5,0,1,0.4,1,1S406.6,244.9,406.1,244.9 M423.9,244.9h-7.6c-0.5,0-1-0.4-1-1
				s0.4-1,1-1h7.6c0.5,0,1,0.4,1,1S424.5,244.9,423.9,244.9 M441.8,244.9h-7.6c-0.5,0-1-0.4-1-1s0.4-1,1-1h7.6c0.5,0,1,0.4,1,1
				S442.3,244.9,441.8,244.9 M459.6,244.9H452c-0.5,0-1-0.4-1-1s0.4-1,1-1h7.6c0.5,0,1,0.4,1,1S460.1,244.9,459.6,244.9
				 M477.5,244.9h-7.6c-0.5,0-1-0.4-1-1s0.4-1,1-1h7.6c0.5,0,1,0.4,1,1S478,244.9,477.5,244.9 M495.3,244.9h-7.6c-0.5,0-1-0.4-1-1
				s0.4-1,1-1h7.6c0.5,0,1,0.4,1,1S495.8,244.9,495.3,244.9 M255.7,244.9c-0.5,0-0.9-0.4-1-0.9c0-0.5,0.4-1,0.9-1c0.3,0,0.6,0,0.8,0
				h6.9c0.5,0,1,0.4,1,1s-0.4,1-1,1h-6.9C256.2,244.9,256,244.9,255.7,244.9L255.7,244.9 M244.2,256.5L244.2,256.5c-0.6,0-1-0.5-1-1
				c0.1-2.8,1.1-5.4,2.9-7.6c0.3-0.4,0.9-0.5,1.3-0.2c0.4,0.3,0.5,0.9,0.2,1.3c-1.5,1.9-2.3,4.1-2.4,6.5
				C245.2,256.1,244.7,256.5,244.2,256.5 M244.2,274.4c-0.5,0-1-0.4-1-1v-7.6c0-0.5,0.4-1,1-1c0.5,0,1,0.4,1,1v7.6
				C245.2,273.9,244.7,274.4,244.2,274.4 M522.5,276.4c-0.5,0-1-0.4-1-1v-7.6c0-0.5,0.4-1,1-1s1,0.4,1,1v7.6
				C523.5,276,523.1,276.4,522.5,276.4 M244.2,292.2c-0.5,0-1-0.4-1-1v-7.6c0-0.5,0.4-1,1-1c0.5,0,1,0.4,1,1v7.6
				C245.2,291.8,244.7,292.2,244.2,292.2 M522.5,294.3c-0.5,0-1-0.4-1-1v-7.6c0-0.5,0.4-1,1-1s1,0.4,1,1v7.6
				C523.5,293.9,523.1,294.3,522.5,294.3 M244.2,310.1c-0.5,0-1-0.4-1-1v-7.6c0-0.5,0.4-1,1-1c0.5,0,1,0.4,1,1v7.6
				C245.2,309.6,244.7,310.1,244.2,310.1 M244.2,327.9c-0.5,0-1-0.4-1-1v-7.6c0-0.5,0.4-1,1-1c0.5,0,1,0.4,1,1v7.6
				C245.2,327.5,244.7,327.9,244.2,327.9 M244.2,345.8c-0.5,0-1-0.4-1-1v-7.6c0-0.5,0.4-1,1-1c0.5,0,1,0.4,1,1v7.6
				C245.2,345.3,244.7,345.8,244.2,345.8 M244.2,363.6c-0.5,0-1-0.4-1-1V355c0-0.5,0.4-1,1-1c0.5,0,1,0.4,1,1v7.6
				C245.2,363.2,244.7,363.6,244.2,363.6 M522.5,365.7c-0.5,0-1-0.4-1-1v-7.6c0-0.5,0.4-1,1-1s1,0.4,1,1v7.6
				C523.5,365.3,523.1,365.7,522.5,365.7 M244.2,381.5c-0.5,0-1-0.4-1-1v-7.6c0-0.5,0.4-1,1-1c0.5,0,1,0.4,1,1v7.6
				C245.2,381,244.7,381.5,244.2,381.5 M245.4,399.1c-0.4,0-0.7-0.2-0.9-0.5c-0.8-1.8-1.3-3.6-1.3-5.6v-2.3c0-0.5,0.4-1,1-1
				c0.5,0,1,0.4,1,1v2.3c0,1.7,0.4,3.3,1.1,4.8c0.2,0.5,0,1-0.5,1.3C245.6,399.1,245.5,399.1,245.4,399.1 M260.5,406.2h-4
				c-1.3,0-2.6-0.2-3.9-0.6c-0.5-0.2-0.8-0.7-0.6-1.2s0.7-0.8,1.2-0.6c1.1,0.3,2.2,0.5,3.3,0.5h4c0.5,0,1,0.4,1,1
				C261.4,405.7,261,406.2,260.5,406.2 M278.3,406.2h-7.6c-0.5,0-1-0.4-1-1c0-0.5,0.4-1,1-1h7.6c0.5,0,1,0.4,1,1
				C279.3,405.7,278.8,406.2,278.3,406.2 M296.1,406.2h-7.6c-0.5,0-1-0.4-1-1c0-0.5,0.4-1,1-1h7.6c0.5,0,1,0.4,1,1
				C297.1,405.7,296.7,406.2,296.1,406.2 M349.7,406.2H342c-0.5,0-1-0.4-1-1c0-0.5,0.4-1,1-1h7.6c0.5,0,1,0.4,1,1
				C350.6,405.7,350.2,406.2,349.7,406.2 M367.5,406.2h-7.6c-0.5,0-1-0.4-1-1c0-0.5,0.4-1,1-1h7.6c0.5,0,1,0.4,1,1
				C368.5,405.7,368.1,406.2,367.5,406.2 M385.4,406.2h-7.6c-0.5,0-1-0.4-1-1c0-0.5,0.4-1,1-1h7.6c0.5,0,1,0.4,1,1
				C386.3,405.7,385.9,406.2,385.4,406.2 M403.2,406.2h-7.6c-0.5,0-1-0.4-1-1c0-0.5,0.4-1,1-1h7.6c0.5,0,1,0.4,1,1
				C404.2,405.7,403.8,406.2,403.2,406.2 M421.1,406.2h-7.6c-0.5,0-1-0.4-1-1c0-0.5,0.4-1,1-1h7.6c0.5,0,1,0.4,1,1
				C422,405.7,421.6,406.2,421.1,406.2 M438.9,406.2h-7.6c-0.5,0-1-0.4-1-1c0-0.5,0.4-1,1-1h7.6c0.5,0,1,0.4,1,1
				C439.9,405.7,439.4,406.2,438.9,406.2 M456.8,406.2h-7.6c-0.5,0-1-0.4-1-1c0-0.5,0.4-1,1-1h7.6c0.5,0,1,0.4,1,1
				C457.7,405.7,457.3,406.2,456.8,406.2"/>
			<path id="Stroke-238" class="st4" d="M319.8,173.8h14.5"/>
			<path id="Stroke-239" class="st4" d="M325.3,168.5h14.5"/>
			<path id="Stroke-240" class="st4" d="M317.7,168.5h4.8"/>
			<path id="Stroke-241" class="st4" d="M312.1,173.8h4.8"/>
			<path id="Stroke-242" class="st8" d="M330.9,154.3h3.8"/>
			<path id="Stroke-243" class="st8" d="M328.5,150.7l1.9-3.3"/>
			<path id="Stroke-244" class="st8" d="M324.2,150.9l-1.9-3.3"/>
			<path id="Stroke-245" class="st8" d="M322.3,154.8h-3.8"/>
			<path id="Stroke-246" class="st8" d="M324.6,158.4l-1.9,3.3"/>
			<path id="Stroke-247" class="st8" d="M328.9,158.1l1.9,3.3"/>
			<polygon id="Fill-248" class="st9" points="571.4,293.6 589.6,293.6 589.6,292.1 571.4,292.1 			"/>
			<polygon id="Fill-249" class="st9" points="571.4,297.7 584.3,297.7 584.3,296.1 571.4,296.1 			"/>
			<polygon id="Fill-250" class="st5" points="566.1,296.8 564,294.9 565.1,293.7 566,294.5 568.6,291.2 569.8,292.2 			"/>
			<polygon id="Fill-251" class="st9" points="571.4,303.5 589.6,303.5 589.6,302 571.4,302 			"/>
			<polygon id="Fill-252" class="st9" points="571.4,307.6 584.3,307.6 584.3,306 571.4,306 			"/>
			<polygon id="Fill-253" class="st5" points="566.1,306.7 564,304.8 565.1,303.7 566,304.4 568.6,301.1 569.8,302.1 			"/>
			<path id="Stroke-254" class="st8" d="M544.1,183.4c0-2.1,1.7-3.8,3.7-3.8c2.1,0,3.7,1.7,3.7,3.8s-1.7,3.7-3.7,3.7
				C545.8,187.1,544.1,185.4,544.1,183.4z"/>
			<path id="Stroke-255" class="st8" d="M547.9,187.9v3.5"/>
			<path id="Stroke-256" class="st8" d="M547.9,175.3v3.5"/>
			<path id="Stroke-257" class="st8" d="M551.8,185.6l3.1,1.8"/>
			<path id="Stroke-258" class="st8" d="M540.9,179.3l3.1,1.8"/>
			<path id="Stroke-259" class="st8" d="M551.8,181.1l3.1-1.8"/>
			<path id="Stroke-260" class="st8" d="M540.9,187.4l3.1-1.8"/>
			<path id="Stroke-261" class="st4" d="M573.9,215.4c0,0.7,0.5,1.2,1.2,1.2h2.4v4.6l5.8-4.6h7.7c0.7,0,1.2-0.5,1.2-1.2v-10.7
				c0-0.7-0.5-1.2-1.2-1.2h-15.9c-0.7,0-1.2,0.5-1.2,1.2V215.4z"/>
			<path id="Fill-262" class="st5" d="M295.7,481.8c-0.8,0.9-1.3,2.1-1.3,3.4c0,0.9,0.2,1.7,0.7,2.5c0.4,0,0.7,0,1.1,0L295.7,481.8z
				 M294.6,488.6l-0.1-0.2c-0.6-1-0.9-2.1-0.9-3.2c0-1.8,0.8-3.5,2.3-4.7l0.7-0.5l0.7,8.6h-0.5c-0.7,0-1.3,0-1.9,0.1L294.6,488.6z"
				/>
			<path id="Fill-263" class="st5" d="M302.9,487.7c0.5,0,0.9,0,1.4,0c0.4-0.8,0.7-1.6,0.7-2.5c0-1.4-0.5-2.7-1.5-3.6L302.9,487.7z
				 M304.8,488.6h-0.3c-0.7,0-1.4-0.1-2.1-0.1h-0.5l0.8-8.7l0.6,0.5c1.6,1.1,2.5,3,2.5,4.9c0,1.1-0.3,2.2-0.9,3.2L304.8,488.6z"/>
			<path id="Fill-264" class="st5" d="M297,485.4h5.1l0.7-7.5c0.2-2.8-1-5.5-3.2-7.1c-2.2,1.7-3.4,4.4-3.2,7.1L297,485.4z
				 M302.9,486.3h-6.7l-0.7-8.4c-0.3-3.2,1.2-6.3,3.8-8.1l0.3-0.2l0.3,0.2c2.6,1.8,4.1,4.9,3.8,8.1L302.9,486.3z"/>
			<path id="Fill-265" class="st5" d="M299.6,488.3c-0.5,0-0.9,0.4-0.9,0.9c0,0.4,0.5,1.5,0.9,2.2c0.5-1,0.9-1.9,0.9-2.2
				C300.5,488.7,300.1,488.3,299.6,488.3L299.6,488.3z M299.6,492.9c-0.3,0-0.3,0-1.1-1.6c-0.7-1.5-0.7-1.9-0.7-2.1
				c0-1,0.8-1.8,1.8-1.8s1.8,0.8,1.8,1.8c0,0.8-1,2.7-1.4,3.3v0.3L299.6,492.9z"/>
			<path id="Fill-266" class="st5" d="M299.6,470.7c-0.7,0.5-1.3,1.1-1.8,1.9c1.2-0.1,2.4-0.1,3.6,0
				C300.9,471.9,300.3,471.2,299.6,470.7L299.6,470.7z M303.1,473.8l-0.9-0.2c-1.7-0.3-3.5-0.3-5.2,0l-0.9,0.2l0.4-0.8
				c0.7-1.3,1.6-2.3,2.8-3.1l0.3-0.2l0.3,0.2c1.2,0.8,2.1,1.9,2.8,3.1L303.1,473.8z"/>
			<polygon id="Fill-267" class="st5" points="296.3,484.5 302.9,484.5 302.9,483.6 296.3,483.6 			"/>
			<path id="Stroke-268" class="st4" d="M334.4,480.4c0-2.1,1.7-3.8,3.7-3.8c2.1,0,3.7,1.7,3.7,3.8c0,2.1-1.7,3.7-3.7,3.7
				C336.1,484.2,334.4,482.5,334.4,480.4z"/>
			<path id="Stroke-269" class="st4" d="M338.2,485v3.5"/>
			<path id="Stroke-270" class="st4" d="M338.2,472.3v3.5"/>
			<path id="Stroke-271" class="st4" d="M342.1,482.7l3.1,1.8"/>
			<path id="Stroke-272" class="st4" d="M331.2,476.4l3.1,1.8"/>
			<path id="Stroke-273" class="st4" d="M342.1,478.1l3.1-1.8"/>
			<path id="Stroke-274" class="st4" d="M331.2,484.5l3.1-1.8"/>
			<polygon id="Fill-275" class="st5" points="487.6,470.4 506.8,470.4 506.8,466.3 487.6,466.3 			"/>
			<polygon id="Fill-276" class="st9" points="506.7,482.4 487.7,482.4 487.7,470.4 488.6,470.4 488.6,481.5 505.8,481.5 
				505.8,470.4 506.7,470.4 			"/>
			<polygon id="Fill-277" class="st9" points="490.8,468.2 491.7,468.2 491.7,464.7 490.8,464.7 			"/>
			<polygon id="Fill-278" class="st9" points="502.7,468.2 503.6,468.2 503.6,464.7 502.7,464.7 			"/>
			<polygon id="Fill-279" class="st9" points="490.9,473.4 491.9,473.4 491.9,472.5 490.9,472.5 			"/>
			<polygon id="Fill-280" class="st9" points="492.8,473.4 493.9,473.4 493.9,472.5 492.8,472.5 			"/>
			<polygon id="Fill-281" class="st9" points="494.8,473.4 495.8,473.4 495.8,472.5 494.8,472.5 			"/>
			<polygon id="Fill-282" class="st9" points="496.7,473.4 497.7,473.4 497.7,472.5 496.7,472.5 			"/>
			<polygon id="Fill-283" class="st9" points="498.6,473.4 499.6,473.4 499.6,472.5 498.6,472.5 			"/>
			<polygon id="Fill-284" class="st9" points="500.5,473.4 501.6,473.4 501.6,472.5 500.5,472.5 			"/>
			<polygon id="Fill-285" class="st9" points="502.5,473.4 503.5,473.4 503.5,472.5 502.5,472.5 			"/>
			<polygon id="Fill-286" class="st9" points="490.9,475.4 491.9,475.4 491.9,474.5 490.9,474.5 			"/>
			<polygon id="Fill-287" class="st9" points="492.8,475.4 493.9,475.4 493.9,474.5 492.8,474.5 			"/>
			<polygon id="Fill-288" class="st9" points="494.8,475.4 495.8,475.4 495.8,474.5 494.8,474.5 			"/>
			<polygon id="Fill-289" class="st9" points="496.7,475.4 497.7,475.4 497.7,474.5 496.7,474.5 			"/>
			<polygon id="Fill-290" class="st9" points="498.6,475.4 499.6,475.4 499.6,474.5 498.6,474.5 			"/>
			<polygon id="Fill-291" class="st9" points="500.5,475.4 501.6,475.4 501.6,474.5 500.5,474.5 			"/>
			<polygon id="Fill-292" class="st9" points="502.5,475.4 503.5,475.4 503.5,474.5 502.5,474.5 			"/>
			<polygon id="Fill-293" class="st9" points="490.9,477.4 491.9,477.4 491.9,476.5 490.9,476.5 			"/>
			<polygon id="Fill-294" class="st9" points="492.8,477.4 493.9,477.4 493.9,476.5 492.8,476.5 			"/>
			<polygon id="Fill-295" class="st9" points="494.8,477.4 495.8,477.4 495.8,476.5 494.8,476.5 			"/>
			<polygon id="Fill-296" class="st9" points="496.7,477.4 497.7,477.4 497.7,476.5 496.7,476.5 			"/>
			<polygon id="Fill-297" class="st9" points="498.6,477.4 499.6,477.4 499.6,476.5 498.6,476.5 			"/>
			<polygon id="Fill-298" class="st9" points="500.5,477.4 501.6,477.4 501.6,476.5 500.5,476.5 			"/>
			<polygon id="Fill-299" class="st9" points="502.5,477.4 503.5,477.4 503.5,476.5 502.5,476.5 			"/>
			<polygon id="Fill-300" class="st9" points="490.9,479.3 491.9,479.3 491.9,478.5 490.9,478.5 			"/>
			<polygon id="Fill-301" class="st9" points="492.8,479.3 493.9,479.3 493.9,478.5 492.8,478.5 			"/>
			<polygon id="Fill-302" class="st9" points="494.8,479.3 495.8,479.3 495.8,478.5 494.8,478.5 			"/>
			<polygon id="Fill-303" class="st9" points="496.7,479.3 497.7,479.3 497.7,478.5 496.7,478.5 			"/>
			<polygon id="Fill-304" class="st9" points="498.6,479.3 499.6,479.3 499.6,478.5 498.6,478.5 			"/>
			<polygon id="Fill-305" class="st9" points="500.5,479.3 501.6,479.3 501.6,478.5 500.5,478.5 			"/>
			<polygon id="Fill-306" class="st9" points="502.5,479.3 503.5,479.3 503.5,478.5 502.5,478.5 			"/>
			<path id="Stroke-307" class="st4" d="M457.1,466.3v3"/>
			<path id="Stroke-308" class="st4" d="M451.6,469.7l2.6,1.5"/>
			<path id="Stroke-309" class="st4" d="M451.8,476.3l2.6-1.5"/>
			<path id="Stroke-310" class="st4" d="M457.5,479.3v-3"/>
			<path id="Stroke-311" class="st4" d="M463.1,475.9l-2.6-1.5"/>
			<path id="Stroke-312" class="st4" d="M462.9,469.3l-2.6,1.5"/>
			<path id="Fill-313" class="st5" d="M582.6,417.1h1.7l0.2-2.3l0.4-0.1c0.8-0.2,1.6-0.5,2.3-0.9l0.4-0.2l1.8,1.6l1.2-1.2l-1.5-1.8
				l0.3-0.4c0.5-0.7,0.8-1.4,1-2.2l0.1-0.4l2.4-0.2v-1.7l-2.3-0.2l-0.1-0.4c-0.2-0.8-0.5-1.6-0.9-2.3l-0.2-0.4l1.6-1.8l-1.2-1.2
				l-1.8,1.5l-0.4-0.2c-0.7-0.5-1.4-0.8-2.2-1l-0.4-0.1l-0.2-2.4h-1.7l-0.2,2.3l-0.4,0.1c-0.8,0.2-1.6,0.5-2.3,0.9l-0.4,0.2
				l-1.8-1.6l-1.2,1.2l1.5,1.8l-0.3,0.4c-0.5,0.7-0.8,1.4-1,2.2l-0.1,0.4l-2.4,0.2v1.7l2.3,0.2l0.1,0.4c0.2,0.8,0.5,1.6,0.9,2.3
				l0.2,0.4l-1.6,1.8l1.2,1.2l1.8-1.5l0.4,0.2c0.7,0.5,1.4,0.8,2.2,1l0.4,0.1L582.6,417.1z M585.3,418.2h-3.8l-0.2-2.6
				c-0.6-0.2-1.3-0.5-1.8-0.8l-1.9,1.6l-2.7-2.7l1.7-2c-0.3-0.6-0.6-1.2-0.7-1.9l-2.5-0.2v-3.8l2.6-0.2c0.2-0.6,0.5-1.3,0.8-1.8
				l-1.6-1.9l2.7-2.7l2,1.7c0.6-0.3,1.2-0.6,1.9-0.7l0.2-2.5h3.8l0.2,2.6c0.6,0.2,1.3,0.5,1.8,0.8l1.9-1.6l2.7,2.7l-1.7,2
				c0.3,0.6,0.6,1.2,0.7,1.9l2.5,0.2v3.8l-2.6,0.2c-0.2,0.6-0.5,1.3-0.8,1.8l1.6,1.9l-2.7,2.7l-2-1.7c-0.6,0.3-1.2,0.6-1.9,0.7
				L585.3,418.2z"/>
			<path id="Fill-314" class="st5" d="M583.6,405.4c-1.4,0-2.5,1.1-2.5,2.5s1.1,2.5,2.5,2.5s2.5-1.1,2.5-2.5S585,405.4,583.6,405.4
				 M583.6,411.5c-2,0-3.6-1.6-3.6-3.6s1.6-3.6,3.6-3.6s3.6,1.6,3.6,3.6C587.2,409.9,585.6,411.5,583.6,411.5"/>
			<path id="Stroke-315" class="st4" d="M350.3,341.9h2.3"/>
			<path id="Stroke-316" class="st7" d="M357.3,341.9h43.4"/>
			<polyline id="Stroke-317" class="st4" points="348,347.1 343,342 348,336.9 			"/>
			<polyline id="Stroke-318" class="st4" points="404.1,336.9 409.2,342 404.1,347.1 			"/>
			<path id="Fill-319" class="st9" d="M50.1,456.1l-2.6-5.9l5.9-2.6l2.7,5.9L50.1,456.1z M63.8,452.3c-0.5-1.1-1.8-1.6-2.8-1.1
				l-1,0.5l-2.7-5.9l1-0.5c1.1-0.5,1.6-1.8,1.1-2.8c-0.5-1.1-1.8-1.6-2.8-1.1l-1,0.5l-0.5-1c-0.5-1.1-1.8-1.6-2.8-1.1
				c-1.1,0.5-1.6,1.8-1.1,2.8l0.5,1l-5.9,2.6l-0.5-1c-0.5-1.1-1.8-1.6-2.8-1.1c-1.1,0.5-1.6,1.8-1.1,2.8l0.5,1l-1,0.5
				c-1.1,0.5-1.6,1.8-1.1,2.8c0.5,1.1,1.8,1.6,2.8,1.1l1-0.5l2.6,5.9l-1,0.5c-1.1,0.5-1.6,1.8-1.1,2.8c0.5,1.1,1.8,1.6,2.8,1.1
				l1-0.5l0.5,1c0.5,1.1,1.8,1.6,2.8,1.1c1.1-0.5,1.6-1.8,1.1-2.8l-0.5-1l5.9-2.6l0.5,1c0.5,1.1,1.8,1.6,2.8,1.1
				c1.1-0.5,1.6-1.8,1.1-2.8l-0.5-1l1-0.5C63.8,454.6,64.3,453.4,63.8,452.3L63.8,452.3z"/>
		</g>
		<g id="SLACK" transform="translate(162.000000, 556.000000)">
			<g class="st3">
				<path class="st5" d="M-2.2,8C-3,8-3.6,8.3-3.6,8.9c0,2.1,6.7,0.9,6.7,5.5c0,2.6-2.3,3.9-5.1,3.9c-2.1,0-4.4-0.8-5.9-2l1.3-2.6
					c1.3,1.1,3.3,1.9,4.6,1.9c1,0,1.6-0.4,1.6-1c0-2.2-6.7-0.9-6.7-5.4c0-2.4,2-3.9,5.1-3.9c1.9,0,3.8,0.6,5.1,1.4L1.8,9.3
					C0.6,8.6-1.2,8-2.2,8z"/>
				<path class="st5" d="M8.2,5.4v9.9h5.4v2.8H4.8V5.4H8.2z"/>
				<path class="st5" d="M23.7,16h-5.5l-0.9,2.3h-3.4l5.5-12.8h3.4l5.4,12.8h-3.6L23.7,16z M22.8,13.4L21,8.9l-1.8,4.6h3.6V13.4z"/>
				<path class="st5" d="M35.1,8.2c-2,0-3.5,1.6-3.5,3.6c0,2.1,1.5,3.6,3.5,3.6c1.1,0,2.3-0.6,3.2-1.5l2,2.1
					c-1.4,1.4-3.4,2.4-5.3,2.4c-3.9,0-6.7-2.8-6.7-6.6c0-3.7,2.9-6.5,6.8-6.5c1.9,0,3.9,0.8,5.2,2.2l-1.9,2.3
					C37.4,8.8,36.2,8.2,35.1,8.2z"/>
				<path class="st5" d="M49.9,18.2l-3.3-4.9L45,15.1v3.1h-3.3V5.4H45v5.4l4.8-5.4h3.9L49,10.7l5,7.5H49.9z"/>
			</g>
		</g>
		<g id="DEMOS" transform="translate(157.000000, 438.000000)">
			<g class="st3">
				<path class="st5" d="M9.1,11.9c0,3.8-2.8,6.4-6.9,6.4h-5.4V5.5h5.5C6.3,5.5,9.1,8.1,9.1,11.9z M5.7,11.9c0-2.2-1.4-3.7-3.5-3.7
					H0.1v7.4h2.3C4.3,15.6,5.7,14.1,5.7,11.9z"/>
				<path class="st5" d="M20.9,5.5v2.7h-6.8v2.4h6.1v2.7h-6.1v2.4H21v2.7H10.8V5.5H20.9z"/>
				<path class="st5" d="M26.7,5.5l3.4,7.5l3.4-7.5h3.6v12.8h-3v-8.1l-3,6.8H29l-3-6.8v8.1h-3V5.5H26.7z"/>
			</g>
			<g class="st3">
				<path class="st5" d="M53.2,11.9c0,3.7-3,6.6-6.9,6.6c-4,0-6.9-2.8-6.9-6.6c0-3.7,3-6.5,6.9-6.5C50.2,5.4,53.2,8.2,53.2,11.9z
					 M42.8,11.9c0,2.1,1.6,3.7,3.5,3.7s3.4-1.6,3.4-3.7s-1.5-3.6-3.4-3.6C44.4,8.3,42.8,9.8,42.8,11.9z"/>
			</g>
			<g class="st3">
				<path class="st5" d="M59.7,8.1c-0.8,0-1.3,0.3-1.3,0.9c0,2.1,6.7,0.9,6.7,5.5c0,2.6-2.3,3.9-5.1,3.9c-2.1,0-4.4-0.8-5.9-2
					l1.3-2.6c1.3,1.1,3.3,1.9,4.6,1.9c1,0,1.6-0.4,1.6-1c0-2.2-6.7-0.9-6.7-5.4c0-2.4,2-3.9,5.1-3.9c1.9,0,3.8,0.6,5.1,1.4l-1.3,2.6
					C62.5,8.7,60.8,8.1,59.7,8.1z"/>
			</g>
		</g>
		<g id="CONSISTENT" transform="translate(157.000000, 428.000000)">
			<g class="st3">
				<path class="st10" d="M-0.2,4.5c-1.1,0-1.9,0.9-1.9,2c0,1.2,0.8,2,1.9,2c0.6,0,1.3-0.3,1.8-0.8l1.1,1.2c-0.8,0.8-1.9,1.3-3,1.3
					C-2.4,10.2-4,8.6-4,6.5s1.6-3.6,3.8-3.6c1.1,0,2.2,0.5,2.9,1.2L1.6,5.4C1.2,4.8,0.5,4.5-0.2,4.5z"/>
			</g>
			<g class="st3">
				<path class="st10" d="M11,6.5c0,2.1-1.7,3.7-3.9,3.7S3.3,8.6,3.3,6.5S5,2.9,7.2,2.9S11,4.4,11,6.5z M5.2,6.5
					c0,1.2,0.9,2.1,2,2.1s1.9-0.9,1.9-2.1s-0.9-2-1.9-2C6.1,4.5,5.2,5.4,5.2,6.5z"/>
				<path class="st10" d="M13.6,2.9l3.2,4.3V2.9h1.7V10h-1.6l-3.2-4.3V10H12V2.9H13.6z"/>
				<path class="st10" d="M22.6,4.4c-0.4,0-0.7,0.2-0.7,0.5c0,1.2,3.8,0.5,3.8,3.1c0,1.5-1.3,2.2-2.9,2.2c-1.2,0-2.4-0.4-3.3-1.1
					l0.7-1.5c0.7,0.6,1.8,1.1,2.6,1.1c0.6,0,0.9-0.2,0.9-0.6c0-1.2-3.8-0.5-3.8-3c0-1.3,1.1-2.2,2.9-2.2c1,0,2.1,0.3,2.9,0.8L25,5.2
					C24.1,4.7,23.2,4.4,22.6,4.4z"/>
				<path class="st10" d="M28.4,2.9V10h-1.9V2.9H28.4z"/>
			</g>
			<g class="st3">
				<path class="st10" d="M33.5,4.4c-0.4,0-0.7,0.2-0.7,0.5c0,1.2,3.8,0.5,3.8,3.1c0,1.5-1.3,2.2-2.9,2.2c-1.2,0-2.4-0.4-3.3-1.1
					l0.7-1.5c0.7,0.6,1.8,1.1,2.6,1.1c0.6,0,0.9-0.2,0.9-0.6c0-1.2-3.8-0.5-3.8-3c0-1.3,1.1-2.2,2.9-2.2c1,0,2.1,0.3,2.9,0.8
					l-0.7,1.5C35,4.7,34.1,4.4,33.5,4.4z"/>
			</g>
			<g class="st3">
				<path class="st10" d="M42.9,2.9v1.5h-2.1V10h-1.9V4.5h-2.1V2.9H42.9z"/>
				<path class="st10" d="M49.3,2.9v1.5h-3.8v1.3h3.4v1.5h-3.4v1.3h3.9V10h-5.7V2.9H49.3z"/>
				<path class="st10" d="M52.2,2.9l3.2,4.3V2.9h1.7V10h-1.6l-3.2-4.3V10h-1.7V2.9H52.2z"/>
				<path class="st10" d="M64,2.9v1.5h-2.1V10H60V4.5h-2.1V2.9H64z"/>
			</g>
		</g>
		<g id="OF-WORKING-FEATURES" transform="translate(130.000000, 459.000000)">
			<g class="st3">
				<path class="st10" d="M3.6,6.6c0,2.1-1.7,3.7-3.9,3.7s-3.9-1.6-3.9-3.7c0-2,1.7-3.6,3.9-3.6S3.6,4.6,3.6,6.6z M-2.2,6.6
					c0,1.2,0.9,2.1,2,2.1s1.9-0.9,1.9-2.1s-0.9-2-1.9-2C-1.4,4.6-2.2,5.5-2.2,6.6z"/>
				<path class="st10" d="M9.8,3.1v1.5H6.3v1.6h3.2v1.5H6.3v2.6H4.5V3.1H9.8z"/>
			</g>
			<g class="st3">
				<path class="st10" d="M15.3,3.1l1.4,5.2L18,3.1h1.8l1.4,5.2l1.3-5.2h1.9L22,10.2h-1.9l-1.3-4.8l-1.3,4.8h-1.9l-2.3-7.1
					C13.3,3.1,15.3,3.1,15.3,3.1z"/>
			</g>
			<g class="st3">
				<path class="st10" d="M31.6,6.6c0,2.1-1.7,3.7-3.9,3.7s-3.9-1.6-3.9-3.7S25.5,3,27.7,3S31.6,4.6,31.6,6.6z M25.8,6.6
					c0,1.2,0.9,2.1,2,2.1c1.1,0,1.9-0.9,1.9-2.1s-0.9-2-1.9-2C26.7,4.6,25.8,5.5,25.8,6.6z"/>
				<path class="st10" d="M36.8,10.2l-1-2l0,0h-1.3v2h-1.9V3.1h3.2c1.9,0,3,0.9,3,2.5c0,1.1-0.4,1.9-1.3,2.3l1.5,2.3H36.8z
					 M34.4,6.7h1.4c0.8,0,1.2-0.4,1.2-1.1s-0.4-1.1-1.2-1.1h-1.4V6.7z"/>
				<path class="st10" d="M44.5,10.2l-1.9-2.8l-0.9,1v1.7h-1.9v-7h1.9v3l2.7-3h2.2L44,6l2.8,4.2H44.5z"/>
				<path class="st10" d="M49.4,3.1v7.1h-1.9V3.1H49.4z"/>
				<path class="st10" d="M52.4,3.1l3.2,4.3V3.1h1.7v7.1h-1.6l-3.2-4.3v4.3h-1.7V3.1H52.4z"/>
				<path class="st10" d="M63.5,6.6h1.6v2.8c-0.8,0.5-2,0.9-3,0.9c-2.2,0-3.8-1.6-3.8-3.6S60,3,62.3,3c1.1,0,2.2,0.4,2.9,1.1
					l-1.1,1.3c-0.5-0.5-1.2-0.8-1.9-0.8c-1.2,0-2,0.9-2,2c0,1.2,0.9,2.1,2,2.1c0.4,0,0.8-0.1,1.2-0.3L63.5,6.6L63.5,6.6z"/>
				<path class="st10" d="M74.1,3.1v1.5h-3.5v1.6h3.2v1.5h-3.2v2.6h-1.9V3.1H74.1z"/>
				<path class="st10" d="M80.6,3.1v1.5h-3.8v1.3h3.4v1.5h-3.4v1.3h3.9v1.5H75V3.1H80.6z"/>
			</g>
			<g class="st3">
				<path class="st10" d="M86.2,8.9h-3.1l-0.5,1.3h-1.9l3.1-7.1h1.9l3,7.1h-2L86.2,8.9z M85.7,7.5l-1-2.5l-1,2.5H85.7z"/>
			</g>
			<g class="st3">
				<path class="st10" d="M93.7,3.1v1.5h-2.1v5.6h-1.9V4.6h-2.1V3.1H93.7z"/>
				<path class="st10" d="M97.6,8.7c0.8,0,1.4-0.6,1.4-1.5V3.1h1.9v4.1c0,1.9-1.3,3.1-3.3,3.1s-3.3-1.2-3.3-3.1V3.1h1.9v4.1
					C96.2,8.1,96.8,8.7,97.6,8.7z"/>
				<path class="st10" d="M106.5,10.2l-1-2l0,0H104v2h-1.9V3.1h3.2c1.9,0,3,0.9,3,2.5c0,1.1-0.4,1.9-1.3,2.3l1.5,2.3H106.5z
					 M104,6.7h1.4c0.8,0,1.2-0.4,1.2-1.1s-0.4-1.1-1.2-1.1H104V6.7z"/>
				<path class="st10" d="M115.2,3.1v1.5h-3.8v1.3h3.4v1.5h-3.4v1.3h3.9v1.5h-5.7V3.1H115.2z"/>
				<path class="st10" d="M119,4.5c-0.4,0-0.7,0.2-0.7,0.5c0,1.2,3.8,0.5,3.8,3.1c0,1.5-1.3,2.2-2.9,2.2c-1.2,0-2.4-0.4-3.3-1.1
					l0.7-1.5c0.7,0.6,1.8,1.1,2.6,1.1c0.6,0,0.9-0.2,0.9-0.6c0-1.2-3.8-0.5-3.8-3c0-1.3,1.1-2.2,2.9-2.2c1.1,0,2.1,0.3,2.9,0.8
					l-0.7,1.5C120.6,4.8,119.6,4.5,119,4.5z"/>
			</g>
		</g>
		<g id="TRELLO" transform="translate(157.000000, 650.000000)">
			<g class="st3">
				<path class="st5" d="M5,6.1v2.8H1.2v10h-3.3v-10h-3.8V6.1H5z"/>
				<path class="st5" d="M14.1,18.9l-1.9-3.5h-0.1H9.7v3.5H6.4V6.1h5.7c3.4,0,5.3,1.6,5.3,4.5c0,1.9-0.8,3.4-2.3,4.1l2.7,4.2
					C17.8,18.9,14.1,18.9,14.1,18.9z M9.7,12.7h2.4c1.4,0,2.1-0.7,2.1-2s-0.8-1.9-2.1-1.9H9.7V12.7z"/>
				<path class="st5" d="M29.7,6.1v2.7h-6.8v2.4H29v2.7h-6.1v2.4h6.9V19H19.6V6.1H29.7z"/>
				<path class="st5" d="M35.3,6.1V16h5.4v2.8h-8.8V6.1H35.3z"/>
			</g>
			<g class="st3">
				<path class="st5" d="M45.2,6.1V16h5.4v2.8h-8.8V6.1H45.2z"/>
			</g>
			<g class="st3">
				<path class="st5" d="M64.5,12.5c0,3.7-3,6.6-6.9,6.6c-4,0-6.9-2.8-6.9-6.6c0-3.7,3-6.5,6.9-6.5C61.6,6,64.5,8.7,64.5,12.5z
					 M54.1,12.5c0,2.1,1.6,3.7,3.5,3.7s3.4-1.6,3.4-3.7s-1.5-3.6-3.4-3.6C55.7,8.8,54.1,10.4,54.1,12.5z"/>
			</g>
		</g>
		<g id="GITHUB" transform="translate(158.000000, 752.000000)">
			<g class="st3">
				<path class="st5" d="M4,11.7h2.9v5c-1.4,0.9-3.5,1.6-5.3,1.6c-3.9,0-6.8-2.8-6.8-6.5s3-6.5,7.1-6.5c1.9,0,3.9,0.7,5.3,1.9
					L5.3,9.5C4.3,8.7,3,8.2,1.8,8.2c-2.1,0-3.6,1.6-3.6,3.7s1.6,3.7,3.6,3.7c0.6,0,1.4-0.2,2.2-0.6V11.7z"/>
				<path class="st5" d="M12.5,5.4v12.8H9.2V5.4H12.5z"/>
				<path class="st5" d="M24.8,5.4v2.8H21v10h-3.3v-10h-3.8V5.4H24.8z"/>
				<path class="st5" d="M29.5,5.4v5.2h5.2V5.4H38v12.8h-3.3v-4.9h-5.2v4.9h-3.3V5.4H29.5z"/>
				<path class="st5" d="M46.2,15.5c1.5,0,2.5-1,2.5-2.7V5.4H52v7.4c0,3.4-2.3,5.5-5.9,5.5c-3.6,0-5.9-2.1-5.9-5.5V5.4h3.3v7.4
					C43.6,14.5,44.7,15.5,46.2,15.5z"/>
				<path class="st5" d="M65.2,8.6c0,1.3-0.9,2.4-2.2,2.8c1.6,0.3,2.6,1.6,2.6,3.2c0,2.2-1.9,3.6-4.9,3.6h-6.3V5.4h6.1
					C63.3,5.4,65.2,6.7,65.2,8.6z M61.7,9.2c0-0.8-0.6-1.2-1.5-1.2h-2.6v2.5h2.6C61.1,10.5,61.7,10,61.7,9.2z M62.1,14.2
					c0-0.8-0.7-1.3-1.9-1.3h-2.6v2.7h2.6C61.4,15.6,62.1,15.1,62.1,14.2z"/>
			</g>
		</g>
		<g id="Group-379" transform="translate(174.713881, 241.062719)">
			<path id="Fill-321" class="st9" d="M19.3,392.1c0,0.7-0.6,1.3-1.3,1.3h-4.3c-0.7,0-1.3-0.6-1.3-1.3v-7.5c0-0.7,0.6-1.3,1.3-1.3
				H18c0.7,0,1.3,0.6,1.3,1.3V392.1z M9.5,397.8c0,0.7-0.6,1.3-1.3,1.3H3.9c-0.7,0-1.3-0.6-1.3-1.3v-13.2c0-0.7,0.6-1.3,1.3-1.3h4.3
				c0.7,0,1.3,0.6,1.3,1.3V397.8z M19.5,380.2H2.4c-1.5,0-2.8,1.2-2.8,2.8v17c0,1.5,1.2,2.8,2.8,2.8h17.1c1.5,0,2.8-1.2,2.8-2.8
				v-17.1C22.3,381.4,21,380.2,19.5,380.2L19.5,380.2z"/>
			<path id="Stroke-323" class="st4" d="M474.7,170.1h2.3"/>
			<path id="Stroke-325" class="st7" d="M481.7,170.1h106.5"/>
			<polyline id="Stroke-327" class="st4" points="472.5,175.3 467.4,170.2 472.5,165.1 			"/>
			<polyline id="Stroke-329" class="st4" points="591,165.1 596.1,170.2 591,175.3 			"/>
			<path id="Stroke-331" class="st4" d="M245.6,9.9l1.6,1.6"/>
			<polyline id="Stroke-333" class="st7" points="250.5,14.8 282.4,46.7 282.2,93 			"/>
			<polyline id="Stroke-335" class="st4" points="240.3,12 240.3,4.7 247.5,4.7 			"/>
			<polyline id="Stroke-337" class="st4" points="287.3,97 282.2,102.1 277.1,97 			"/>
			<path id="Stroke-339" class="st7" d="M278.8,246.4v141"/>
			<polyline id="Stroke-341" class="st4" points="273.6,245.4 278.7,240.3 283.8,245.4 			"/>
			<polyline id="Stroke-343" class="st4" points="283.8,390.8 278.7,395.9 273.6,390.8 			"/>
			<path id="Stroke-345" class="st7" d="M433.9,246.4v141"/>
			<polyline id="Stroke-347" class="st4" points="428.7,245.4 433.8,240.3 438.9,245.4 			"/>
			<polyline id="Stroke-349" class="st4" points="438.9,390.8 433.8,395.9 428.7,390.8 			"/>
			<path id="Stroke-351" class="st11" d="M463.4,102l95.7-95.7"/>
			<path id="Stroke-353" class="st4" d="M541.7,23.8l1.6-1.6"/>
			<polyline id="Stroke-355" class="st4" points="467,105.9 459.8,105.9 459.8,98.7 			"/>
			<polyline id="Stroke-357" class="st4" points="558.6,0.5 565.8,0.5 565.8,7.7 			"/>
			<path id="Stroke-359" class="st11" d="M465.9,231.4l101.6,82.4"/>
			<polyline id="Stroke-361" class="st4" points="460.1,233 460.1,225.8 467.3,225.8 			"/>
			<polyline id="Stroke-363" class="st4" points="573.4,387.6 568.3,392.7 563.2,387.6 			"/>
			<path id="Stroke-365" class="st7" d="M568.3,316.4v72.1"/>
			<path id="Stroke-367" class="st4" d="M9.2,149.7c-3.8-0.4-7.7,0.8-10.5,3.7c-1.8,1.8-2.9,4-3.5,6.3c1,1,2.1,1.9,3.2,3L9.2,149.7z
				"/>
			<path id="Stroke-369" class="st4" d="M20.9,160.9L7.7,172c1.1,1.2,2.2,2.4,3.3,3.5c2.3-0.5,4.5-1.7,6.3-3.5
				C20.3,169,21.6,164.8,20.9,160.9z"/>
			<path id="Stroke-371" class="st4" d="M1.9,158.8l9.7,9.7l14.2-11.9c5.6-4.7,7.9-11.9,6.7-18.7c-6.7-1.2-13.9,1.1-18.7,6.7
				L1.9,158.8z"/>
			<path id="Stroke-373" class="st8" d="M3.4,171.4c-1.2,1.2-7.4,3-7.4,3c-0.1,0.1,1.7-6.2,3-7.4c1.2-1.2,3.2-1.2,4.5,0
				C4.6,168.1,4.6,170.1,3.4,171.4z"/>
			<path id="Stroke-375" class="st4" d="M27.9,142.4c1.5,1.5,2.8,3.1,4,4.8c0.9-3,1.1-6.2,0.5-9.3c-3.1-0.6-6.3-0.4-9.3,0.5
				C24.8,139.6,26.4,140.9,27.9,142.4z"/>
			<path id="Stroke-377" class="st4" d="M4.3,155.2L15.1,166"/>
		</g>
		<g id="CALL" transform="translate(170.000000, 310.000000)">
			<g class="st3">
				<path class="st5" d="M3.3,8.1c-2,0-3.5,1.6-3.5,3.6c0,2.1,1.5,3.6,3.5,3.6c1.1,0,2.3-0.6,3.2-1.5l2,2.1
					c-1.4,1.4-3.4,2.4-5.3,2.4c-3.9,0-6.7-2.8-6.7-6.6c0-3.7,2.9-6.5,6.8-6.5c1.9,0,3.9,0.8,5.2,2.2l-2,2.4C5.7,8.8,4.4,8.1,3.3,8.1
					z"/>
			</g>
			<g class="st3">
				<path class="st5" d="M19,15.9h-5.5l-0.9,2.3H9.1l5.5-12.8H18l5.4,12.8h-3.6L19,15.9z M18,13.3l-1.8-4.6l-1.8,4.6
					C14.4,13.3,18,13.3,18,13.3z"/>
				<path class="st5" d="M27.9,5.4v9.9h5.4v2.8h-8.8V5.4H27.9z"/>
				<path class="st5" d="M38.2,5.4v9.9h5.4v2.8h-8.8V5.4H38.2z"/>
			</g>
		</g>
		<g id="WEEKLY" transform="translate(167.000000, 300.000000)">
			<g class="st3">
				<path class="st10" d="M2.5,3.4l1.4,5.2l1.3-5.2H7l1.4,5.2l1.3-5.2h1.9l-2.4,7.1H7.4L6.1,5.7l-1.3,4.8h-2L0.5,3.4H2.5z"/>
				<path class="st10" d="M17.9,3.4v1.5h-3.8v1.3h3.4v1.5h-3.4V9H18v1.5h-5.7V3.4H17.9z"/>
				<path class="st10" d="M24.8,3.4v1.5H21v1.3h3.4v1.5H21V9h3.9v1.5h-5.7V3.4H24.8z"/>
				<path class="st10" d="M30.7,10.6l-1.9-2.8l-0.9,1v1.7H26V3.4h1.9v3l2.7-3h2.2l-2.6,3l2.8,4.2H30.7z"/>
			</g>
			<g class="st3">
				<path class="st10" d="M34.5,3.4V9h3v1.6h-4.9V3.4H34.5z"/>
			</g>
			<g class="st3">
				<path class="st10" d="M41.1,8.3v2.3h-1.9V8.3l-2.6-4.9h1.9l1.7,3.1l1.7-3.1h1.9L41.1,8.3z"/>
			</g>
		</g>
		<g id="Group-416" transform="translate(52.334278, 258.274199)">
			<path id="Stroke-380" class="st7" d="M5,93.8h267.2"/>
			<polyline id="Stroke-382" class="st4" points="2.1,99 -3,93.9 2.1,88.8 			"/>
			<polyline id="Stroke-384" class="st4" points="273.6,88.8 278.7,93.9 273.6,99 			"/>
			<path id="Stroke-386" class="st7" d="M5,239.4h267.2"/>
			<polyline id="Stroke-388" class="st4" points="2.1,244.6 -3,239.5 2.1,234.4 			"/>
			<polyline id="Stroke-390" class="st4" points="273.6,234.4 278.7,239.5 273.6,244.6 			"/>
			<path id="Stroke-392" class="st7" d="M5,338.6h267.2"/>
			<polyline id="Stroke-394" class="st4" points="2.1,343.8 -3,338.7 2.1,333.6 			"/>
			<polyline id="Stroke-396" class="st4" points="273.6,333.6 278.7,338.7 273.6,343.8 			"/>
			<path id="Stroke-398" class="st7" d="M5,434.5h267.2"/>
			<polyline id="Stroke-400" class="st4" points="2.1,439.7 -3,434.6 2.1,429.5 			"/>
			<polyline id="Stroke-402" class="st4" points="273.6,429.5 278.7,434.6 273.6,439.7 			"/>
			<path id="Stroke-404" class="st7" d="M5,536.7h267.2"/>
			<polyline id="Stroke-406" class="st4" points="2.1,541.9 -3,536.8 2.1,531.8 			"/>
			<polyline id="Stroke-408" class="st4" points="273.6,531.8 278.7,536.9 273.6,541.9 			"/>
			<path id="Fill-410" class="st5" d="M156.8,15.9c0,0.9-0.7,1.6-1.6,1.6h-3.1v5.9l-7.5-5.9h-10c-0.9,0-1.6-0.7-1.6-1.6V2.1
				c0-0.9,0.7-1.6,1.6-1.6h20.5c0.9,0,1.6,0.7,1.6,1.6v13.8H156.8z"/>
			<path id="Stroke-412" class="st4" d="M120,24.8c0,0.9,0.7,1.6,1.6,1.6h3.1v5.9l7.5-5.9h10c0.9,0,1.6-0.7,1.6-1.6V11
				c0-0.9-0.7-1.6-1.6-1.6h-20.5c-0.9,0-1.6,0.7-1.6,1.6L120,24.8L120,24.8z"/>
			<path id="Fill-414" class="st9" d="M145,470.3c-1.1-1.9-2.6-3.4-4.5-4.5s-3.9-1.7-6.2-1.7c-2.2,0-4.3,0.6-6.2,1.7
				s-3.4,2.6-4.5,4.5s-1.7,3.9-1.7,6.2c0,2.7,0.8,5.1,2.3,7.2c1.6,2.1,3.6,3.6,6.1,4.4c0.3,0.1,0.5,0,0.6-0.1s0.2-0.3,0.2-0.5
				c0,0,0-0.3,0-0.9c0-0.5,0-1,0-1.4l-0.4,0.1c-0.2,0-0.5,0.1-0.9,0.1s-0.7,0-1.1-0.1c-0.4-0.1-0.7-0.2-1.1-0.5
				c-0.3-0.3-0.6-0.6-0.7-1l-0.2-0.4c-0.1-0.2-0.3-0.5-0.5-0.8s-0.5-0.5-0.7-0.6l-0.1-0.1c-0.1-0.1-0.1-0.1-0.2-0.2
				c-0.1-0.1-0.1-0.1-0.1-0.2s0-0.1,0.1-0.2c0.1,0,0.2-0.1,0.5-0.1h0.3c0.2,0,0.5,0.2,0.8,0.4c0.3,0.2,0.6,0.5,0.8,0.8
				c0.2,0.4,0.5,0.8,0.9,1c0.3,0.2,0.7,0.3,1,0.3c0.4,0,0.7,0,0.9-0.1c0.3-0.1,0.5-0.1,0.7-0.2c0.1-0.7,0.4-1.3,0.8-1.7
				c-0.6-0.1-1.2-0.2-1.6-0.3c-0.5-0.1-1-0.3-1.5-0.6c-0.5-0.3-0.9-0.6-1.3-1.1c-0.3-0.4-0.6-1-0.8-1.7s-0.3-1.5-0.3-2.4
				c0-1.3,0.4-2.4,1.3-3.3c-0.4-1-0.4-2.1,0.1-3.3c0.3-0.1,0.8,0,1.4,0.2c0.6,0.2,1.1,0.4,1.3,0.6c0.3,0.2,0.5,0.3,0.7,0.4
				c1-0.3,2-0.4,3.1-0.4s2.1,0.1,3.1,0.4l0.6-0.4c0.4-0.3,0.9-0.5,1.5-0.7s1-0.3,1.3-0.2c0.5,1.2,0.5,2.3,0.1,3.3
				c0.8,0.9,1.3,2,1.3,3.3c0,0.9-0.1,1.7-0.3,2.4c-0.2,0.7-0.5,1.3-0.8,1.7c-0.3,0.4-0.8,0.8-1.3,1.1c-0.5,0.3-1,0.5-1.5,0.6
				s-1,0.2-1.6,0.3c0.6,0.5,0.8,1.2,0.8,2.3v3.4c0,0.2,0.1,0.4,0.2,0.5c0.1,0.1,0.3,0.2,0.6,0.1c2.5-0.8,4.5-2.3,6.1-4.4
				s2.3-4.6,2.3-7.2C146.6,474.2,146.1,472.2,145,470.3"/>
		</g>
	</g>
</g>
</svg>
