<?xml version="1.0" encoding="utf-8"?>
<!-- Generator: Adobe Illustrator 16.0.0, SVG Export Plug-In . SVG Version: 6.00 Build 0)  -->
<!DOCTYPE svg PUBLIC "-//W3C//DTD SVG 1.1//EN" "http://www.w3.org/Graphics/SVG/1.1/DTD/svg11.dtd">
<svg version="1.1" id="Layer_1" xmlns="http://www.w3.org/2000/svg" xmlns:xlink="http://www.w3.org/1999/xlink" x="0px" y="0px"
	 width="612px" height="372px" viewBox="0 217.5 612 372" enable-background="new 0 217.5 612 372" xml:space="preserve">
<g id="XMLID_29_">
	<g enable-background="new    ">
		<path fill="#FFFFFF" d="M43.268,273.011c2.805,0,5.221-0.471,7.245-1.414c2.024-0.942,4.141-2.45,6.349-4.521l5.244,5.383
			c-5.106,5.658-11.306,8.487-18.597,8.487c-7.292,0-13.341-2.346-18.148-7.038c-4.808-4.692-7.211-10.627-7.211-17.804
			c0-7.176,2.45-13.156,7.349-17.941c4.899-4.784,11.086-7.176,18.562-7.176c7.475,0,13.72,2.76,18.735,8.28l-5.175,5.659
			c-2.301-2.208-4.475-3.749-6.521-4.624c-2.048-0.873-4.451-1.311-7.211-1.311c-4.877,0-8.971,1.576-12.283,4.727
			c-3.312,3.151-4.968,7.176-4.968,12.075c0,4.899,1.645,8.995,4.934,12.283C34.86,271.367,38.759,273.011,43.268,273.011z"/>
		<path fill="#FFFFFF" d="M94.401,263.558v-19.874h7.729v36.71h-7.729v-6.693c-1.242,2.255-2.957,4.026-5.141,5.313
			c-2.186,1.288-4.543,1.932-7.073,1.932c-4.141,0-7.487-1.265-10.041-3.795c-2.553-2.529-3.83-6.187-3.83-10.972v-22.496h7.729
			v20.149c0,6.763,2.806,10.145,8.418,10.145c2.667,0,4.991-0.886,6.97-2.657C93.411,269.55,94.401,266.962,94.401,263.558z"/>
		<path fill="#FFFFFF" d="M137.735,269.423c0,3.496-1.266,6.291-3.795,8.384c-2.53,2.094-5.773,3.14-9.729,3.14
			c-2.668,0-5.44-0.482-8.315-1.449c-2.876-0.966-5.417-2.322-7.625-4.071l3.726-6.003c4.278,3.221,8.418,4.83,12.421,4.83
			c1.748,0,3.128-0.402,4.14-1.207c1.011-0.805,1.518-1.829,1.518-3.071c0-1.839-2.439-3.495-7.314-4.968
			c-0.369-0.139-0.645-0.23-0.828-0.276c-7.637-2.07-11.455-5.521-11.455-10.351c0-3.404,1.322-6.129,3.968-8.177
			c2.645-2.046,6.083-3.071,10.316-3.071c4.232,0,8.234,1.242,12.007,3.727l-2.898,5.728c-2.991-1.978-6.234-2.967-9.729-2.967
			c-1.841,0-3.336,0.334-4.485,1c-1.15,0.667-1.725,1.668-1.725,3.002c0,1.196,0.597,2.069,1.794,2.622
			c0.828,0.414,1.989,0.805,3.485,1.173c1.494,0.369,2.817,0.736,3.968,1.104c1.149,0.368,2.265,0.782,3.347,1.241
			c1.08,0.461,2.243,1.104,3.484,1.933C136.493,263.351,137.735,265.928,137.735,269.423z"/>
		<path fill="#FFFFFF" d="M154.296,249.895v18.631c0,1.749,0.459,3.14,1.38,4.175c0.919,1.035,2.208,1.553,3.864,1.553
			s3.243-0.804,4.761-2.415l3.174,5.451c-2.715,2.439-5.717,3.657-9.005,3.657c-3.29,0-6.096-1.139-8.418-3.415
			c-2.323-2.277-3.485-5.349-3.485-9.213v-18.424h-4.623v-6.21h4.623V232.16h7.729v11.524h9.661v6.21H154.296z"/>
		<path fill="#FFFFFF" d="M202.323,275.461c-3.681,3.657-8.281,5.485-13.801,5.485c-5.521,0-10.121-1.828-13.801-5.485
			c-3.681-3.657-5.52-8.131-5.52-13.422c0-5.289,1.839-9.764,5.52-13.421c3.68-3.657,8.281-5.486,13.801-5.486
			c5.52,0,10.12,1.829,13.801,5.486c3.68,3.658,5.521,8.132,5.521,13.421C207.844,267.33,206.003,271.804,202.323,275.461z
			 M180.208,270.699c2.184,2.232,4.956,3.347,8.315,3.347c3.357,0,6.129-1.114,8.315-3.347c2.185-2.23,3.278-5.117,3.278-8.66
			c0-3.542-1.093-6.428-3.278-8.66c-2.186-2.23-4.958-3.346-8.315-3.346c-3.359,0-6.131,1.116-8.315,3.346
			c-2.186,2.232-3.278,5.118-3.278,8.66C176.93,265.582,178.022,268.469,180.208,270.699z"/>
		<path fill="#FFFFFF" d="M222.61,260.521v19.873h-7.729v-36.71h7.729v6.693c1.104-2.253,2.771-4.025,5.003-5.313
			c2.23-1.287,4.634-1.932,7.211-1.932c5.796,0,9.729,2.393,11.8,7.177c3.633-4.784,8.165-7.177,13.594-7.177
			c4.14,0,7.487,1.266,10.04,3.795c2.553,2.531,3.83,6.188,3.83,10.972v22.495h-7.729v-20.149c0-6.763-2.807-10.144-8.418-10.144
			c-2.623,0-4.912,0.84-6.866,2.519c-1.956,1.68-2.979,4.13-3.071,7.349v20.426h-7.729v-20.149c0-3.495-0.621-6.061-1.863-7.694
			c-1.242-1.632-3.198-2.449-5.866-2.449c-2.668,0-4.992,0.886-6.969,2.656C223.599,254.529,222.61,257.117,222.61,260.521z"/>
		<path fill="#FFFFFF" d="M316.007,238.509c-2.37,0-4.313,0.483-5.831,1.449c-1.518,0.966-2.277,2.427-2.277,4.382
			c0,1.956,0.76,3.45,2.277,4.485c1.518,1.035,4.75,2.151,9.695,3.347c4.944,1.196,8.671,2.875,11.179,5.037
			c2.507,2.163,3.761,5.348,3.761,9.558c0,4.209-1.588,7.625-4.762,10.247s-7.338,3.933-12.49,3.933
			c-7.545,0-14.238-2.599-20.08-7.797l5.106-6.142c4.875,4.232,9.936,6.349,15.18,6.349c2.623,0,4.703-0.563,6.246-1.691
			c1.54-1.126,2.311-2.622,2.311-4.485c0-1.862-0.725-3.312-2.173-4.347c-1.449-1.035-3.945-1.978-7.487-2.829
			c-3.543-0.851-6.234-1.633-8.073-2.347c-1.841-0.712-3.474-1.644-4.899-2.794c-2.853-2.162-4.278-5.475-4.278-9.937
			c0-4.462,1.622-7.901,4.865-10.316c3.244-2.415,7.256-3.623,12.042-3.623c3.081,0,6.142,0.507,9.177,1.518
			c3.037,1.012,5.659,2.439,7.867,4.278l-4.348,6.141c-1.426-1.287-3.358-2.346-5.796-3.174
			C320.779,238.923,318.375,238.509,316.007,238.509z"/>
		<path fill="#FFFFFF" d="M372.762,275.461c-3.681,3.657-8.28,5.485-13.801,5.485c-5.52,0-10.121-1.828-13.801-5.485
			c-3.681-3.657-5.52-8.131-5.52-13.422c0-5.289,1.839-9.764,5.52-13.421c3.68-3.657,8.281-5.486,13.801-5.486
			c5.521,0,10.12,1.829,13.801,5.486c3.68,3.658,5.521,8.132,5.521,13.421C378.283,267.33,376.441,271.804,372.762,275.461z
			 M350.646,270.699c2.184,2.232,4.956,3.347,8.314,3.347c3.357,0,6.13-1.114,8.315-3.347c2.185-2.23,3.278-5.117,3.278-8.66
			c0-3.542-1.094-6.428-3.278-8.66c-2.186-2.23-4.958-3.346-8.315-3.346c-3.358,0-6.131,1.116-8.314,3.346
			c-2.186,2.232-3.277,5.118-3.277,8.66C347.369,265.582,348.461,268.469,350.646,270.699z"/>
		<path fill="#FFFFFF" d="M394.291,240.648v3.036h9.66v6.21h-9.66v30.5h-7.729v-30.5h-4.623v-6.21h4.623v-2.829
			c0-3.864,1.162-6.935,3.484-9.212c2.322-2.277,5.129-3.416,8.419-3.416c3.288,0,6.29,1.219,9.005,3.657l-3.174,5.451
			c-1.518-1.609-3.105-2.415-4.762-2.415s-2.944,0.518-3.863,1.553C394.75,237.508,394.291,238.9,394.291,240.648z"/>
		<path fill="#FFFFFF" d="M419.201,249.895v18.631c0,1.749,0.459,3.14,1.38,4.175c0.919,1.035,2.208,1.553,3.864,1.553
			s3.243-0.804,4.762-2.415l3.174,5.451c-2.715,2.439-5.717,3.657-9.006,3.657s-6.096-1.139-8.418-3.415
			c-2.323-2.277-3.484-5.349-3.484-9.213v-18.424h-4.623v-6.21h4.623V232.16h7.729v11.524h9.66v6.21H419.201z"/>
		<path fill="#FFFFFF" d="M453.979,280.395h-8.833l-12.696-36.71h8.005l9.108,27.74l9.108-27.74h8.004l9.109,27.74l9.108-27.74
			h8.005l-12.697,36.71h-8.832l-8.695-25.117L453.979,280.395z"/>
		<path fill="#FFFFFF" d="M527.4,280.395h-7.039v-4.899c-3.035,3.635-7.107,5.451-12.213,5.451c-3.819,0-6.982-1.08-9.488-3.243
			c-2.508-2.161-3.762-5.048-3.762-8.66c0-3.61,1.334-6.313,4.003-8.107c2.667-1.795,6.279-2.691,10.833-2.691h10.006v-1.38
			c0-4.876-2.715-7.315-8.143-7.315c-3.404,0-6.946,1.242-10.627,3.726l-3.449-4.83c4.461-3.542,9.522-5.313,15.181-5.313
			c4.323,0,7.854,1.093,10.593,3.278c2.736,2.186,4.105,5.624,4.105,10.316V280.395z M519.672,266.731v-3.105h-8.695
			c-5.566,0-8.35,1.749-8.35,5.245c0,1.794,0.69,3.163,2.07,4.105c1.381,0.943,3.301,1.415,5.762,1.415s4.611-0.69,6.453-2.07
			C518.751,270.94,519.672,269.078,519.672,266.731z"/>
		<path fill="#FFFFFF" d="M555.691,250.93c-3.819,0-6.693,1.242-8.625,3.727c-1.933,2.483-2.898,5.819-2.898,10.005v15.733h-7.729
			v-36.71h7.729v7.383c1.242-2.3,2.932-4.186,5.071-5.658c2.14-1.472,4.404-2.231,6.797-2.277l0.069,7.798
			C555.967,250.93,555.829,250.93,555.691,250.93z"/>
		<path fill="#FFFFFF" d="M596.266,265.421H567.49c0.184,2.668,1.402,4.819,3.657,6.451c2.253,1.634,4.831,2.45,7.729,2.45
			c4.6,0,8.097-1.449,10.489-4.348l4.416,4.83c-3.957,4.096-9.109,6.142-15.457,6.142c-5.152,0-9.535-1.713-13.146-5.141
			c-3.612-3.427-5.417-8.027-5.417-13.801c0-5.772,1.84-10.361,5.521-13.767c3.68-3.404,8.015-5.106,13.007-5.106
			c4.991,0,9.235,1.507,12.732,4.52c3.495,3.014,5.244,7.166,5.244,12.456V265.421z M567.49,259.348h21.047
			c0-3.081-0.967-5.451-2.898-7.107c-1.932-1.656-4.312-2.484-7.143-2.484c-2.828,0-5.371,0.863-7.625,2.587
			C568.617,254.069,567.49,256.404,567.49,259.348z"/>
	</g>
	<g enable-background="new    ">
		<path fill="#FFFFFF" d="M112.823,321.316c4.646,4.209,6.97,10.063,6.97,17.562c0,7.499-2.255,13.433-6.763,17.803
			c-4.509,4.371-11.409,6.556-20.701,6.556H76.32v-48.234h16.561C101.529,315.002,108.176,317.106,112.823,321.316z
			 M111.581,339.085c0-11.041-6.326-16.562-18.976-16.562h-8.143v33.054h9.04c5.842,0,10.316-1.392,13.421-4.175
			C110.029,348.619,111.581,344.514,111.581,339.085z"/>
		<path fill="#FFFFFF" d="M161.609,348.263h-28.775c0.183,2.668,1.403,4.819,3.657,6.451c2.253,1.634,4.831,2.45,7.729,2.45
			c4.6,0,8.096-1.449,10.489-4.348l4.417,4.83c-3.957,4.096-9.109,6.142-15.457,6.142c-5.153,0-9.535-1.713-13.146-5.141
			c-3.612-3.427-5.417-8.027-5.417-13.801c0-5.772,1.839-10.361,5.521-13.767c3.68-3.403,8.015-5.106,13.007-5.106
			c4.991,0,9.235,1.508,12.731,4.52c3.496,3.014,5.244,7.166,5.244,12.456V348.263z M132.834,342.189h21.046
			c0-3.081-0.966-5.451-2.898-7.107c-1.932-1.655-4.313-2.483-7.142-2.483s-5.372,0.862-7.625,2.587
			C133.961,336.911,132.834,339.246,132.834,342.189z"/>
		<path fill="#FFFFFF" d="M177.688,363.236l-14.767-36.711h8.004l11.179,27.74l11.179-27.74h8.004l-14.767,36.711H177.688z"/>
		<path fill="#FFFFFF" d="M239.86,348.263h-28.775c0.183,2.668,1.403,4.819,3.657,6.451c2.253,1.634,4.831,2.45,7.729,2.45
			c4.6,0,8.096-1.449,10.489-4.348l4.417,4.83c-3.957,4.096-9.109,6.142-15.457,6.142c-5.153,0-9.535-1.713-13.146-5.141
			c-3.612-3.427-5.417-8.027-5.417-13.801c0-5.772,1.839-10.361,5.521-13.767c3.68-3.403,8.015-5.106,13.007-5.106
			c4.991,0,9.235,1.508,12.731,4.52c3.496,3.014,5.244,7.166,5.244,12.456V348.263z M211.085,342.189h21.046
			c0-3.081-0.966-5.451-2.898-7.107c-1.932-1.655-4.313-2.483-7.142-2.483s-5.372,0.862-7.625,2.587
			C212.212,336.911,211.085,339.246,211.085,342.189z"/>
		<path fill="#FFFFFF" d="M254.351,363.236h-7.729v-51.201h7.729V363.236z"/>
		<path fill="#FFFFFF" d="M294.51,358.303c-3.681,3.657-8.281,5.485-13.801,5.485c-5.521,0-10.121-1.828-13.801-5.485
			c-3.681-3.657-5.52-8.131-5.52-13.422c0-5.289,1.839-9.764,5.52-13.421c3.68-3.657,8.281-5.486,13.801-5.486
			c5.52,0,10.12,1.829,13.801,5.486c3.68,3.657,5.521,8.132,5.521,13.421C300.031,350.172,298.19,354.646,294.51,358.303z
			 M272.395,353.541c2.184,2.232,4.956,3.347,8.315,3.347c3.357,0,6.129-1.114,8.315-3.347c2.185-2.23,3.278-5.117,3.278-8.66
			c0-3.542-1.093-6.428-3.278-8.66c-2.186-2.23-4.958-3.347-8.315-3.347c-3.359,0-6.131,1.116-8.315,3.347
			c-2.186,2.232-3.278,5.118-3.278,8.66C269.117,348.424,270.209,351.311,272.395,353.541z"/>
		<path fill="#FFFFFF" d="M326.735,325.974c4.922,0,9.131,1.703,12.628,5.106c3.495,3.405,5.244,7.936,5.244,13.594
			s-1.736,10.26-5.21,13.801c-3.474,3.543-7.521,5.313-12.145,5.313c-4.624,0-8.776-2.023-12.456-6.072v18.907h-7.729v-50.098h7.729
			v6.418C317.834,328.297,321.812,325.974,326.735,325.974z M314.659,344.95c0,3.496,1.058,6.36,3.175,8.591
			c2.115,2.232,4.691,3.347,7.729,3.347c3.035,0,5.681-1.104,7.936-3.312c2.253-2.209,3.381-5.072,3.381-8.592
			c0-3.519-1.104-6.439-3.312-8.764c-2.208-2.322-4.854-3.484-7.936-3.484s-5.682,1.162-7.797,3.484
			C315.717,338.545,314.659,341.455,314.659,344.95z"/>
		<path fill="#FFFFFF" d="M359.443,343.363v19.873h-7.729v-36.711h7.729v6.694c1.104-2.254,2.771-4.025,5.002-5.313
			c2.23-1.288,4.635-1.933,7.211-1.933c5.797,0,9.73,2.393,11.801,7.177c3.633-4.784,8.164-7.177,13.594-7.177
			c4.14,0,7.486,1.266,10.039,3.796c2.554,2.53,3.83,6.188,3.83,10.972v22.495h-7.729v-20.149c0-6.763-2.807-10.144-8.418-10.144
			c-2.623,0-4.912,0.84-6.866,2.519c-1.956,1.68-2.979,4.13-3.071,7.349v20.426h-7.729v-20.149c0-3.495-0.621-6.061-1.862-7.694
			c-1.242-1.632-3.198-2.449-5.866-2.449s-4.991,0.886-6.969,2.656C360.432,337.371,359.443,339.959,359.443,343.363z"/>
		<path fill="#FFFFFF" d="M454.117,348.263h-28.775c0.184,2.668,1.402,4.819,3.657,6.451c2.253,1.634,4.831,2.45,7.729,2.45
			c4.6,0,8.097-1.449,10.489-4.348l4.416,4.83c-3.957,4.096-9.109,6.142-15.457,6.142c-5.152,0-9.535-1.713-13.146-5.141
			c-3.612-3.427-5.417-8.027-5.417-13.801c0-5.772,1.84-10.361,5.521-13.767c3.68-3.403,8.015-5.106,13.007-5.106
			c4.991,0,9.235,1.508,12.732,4.52c3.495,3.014,5.244,7.166,5.244,12.456V348.263z M425.342,342.189h21.047
			c0-3.081-0.967-5.451-2.898-7.107c-1.932-1.655-4.312-2.483-7.143-2.483c-2.828,0-5.371,0.862-7.625,2.587
			C426.469,336.911,425.342,339.246,425.342,342.189z"/>
		<path fill="#FFFFFF" d="M468.607,343.363v19.873h-7.729v-36.711h7.729v6.694c1.242-2.254,2.955-4.025,5.141-5.313
			c2.185-1.288,4.543-1.933,7.073-1.933c4.14,0,7.487,1.266,10.04,3.796s3.83,6.188,3.83,10.972v22.495h-7.729v-20.149
			c0-6.763-2.807-10.144-8.419-10.144c-2.669,0-4.991,0.886-6.97,2.656C469.596,337.371,468.607,339.959,468.607,343.363z"/>
		<path fill="#FFFFFF" d="M512.771,332.736v18.631c0,1.749,0.459,3.14,1.38,4.175c0.919,1.035,2.208,1.553,3.864,1.553
			s3.243-0.804,4.762-2.415l3.174,5.451c-2.715,2.439-5.717,3.657-9.006,3.657s-6.096-1.139-8.418-3.415
			c-2.323-2.277-3.484-5.349-3.484-9.213v-18.424h-4.623v-6.211h4.623v-11.523h7.729v11.523h9.66v6.211H512.771z"/>
		<path fill="#FFFFFF" d="M530.816,362.271c-0.99-1.012-1.484-2.231-1.484-3.657s0.494-2.633,1.484-3.623
			c0.988-0.988,2.195-1.483,3.622-1.483c1.425,0,2.646,0.495,3.657,1.483c1.012,0.99,1.518,2.197,1.518,3.623
			s-0.506,2.646-1.518,3.657c-1.012,1.011-2.232,1.518-3.657,1.518C533.012,363.788,531.805,363.281,530.816,362.271z"/>
	</g>
	<g enable-background="new    ">
		<path fill="#FFFFFF" d="M139.288,432.464l10.765-34.709h7.314l10.765,34.709l12.145-34.709h8.764l-16.837,48.234h-8.074
			l-10.144-33.053h-0.552l-10.144,33.053h-8.074l-16.837-48.234h8.764L139.288,432.464z"/>
		<path fill="#FFFFFF" d="M194.214,401.964c-0.966-0.966-1.449-2.115-1.449-3.45c0-1.333,0.483-2.483,1.449-3.45
			c0.966-0.966,2.116-1.448,3.45-1.448c1.334,0,2.484,0.482,3.45,1.448c0.966,0.967,1.449,2.117,1.449,3.45
			c0,1.335-0.483,2.484-1.449,3.45c-0.966,0.967-2.116,1.449-3.45,1.449C196.33,403.413,195.181,402.931,194.214,401.964z
			 M201.46,445.989h-7.729v-36.711h7.729V445.989z"/>
		<path fill="#FFFFFF" d="M220.435,415.489v18.631c0,1.749,0.459,3.14,1.38,4.175c0.919,1.035,2.208,1.553,3.864,1.553
			s3.243-0.804,4.761-2.415l3.174,5.451c-2.715,2.439-5.717,3.657-9.005,3.657c-3.29,0-6.096-1.139-8.418-3.415
			c-2.323-2.277-3.485-5.349-3.485-9.213v-18.424h-4.623v-6.211h4.623v-11.523h7.729v11.523h9.661v6.211H220.435z"/>
		<path fill="#FFFFFF" d="M245.76,426.116v19.873h-7.729v-51.133h7.729v21.116c1.104-2.254,2.771-4.025,5.003-5.313
			c2.23-1.288,4.634-1.933,7.211-1.933c4.14,0,7.487,1.266,10.04,3.796s3.83,6.188,3.83,10.972v22.495h-7.729V425.84
			c0-6.763-2.807-10.144-8.419-10.144c-2.668,0-4.992,0.886-6.969,2.656C246.749,420.124,245.76,422.712,245.76,426.116z"/>
		<path fill="#FFFFFF" d="M299.168,445.989v-48.234h8.142v20.908h23.945v-20.908h8.143v48.234h-8.143v-19.735h-23.945v19.735
			H299.168z"/>
		<path fill="#FFFFFF" d="M384.112,431.016h-28.774c0.183,2.668,1.402,4.819,3.657,6.451c2.253,1.634,4.83,2.45,7.729,2.45
			c4.6,0,8.096-1.449,10.488-4.348l4.417,4.83c-3.957,4.096-9.109,6.142-15.457,6.142c-5.153,0-9.535-1.713-13.146-5.141
			c-3.612-3.427-5.417-8.027-5.417-13.801c0-5.772,1.839-10.361,5.521-13.767c3.68-3.403,8.015-5.106,13.007-5.106
			c4.991,0,9.235,1.508,12.731,4.52c3.496,3.014,5.244,7.166,5.244,12.456V431.016z M355.338,424.942h21.046
			c0-3.081-0.966-5.451-2.897-7.107c-1.933-1.655-4.313-2.483-7.143-2.483s-5.371,0.862-7.625,2.587
			C356.465,419.664,355.338,421.999,355.338,424.942z"/>
		<path fill="#FFFFFF" d="M420.616,445.989h-7.039v-4.899c-3.036,3.635-7.107,5.451-12.214,5.451c-3.818,0-6.981-1.08-9.488-3.243
			c-2.508-2.161-3.761-5.048-3.761-8.66c0-3.61,1.334-6.313,4.003-8.107c2.667-1.795,6.279-2.691,10.833-2.691h10.006v-1.38
			c0-4.876-2.715-7.314-8.143-7.314c-3.404,0-6.946,1.242-10.627,3.726l-3.45-4.83c4.462-3.542,9.523-5.313,15.182-5.313
			c4.323,0,7.854,1.094,10.592,3.278c2.736,2.186,4.106,5.623,4.106,10.315V445.989z M412.888,432.326v-3.105h-8.695
			c-5.566,0-8.35,1.749-8.35,5.245c0,1.794,0.69,3.163,2.07,4.105c1.38,0.943,3.301,1.415,5.762,1.415s4.611-0.69,6.452-2.07
			C411.967,436.535,412.888,434.673,412.888,432.326z"/>
		<path fill="#FFFFFF" d="M448.907,416.524c-3.819,0-6.693,1.242-8.626,3.727c-1.932,2.483-2.898,5.819-2.898,10.005v15.733h-7.729
			v-36.711h7.729v7.384c1.242-2.3,2.933-4.186,5.072-5.658c2.139-1.472,4.404-2.23,6.797-2.277l0.069,7.798
			C449.183,416.524,449.045,416.524,448.907,416.524z"/>
		<path fill="#FFFFFF" d="M464.846,415.489v18.631c0,1.749,0.46,3.14,1.381,4.175c0.919,1.035,2.208,1.553,3.864,1.553
			s3.243-0.804,4.761-2.415l3.175,5.451c-2.715,2.439-5.717,3.657-9.006,3.657s-6.096-1.139-8.418-3.415
			c-2.323-2.277-3.485-5.349-3.485-9.213v-18.424h-4.623v-6.211h4.623v-11.523h7.729v11.523h9.661v6.211H464.846z"/>
		<path fill="#FFFFFF" d="M482.891,445.023c-0.989-1.012-1.483-2.231-1.483-3.657s0.494-2.633,1.483-3.623
			c0.988-0.988,2.196-1.483,3.623-1.483c1.425,0,2.645,0.495,3.657,1.483c1.011,0.99,1.518,2.197,1.518,3.623
			s-0.507,2.646-1.518,3.657c-1.013,1.011-2.232,1.518-3.657,1.518C485.087,446.541,483.879,446.034,482.891,445.023z"/>
	</g>
	<g>
		<path id="XMLID_28_" fill="#73BE44" d="M279.702,488.271c-4.346,0-8.426,0-12.861,0c0-4.257,0-8.515,0-13.038
			c4.258,0,8.516,0,12.861,0C279.702,479.579,279.702,483.836,279.702,488.271z"/>
		<path id="XMLID_27_" fill="#73BE44" d="M266.664,537.497c0-4.346,0-8.604,0-13.038c4.346,0,8.604,0,13.038,0
			c0,4.435,0,8.604,0,13.038C275.356,537.497,271.276,537.497,266.664,537.497z"/>
		<path id="XMLID_26_" fill="#73BE44" d="M250.344,508.05c4.435,0,8.604,0,12.861,0c0,4.436,0,8.604,0,13.039
			c-4.258,0-8.427,0-12.861,0C250.344,516.831,250.344,512.485,250.344,508.05z"/>
		<path id="XMLID_25_" fill="#73BE44" d="M266.753,521c0-4.435,0-8.604,0-13.038c4.346,0,8.515,0,12.86,0c0,4.346,0,8.515,0,13.038
			C275.444,521,271.188,521,266.753,521z"/>
		<path id="XMLID_24_" fill="#73BE44" d="M250.255,504.591c0-4.435,0-8.604,0-13.038c4.347,0,8.515,0,12.95,0
			c0,4.258,0,8.515,0,13.038C259.036,504.591,254.778,504.591,250.255,504.591z"/>
		<path id="XMLID_23_" fill="#73BE44" d="M279.702,491.642c0,4.435,0,8.604,0,12.949c-4.346,0-8.604,0-13.038,0
			c0-4.257,0-8.515,0-12.949C271.01,491.642,275.268,491.642,279.702,491.642z"/>
		<path id="XMLID_22_" fill="#73BE44" d="M299.658,540.779c4.257,0,8.427,0,12.772,0c0,4.346,0,8.603,0,13.038
			c-4.169,0-8.338,0-12.772,0C299.658,549.56,299.658,545.303,299.658,540.779z"/>
		<path id="XMLID_21_" fill="#73BE44" d="M283.072,488.183c0-4.347,0-8.515,0-12.861c4.347,0,8.515,0,12.95,0
			c0,4.258,0,8.426,0,12.861C291.854,488.183,287.685,488.183,283.072,488.183z"/>
		<path id="XMLID_20_" fill="#73BE44" d="M328.928,488.271c-4.257,0-8.426,0-12.772,0c0-4.257,0-8.515,0-12.949
			c4.169,0,8.427,0,12.772,0C328.928,479.579,328.928,483.836,328.928,488.271z"/>
		<path id="XMLID_19_" fill="#73BE44" d="M332.476,488.183c0-4.436,0-8.604,0-12.95c4.258,0,8.426,0,12.772,0
			c0,4.258,0,8.427,0,12.95C341.079,488.183,336.911,488.183,332.476,488.183z"/>
		<path id="XMLID_18_" fill="#73BE44" d="M296.022,504.591c-4.436,0-8.516,0-12.861,0c0-4.435,0-8.604,0-13.038
			c4.258,0,8.426,0,12.861,0C296.022,495.898,296.022,500.156,296.022,504.591z"/>
		<path id="XMLID_17_" fill="#73BE44" d="M312.431,521.089c-4.258,0-8.426,0-12.772,0c0-4.347,0-8.604,0-13.039
			c4.257,0,8.427,0,12.772,0C312.431,512.308,312.431,516.565,312.431,521.089z"/>
		<path id="XMLID_16_" fill="#73BE44" d="M328.928,521.089c-4.435,0-8.604,0-12.949,0c0-4.347,0-8.604,0-13.039
			c4.346,0,8.515,0,12.949,0C328.928,512.396,328.928,516.653,328.928,521.089z"/>
		<path id="XMLID_15_" fill="#73BE44" d="M332.388,521.089c0-4.436,0-8.604,0-13.039c4.257,0,8.426,0,12.86,0
			c0,4.258,0,8.515,0,13.039C340.991,521.089,336.911,521.089,332.388,521.089z"/>
		<path id="XMLID_14_" fill="#73BE44" d="M361.745,521.089c-4.168,0-8.338,0-12.771,0c0-4.258,0-8.604,0-13.039
			c4.168,0,8.337,0,12.771,0C361.745,512.308,361.745,516.653,361.745,521.089z"/>
		<path id="XMLID_13_" fill="#73BE44" d="M348.974,491.553c4.257,0,8.337,0,12.771,0c0,4.346,0,8.604,0,13.127
			c-4.258,0-8.426,0-12.771,0C348.974,500.334,348.974,495.987,348.974,491.553z"/>
		<path id="XMLID_12_" fill="#73BE44" d="M332.564,491.553c4.347,0,8.515,0,12.772,0c0,4.435,0,8.604,0,13.038
			c-4.258,0-8.426,0-12.772,0C332.564,500.334,332.564,496.076,332.564,491.553z"/>
		<path id="XMLID_11_" fill="#73BE44" d="M283.25,508.05c4.257,0,8.426,0,12.772,0c0,4.347,0,8.604,0,13.039
			c-4.258,0-8.338,0-12.772,0C283.25,516.742,283.25,512.485,283.25,508.05z"/>
		<path id="XMLID_10_" fill="#73BE44" d="M296.022,537.497c-4.436,0-8.516,0-12.861,0c0-4.435,0-8.604,0-13.038
			c4.258,0,8.426,0,12.861,0C296.022,528.716,296.022,532.974,296.022,537.497z"/>
		<path id="XMLID_9_" fill="#73BE44" d="M312.431,537.497c-4.346,0-8.338,0-12.684,0c0-4.346,0-8.692,0-13.127
			c4.258,0,8.338,0,12.684,0C312.431,528.716,312.431,532.974,312.431,537.497z"/>
		<path id="XMLID_8_" fill="#73BE44" d="M315.979,537.497c0-4.435,0-8.604,0-13.038c4.257,0,8.426,0,12.86,0
			c0,4.346,0,8.604,0,13.038C324.671,537.497,320.502,537.497,315.979,537.497z"/>
		<path id="XMLID_7_" fill="#73BE44" d="M332.388,537.497c0-4.435,0-8.604,0-13.038c4.257,0,8.426,0,12.86,0
			c0,4.257,0,8.604,0,13.038C340.991,537.497,336.911,537.497,332.388,537.497z"/>
		<path id="XMLID_6_" fill="#73BE44" d="M328.928,491.553c0,4.435,0,8.692,0,13.038c-4.257,0-8.426,0-12.772,0
			c0-4.346,0-8.604,0-13.038C320.324,491.553,324.404,491.553,328.928,491.553z"/>
		<path id="XMLID_5_" fill="#73BE44" d="M299.658,504.591c0-4.257,0-8.515,0-12.949c4.257,0,8.337,0,12.772,0
			c0,4.257,0,8.515,0,12.949C308.262,504.591,304.093,504.591,299.658,504.591z"/>
		<path id="XMLID_4_" fill="#73BE44" d="M296.199,540.867c0,4.436,0,8.604,0,12.95c-4.257,0-8.426,0-12.949,0
			c0-4.258,0-8.515,0-12.95C287.507,540.867,291.676,540.867,296.199,540.867z"/>
		<path id="XMLID_3_" fill="#73BE44" d="M328.839,553.905c-4.257,0-8.426,0-12.771,0c0-4.346,0-8.603,0-13.038
			c4.257,0,8.426,0,12.771,0C328.839,545.125,328.839,549.382,328.839,553.905z"/>
		<path id="XMLID_1_" fill="#73BE44" d="M299.658,570.226c0-4.346,0-8.515,0-12.949c4.257,0,8.427,0,12.772,0
			c0,4.257,0,8.515,0,12.949C308.262,570.226,304.093,570.226,299.658,570.226z"/>
	</g>
</g>
</svg>
