<?xml version="1.0" encoding="UTF-8"?>
<svg width="200px" height="18px" viewBox="0 0 200 18" version="1.1" xmlns="http://www.w3.org/2000/svg" xmlns:xlink="http://www.w3.org/1999/xlink">
    <!-- Generator: sketchtool 44.1 (41455) - http://www.bohemiancoding.com/sketch -->
    <title>270B701C-4D4E-401C-B9E3-9E731E4CB4A2</title>
    <desc>Created with sketchtool.</desc>
    <defs></defs>
    <g id="Symbols" stroke="none" stroke-width="1" fill="none" fill-rule="evenodd">
        <g id="Menu" transform="translate(-1.000000, -9.000000)" fill="#FFFFFF">
            <g id="AA-Logo" transform="translate(1.000000, 9.000000)">
                <path d="M109.055405,0.61434 L101.416667,17.44374 L102.525075,17.44374 L104.694144,12.65214 L114.551802,12.65214 L116.743994,17.44374 L117.852402,17.44374 L110.140691,0.61434 L109.055405,0.61434 Z M109.586336,1.77054 L114.093243,11.64174 L105.127177,11.64174 L109.586336,1.77054 Z" id="Fill-1"></path>
                <polygon id="Fill-2" points="131.155946 0.61434 124.744835 16.23984 118.35955 0.61434 117.226517 0.61434 124.215105 17.44374 125.275766 17.44374 132.264354 0.61434"></polygon>
                <polygon id="Fill-3" points="135.349459 0.61434 135.349459 17.44374 146.531441 17.44374 146.531441 16.45644 136.361171 16.45644 136.361171 9.33054 145.134745 9.33054 145.134745 8.31894 136.361171 8.31894 136.361171 1.60164 146.218529 1.60164 146.218529 0.61434"></polygon>
                <polygon id="Fill-4" points="163.377027 0.61434 163.377027 15.95064 152.122673 0.61434 150.941892 0.61434 150.941892 17.44374 151.953604 17.44374 151.953604 2.13204 163.184234 17.44374 164.365015 17.44374 164.365015 0.61434"></polygon>
                <g id="Group-23" transform="translate(0.000000, 0.033150)">
                    <polygon id="Fill-7" points="188.73009 0.58122 199.599159 0.58122 199.599159 1.56852 189.741502 1.56852 189.741502 8.28552 198.515375 8.28552 198.515375 9.29712 189.741502 9.29712 189.741502 16.42332 199.912072 16.42332 199.912072 17.41062 188.73009 17.41062"></polygon>
                    <path d="M172.282012,14.9673 C173.301832,16.0023 174.728559,16.5198 176.559189,16.5198 C178.375706,16.5198 179.792222,16.0023 180.812943,14.9673 C181.832763,13.9323 182.343874,12.4755 182.343874,10.5966 L182.343874,0.5808 L183.356486,0.5808 L183.356486,10.5966 C183.356486,12.7797 182.761592,14.4777 181.572703,15.69 C180.382613,16.9011 178.712943,17.5071 176.559189,17.5071 C174.406637,17.5071 172.732462,16.9011 171.534264,15.69 C170.338168,14.4777 169.73967,12.7797 169.73967,10.5966 L169.73967,0.5808 L170.752583,0.5808 L170.752583,10.5966 C170.752583,12.4755 171.260991,13.9323 172.282012,14.9673" id="Fill-5"></path>
                    <path d="M7.23015015,0.43545 L10.6520721,0.43545 L17.8836036,17.41065 L14.0028228,17.41065 L12.4604805,13.63065 L5.32714715,13.63065 L3.7836036,17.41065 L0.00012012012,17.41065 L7.23015015,0.43545 Z M11.1352553,10.35675 L8.89261261,4.89015 L6.65147147,10.35675 L11.1352553,10.35675 Z" id="Fill-10"></path>
                    <path d="M18.6535135,9.03177 L18.6535135,8.98407 C18.6535135,4.19247 22.2679279,0.26697 27.4505105,0.26697 C30.6321922,0.26697 32.5363964,1.32627 34.1021622,2.86737 L31.7406006,5.58867 C30.4384985,4.40937 29.1141742,3.68547 27.4261862,3.68547 C24.5826426,3.68547 22.533994,6.04557 22.533994,8.93517 L22.533994,8.98407 C22.533994,11.87217 24.5348949,14.28027 27.4261862,14.28027 C29.3547147,14.28027 30.5354955,13.50987 31.8607207,12.30597 L34.2234835,14.69067 C32.4874474,16.54377 30.5598198,17.69997 27.3057658,17.69997 C22.3403003,17.69997 18.6535135,13.87107 18.6535135,9.03177" id="Fill-12"></path>
                    <polygon id="Fill-15" points="37.1865165 0.55575 40.8979279 0.55575 40.8979279 7.92315 47.742973 0.55575 52.2255556 0.55575 45.3570871 7.70775 52.5393694 17.41095 48.0802102 17.41095 42.8498799 10.23585 40.8979279 12.25785 40.8979279 17.41095 37.1865165 17.41095"></polygon>
                    <polygon id="Fill-17" points="54.779009 0.55575 58.4904204 0.55575 58.4904204 14.04015 66.9012312 14.04015 66.9012312 17.41095 54.779009 17.41095"></polygon>
                    <polygon id="Fill-19" points="69.6963363 0.55575 82.4218619 0.55575 82.4218619 3.85545 73.3831231 3.85545 73.3831231 7.27395 81.3377778 7.27395 81.3377778 10.57245 73.3831231 10.57245 73.3831231 14.11245 82.5431832 14.11245 82.5431832 17.41095 69.6963363 17.41095"></polygon>
                    <polygon id="Fill-21" points="85.8433934 0.55575 89.2653153 0.55575 97.171021 10.93275 97.171021 0.55575 100.834685 0.55575 100.834685 8.35455 97.0824324 16.63125 89.5058559 6.69585 89.5058559 17.41095 85.8433934 17.41095"></polygon>
                </g>
            </g>
        </g>
    </g>
</svg>