<?xml version="1.0" encoding="utf-8"?>
<!-- Generator: Adobe Illustrator 19.2.1, SVG Export Plug-In . SVG Version: 6.00 Build 0)  -->
<svg version="1.1" id="Layer_1" xmlns="http://www.w3.org/2000/svg" xmlns:xlink="http://www.w3.org/1999/xlink" x="0px" y="0px"
	 viewBox="0 0 960 182" style="enable-background:new 0 0 960 182;" xml:space="preserve">
<style type="text/css">
	.st0{fill:#4D4D4D;}
	.st1{fill:#FFFFFF;}
</style>
<rect class="st0" width="962.7" height="182"/>
<g>
	<path class="st1" d="M119,121.3l-5.6-13.1H87.9l-5.6,13.1H67.9l26.2-60.7h13.1l26.2,60.7H119z M100.7,78.7L93,96.3h15.2L100.7,78.7
		z"/>
	<path class="st1" d="M164.7,109.3c6.7,0,12.1-2.6,16.3-7.9l8.7,8.9c-6.9,7.8-15,11.6-24.3,11.6c-9.3,0-17-3-23.1-8.9
		c-6-5.9-9.1-13.3-9.1-22.3c0-9,3.1-16.5,9.2-22.5c6.2-6,13.7-9,22.6-9c9.9,0,18.3,3.8,25,11.4l-8.4,9.5c-4.3-5.3-9.6-8-16-8
		c-5.1,0-9.4,1.7-13.1,5c-3.6,3.3-5.4,7.8-5.4,13.5s1.7,10.2,5.1,13.6C155.7,107.6,159.8,109.3,164.7,109.3z"/>
	<path class="st1" d="M198.5,60.7h13.5v24.9L235,60.7h16.7l-24.1,26.8c2.1,2.9,5.9,8.3,11.5,16.2c5.6,7.9,9.8,13.8,12.6,17.7h-15.8
		l-17.8-24l-6.1,6.8v17.2h-13.5V60.7z"/>
	<path class="st1" d="M260.6,121.3V60.7h13.5v48.6H300v12.1H260.6z"/>
	<path class="st1" d="M353.3,60.7v12.1h-30.2v12.5h27.2v11.5h-27.2v12.6h31.2v12h-44.7V60.7H353.3z"/>
	<path class="st1" d="M408.3,60.7h13.5v60.7h-13.5l-28.9-38v38h-13.5V60.7h12.7l29.8,39V60.7z"/>
	<path class="st1" d="M494.4,51.5h12.3L470.2,131H458L494.4,51.5z"/>
	<path class="st1" d="M582.5,121.3l-5.6-13.1h-25.4l-5.6,13.1h-14.4l26.2-60.7h13.1l26.2,60.7H582.5z M564.2,78.7l-7.6,17.6h15.2
		L564.2,78.7z"/>
	<path class="st1" d="M620.8,99.3l15.4-38.6h14.7l-24.4,60.7h-11.5l-24.4-60.7h14.7L620.8,99.3z"/>
	<path class="st1" d="M703,60.7v12.1h-30.2v12.5H700v11.5h-27.2v12.6h31.2v12h-44.7V60.7H703z"/>
	<path class="st1" d="M758,60.7h13.5v60.7H758l-28.9-38v38h-13.5V60.7h12.7l29.8,39V60.7z"/>
	<path class="st1" d="M801.8,105.6c2.3,2.8,5.3,4.2,9.1,4.2c3.8,0,6.8-1.4,9.1-4.2c2.2-2.8,3.3-6.6,3.3-11.5V60.7h13.5v33.9
		c0,8.8-2.4,15.5-7.3,20.3c-4.9,4.7-11.1,7.1-18.7,7.1c-7.6,0-13.8-2.4-18.7-7.1c-4.9-4.7-7.3-11.5-7.3-20.2V60.7h13.5v33.5
		C798.4,99,799.5,102.8,801.8,105.6z"/>
	<path class="st1" d="M893.9,60.7v12.1h-30.2v12.5h27.2v11.5h-27.2v12.6h31.2v12h-44.7V60.7H893.9z"/>
</g>
</svg>
