<?xml version="1.0" encoding="UTF-8"?>
<svg width="200px" height="18px" viewBox="0 0 200 18" version="1.1" xmlns="http://www.w3.org/2000/svg" xmlns:xlink="http://www.w3.org/1999/xlink">
    <!-- Generator: Sketch 46 (44423) - http://www.bohemiancoding.com/sketch -->
    <title>AA-Logo</title>
    <desc>Created with Sketch.</desc>
    <defs></defs>
    <g id="Mockups" stroke="none" stroke-width="1" fill="none" fill-rule="evenodd">
        <g id="404" transform="translate(-620.000000, -106.000000)" fill="#4F4F4F">
            <g id="AA-Logo" transform="translate(620.000000, 106.000000)">
                <path d="M109.055405,0.377668821 L101.416667,17.668661 L102.525075,17.668661 L104.694144,12.7456383 L114.551802,12.7456383 L116.743994,17.668661 L117.852402,17.668661 L110.140691,0.377668821 L109.055405,0.377668821 Z M109.586336,1.56558076 L114.093243,11.7075253 L105.127177,11.7075253 L109.586336,1.56558076 Z" id="Fill-1"></path>
                <polygon id="Fill-2" points="131.155946 0.377668821 124.744835 16.4317407 118.35955 0.377668821 117.226517 0.377668821 124.215105 17.668661 125.275766 17.668661 132.264354 0.377668821"></polygon>
                <polygon id="Fill-3" points="135.349459 0.377668821 135.349459 17.668661 146.531441 17.668661 146.531441 16.6542816 136.361171 16.6542816 136.361171 9.33293435 145.134745 9.33293435 145.134745 8.29358847 136.361171 8.29358847 136.361171 1.39204821 146.218529 1.39204821 146.218529 0.377668821"></polygon>
                <polygon id="Fill-4" points="163.377027 0.377668821 163.377027 16.1346086 152.122673 0.377668821 150.941892 0.377668821 150.941892 17.668661 151.953604 17.668661 151.953604 1.93699588 163.184234 17.668661 164.365015 17.668661 164.365015 0.377668821"></polygon>
                <polygon id="Fill-7" points="188.73009 0.377699644 199.599159 0.377699644 199.599159 1.39207904 189.741502 1.39207904 189.741502 8.29331106 198.515375 8.29331106 198.515375 9.33265695 189.741502 9.33265695 189.741502 16.6543124 199.912072 16.6543124 199.912072 17.6686918 188.73009 17.6686918"></polygon>
                <path d="M172.282012,15.1583571 C173.301832,16.2217448 174.728559,16.7534386 176.559189,16.7534386 C178.375706,16.7534386 179.792222,16.2217448 180.812943,15.1583571 C181.832763,14.0949694 182.343874,12.5982127 182.343874,10.6677787 L182.343874,0.377268125 L183.356486,0.377268125 L183.356486,10.6677787 C183.356486,12.9107562 182.761592,14.6553285 181.572703,15.9008791 C180.382613,17.1451968 178.712943,17.767818 176.559189,17.767818 C174.406637,17.767818 172.732462,17.1451968 171.534264,15.9008791 C170.338168,14.6553285 169.73967,12.9107562 169.73967,10.6677787 L169.73967,0.377268125 L170.752583,0.377268125 L170.752583,10.6677787 C170.752583,12.5982127 171.260991,14.0949694 172.282012,15.1583571" id="Fill-5"></path>
                <path d="M7.23015015,0.227931505 L10.6520721,0.227931505 L17.8836036,17.6687226 L14.0028228,17.6687226 L12.4604805,13.7850458 L5.32714715,13.7850458 L3.7836036,17.6687226 L0.00012012012,17.6687226 L7.23015015,0.227931505 Z M11.1352553,10.4213502 L8.89261261,4.80481379 L6.65147147,10.4213502 L11.1352553,10.4213502 Z" id="Fill-10"></path>
                <path d="M18.6535135,9.060029 L18.6535135,9.0110207 C18.6535135,4.08799801 22.2679279,0.0548304818 27.4505105,0.0548304818 C30.6321922,0.0548304818 32.5363964,1.14318467 34.1021622,2.72655354 L31.7406006,5.5224926 C30.4384985,4.31084709 29.1141742,3.56709216 27.4261862,3.56709216 C24.5826426,3.56709216 22.533994,5.99192433 22.533994,8.96077948 L22.533994,9.0110207 C22.533994,11.9783347 24.5348949,14.4524834 27.4261862,14.4524834 C29.3547147,14.4524834 30.5354955,13.6609531 31.8607207,12.4240329 L34.2234835,14.8741397 C32.4874474,16.7780661 30.5598198,17.965978 27.3057658,17.965978 C22.3403003,17.965978 18.6535135,14.03206 18.6535135,9.060029" id="Fill-12"></path>
                <polygon id="Fill-15" points="37.1865165 0.35153106 40.8979279 0.35153106 40.8979279 7.92100208 47.742973 0.35153106 52.2255556 0.35153106 45.3570871 7.69969414 52.5393694 17.6690308 48.0802102 17.6690308 42.8498799 10.2971342 40.8979279 12.374593 40.8979279 17.6690308 37.1865165 17.6690308"></polygon>
                <polygon id="Fill-17" points="54.779009 0.35153106 58.4904204 0.35153106 58.4904204 14.2057775 66.9012312 14.2057775 66.9012312 17.6690308 54.779009 17.6690308"></polygon>
                <polygon id="Fill-19" points="69.6963363 0.35153106 82.4218619 0.35153106 82.4218619 3.74173432 73.3831231 3.74173432 73.3831231 7.253996 81.3377778 7.253996 81.3377778 10.6429663 73.3831231 10.6429663 73.3831231 14.2800605 82.5431832 14.2800605 82.5431832 17.6690308 69.6963363 17.6690308"></polygon>
                <polygon id="Fill-21" points="85.8433934 0.35153106 89.2653153 0.35153106 97.171021 11.0131486 97.171021 0.35153106 100.834685 0.35153106 100.834685 8.3642344 97.0824324 16.8679454 89.5058559 6.66004003 89.5058559 17.6690308 85.8433934 17.6690308"></polygon>
            </g>
        </g>
    </g>
</svg>