<?xml version="1.0" encoding="utf-8"?>
<!-- Generator: Adobe Illustrator 19.0.0, SVG Export Plug-In . SVG Version: 6.00 Build 0)  -->
<svg version="1.1" id="Layer_1" xmlns="http://www.w3.org/2000/svg" xmlns:xlink="http://www.w3.org/1999/xlink" x="0px" y="0px"
	 viewBox="-80 -156 799 873" style="enable-background:new -80 -156 799 873;" xml:space="preserve">
<style type="text/css">
	.st0{fill:none;}
	.st1{enable-background:new    ;}
	.st2{fill:#939598;}
	.st3{fill:none;stroke:#808285;stroke-miterlimit:10;}
	.st4{fill:#73BF44;}
	.st5{fill:#FFFFFF;}
	.st6{fill:none;stroke:#73BF44;stroke-miterlimit:10;}
</style>
<g id="XMLID_159_">
	<rect id="XMLID_133_" x="-68.2" y="-119.7" class="st0" width="237.7" height="69.1"/>
	<g class="st1">
		<path class="st2" d="M-11.1-115v18.3h-3.7V-115h-6.6v-3.3h16.8v3.3H-11.1z"/>
		<path class="st2" d="M14.3-103.4H1.4c0.1,1.2,0.6,2.2,1.6,2.9c1,0.7,2.2,1.1,3.5,1.1c2.1,0,3.6-0.7,4.7-2l2,2.2
			c-1.8,1.8-4.1,2.8-6.9,2.8c-2.3,0-4.3-0.8-5.9-2.3c-1.6-1.5-2.4-3.6-2.4-6.2c0-2.6,0.8-4.7,2.5-6.2c1.7-1.5,3.6-2.3,5.8-2.3
			c2.2,0,4.1,0.7,5.7,2c1.6,1.4,2.4,3.2,2.4,5.6V-103.4z M1.4-106.2h9.5c0-1.4-0.4-2.4-1.3-3.2c-0.9-0.7-1.9-1.1-3.2-1.1
			c-1.3,0-2.4,0.4-3.4,1.2C1.9-108.5,1.4-107.5,1.4-106.2z"/>
		<path class="st2" d="M29.9-101.6c0,1.6-0.6,2.8-1.7,3.8c-1.1,0.9-2.6,1.4-4.4,1.4c-1.2,0-2.4-0.2-3.7-0.7c-1.3-0.4-2.4-1-3.4-1.8
			l1.7-2.7c1.9,1.4,3.8,2.2,5.6,2.2c0.8,0,1.4-0.2,1.9-0.5c0.5-0.4,0.7-0.8,0.7-1.4c0-0.8-1.1-1.6-3.3-2.2c-0.2-0.1-0.3-0.1-0.4-0.1
			c-3.4-0.9-5.1-2.5-5.1-4.7c0-1.5,0.6-2.8,1.8-3.7c1.2-0.9,2.7-1.4,4.6-1.4c1.9,0,3.7,0.6,5.4,1.7l-1.3,2.6
			c-1.3-0.9-2.8-1.3-4.4-1.3c-0.8,0-1.5,0.2-2,0.5c-0.5,0.3-0.8,0.7-0.8,1.3c0,0.5,0.3,0.9,0.8,1.2c0.4,0.2,0.9,0.4,1.6,0.5
			c0.7,0.2,1.3,0.3,1.8,0.5c0.5,0.2,1,0.4,1.5,0.6c0.5,0.2,1,0.5,1.6,0.9C29.4-104.4,29.9-103.2,29.9-101.6z"/>
		<path class="st2" d="M38.1-110.4v8.4c0,0.8,0.2,1.4,0.6,1.9c0.4,0.5,1,0.7,1.7,0.7s1.5-0.4,2.1-1.1l1.4,2.4
			c-1.2,1.1-2.6,1.6-4,1.6c-1.5,0-2.7-0.5-3.8-1.5c-1-1-1.6-2.4-1.6-4.1v-8.3h-2.1v-2.8h2.1v-5.2h3.5v5.2h4.3v2.8H38.1z"/>
		<path class="st2" d="M46.5-104.3v-3.3h10.3v3.3H46.5z"/>
		<path class="st2" d="M87-115.5c2.1,1.9,3.1,4.5,3.1,7.9c0,3.4-1,6-3,8c-2,2-5.1,2.9-9.3,2.9h-7.2v-21.7H78
			C81.9-118.4,84.9-117.4,87-115.5z M86.4-107.5c0-5-2.8-7.4-8.5-7.4h-3.7v14.9h4.1c2.6,0,4.6-0.6,6-1.9
			C85.7-103.3,86.4-105.1,86.4-107.5z"/>
		<path class="st2" d="M103-109.9c-1.7,0-3,0.6-3.9,1.7s-1.3,2.6-1.3,4.5v7.1h-3.5v-16.5h3.5v3.3c0.6-1,1.3-1.9,2.3-2.5
			c1-0.7,2-1,3.1-1l0,3.5C103.1-109.9,103-109.9,103-109.9z"/>
		<path class="st2" d="M106.8-116.5c-0.4-0.4-0.7-1-0.7-1.6s0.2-1.1,0.7-1.6c0.4-0.4,1-0.7,1.6-0.7c0.6,0,1.1,0.2,1.6,0.7
			c0.4,0.4,0.7,1,0.7,1.6s-0.2,1.1-0.7,1.6c-0.4,0.4-1,0.7-1.6,0.7C107.8-115.8,107.3-116,106.8-116.5z M110.1-96.7h-3.5v-16.5h3.5
			V-96.7z"/>
		<path class="st2" d="M119.5-96.7l-6.6-16.5h3.6l5,12.5l5-12.5h3.6l-6.6,16.5H119.5z"/>
		<path class="st2" d="M148.2-103.4h-12.9c0.1,1.2,0.6,2.2,1.6,2.9c1,0.7,2.2,1.1,3.5,1.1c2.1,0,3.6-0.7,4.7-2l2,2.2
			c-1.8,1.8-4.1,2.8-6.9,2.8c-2.3,0-4.3-0.8-5.9-2.3c-1.6-1.5-2.4-3.6-2.4-6.2c0-2.6,0.8-4.7,2.5-6.2c1.7-1.5,3.6-2.3,5.8-2.3
			c2.2,0,4.1,0.7,5.7,2c1.6,1.4,2.4,3.2,2.4,5.6V-103.4z M135.3-106.2h9.5c0-1.4-0.4-2.4-1.3-3.2c-0.9-0.7-1.9-1.1-3.2-1.1
			c-1.3,0-2.4,0.4-3.4,1.2C135.8-108.5,135.3-107.5,135.3-106.2z"/>
		<path class="st2" d="M155.5-105.6v8.9H152v-16.5h3.5v3c0.6-1,1.3-1.8,2.3-2.4c1-0.6,2-0.9,3.2-0.9c1.9,0,3.4,0.6,4.5,1.7
			s1.7,2.8,1.7,4.9v10.1h-3.5v-9.1c0-3-1.3-4.6-3.8-4.6c-1.2,0-2.2,0.4-3.1,1.2C155.9-108.3,155.5-107.2,155.5-105.6z"/>
	</g>
	<g class="st1">
		<path class="st2" d="M-24.5-78.3c2.1,1.9,3.1,4.5,3.1,7.9c0,3.4-1,6-3,8c-2,2-5.1,2.9-9.3,2.9h-7.2v-21.7h7.4
			C-29.6-81.2-26.6-80.2-24.5-78.3z M-25.1-70.3c0-5-2.8-7.4-8.5-7.4h-3.7v14.9h4.1c2.6,0,4.6-0.6,6-1.9
			C-25.8-66.1-25.1-67.9-25.1-70.3z"/>
		<path class="st2" d="M-1.8-66.2h-12.9c0.1,1.2,0.6,2.2,1.6,2.9c1,0.7,2.2,1.1,3.5,1.1c2.1,0,3.6-0.7,4.7-2l2,2.2
			c-1.8,1.8-4.1,2.8-6.9,2.8c-2.3,0-4.3-0.8-5.9-2.3c-1.6-1.5-2.4-3.6-2.4-6.2c0-2.6,0.8-4.7,2.5-6.2c1.7-1.5,3.6-2.3,5.8-2.3
			c2.2,0,4.1,0.7,5.7,2c1.6,1.4,2.4,3.2,2.4,5.6V-66.2z M-14.7-68.9h9.5c0-1.4-0.4-2.4-1.3-3.2c-0.9-0.7-1.9-1.1-3.2-1.1
			c-1.3,0-2.4,0.4-3.4,1.2C-14.2-71.3-14.7-70.3-14.7-68.9z"/>
		<path class="st2" d="M6.2-59.5L-0.4-76h3.6l5,12.5l5-12.5h3.6l-6.6,16.5H6.2z"/>
		<path class="st2" d="M34.9-66.2H22c0.1,1.2,0.6,2.2,1.6,2.9c1,0.7,2.2,1.1,3.5,1.1c2.1,0,3.6-0.7,4.7-2l2,2.2
			c-1.8,1.8-4.1,2.8-6.9,2.8c-2.3,0-4.3-0.8-5.9-2.3c-1.6-1.5-2.4-3.6-2.4-6.2c0-2.6,0.8-4.7,2.5-6.2c1.7-1.5,3.6-2.3,5.8-2.3
			c2.2,0,4.1,0.7,5.7,2c1.6,1.4,2.4,3.2,2.4,5.6V-66.2z M22-68.9h9.5c0-1.4-0.4-2.4-1.3-3.2c-0.9-0.7-1.9-1.1-3.2-1.1
			c-1.3,0-2.4,0.4-3.4,1.2C22.5-71.3,22-70.3,22-68.9z"/>
		<path class="st2" d="M42.2-59.5h-3.5v-23h3.5V-59.5z"/>
		<path class="st2" d="M61-61.7c-1.7,1.6-3.7,2.5-6.2,2.5c-2.5,0-4.5-0.8-6.2-2.5c-1.7-1.6-2.5-3.7-2.5-6s0.8-4.4,2.5-6
			c1.7-1.6,3.7-2.5,6.2-2.5c2.5,0,4.5,0.8,6.2,2.5c1.7,1.6,2.5,3.7,2.5,6S62.7-63.3,61-61.7z M51.1-63.8c1,1,2.2,1.5,3.7,1.5
			c1.5,0,2.8-0.5,3.7-1.5s1.5-2.3,1.5-3.9s-0.5-2.9-1.5-3.9s-2.2-1.5-3.7-1.5c-1.5,0-2.8,0.5-3.7,1.5s-1.5,2.3-1.5,3.9
			S50.1-64.8,51.1-63.8z"/>
		<path class="st2" d="M76.3-76.2c2.2,0,4.1,0.8,5.7,2.3c1.6,1.5,2.4,3.6,2.4,6.1c0,2.5-0.8,4.6-2.3,6.2c-1.6,1.6-3.4,2.4-5.5,2.4
			s-3.9-0.9-5.6-2.7v8.5h-3.5V-76h3.5v2.9C72.3-75.2,74.1-76.2,76.3-76.2z M70.8-67.7c0,1.6,0.5,2.9,1.4,3.9c1,1,2.1,1.5,3.5,1.5
			c1.4,0,2.6-0.5,3.6-1.5c1-1,1.5-2.3,1.5-3.9c0-1.6-0.5-2.9-1.5-3.9s-2.2-1.6-3.6-1.6c-1.4,0-2.6,0.5-3.5,1.6
			C71.3-70.6,70.8-69.3,70.8-67.7z"/>
		<path class="st2" d="M91.7-68.4v8.9h-3.5V-76h3.5v3c0.5-1,1.2-1.8,2.2-2.4c1-0.6,2.1-0.9,3.2-0.9c2.6,0,4.4,1.1,5.3,3.2
			c1.6-2.2,3.7-3.2,6.1-3.2c1.9,0,3.4,0.6,4.5,1.7c1.1,1.1,1.7,2.8,1.7,4.9v10.1h-3.5v-9.1c0-3-1.3-4.6-3.8-4.6
			c-1.2,0-2.2,0.4-3.1,1.1c-0.9,0.8-1.3,1.9-1.4,3.3v9.2h-3.5v-9.1c0-1.6-0.3-2.7-0.8-3.5s-1.4-1.1-2.6-1.1s-2.2,0.4-3.1,1.2
			C92.2-71.1,91.7-69.9,91.7-68.4z"/>
		<path class="st2" d="M135.1-66.2h-12.9c0.1,1.2,0.6,2.2,1.6,2.9c1,0.7,2.2,1.1,3.5,1.1c2.1,0,3.6-0.7,4.7-2l2,2.2
			c-1.8,1.8-4.1,2.8-6.9,2.8c-2.3,0-4.3-0.8-5.9-2.3c-1.6-1.5-2.4-3.6-2.4-6.2c0-2.6,0.8-4.7,2.5-6.2c1.7-1.5,3.6-2.3,5.8-2.3
			c2.2,0,4.1,0.7,5.7,2c1.6,1.4,2.4,3.2,2.4,5.6V-66.2z M122.1-68.9h9.5c0-1.4-0.4-2.4-1.3-3.2c-0.9-0.7-1.9-1.1-3.2-1.1
			c-1.3,0-2.4,0.4-3.4,1.2C122.6-71.3,122.1-70.3,122.1-68.9z"/>
		<path class="st2" d="M142.3-68.4v8.9h-3.5V-76h3.5v3c0.6-1,1.3-1.8,2.3-2.4c1-0.6,2-0.9,3.2-0.9c1.9,0,3.4,0.6,4.5,1.7
			s1.7,2.8,1.7,4.9v10.1h-3.5v-9.1c0-3-1.3-4.6-3.8-4.6c-1.2,0-2.2,0.4-3.1,1.2C142.8-71.1,142.3-69.9,142.3-68.4z"/>
		<path class="st2" d="M163-73.2v8.4c0,0.8,0.2,1.4,0.6,1.9c0.4,0.5,1,0.7,1.7,0.7s1.5-0.4,2.1-1.1l1.4,2.4c-1.2,1.1-2.6,1.6-4,1.6
			c-1.5,0-2.7-0.5-3.8-1.5c-1-1-1.6-2.4-1.6-4.1v-8.3h-2.1V-76h2.1v-5.2h3.5v5.2h4.3v2.8H163z"/>
	</g>
	<g class="st1">
		<path class="st2" d="M485.3,27c-1.1,0-1.9,0.2-2.6,0.7c-0.7,0.4-1,1.1-1,2c0,0.9,0.3,1.5,1,2c0.7,0.5,2.1,1,4.4,1.5s3.9,1.3,5,2.3
			c1.1,1,1.7,2.4,1.7,4.3c0,1.9-0.7,3.4-2.1,4.6c-1.4,1.2-3.3,1.8-5.6,1.8c-3.4,0-6.4-1.2-9-3.5l2.3-2.8c2.2,1.9,4.5,2.9,6.8,2.9
			c1.2,0,2.1-0.3,2.8-0.8c0.7-0.5,1-1.2,1-2s-0.3-1.5-1-2c-0.7-0.5-1.8-0.9-3.4-1.3c-1.6-0.4-2.8-0.7-3.6-1.1
			c-0.8-0.3-1.6-0.7-2.2-1.3c-1.3-1-1.9-2.5-1.9-4.5s0.7-3.5,2.2-4.6s3.3-1.6,5.4-1.6c1.4,0,2.8,0.2,4.1,0.7
			c1.4,0.5,2.5,1.1,3.5,1.9l-2,2.8c-0.6-0.6-1.5-1.1-2.6-1.4C487.4,27.2,486.4,27,485.3,27z"/>
		<path class="st2" d="M516.4,42.8c-2.2,2.1-4.9,3.2-8.1,3.2c-3.2,0-5.9-1.1-8.1-3.2c-2.2-2.1-3.3-4.8-3.3-8c0-3.2,1.1-5.9,3.3-8
			c2.2-2.1,4.9-3.2,8.1-3.2c3.2,0,5.9,1.1,8.1,3.2c2.2,2.1,3.3,4.8,3.3,8C519.7,38,518.6,40.7,516.4,42.8z M513.7,29.3
			c-1.5-1.5-3.3-2.3-5.4-2.3c-2.2,0-4,0.8-5.4,2.3c-1.5,1.5-2.2,3.4-2.2,5.6s0.7,4,2.2,5.6c1.5,1.5,3.3,2.3,5.4,2.3
			c2.1,0,4-0.8,5.4-2.3s2.2-3.4,2.2-5.6S515.2,30.8,513.7,29.3z"/>
		<path class="st2" d="M524.3,45.8V24.1h3.7v18.2h9.9v3.5H524.3z"/>
		<path class="st2" d="M541.8,24.1h3.7v21.7h-3.7V24.1z"/>
		<path class="st2" d="M567.9,27c2.1,1.9,3.1,4.5,3.1,7.9c0,3.4-1,6-3,8c-2,2-5.1,2.9-9.3,2.9h-7.2V24.1h7.4
			C562.8,24.1,565.8,25.1,567.9,27z M567.4,35c0-5-2.8-7.4-8.5-7.4h-3.7v14.8h4.1c2.6,0,4.6-0.6,6-1.9
			C566.7,39.2,567.4,37.4,567.4,35z"/>
	</g>
	<rect id="XMLID_127_" x="478" y="478.2" class="st0" width="229.1" height="74.8"/>
	<g class="st1">
		<path class="st2" d="M495.7,481.4c1.5,1.3,2.3,3.2,2.3,5.8c0,2.6-0.8,4.5-2.3,5.8s-3.9,1.8-7.1,1.8h-3.8v6.4H481v-21.7h7.4
			C491.8,479.5,494.2,480.2,495.7,481.4z M493.1,490.4c0.7-0.8,1.1-1.9,1.1-3.4s-0.5-2.6-1.4-3.2s-2.4-0.9-4.4-0.9h-3.7v8.7h4.2
			C491,491.5,492.4,491.1,493.1,490.4z"/>
		<path class="st2" d="M514.8,501.2h-3.2V499c-1.4,1.6-3.2,2.4-5.5,2.4c-1.7,0-3.1-0.5-4.3-1.5c-1.1-1-1.7-2.3-1.7-3.9
			c0-1.6,0.6-2.8,1.8-3.6c1.2-0.8,2.8-1.2,4.9-1.2h4.5v-0.6c0-2.2-1.2-3.3-3.7-3.3c-1.5,0-3.1,0.6-4.8,1.7l-1.5-2.2
			c2-1.6,4.3-2.4,6.8-2.4c1.9,0,3.5,0.5,4.8,1.5s1.8,2.5,1.8,4.6V501.2z M511.3,495.1v-1.4h-3.9c-2.5,0-3.8,0.8-3.8,2.4
			c0,0.8,0.3,1.4,0.9,1.8c0.6,0.4,1.5,0.6,2.6,0.6c1.1,0,2.1-0.3,2.9-0.9C510.9,497,511.3,496.1,511.3,495.1z"/>
		<path class="st2" d="M519.9,481.4c-0.4-0.4-0.7-1-0.7-1.5c0-0.6,0.2-1.1,0.7-1.5s1-0.7,1.5-0.7c0.6,0,1.1,0.2,1.5,0.7
			c0.4,0.4,0.7,1,0.7,1.5c0,0.6-0.2,1.1-0.7,1.5c-0.4,0.4-1,0.7-1.5,0.7C520.8,482.1,520.3,481.9,519.9,481.4z M523.1,501.2h-3.5
			v-16.5h3.5V501.2z"/>
		<path class="st2" d="M536.8,488c-1.7,0-3,0.6-3.9,1.7c-0.9,1.1-1.3,2.6-1.3,4.5v7.1h-3.5v-16.5h3.5v3.3c0.6-1,1.3-1.9,2.3-2.5
			c1-0.7,2-1,3.1-1l0,3.5C536.9,488,536.8,488,536.8,488z"/>
	</g>
	<g class="st1">
		<path class="st2" d="M495.7,518.6c1.5,1.3,2.3,3.2,2.3,5.8c0,2.6-0.8,4.5-2.3,5.8s-3.9,1.8-7.1,1.8h-3.8v6.4H481v-21.7h7.4
			C491.8,516.7,494.2,517.4,495.7,518.6z M493.1,527.6c0.7-0.8,1.1-1.9,1.1-3.4s-0.5-2.6-1.4-3.2s-2.4-0.9-4.4-0.9h-3.7v8.7h4.2
			C491,528.7,492.4,528.3,493.1,527.6z"/>
		<path class="st2" d="M510.4,525.2c-1.7,0-3,0.6-3.9,1.7c-0.9,1.1-1.3,2.6-1.3,4.5v7.1h-3.5v-16.5h3.5v3.3c0.6-1,1.3-1.9,2.3-2.5
			s2-1,3.1-1l0,3.5C510.5,525.2,510.5,525.2,510.4,525.2z"/>
		<path class="st2" d="M527.5,536.2c-1.7,1.6-3.7,2.5-6.2,2.5c-2.5,0-4.5-0.8-6.2-2.5c-1.7-1.6-2.5-3.7-2.5-6c0-2.4,0.8-4.4,2.5-6
			c1.7-1.6,3.7-2.5,6.2-2.5c2.5,0,4.5,0.8,6.2,2.5c1.7,1.6,2.5,3.7,2.5,6C530,532.5,529.2,534.5,527.5,536.2z M517.6,534
			c1,1,2.2,1.5,3.7,1.5c1.5,0,2.8-0.5,3.7-1.5c1-1,1.5-2.3,1.5-3.9c0-1.6-0.5-2.9-1.5-3.9c-1-1-2.2-1.5-3.7-1.5
			c-1.5,0-2.8,0.5-3.7,1.5c-1,1-1.5,2.3-1.5,3.9C516.1,531.7,516.6,533,517.6,534z"/>
		<path class="st2" d="M549.2,521.9v14.4c0,2.9-0.8,5.1-2.4,6.6c-1.6,1.5-3.6,2.2-6.1,2.2c-2.5,0-4.7-0.8-6.7-2.3l1.6-2.6
			c1.6,1.2,3.2,1.8,4.9,1.8c1.6,0,2.9-0.4,3.9-1.3c1-0.8,1.4-2.2,1.4-4.1v-2.1c-0.5,1-1.3,1.7-2.2,2.3c-1,0.6-2,0.9-3.2,0.9
			c-2.2,0-4-0.8-5.4-2.3c-1.4-1.5-2.1-3.4-2.1-5.7s0.7-4.2,2.1-5.7c1.4-1.5,3.2-2.3,5.4-2.3c2.2,0,4,0.9,5.3,2.7v-2.4H549.2z
			 M536.4,529.5c0,1.4,0.4,2.5,1.3,3.5c0.8,1,2,1.5,3.4,1.5c1.4,0,2.6-0.5,3.4-1.4c0.9-1,1.3-2.1,1.3-3.5c0-1.4-0.4-2.6-1.3-3.6
			s-2-1.5-3.4-1.5s-2.5,0.5-3.4,1.5C536.8,527,536.4,528.2,536.4,529.5z"/>
		<path class="st2" d="M562.9,525.2c-1.7,0-3,0.6-3.9,1.7c-0.9,1.1-1.3,2.6-1.3,4.5v7.1h-3.5v-16.5h3.5v3.3c0.6-1,1.3-1.9,2.3-2.5
			s2-1,3.1-1l0,3.5C563,525.2,562.9,525.2,562.9,525.2z"/>
		<path class="st2" d="M579.8,538.4h-3.2v-2.2c-1.4,1.6-3.2,2.4-5.5,2.4c-1.7,0-3.1-0.5-4.3-1.5c-1.1-1-1.7-2.3-1.7-3.9
			c0-1.6,0.6-2.8,1.8-3.6c1.2-0.8,2.8-1.2,4.9-1.2h4.5v-0.6c0-2.2-1.2-3.3-3.7-3.3c-1.5,0-3.1,0.6-4.8,1.7l-1.5-2.2
			c2-1.6,4.3-2.4,6.8-2.4c1.9,0,3.5,0.5,4.8,1.5c1.2,1,1.8,2.5,1.8,4.6V538.4z M576.3,532.3v-1.4h-3.9c-2.5,0-3.8,0.8-3.8,2.4
			c0,0.8,0.3,1.4,0.9,1.8c0.6,0.4,1.5,0.6,2.6,0.6c1.1,0,2.1-0.3,2.9-0.9C575.9,534.2,576.3,533.3,576.3,532.3z"/>
		<path class="st2" d="M588.1,529.5v8.9h-3.5v-16.5h3.5v3c0.5-1,1.2-1.8,2.2-2.4c1-0.6,2.1-0.9,3.2-0.9c2.6,0,4.4,1.1,5.3,3.2
			c1.6-2.1,3.7-3.2,6.1-3.2c1.9,0,3.4,0.6,4.5,1.7c1.1,1.1,1.7,2.8,1.7,4.9v10.1h-3.5v-9.1c0-3-1.3-4.6-3.8-4.6
			c-1.2,0-2.2,0.4-3.1,1.1c-0.9,0.8-1.3,1.9-1.4,3.3v9.2H596v-9.1c0-1.6-0.3-2.7-0.8-3.5c-0.6-0.7-1.4-1.1-2.6-1.1
			c-1.2,0-2.2,0.4-3.1,1.2C588.5,526.8,588.1,527.9,588.1,529.5z"/>
		<path class="st2" d="M619.5,529.5v8.9H616v-16.5h3.5v3c0.5-1,1.2-1.8,2.2-2.4c1-0.6,2.1-0.9,3.2-0.9c2.6,0,4.4,1.1,5.3,3.2
			c1.6-2.1,3.7-3.2,6.1-3.2c1.9,0,3.4,0.6,4.5,1.7c1.1,1.1,1.7,2.8,1.7,4.9v10.1h-3.5v-9.1c0-3-1.3-4.6-3.8-4.6
			c-1.2,0-2.2,0.4-3.1,1.1c-0.9,0.8-1.3,1.9-1.4,3.3v9.2h-3.5v-9.1c0-1.6-0.3-2.7-0.8-3.5c-0.6-0.7-1.4-1.1-2.6-1.1
			c-1.2,0-2.2,0.4-3.1,1.2C619.9,526.8,619.5,527.9,619.5,529.5z"/>
		<path class="st2" d="M647.7,518.6c-0.4-0.4-0.7-1-0.7-1.5c0-0.6,0.2-1.1,0.7-1.5s1-0.7,1.5-0.7s1.1,0.2,1.6,0.7
			c0.4,0.4,0.7,1,0.7,1.5c0,0.6-0.2,1.1-0.7,1.5c-0.4,0.4-1,0.7-1.6,0.7S648.1,519.1,647.7,518.6z M650.9,538.4h-3.5v-16.5h3.5
			V538.4z"/>
		<path class="st2" d="M659.4,529.5v8.9h-3.5v-16.5h3.5v3c0.6-1,1.3-1.8,2.3-2.4c1-0.6,2-0.9,3.2-0.9c1.9,0,3.4,0.6,4.5,1.7
			c1.1,1.1,1.7,2.8,1.7,4.9v10.1h-3.5v-9.1c0-3-1.3-4.6-3.8-4.6c-1.2,0-2.2,0.4-3.1,1.2C659.9,526.8,659.4,527.9,659.4,529.5z"/>
		<path class="st2" d="M691.2,521.9v14.4c0,2.9-0.8,5.1-2.4,6.6c-1.6,1.5-3.6,2.2-6.1,2.2c-2.5,0-4.7-0.8-6.7-2.3l1.6-2.6
			c1.6,1.2,3.2,1.8,4.9,1.8c1.6,0,2.9-0.4,3.9-1.3c1-0.8,1.4-2.2,1.4-4.1v-2.1c-0.5,1-1.3,1.7-2.2,2.3c-1,0.6-2,0.9-3.2,0.9
			c-2.2,0-4-0.8-5.4-2.3c-1.4-1.5-2.1-3.4-2.1-5.7s0.7-4.2,2.1-5.7c1.4-1.5,3.2-2.3,5.4-2.3c2.2,0,4,0.9,5.3,2.7v-2.4H691.2z
			 M678.4,529.5c0,1.4,0.4,2.5,1.3,3.5c0.8,1,2,1.5,3.4,1.5c1.4,0,2.6-0.5,3.4-1.4c0.9-1,1.3-2.1,1.3-3.5c0-1.4-0.4-2.6-1.3-3.6
			s-2-1.5-3.4-1.5s-2.5,0.5-3.4,1.5C678.8,527,678.4,528.2,678.4,529.5z"/>
	</g>
	<g class="st1">
		<path class="st2" d="M492.9,293.5c1.3,0,2.3-0.2,3.3-0.6c0.9-0.4,1.9-1.1,2.9-2l2.4,2.4c-2.3,2.5-5.1,3.8-8.4,3.8s-6-1.1-8.2-3.2
			c-2.2-2.1-3.2-4.8-3.2-8s1.1-5.9,3.3-8.1c2.2-2.1,5-3.2,8.3-3.2s6.2,1.2,8.4,3.7l-2.3,2.5c-1-1-2-1.7-2.9-2.1s-2-0.6-3.2-0.6
			c-2.2,0-4,0.7-5.5,2.1c-1.5,1.4-2.2,3.2-2.2,5.4s0.7,4,2.2,5.5S490.9,293.5,492.9,293.5z"/>
		<path class="st2" d="M516.3,297l-0.5,0c-3.2,0-5.9-1.1-8.1-3.2c-2.2-2.1-3.3-4.8-3.3-8c0-3.2,1.1-5.9,3.3-8
			c2.2-2.1,4.9-3.2,8.1-3.2c3.2,0,5.9,1.1,8.1,3.2c2.2,2.1,3.3,4.8,3.3,8c0,2.4-0.7,4.6-2,6.4c-1.3,1.9-3,3.2-5.2,4
			c0.7,0.9,1.6,1.4,2.7,1.4c0.8,0,1.6-0.2,2.3-0.6c0.8-0.4,1.3-1,1.7-1.6l2.1,2.9c-1.8,1.9-3.9,2.9-6.2,2.9c-1.3,0-2.6-0.4-3.8-1.1
			C517.7,299.4,516.8,298.3,516.3,297z M521.3,280.3c-1.5-1.5-3.3-2.3-5.4-2.3c-2.2,0-4,0.8-5.4,2.3s-2.2,3.4-2.2,5.6s0.7,4,2.2,5.6
			s3.3,2.3,5.4,2.3c2.1,0,4-0.8,5.4-2.3c1.5-1.5,2.2-3.4,2.2-5.6S522.8,281.8,521.3,280.3z"/>
		<path class="st2" d="M549.2,282.2c0,3.6-1.6,5.8-4.7,6.8l5.7,7.9h-4.7l-5.2-7.3h-4.8v7.3h-3.7v-21.7h8.1c3.3,0,5.7,0.6,7.1,1.7
			S549.2,279.8,549.2,282.2z M544.3,285.3c0.7-0.6,1.1-1.7,1.1-3.1c0-1.4-0.4-2.4-1.1-2.9s-2.1-0.8-4.1-0.8h-4.7v7.8h4.6
			C542.2,286.2,543.6,285.9,544.3,285.3z"/>
		<path class="st2" d="M561,278c-1.1,0-1.9,0.2-2.6,0.7s-1,1.1-1,2c0,0.9,0.3,1.5,1,2s2.1,1,4.4,1.5c2.2,0.5,3.9,1.3,5,2.3
			c1.1,1,1.7,2.4,1.7,4.3c0,1.9-0.7,3.4-2.1,4.6c-1.4,1.2-3.3,1.8-5.6,1.8c-3.4,0-6.4-1.2-9-3.5l2.3-2.8c2.2,1.9,4.5,2.9,6.8,2.9
			c1.2,0,2.1-0.3,2.8-0.8c0.7-0.5,1-1.2,1-2s-0.3-1.5-1-2c-0.7-0.5-1.8-0.9-3.4-1.3c-1.6-0.4-2.8-0.7-3.6-1.1
			c-0.8-0.3-1.6-0.7-2.2-1.3c-1.3-1-1.9-2.5-1.9-4.5s0.7-3.5,2.2-4.6s3.3-1.6,5.4-1.6c1.4,0,2.8,0.2,4.1,0.7
			c1.4,0.5,2.5,1.1,3.5,1.9l-2,2.8c-0.6-0.6-1.5-1.1-2.6-1.4C563.2,278.2,562.1,278,561,278z"/>
	</g>
	<rect id="XMLID_121_" x="-66.2" y="120" class="st0" width="236.7" height="72.9"/>
	<g class="st1">
		<path class="st2" d="M52.6,124.1c2.1,1.9,3.1,4.5,3.1,7.9c0,3.4-1,6-3,8c-2,2-5.1,2.9-9.3,2.9h-7.2v-21.7h7.4
			C47.5,121.3,50.5,122.2,52.6,124.1z M52,132.1c0-5-2.8-7.4-8.5-7.4h-3.7v14.8h4.1c2.6,0,4.6-0.6,6-1.9
			C51.3,136.4,52,134.5,52,132.1z"/>
		<path class="st2" d="M73.7,140.7c-1.7,1.6-3.7,2.5-6.2,2.5s-4.5-0.8-6.2-2.5c-1.7-1.6-2.5-3.7-2.5-6c0-2.4,0.8-4.4,2.5-6
			c1.7-1.6,3.7-2.5,6.2-2.5s4.5,0.8,6.2,2.5c1.7,1.6,2.5,3.7,2.5,6C76.2,137.1,75.4,139.1,73.7,140.7z M63.8,138.6
			c1,1,2.2,1.5,3.7,1.5c1.5,0,2.8-0.5,3.7-1.5c1-1,1.5-2.3,1.5-3.9c0-1.6-0.5-2.9-1.5-3.9c-1-1-2.2-1.5-3.7-1.5
			c-1.5,0-2.8,0.5-3.7,1.5c-1,1-1.5,2.3-1.5,3.9C62.3,136.3,62.8,137.6,63.8,138.6z"/>
		<path class="st2" d="M83.6,134v8.9h-3.5v-16.5h3.5v3c0.5-1,1.2-1.8,2.2-2.4c1-0.6,2.1-0.9,3.2-0.9c2.6,0,4.4,1.1,5.3,3.2
			c1.6-2.1,3.7-3.2,6.1-3.2c1.9,0,3.4,0.6,4.5,1.7c1.1,1.1,1.7,2.8,1.7,4.9V143h-3.5v-9.1c0-3-1.3-4.6-3.8-4.6
			c-1.2,0-2.2,0.4-3.1,1.1c-0.9,0.8-1.3,1.9-1.4,3.3v9.2h-3.5v-9.1c0-1.6-0.3-2.7-0.8-3.5c-0.6-0.7-1.4-1.1-2.6-1.1
			s-2.2,0.4-3.1,1.2C84.1,131.3,83.6,132.5,83.6,134z"/>
		<path class="st2" d="M124.9,143h-3.2v-2.2c-1.4,1.6-3.2,2.4-5.5,2.4c-1.7,0-3.1-0.5-4.3-1.5c-1.1-1-1.7-2.3-1.7-3.9
			c0-1.6,0.6-2.8,1.8-3.6c1.2-0.8,2.8-1.2,4.9-1.2h4.5v-0.6c0-2.2-1.2-3.3-3.7-3.3c-1.5,0-3.1,0.6-4.8,1.7l-1.5-2.2
			c2-1.6,4.3-2.4,6.8-2.4c1.9,0,3.5,0.5,4.8,1.5s1.8,2.5,1.8,4.6V143z M121.5,136.8v-1.4h-3.9c-2.5,0-3.8,0.8-3.8,2.4
			c0,0.8,0.3,1.4,0.9,1.8c0.6,0.4,1.5,0.6,2.6,0.6c1.1,0,2.1-0.3,2.9-0.9C121.1,138.7,121.5,137.9,121.5,136.8z"/>
		<path class="st2" d="M130,123.2c-0.4-0.4-0.7-1-0.7-1.5c0-0.6,0.2-1.1,0.7-1.5s1-0.7,1.5-0.7c0.6,0,1.1,0.2,1.6,0.7s0.7,1,0.7,1.5
			c0,0.6-0.2,1.1-0.7,1.5c-0.4,0.4-1,0.7-1.6,0.7C130.9,123.8,130.4,123.6,130,123.2z M133.2,143h-3.5v-16.5h3.5V143z"/>
		<path class="st2" d="M141.7,134v8.9h-3.5v-16.5h3.5v3c0.6-1,1.3-1.8,2.3-2.4c1-0.6,2-0.9,3.2-0.9c1.9,0,3.4,0.6,4.5,1.7
			c1.1,1.1,1.7,2.8,1.7,4.9V143H150v-9.1c0-3-1.3-4.6-3.8-4.6c-1.2,0-2.2,0.4-3.1,1.2C142.2,131.3,141.7,132.5,141.7,134z"/>
		<path class="st2" d="M158,135.3v-3.3h10.3v3.3H158z"/>
	</g>
	<g class="st1">
		<path class="st2" d="M-28.4,161.3c2.1,1.9,3.1,4.5,3.1,7.9c0,3.4-1,6-3,8c-2,2-5.1,2.9-9.3,2.9h-7.2v-21.7h7.4
			C-33.5,158.5-30.5,159.4-28.4,161.3z M-28.9,169.3c0-5-2.8-7.4-8.5-7.4h-3.7v14.8h4.1c2.6,0,4.6-0.6,6-1.9
			C-29.6,173.6-28.9,171.7-28.9,169.3z"/>
		<path class="st2" d="M-12.4,166.9c-1.7,0-3,0.6-3.9,1.7c-0.9,1.1-1.3,2.6-1.3,4.5v7.1H-21v-16.5h3.5v3.3c0.6-1,1.3-1.9,2.3-2.5
			c1-0.7,2-1,3.1-1l0,3.5C-12.3,166.9-12.3,166.9-12.4,166.9z"/>
		<path class="st2" d="M-8.5,160.4c-0.4-0.4-0.7-1-0.7-1.5c0-0.6,0.2-1.1,0.7-1.5s1-0.7,1.5-0.7c0.6,0,1.1,0.2,1.6,0.7
			s0.7,1,0.7,1.5c0,0.6-0.2,1.1-0.7,1.5c-0.4,0.4-1,0.7-1.6,0.7C-7.6,161-8.1,160.8-8.5,160.4z M-5.3,180.2h-3.5v-16.5h3.5V180.2z"
			/>
		<path class="st2" d="M4.1,180.2l-6.6-16.5h3.6l5,12.5l5-12.5h3.6l-6.6,16.5H4.1z"/>
		<path class="st2" d="M32.8,173.4H19.9c0.1,1.2,0.6,2.2,1.6,2.9s2.2,1.1,3.5,1.1c2.1,0,3.6-0.7,4.7-2l2,2.2
			c-1.8,1.8-4.1,2.8-6.9,2.8c-2.3,0-4.3-0.8-5.9-2.3c-1.6-1.5-2.4-3.6-2.4-6.2c0-2.6,0.8-4.7,2.5-6.2c1.7-1.5,3.6-2.3,5.8-2.3
			s4.1,0.7,5.7,2c1.6,1.4,2.4,3.2,2.4,5.6V173.4z M19.9,170.7h9.5c0-1.4-0.4-2.4-1.3-3.2c-0.9-0.7-1.9-1.1-3.2-1.1s-2.4,0.4-3.4,1.2
			C20.4,168.3,19.9,169.4,19.9,170.7z"/>
		<path class="st2" d="M40.1,171.2v8.9h-3.5v-16.5h3.5v3c0.6-1,1.3-1.8,2.3-2.4c1-0.6,2-0.9,3.2-0.9c1.9,0,3.4,0.6,4.5,1.7
			c1.1,1.1,1.7,2.8,1.7,4.9v10.1h-3.5v-9.1c0-3-1.3-4.6-3.8-4.6c-1.2,0-2.2,0.4-3.1,1.2C40.6,168.5,40.1,169.7,40.1,171.2z"/>
		<path class="st2" d="M82.1,161.3c2.1,1.9,3.1,4.5,3.1,7.9c0,3.4-1,6-3,8c-2,2-5.1,2.9-9.3,2.9h-7.2v-21.7h7.4
			C77,158.5,80,159.4,82.1,161.3z M81.5,169.3c0-5-2.8-7.4-8.5-7.4h-3.7v14.8h4.1c2.6,0,4.6-0.6,6-1.9
			C80.8,173.6,81.5,171.7,81.5,169.3z"/>
		<path class="st2" d="M104.8,173.4H91.8c0.1,1.2,0.6,2.2,1.6,2.9s2.2,1.1,3.5,1.1c2.1,0,3.6-0.7,4.7-2l2,2.2
			c-1.8,1.8-4.1,2.8-6.9,2.8c-2.3,0-4.3-0.8-5.9-2.3c-1.6-1.5-2.4-3.6-2.4-6.2c0-2.6,0.8-4.7,2.5-6.2c1.7-1.5,3.6-2.3,5.8-2.3
			s4.1,0.7,5.7,2c1.6,1.4,2.4,3.2,2.4,5.6V173.4z M91.8,170.7h9.5c0-1.4-0.4-2.4-1.3-3.2c-0.9-0.7-1.9-1.1-3.2-1.1s-2.4,0.4-3.4,1.2
			C92.3,168.3,91.8,169.4,91.8,170.7z"/>
		<path class="st2" d="M120.3,175.2c0,1.6-0.6,2.8-1.7,3.8c-1.1,0.9-2.6,1.4-4.4,1.4c-1.2,0-2.4-0.2-3.7-0.7c-1.3-0.4-2.4-1-3.4-1.8
			l1.7-2.7c1.9,1.4,3.8,2.2,5.6,2.2c0.8,0,1.4-0.2,1.9-0.5c0.5-0.4,0.7-0.8,0.7-1.4c0-0.8-1.1-1.6-3.3-2.2c-0.2-0.1-0.3-0.1-0.4-0.1
			c-3.4-0.9-5.1-2.5-5.1-4.6c0-1.5,0.6-2.8,1.8-3.7s2.7-1.4,4.6-1.4c1.9,0,3.7,0.6,5.4,1.7l-1.3,2.6c-1.3-0.9-2.8-1.3-4.4-1.3
			c-0.8,0-1.5,0.2-2,0.4c-0.5,0.3-0.8,0.8-0.8,1.3c0,0.5,0.3,0.9,0.8,1.2c0.4,0.2,0.9,0.4,1.6,0.5c0.7,0.2,1.3,0.3,1.8,0.5
			c0.5,0.2,1,0.4,1.5,0.6c0.5,0.2,1,0.5,1.6,0.9C119.8,172.5,120.3,173.7,120.3,175.2z"/>
		<path class="st2" d="M124.5,160.4c-0.4-0.4-0.7-1-0.7-1.5c0-0.6,0.2-1.1,0.7-1.5s1-0.7,1.5-0.7c0.6,0,1.1,0.2,1.6,0.7
			s0.7,1,0.7,1.5c0,0.6-0.2,1.1-0.7,1.5c-0.4,0.4-1,0.7-1.6,0.7C125.4,161,124.9,160.8,124.5,160.4z M127.7,180.2h-3.5v-16.5h3.5
			V180.2z"/>
		<path class="st2" d="M148,163.7V178c0,2.9-0.8,5.1-2.4,6.6s-3.6,2.2-6.1,2.2s-4.7-0.8-6.7-2.3l1.6-2.6c1.6,1.2,3.2,1.8,4.9,1.8
			s2.9-0.4,3.9-1.3c1-0.8,1.4-2.2,1.4-4.1v-2.1c-0.5,1-1.3,1.7-2.2,2.3c-1,0.6-2,0.9-3.2,0.9c-2.2,0-4-0.8-5.4-2.3
			c-1.4-1.5-2.1-3.4-2.1-5.7s0.7-4.2,2.1-5.7c1.4-1.5,3.2-2.3,5.4-2.3c2.2,0,4,0.9,5.3,2.7v-2.4H148z M135.1,171.3
			c0,1.4,0.4,2.5,1.3,3.5c0.8,1,2,1.5,3.4,1.5c1.4,0,2.6-0.5,3.4-1.4c0.9-1,1.3-2.1,1.3-3.5c0-1.4-0.4-2.6-1.3-3.6
			c-0.9-1-2-1.5-3.4-1.5c-1.4,0-2.5,0.5-3.4,1.5C135.6,168.7,135.1,169.9,135.1,171.3z"/>
		<path class="st2" d="M156.5,171.2v8.9H153v-16.5h3.5v3c0.6-1,1.3-1.8,2.3-2.4c1-0.6,2-0.9,3.2-0.9c1.9,0,3.4,0.6,4.5,1.7
			c1.1,1.1,1.7,2.8,1.7,4.9v10.1h-3.5v-9.1c0-3-1.3-4.6-3.8-4.6c-1.2,0-2.2,0.4-3.1,1.2C156.9,168.5,156.5,169.7,156.5,171.2z"/>
	</g>
	<rect id="XMLID_117_" x="-19.1" y="595.7" class="st0" width="189.9" height="75.5"/>
	<g class="st1">
		<path class="st2" d="M23.3,615.3c1.3,0,2.3-0.2,3.3-0.6c0.9-0.4,1.9-1.1,2.9-2l2.4,2.4c-2.3,2.5-5.1,3.8-8.4,3.8
			c-3.3,0-6-1.1-8.2-3.2c-2.2-2.1-3.2-4.8-3.2-8s1.1-5.9,3.3-8.1c2.2-2.1,5-3.2,8.3-3.2s6.2,1.2,8.4,3.7l-2.3,2.5
			c-1-1-2-1.7-2.9-2.1c-0.9-0.4-2-0.6-3.2-0.6c-2.2,0-4,0.7-5.5,2.1c-1.5,1.4-2.2,3.2-2.2,5.4s0.7,4,2.2,5.5
			C19.5,614.6,21.2,615.3,23.3,615.3z"/>
		<path class="st2" d="M49,616.4c-1.7,1.6-3.7,2.5-6.2,2.5s-4.5-0.8-6.2-2.5c-1.7-1.6-2.5-3.7-2.5-6c0-2.4,0.8-4.4,2.5-6
			c1.7-1.6,3.7-2.5,6.2-2.5s4.5,0.8,6.2,2.5c1.7,1.6,2.5,3.7,2.5,6C51.5,612.8,50.7,614.8,49,616.4z M39.1,614.3
			c1,1,2.2,1.5,3.7,1.5c1.5,0,2.8-0.5,3.7-1.5c1-1,1.5-2.3,1.5-3.9c0-1.6-0.5-2.9-1.5-3.9c-1-1-2.2-1.5-3.7-1.5
			c-1.5,0-2.8,0.5-3.7,1.5c-1,1-1.5,2.3-1.5,3.9C37.6,612,38.1,613.3,39.1,614.3z"/>
		<path class="st2" d="M58.9,609.7v8.9h-3.5v-16.5h3.5v3c0.6-1,1.3-1.8,2.3-2.4c1-0.6,2-0.9,3.2-0.9c1.9,0,3.4,0.6,4.5,1.7
			c1.1,1.1,1.7,2.8,1.7,4.9v10.1h-3.5v-9.1c0-3-1.3-4.6-3.8-4.6c-1.2,0-2.2,0.4-3.1,1.2C59.4,607,58.9,608.2,58.9,609.7z"/>
		<path class="st2" d="M79.5,605v8.4c0,0.8,0.2,1.4,0.6,1.9c0.4,0.5,1,0.7,1.7,0.7s1.5-0.4,2.1-1.1l1.4,2.4c-1.2,1.1-2.6,1.6-4,1.6
			c-1.5,0-2.7-0.5-3.8-1.5c-1-1-1.6-2.4-1.6-4.1V605H74v-2.8h2.1V597h3.5v5.2h4.3v2.8H79.5z"/>
		<path class="st2" d="M88.4,598.9c-0.4-0.4-0.7-1-0.7-1.5c0-0.6,0.2-1.1,0.7-1.5s1-0.7,1.5-0.7c0.6,0,1.1,0.2,1.6,0.7
			s0.7,1,0.7,1.5c0,0.6-0.2,1.1-0.7,1.5c-0.4,0.4-1,0.7-1.6,0.7C89.4,599.5,88.9,599.3,88.4,598.9z M91.7,618.7h-3.5v-16.5h3.5
			V618.7z"/>
		<path class="st2" d="M100.2,609.7v8.9h-3.5v-16.5h3.5v3c0.6-1,1.3-1.8,2.3-2.4c1-0.6,2-0.9,3.2-0.9c1.9,0,3.4,0.6,4.5,1.7
			c1.1,1.1,1.7,2.8,1.7,4.9v10.1h-3.5v-9.1c0-3-1.3-4.6-3.8-4.6c-1.2,0-2.2,0.4-3.1,1.2C100.6,607,100.2,608.2,100.2,609.7z"/>
		<path class="st2" d="M130.5,616.4c-1.7,1.6-3.7,2.5-6.2,2.5s-4.5-0.8-6.2-2.5c-1.7-1.6-2.5-3.7-2.5-6c0-2.4,0.8-4.4,2.5-6
			c1.7-1.6,3.7-2.5,6.2-2.5s4.5,0.8,6.2,2.5c1.7,1.6,2.5,3.7,2.5,6C133,612.8,132.2,614.8,130.5,616.4z M120.6,614.3
			c1,1,2.2,1.5,3.7,1.5c1.5,0,2.8-0.5,3.7-1.5c1-1,1.5-2.3,1.5-3.9c0-1.6-0.5-2.9-1.5-3.9c-1-1-2.2-1.5-3.7-1.5
			c-1.5,0-2.8,0.5-3.7,1.5c-1,1-1.5,2.3-1.5,3.9C119.1,612,119.6,613.3,120.6,614.3z"/>
		<path class="st2" d="M148.5,611.1v-8.9h3.5v16.5h-3.5v-3c-0.6,1-1.3,1.8-2.3,2.4c-1,0.6-2,0.9-3.2,0.9c-1.9,0-3.4-0.6-4.5-1.7
			s-1.7-2.8-1.7-4.9v-10.1h3.5v9.1c0,3,1.3,4.6,3.8,4.6c1.2,0,2.2-0.4,3.1-1.2C148,613.8,148.5,612.6,148.5,611.1z"/>
		<path class="st2" d="M168.7,613.7c0,1.6-0.6,2.8-1.7,3.8c-1.1,0.9-2.6,1.4-4.4,1.4c-1.2,0-2.4-0.2-3.7-0.7c-1.3-0.4-2.4-1-3.4-1.8
			l1.7-2.7c1.9,1.4,3.8,2.2,5.6,2.2c0.8,0,1.4-0.2,1.9-0.5c0.5-0.4,0.7-0.8,0.7-1.4c0-0.8-1.1-1.6-3.3-2.2c-0.2-0.1-0.3-0.1-0.4-0.1
			c-3.4-0.9-5.1-2.5-5.1-4.6c0-1.5,0.6-2.8,1.8-3.7s2.7-1.4,4.6-1.4c1.9,0,3.7,0.6,5.4,1.7l-1.3,2.6c-1.3-0.9-2.8-1.3-4.4-1.3
			c-0.8,0-1.5,0.2-2,0.4c-0.5,0.3-0.8,0.8-0.8,1.3c0,0.5,0.3,0.9,0.8,1.2c0.4,0.2,0.9,0.4,1.6,0.5c0.7,0.2,1.3,0.3,1.8,0.5
			c0.5,0.2,1,0.4,1.5,0.6c0.5,0.2,1,0.5,1.6,0.9C168.2,611,168.7,612.2,168.7,613.7z"/>
	</g>
	<g class="st1">
		<path class="st2" d="M62.9,637c2.1,1.9,3.1,4.5,3.1,7.9c0,3.4-1,6-3,8c-2,2-5.1,2.9-9.3,2.9h-7.2v-21.7h7.4
			C57.8,634.2,60.8,635.1,62.9,637z M62.3,645c0-5-2.8-7.4-8.5-7.4h-3.7v14.8h4.1c2.6,0,4.6-0.6,6-1.9
			C61.6,649.3,62.3,647.4,62.3,645z"/>
		<path class="st2" d="M85.5,649.1H72.6c0.1,1.2,0.6,2.2,1.6,2.9s2.2,1.1,3.5,1.1c2.1,0,3.6-0.7,4.7-2l2,2.2
			c-1.8,1.8-4.1,2.8-6.9,2.8c-2.3,0-4.3-0.8-5.9-2.3c-1.6-1.5-2.4-3.6-2.4-6.2c0-2.6,0.8-4.7,2.5-6.2c1.7-1.5,3.6-2.3,5.8-2.3
			s4.1,0.7,5.7,2c1.6,1.4,2.4,3.2,2.4,5.6V649.1z M72.6,646.4h9.5c0-1.4-0.4-2.4-1.3-3.2c-0.9-0.7-1.9-1.1-3.2-1.1s-2.4,0.4-3.4,1.2
			C73.1,644,72.6,645.1,72.6,646.4z"/>
		<path class="st2" d="M92.8,655.9h-3.5v-23h3.5V655.9z"/>
		<path class="st2" d="M98.1,636.1c-0.4-0.4-0.7-1-0.7-1.5c0-0.6,0.2-1.1,0.7-1.5s1-0.7,1.5-0.7c0.6,0,1.1,0.2,1.6,0.7
			s0.7,1,0.7,1.5c0,0.6-0.2,1.1-0.7,1.5c-0.4,0.4-1,0.7-1.6,0.7C99,636.7,98.5,636.5,98.1,636.1z M101.3,655.9h-3.5v-16.5h3.5V655.9
			z"/>
		<path class="st2" d="M110.7,655.9l-6.6-16.5h3.6l5,12.5l5-12.5h3.6l-6.6,16.5H110.7z"/>
		<path class="st2" d="M139.4,649.1h-12.9c0.1,1.2,0.6,2.2,1.6,2.9s2.2,1.1,3.5,1.1c2.1,0,3.6-0.7,4.7-2l2,2.2
			c-1.8,1.8-4.1,2.8-6.9,2.8c-2.3,0-4.3-0.8-5.9-2.3c-1.6-1.5-2.4-3.6-2.4-6.2c0-2.6,0.8-4.7,2.5-6.2c1.7-1.5,3.6-2.3,5.8-2.3
			s4.1,0.7,5.7,2c1.6,1.4,2.4,3.2,2.4,5.6V649.1z M126.5,646.4h9.5c0-1.4-0.4-2.4-1.3-3.2c-0.9-0.7-1.9-1.1-3.2-1.1
			s-2.4,0.4-3.4,1.2C127,644,126.5,645.1,126.5,646.4z"/>
		<path class="st2" d="M151.9,642.6c-1.7,0-3,0.6-3.9,1.7c-0.9,1.1-1.3,2.6-1.3,4.5v7.1h-3.5v-16.5h3.5v3.3c0.6-1,1.3-1.9,2.3-2.5
			c1-0.7,2-1,3.1-1l0,3.5C152,642.6,151.9,642.6,151.9,642.6z"/>
		<path class="st2" d="M157.6,662.4c-1.5,0-2.9-0.5-4.1-1.6l1.6-2.8c0.7,0.7,1.5,1,2.2,1c0.8,0,1.4-0.3,1.9-0.8
			c0.5-0.6,0.7-1.2,0.7-1.8c0-0.3-2.2-5.9-6.7-17h3.7l4.9,12.2l4.9-12.2h3.7l-8,19.6c-0.5,1.1-1.2,1.9-2,2.5
			C159.7,662.1,158.7,662.4,157.6,662.4z"/>
	</g>
	<rect id="XMLID_113_" x="31.4" y="392.5" class="st0" width="138.2" height="30"/>
	<g class="st1">
		<path class="st2" d="M78,396.7c-1.1,0-1.9,0.2-2.6,0.7c-0.7,0.4-1,1.1-1,2c0,0.9,0.3,1.5,1,2c0.7,0.5,2.1,1,4.4,1.5s3.9,1.3,5,2.3
			c1.1,1,1.7,2.4,1.7,4.3c0,1.9-0.7,3.4-2.1,4.6c-1.4,1.2-3.3,1.8-5.6,1.8c-3.4,0-6.4-1.2-9-3.5l2.3-2.8c2.2,1.9,4.5,2.9,6.8,2.9
			c1.2,0,2.1-0.3,2.8-0.8c0.7-0.5,1-1.2,1-2s-0.3-1.5-1-2c-0.7-0.5-1.8-0.9-3.4-1.3c-1.6-0.4-2.8-0.7-3.6-1.1
			c-0.8-0.3-1.6-0.7-2.2-1.3c-1.3-1-1.9-2.5-1.9-4.5s0.7-3.5,2.2-4.6s3.3-1.6,5.4-1.6c1.4,0,2.8,0.2,4.1,0.7
			c1.4,0.5,2.5,1.1,3.5,1.9l-2,2.8c-0.6-0.6-1.5-1.1-2.6-1.4C80.1,396.8,79,396.7,78,396.7z"/>
		<path class="st2" d="M97.7,415.7c-2.3,0-4.3-0.8-5.9-2.3c-1.7-1.6-2.5-3.6-2.5-6.1s0.9-4.6,2.6-6.2c1.7-1.6,3.8-2.4,6.3-2.4
			c2.5,0,4.6,0.9,6.3,2.6l-2,2.5c-1.4-1.2-2.9-1.9-4.3-1.9c-1.4,0-2.7,0.5-3.8,1.4c-1.1,1-1.6,2.2-1.6,3.7s0.5,2.8,1.6,3.9
			s2.4,1.6,3.9,1.6c1.5,0,3-0.7,4.4-2.1l2,2.2C102.7,414.7,100.4,415.7,97.7,415.7z"/>
		<path class="st2" d="M116.9,402.2c-1.7,0-3,0.6-3.9,1.7c-0.9,1.1-1.3,2.6-1.3,4.5v7.1h-3.5V399h3.5v3.3c0.6-1,1.3-1.9,2.3-2.5
			c1-0.7,2-1,3.1-1l0,3.5C117.1,402.2,117,402.2,116.9,402.2z"/>
		<path class="st2" d="M132.1,407.9V399h3.5v16.5h-3.5v-3c-0.6,1-1.3,1.8-2.3,2.4c-1,0.6-2,0.9-3.2,0.9c-1.9,0-3.4-0.6-4.5-1.7
			s-1.7-2.8-1.7-4.9V399h3.5v9.1c0,3,1.3,4.6,3.8,4.6c1.2,0,2.2-0.4,3.1-1.2C131.7,410.6,132.1,409.4,132.1,407.9z"/>
		<path class="st2" d="M144.1,406.6v8.9h-3.5V399h3.5v3c0.5-1,1.2-1.8,2.2-2.4c1-0.6,2.1-0.9,3.2-0.9c2.6,0,4.4,1.1,5.3,3.2
			c1.6-2.1,3.7-3.2,6.1-3.2c1.9,0,3.4,0.6,4.5,1.7c1.1,1.1,1.7,2.8,1.7,4.9v10.1h-3.5v-9.1c0-3-1.3-4.6-3.8-4.6
			c-1.2,0-2.2,0.4-3.1,1.1c-0.9,0.8-1.3,1.9-1.4,3.3v9.2H152v-9.1c0-1.6-0.3-2.7-0.8-3.5c-0.6-0.7-1.4-1.1-2.6-1.1s-2.2,0.4-3.1,1.2
			C144.5,403.9,144.1,405,144.1,406.6z"/>
	</g>
	<g id="XMLID_2_">
		<g id="XMLID_102_">
			<line id="XMLID_111_" class="st3" x1="320.3" y1="686.8" x2="320.3" y2="-145.1"/>
			<polygon id="XMLID_110_" class="st4" points="328.4,573.2 320.3,577.9 312.3,573.2 312.3,564 320.3,559.3 328.4,564 			"/>
			<polygon id="XMLID_109_" class="st4" points="328.4,455.1 320.3,459.7 312.3,455.1 312.3,445.8 320.3,441.2 328.4,445.8 			"/>
			<polygon id="XMLID_108_" class="st4" points="328.4,336.9 320.3,341.5 312.3,336.9 312.3,327.6 320.3,323 328.4,327.6 			"/>
			<polygon id="XMLID_107_" class="st4" points="328.4,218.7 320.3,223.3 312.3,218.7 312.3,209.4 320.3,204.8 328.4,209.4 			"/>
			<polygon id="XMLID_106_" class="st4" points="328.4,100.5 320.3,105.2 312.3,100.5 312.3,91.3 320.3,86.6 328.4,91.3 			"/>
			<polygon id="XMLID_105_" class="st4" points="328.4,-17.7 320.3,-13 312.3,-17.7 312.3,-26.9 320.3,-31.5 328.4,-26.9 			"/>
			<polygon id="XMLID_104_" class="st4" points="328.4,-135.8 320.3,-131.2 312.3,-135.8 312.3,-145.1 320.3,-149.7 328.4,-145.1 
							"/>
			<polygon id="XMLID_103_" class="st4" points="328.4,691.4 320.3,696 312.3,691.4 312.3,682.1 320.3,677.5 328.4,682.1 			"/>
		</g>
		<g id="XMLID_86_">
			<g id="XMLID_97_">
				<g id="XMLID_98_">
					<path id="XMLID_99_" class="st4" d="M294-85.5c0,7.9-0.1,15.9,0,23.8c0,2.5-0.9,4.2-3.1,5.5c-13.8,7.9-27.6,15.9-41.4,23.9
						c-2.3,1.3-4.2,1.5-6.6,0.1c-13.8-8.1-27.7-16.1-41.6-24.1c-2.1-1.2-3-2.8-3-5.3c0-16.1,0-32.1,0-48.2c0-2.3,0.8-3.9,2.9-5.1
						c14-8,27.9-16.1,41.9-24.2c2.2-1.3,4.1-1.2,6.3,0.1c13.8,8.1,27.7,16.1,41.6,24.1c2.1,1.2,3,2.8,3,5.3
						C294-101.5,294-93.5,294-85.5z M286.1-85.6c0-6.9,0-13.8,0-20.7c0-1.6-0.4-2.5-1.8-3.4c-12.1-6.9-24.2-13.9-36.2-20.9
						c-1.4-0.8-2.4-0.8-3.8,0c-12,7-24.2,13.9-36.2,21c-0.9,0.5-1.8,2-1.8,3c-0.1,14,0,28-0.1,41.9c0,1.7,0.6,2.5,2,3.3
						c12,6.9,24,13.8,36,20.8c1.5,0.9,2.6,0.9,4.1,0c12-7,24-13.9,36-20.8c1.6-0.9,2-1.9,2-3.6C286.1-71.8,286.1-78.7,286.1-85.6z"
						/>
				</g>
			</g>
			<g id="XMLID_87_">
				<path id="XMLID_96_" class="st4" d="M238.9-98.1c-1.3,0-2.5,0-3.8,0c-1.1,0-1.7-0.5-1.7-1.4s0.6-1.4,1.7-1.4c1.6,0,3.2,0,4.8,0
					c1.3,0,1.7,0.5,1.7,1.8c0,6.9,0,13.8,0,20.7c0,0.2,0,0.5,0,0.8c2.7,0,5.4,0,8.2,0c0-0.3,0-0.7,0-1c0-6.8,0-13.6,0-20.3
					c0-1.5,0.4-1.9,1.9-1.9c1.6,0,3.1,0,4.7,0c1,0,1.6,0.5,1.6,1.3c0,0.9-0.6,1.4-1.6,1.4c-1.2,0-2.5,0-3.8,0c0,0.8,0,1.6,0,2.4
					c0,11.5,0,23,0,34.5c0,3.7-3.2,6.9-6.8,6.9c-3.6,0-6.9-3.1-6.9-6.8c0-8.6,0-17.1,0-25.7c0-3.5,0-7.1,0-10.6
					C239-97.6,238.9-97.8,238.9-98.1z"/>
				<path id="XMLID_95_" class="st4" d="M237.9-113.7c0-2.4,1.9-4.3,4.2-4.3c2.3,0,4.3,1.9,4.3,4.3c0,2.4-1.9,4.3-4.3,4.3
					C239.8-109.4,237.9-111.3,237.9-113.7z"/>
				<path id="XMLID_94_" class="st4" d="M247.3-107.8c0-1.9,1.6-3.4,3.5-3.4c2,0,3.5,1.6,3.5,3.5c0,1.9-1.6,3.5-3.6,3.5
					C248.8-104.2,247.3-105.8,247.3-107.8z"/>
				<path id="XMLID_93_" class="st4" d="M247.4-101.8c0,1.2-1,2.2-2.2,2.2s-2.2-1-2.3-2.2c0-1.2,1-2.2,2.2-2.3
					C246.4-104,247.4-103,247.4-101.8z"/>
				<path id="XMLID_92_" class="st4" d="M244.1-84.7c0.7,0,1.4,0.6,1.5,1.4c0,0.7-0.6,1.4-1.3,1.4c-0.7,0.1-1.5-0.6-1.5-1.3
					C242.7-83.9,243.4-84.6,244.1-84.7z"/>
				<path id="XMLID_91_" class="st4" d="M247.4-97.5c0.8,0,1.4,0.7,1.4,1.4c0,0.8-0.7,1.4-1.4,1.4c-0.7,0-1.3-0.7-1.3-1.4
					C246-96.9,246.6-97.5,247.4-97.5z"/>
				<path id="XMLID_90_" class="st4" d="M247.3-78.2c-0.8,0-1.4-0.6-1.4-1.4s0.7-1.4,1.4-1.3c0.8,0,1.4,0.7,1.3,1.5
					C248.7-78.8,248.1-78.2,247.3-78.2z"/>
				<path id="XMLID_89_" class="st4" d="M245.7-91.7c0,0.8-0.7,1.4-1.4,1.4c-0.8,0-1.4-0.7-1.3-1.5c0-0.7,0.7-1.3,1.4-1.3
					C245.1-93.2,245.7-92.5,245.7-91.7z"/>
				<path id="XMLID_88_" class="st4" d="M248.6-87.2c0,0.8-0.7,1.4-1.4,1.4c-0.7,0-1.3-0.6-1.4-1.4c0-0.8,0.6-1.4,1.4-1.4
					S248.6-87.9,248.6-87.2z"/>
			</g>
		</g>
		<g id="XMLID_75_">
			<g id="XMLID_80_">
				<g id="XMLID_81_">
					<g id="XMLID_82_">
						<path id="XMLID_83_" class="st4" d="M292.8,630.9c0,7.7-0.1,15.5,0,23.2c0,2.5-0.9,4.1-3,5.4c-13.5,7.7-26.9,15.5-40.3,23.3
							c-2.2,1.3-4.1,1.4-6.4,0.1c-13.5-7.9-27-15.7-40.5-23.4c-2.1-1.2-2.9-2.8-2.9-5.1c0-15.6,0-31.3,0-46.9c0-2.3,0.8-3.8,2.8-4.9
							c13.6-7.8,27.2-15.7,40.8-23.6c2.2-1.3,4-1.2,6.1,0.1c13.5,7.9,27,15.7,40.5,23.4c2.1,1.2,3,2.8,2.9,5.1
							C292.7,615.2,292.8,623,292.8,630.9z M285.1,630.7c0-6.7,0-13.4,0-20.1c0-1.5-0.4-2.5-1.8-3.3c-11.8-6.7-23.6-13.5-35.3-20.4
							c-1.4-0.8-2.3-0.8-3.7,0c-11.7,6.8-23.5,13.6-35.3,20.5c-0.9,0.5-1.7,1.9-1.7,2.9c-0.1,13.6,0,27.2-0.1,40.8
							c0,1.6,0.6,2.4,1.9,3.2c11.7,6.7,23.4,13.4,35.1,20.3c1.5,0.9,2.5,0.8,3.9,0c11.7-6.8,23.3-13.6,35.1-20.2
							c1.5-0.9,1.9-1.9,1.9-3.5C285.1,644.2,285.1,637.4,285.1,630.7z"/>
					</g>
				</g>
			</g>
			<g id="XMLID_76_">
				<rect id="XMLID_79_" x="226.4" y="612.3" class="st4" width="38.3" height="38.3"/>
				<path id="XMLID_78_" class="st5" d="M245.6,627.2c0-0.1,0-0.2,0-0.3c0.1-0.1,0.2-0.2,0.3-0.4c1.4-1.8,2.9-3.6,4.3-5.4
					c0.1,0,0.2,0,0.3,0c0.1,0.1,0.3,0.3,0.4,0.4c1.4,1.7,2.8,3.3,4.2,5c0.1,0.1,0.2,0.3,0.4,0.6c-1,0-1.9,0-2.8,0c0,0.4,0,0.6,0,0.8
					c0,4.3,0,8.7,0,13c0,0.2-0.2,0.5-0.2,0.7c-1.3,0-2.7,0-4,0c0-0.3-0.1-0.5-0.1-0.8c0-4.3,0-8.7-0.1-13c0-0.2,0-0.4,0-0.6
					C247.3,627.3,246.4,627.3,245.6,627.2z"/>
				<path id="XMLID_77_" class="st5" d="M235.6,627.2c0-0.1,0-0.2,0-0.3c0.1-0.1,0.2-0.2,0.3-0.4c1.4-1.8,2.9-3.6,4.3-5.4
					c0.1,0,0.2,0,0.3,0c0.1,0.1,0.3,0.3,0.4,0.4c1.4,1.7,2.8,3.3,4.2,5c0.1,0.1,0.2,0.3,0.4,0.6c-1,0-1.9,0-2.8,0c0,0.4,0,0.6,0,0.8
					c0,4.3,0,8.7,0,13c0,0.2-0.2,0.5-0.2,0.7c-1.3,0-2.7,0-4,0c0-0.3-0.1-0.5-0.1-0.8c0-4.3,0-8.7-0.1-13c0-0.2,0-0.4,0-0.6
					C237.3,627.3,236.5,627.3,235.6,627.2z"/>
			</g>
		</g>
		<g id="XMLID_65_">
			<g id="XMLID_69_">
				<g id="XMLID_70_">
					<g id="XMLID_71_">
						<path id="XMLID_72_" class="st4" d="M292.8,393.1c0,7.7-0.1,15.5,0,23.2c0,2.5-0.9,4.1-3,5.4c-13.5,7.7-26.9,15.5-40.3,23.3
							c-2.2,1.3-4.1,1.4-6.4,0.1c-13.5-7.9-27-15.7-40.5-23.4c-2.1-1.2-2.9-2.8-2.9-5.1c0-15.6,0-31.3,0-46.9c0-2.3,0.8-3.8,2.8-4.9
							c13.6-7.8,27.2-15.7,40.8-23.6c2.2-1.3,4-1.2,6.1,0.1c13.5,7.9,27,15.7,40.5,23.4c2.1,1.2,3,2.8,2.9,5.1
							C292.7,377.4,292.8,385.2,292.8,393.1z M285.1,392.9c0-6.7,0-13.4,0-20.1c0-1.5-0.4-2.5-1.8-3.3
							c-11.8-6.7-23.6-13.5-35.3-20.4c-1.4-0.8-2.3-0.8-3.7,0c-11.7,6.8-23.5,13.6-35.3,20.5c-0.9,0.5-1.7,1.9-1.7,2.9
							c-0.1,13.6,0,27.2-0.1,40.8c0,1.6,0.6,2.4,1.9,3.2c11.7,6.7,23.4,13.4,35.1,20.3c1.5,0.9,2.5,0.8,3.9,0
							c11.7-6.8,23.3-13.6,35.1-20.2c1.5-0.9,1.9-1.9,1.9-3.5C285.1,406.3,285.1,399.6,285.1,392.9z"/>
					</g>
				</g>
			</g>
			<g id="XMLID_66_">
				<path id="XMLID_68_" class="st4" d="M226.6,406.3c6.1,0,12.2,0,18.2,0c5.8,0,10.2-3.9,10.8-9.8c0.4-4.6-2.5-9.6-8.2-11.1
					c-5-1.3-10.4,1.6-12.3,6.7c-0.8,2.2-0.8,5,0.2,7c0.6-0.2,1.3-0.3,2.3-0.6c-0.9,2.2-1.6,4.1-2.4,6.1c-2.1-0.8-4-1.6-6.4-2.5
					c2.7-0.6,2.2-2,2.1-3.7c-0.2-2.7,0.1-5.5,0.2-8.7c-2.8-1.8-4.4-4.6-3.3-8.6c0.9-3.1,4-5.4,7.3-5.2c2.4,0.1,2.4,0.1,3.8-1.7
					c0.7,2,1.4,4,2.1,6.2c-2.1,0.7-4,1.4-6.3,2.2c0.3-0.9,0.5-1.5,0.8-2.2c-0.1-0.2-0.2-0.3-0.3-0.5c-1,0.5-2.3,0.7-2.8,1.5
					c-0.6,0.9-0.7,2.3-0.4,3.4c0.5,1.7,1.8,1.9,3.1,0.7c4.7-4.5,11-5.5,16.8-2.6c5.3,2.6,8.6,8.6,7.9,14.8
					c-0.6,6.4-6.3,12.3-12.7,12.7c-5.9,0.3-11.9,0.2-17.8,0.2c-0.8,0-1.6,0.1-2.5,0.2C226.6,409.2,226.6,407.8,226.6,406.3z"/>
				<path id="XMLID_67_" class="st4" d="M265.8,410.6c-4.3,0-8.6,0-13.4,0c1.8-1.5,3.2-2.8,4.7-3.9c0.4-0.3,1.1-0.3,1.6-0.3
					c2.4,0,4.7,0,7.1,0C265.8,407.8,265.8,409.2,265.8,410.6z"/>
			</g>
		</g>
		<g id="XMLID_49_">
			<g id="XMLID_59_">
				<g id="XMLID_60_">
					<g id="XMLID_61_">
						<path id="XMLID_62_" class="st4" d="M452.8,512.7c0,7.7-0.1,15.5,0,23.2c0,2.5-0.9,4.1-3,5.4c-13.5,7.7-26.9,15.5-40.3,23.3
							c-2.2,1.3-4.1,1.4-6.4,0.1c-13.5-7.9-27-15.7-40.5-23.4c-2.1-1.2-2.9-2.8-2.9-5.1c0-15.6,0-31.3,0-46.9c0-2.3,0.8-3.8,2.8-4.9
							c13.6-7.8,27.2-15.7,40.8-23.6c2.2-1.3,4-1.2,6.1,0.1c13.5,7.9,27,15.7,40.5,23.4c2.1,1.2,3,2.8,2.9,5.1
							C452.8,497,452.8,504.9,452.8,512.7z M445.2,512.5c0-6.7,0-13.4,0-20.1c0-1.5-0.4-2.5-1.8-3.3c-11.8-6.7-23.6-13.5-35.3-20.4
							c-1.4-0.8-2.3-0.8-3.7,0c-11.7,6.8-23.5,13.6-35.3,20.5c-0.9,0.5-1.7,1.9-1.7,2.9c-0.1,13.6,0,27.2-0.1,40.8
							c0,1.6,0.6,2.4,1.9,3.2c11.7,6.7,23.4,13.4,35.1,20.3c1.5,0.9,2.5,0.8,3.9,0c11.7-6.8,23.3-13.6,35.1-20.2
							c1.5-0.9,1.9-1.9,1.9-3.5C445.1,526,445.2,519.3,445.2,512.5z"/>
					</g>
				</g>
			</g>
			<g id="XMLID_50_">
				<path id="XMLID_55_" class="st4" d="M390.5,513.6c0-1.1,0-2.1,0-3.2c0-0.1-0.1-0.2-0.1-0.3c-1.5-2.2-1.5-4.8,0-7
					c0.1-0.1,0.1-0.3,0.1-0.4c0-1.3,0-2.6,0-3.9c0-0.5,0.1-0.6,0.6-0.6c10.1,0,20.1,0,30.2,0c0.5,0,0.6,0.1,0.6,0.6
					c0,1.1,0,2.2,0,3.3c0,0.1,0.1,0.3,0.2,0.4c2.5,2.4,2.5,6.2,0,8.5c-0.1,0.1-0.2,0.2-0.2,0.3c0,0.8,0,1.5,0,2.3c0.1,0,0.2,0,0.3,0
					c1,0,2.1,0,3.1,0c1.8,0,3.1,1.3,3.1,3.1c0,3.3,0,6.6,0,9.9c0,0.1,0,0.2,0,0.3c-7.1,0-14.2,0-21.3,0c0-2,0-4,0-6
					c-0.5,0-1,0-1.6,0c0,1.9,0,3.8,0,5.8c-7.1,0-14.2,0-21.4,0c0-0.1,0-0.2,0-0.3c0-3.3,0-6.5,0-9.8c0-1.8,1.3-3.1,3.1-3.1
					c1,0,1.9,0,2.9,0C390.2,513.6,390.3,513.6,390.5,513.6z M420.8,512c-0.2,0.1-0.3,0.1-0.4,0.2c-2.8,1.3-6.2,0.1-7.6-2.6
					c-0.1-0.2-0.3-0.3-0.5-0.3c-3.6,0-7.1,0-10.7,0c-0.1,0-0.2,0-0.4,0c0-0.2,0-0.4,0-0.6c3.7,0,7.4,0,11.2,0c0-0.1-0.1-0.2-0.1-0.3
					c-0.1-0.5-0.1-0.5-0.6-0.5c-3.4,0-6.8,0-10.2,0c-0.1,0-0.2,0-0.2,0c0-0.2,0-0.4,0-0.6c3.6,0,7.2,0,10.9,0c0-0.3,0-0.5,0-0.8
					c-0.1,0-0.3,0-0.4,0c-2,0-4,0-6,0c-0.2,0-0.3-0.1-0.3-0.3s0-0.3,0.3-0.3c0.6,0,1.3,0,1.9,0c1.4,0,2.8,0,4.3,0
					c0.1,0,0.3,0,0.3-0.1c0.1-0.2,0.1-0.4,0.2-0.7c-3.7,0-7.4,0-11.1,0c0-0.2,0-0.4,0-0.6c0.1,0,0.2,0,0.4,0c2.4,0,4.8,0,7.1,0
					c1.2,0,2.4,0,3.6,0c0.1,0,0.3,0,0.3-0.1c0.1-0.2,0.2-0.5,0.4-0.7c-0.2,0-0.3,0-0.4,0c-2.3,0-4.6,0-6.9,0c-0.2,0-0.3,0-0.3-0.3
					s0.1-0.3,0.4-0.3c2.5,0,4.9,0,7.4,0c0.1,0,0.3,0,0.4-0.1c0.2-0.2,0.5-0.4,0.7-0.6v-0.1c-0.1,0-0.2,0-0.3,0c-2.7,0-5.3,0-8,0
					c-0.1,0-0.2,0-0.2,0c-0.1,0-0.1-0.1-0.2-0.1c-0.1-0.3,0-0.5,0.3-0.5c3,0,6.1,0,9.1,0c0.2,0,0.4-0.1,0.6-0.1c1.7-0.7,3.3-0.7,5,0
					c0.1,0,0.2,0.1,0.3,0.1c0-0.7,0-1.3,0-1.9c0-0.4,0-0.4-0.4-0.4c-7.1,0-14.2,0-21.2,0c-2.4,0-4.9,0-7.3,0c-0.3,0-0.3,0.1-0.3,0.3
					c0,0.7,0,1.3,0,2c0,0.1,0,0.2,0,0.3c2.8-1.9,6.1-1.2,7.8,0.8c1.9,2.1,2,5.1,0.5,7.3c-0.8,1.1-1.8,1.9-3.2,2.3
					c-1.8,0.5-3.5,0.2-5.1-0.9c0,0.8,0,1.5,0,2.2c0.1,0,0.3,0,0.4,0c3.5,0,6.9,0,10.4,0c1.6,0,2.8,1,3.1,2.5c0.1,0.5,0,1,0.1,1.5
					c0,0.2,0,0.3,0.2,0.3c0.4,0,0.7,0,1.1,0c0.2,0,0.3-0.1,0.3-0.3s0-0.4,0-0.7c0-1.9,1.3-3.2,3.2-3.2c3.4,0,6.8,0,10.2,0
					c0.1,0,0.3,0,0.4,0C420.8,513.1,420.8,512.6,420.8,512z M405.5,518.9L405.5,518.9c0.5,0,1,0,1.5,0l0,0
					C406.5,518.9,406,518.9,405.5,518.9z"/>
				<path id="XMLID_54_" class="st5" d="M405.5,518.9c0.5,0,1,0,1.5,0l0,0C406.5,518.9,406,518.9,405.5,518.9L405.5,518.9z"/>
				<path id="XMLID_53_" class="st4" d="M401.3,502.3c0-0.2,0-0.4,0-0.6c0.1,0,0.1,0,0.2,0c0.9,0,1.8,0,2.7,0c0.2,0,0.3,0.1,0.3,0.3
					s0,0.3-0.3,0.3C403.2,502.3,402.3,502.3,401.3,502.3z"/>
				<path id="XMLID_52_" class="st4" d="M401.3,506.5c0-0.2,0-0.4,0-0.6c0.1,0,0.1,0,0.2,0c0.9,0,1.8,0,2.7,0c0.3,0,0.3,0.1,0.3,0.3
					s0,0.3-0.3,0.3C403.2,506.5,402.3,506.5,401.3,506.5z"/>
				<path id="XMLID_51_" class="st4" d="M401.3,503.6c0-0.2,0-0.4,0-0.6c0.1,0,0.1,0,0.2,0c0.9,0,1.8,0,2.7,0c0.2,0,0.3,0.1,0.3,0.3
					s0,0.3-0.3,0.3C403.2,503.6,402.3,503.6,401.3,503.6z"/>
			</g>
		</g>
		<g id="XMLID_36_">
			<g id="XMLID_43_">
				<g id="XMLID_44_">
					<g id="XMLID_45_">
						<path id="XMLID_46_" class="st4" d="M452.8,273.2c0,7.7-0.1,15.5,0,23.2c0,2.5-0.9,4.1-3,5.4c-13.5,7.7-26.9,15.5-40.3,23.3
							c-2.2,1.3-4.1,1.4-6.4,0.1c-13.5-7.9-27-15.7-40.5-23.4c-2.1-1.2-2.9-2.8-2.9-5.1c0-15.6,0-31.3,0-46.9c0-2.3,0.8-3.8,2.8-4.9
							c13.6-7.8,27.2-15.7,40.8-23.6c2.2-1.3,4-1.2,6.1,0.1c13.5,7.9,27,15.7,40.5,23.4c2.1,1.2,3,2.8,2.9,5.1
							C452.8,257.5,452.8,265.3,452.8,273.2z M445.2,273c0-6.7,0-13.4,0-20.1c0-1.5-0.4-2.5-1.8-3.3c-11.8-6.7-23.6-13.5-35.3-20.4
							c-1.4-0.8-2.3-0.8-3.7,0c-11.7,6.8-23.5,13.6-35.3,20.5c-0.9,0.5-1.7,1.9-1.7,2.9c-0.1,13.6,0,27.2-0.1,40.8
							c0,1.6,0.6,2.4,1.9,3.2c11.7,6.7,23.4,13.4,35.1,20.3c1.5,0.9,2.5,0.8,3.9,0c11.7-6.8,23.3-13.6,35.1-20.2
							c1.5-0.9,1.9-1.9,1.9-3.5C445.1,286.4,445.2,279.7,445.2,273z"/>
					</g>
				</g>
			</g>
			<g id="XMLID_37_">
				<circle id="XMLID_42_" class="st4" cx="386.5" cy="280.6" r="4.1"/>
				<circle id="XMLID_41_" class="st4" cx="406.6" cy="280.6" r="4.1"/>
				<circle id="XMLID_40_" class="st4" cx="406.6" cy="260.8" r="4.1"/>
				<circle id="XMLID_39_" class="st4" cx="426" cy="280.6" r="4.1"/>
				<polygon id="XMLID_38_" class="st6" points="386.5,280.6 406.6,260.8 426,280.6 				"/>
			</g>
		</g>
		<g id="XMLID_17_">
			<g id="XMLID_30_">
				<g id="XMLID_31_">
					<g id="XMLID_32_">
						<path id="XMLID_33_" class="st4" d="M292.8,153.3c0,7.7-0.1,15.5,0,23.2c0,2.5-0.9,4.1-3,5.4c-13.5,7.7-26.9,15.5-40.3,23.3
							c-2.2,1.3-4.1,1.4-6.4,0.1c-13.5-7.9-27-15.7-40.5-23.4c-2.1-1.2-2.9-2.8-2.9-5.1c0-15.6,0-31.3,0-46.9c0-2.3,0.8-3.8,2.8-4.9
							c13.6-7.8,27.2-15.7,40.8-23.6c2.2-1.3,4-1.2,6.1,0.1c13.5,7.9,27,15.7,40.5,23.4c2.1,1.2,3,2.8,2.9,5.1
							C292.7,137.7,292.8,145.5,292.8,153.3z M285.1,153.2c0-6.7,0-13.4,0-20.1c0-1.5-0.4-2.5-1.8-3.3
							c-11.8-6.7-23.6-13.5-35.3-20.4c-1.4-0.8-2.3-0.8-3.7,0c-11.7,6.8-23.5,13.6-35.3,20.5c-0.9,0.5-1.7,1.9-1.7,2.9
							c-0.1,13.6,0,27.2-0.1,40.8c0,1.6,0.6,2.4,1.9,3.2c11.7,6.7,23.4,13.4,35.1,20.3c1.5,0.9,2.5,0.8,3.9,0
							c11.7-6.8,23.3-13.6,35.1-20.2c1.5-0.9,1.9-1.9,1.9-3.5C285.1,166.6,285.1,159.9,285.1,153.2z"/>
					</g>
				</g>
			</g>
			<g id="XMLID_18_">
				<path id="XMLID_21_" class="st4" d="M225.2,153.7c0-5.3,0-10.6,0-15.8c0-0.4,0-0.9,0-1.3c0-2.2,0.9-3.1,3-3.1
					c3.9,0,7.7,0,11.6,0c5.9,0,11.8,0,17.7,0c0.5,0,1.1-0.2,1.6-0.5c1.1-0.7,2-1.6,3.1-2.3c0.4-0.3,0.9-0.5,1.3-0.7
					c0.1,0.1,0.3,0.3,0.4,0.4c-0.6,1-1.2,2-1.9,3.1c0.6,0,1,0,1.5,0c2,0,3,1,3,3c0,3.3,0,6.6,0,9.9c0,0.4,0,0.8,0.1,1.1
					c0.1,0.1,0.2,0.2,0.3,0.2c2.5,0.2,2.7,0.4,2.7,3c0,6.5,0,13.1,0,19.6c0,2-0.5,2.5-2.5,2.5c-4.3,0-8.6,0-12.9,0
					c-2.3,0-2.6-0.3-2.9-2.6c-4.5,0-9,0-13.6,0c-0.7-3.2,2.5-3.7,3.5-5.7c-2.6,0-5,0-7.7,0c0,2.1,0,4,0,6c0,1.8-0.5,2.2-2.2,2.2
					c-2.1,0-4.3,0-6.4,0c-1.7,0-2.1-0.4-2.1-2.1c0-4.8,0-9.5,0-14.3C222.7,154.1,222.8,154,225.2,153.7z M254.9,136.3
					c-8.8,0-17.4,0-26,0c-1.1,0-1,0.6-1,1.3c0,5,0,10,0,15.1c0,0.4,0.1,0.8,0.1,1.2c1.1,0,2.2,0,3.2,0c1.6,0,2.1,0.5,2.1,2.2
					c0,0.6,0,1.1,0,1.7c6,0,11.9,0,17.9,0c0-2.7,0-5.3,0-7.8c0-1.6,0.5-2.1,2.2-2.1c1,0,2,0,3.1,0c2.3,0,4.5,0,6.8,0
					c0-3.9,0-7.6,0-11.4c-0.9,0-1.7-0.1-2.4,0c-0.6,0.1-1.2,0.4-1.6,0.8c-2.2,2-4.3,4-6.5,6.1c-0.6,0.5-1,0.7-1.7,0
					c-0.6-0.6-0.5-1.1-0.1-1.7C252.3,139.8,253.6,138.1,254.9,136.3z M253.1,149.9c0,6.5,0,12.9,0,19.4c5,0,9.8,0,14.7,0
					c0-6.5,0-12.9,0-19.4C262.9,149.9,258,149.9,253.1,149.9z M223.8,168.5c2.6,0,5,0,7.5,0c1,0,1.2-0.3,1.2-1.2c0-3.3,0-6.7,0-10
					c0-0.3-0.1-0.7-0.1-1c-2.9,0-5.7,0-8.5,0C223.8,160.3,223.8,164.3,223.8,168.5z M247.3,161.4c0-1.2-0.6-1.9-1.5-2
					c-0.9,0-1.8,0.8-1.7,1.6c0.1,1,0.6,1.6,1.6,1.6C246.7,162.6,247.3,162.1,247.3,161.4z M261.8,171.1c-0.6-0.5-1-1-1.3-1
					c-0.4,0.1-0.8,0.6-1.2,0.9c0.3,0.3,0.6,0.9,0.9,0.9C260.7,172,261.1,171.6,261.8,171.1z M229,170.8c0.1-0.2,0.3-0.4,0.4-0.6
					c-0.4-0.2-0.8-0.5-1.2-0.5c-0.3,0-0.7,0.4-1,0.6c0.3,0.3,0.5,0.9,0.8,1C228.2,171.4,228.6,171,229,170.8z M226.3,154.8
					c1.2,0.8,2.5,0.8,3,0C228.4,154.8,227.5,154.8,226.3,154.8z"/>
				<path id="XMLID_20_" d="M245.9,148.8c1.9-0.8,4-1.2,5.2-3.2c0.3-0.5,0.3-1.3,0-1.8c-0.4-0.7-1.1-1.2-2.1-0.7
					C247.1,144,245.6,146.6,245.9,148.8z"/>
				<path id="XMLID_19_" class="st4" d="M245.9,148.8c-0.3-2.2,1.2-4.8,3-5.7c1-0.5,1.7,0.1,2.1,0.7c0.3,0.4,0.3,1.3,0,1.8
					C249.9,147.6,247.8,148,245.9,148.8z"/>
			</g>
		</g>
		<g id="XMLID_3_">
			<g id="XMLID_11_">
				<g id="XMLID_12_">
					<g id="XMLID_13_">
						<path id="XMLID_14_" class="st4" d="M452.8,33.6c0,7.7-0.1,15.5,0,23.2c0,2.5-0.9,4.1-3,5.4c-13.5,7.7-26.9,15.5-40.3,23.3
							c-2.2,1.3-4.1,1.4-6.4,0.1c-13.5-7.9-27-15.7-40.5-23.4c-2.1-1.2-2.9-2.8-2.9-5.1c0-15.6,0-31.3,0-46.9c0-2.3,0.8-3.8,2.8-4.9
							c13.6-7.8,27.2-15.7,40.8-23.6c2.2-1.3,4-1.2,6.1,0.1c13.5,7.9,27,15.7,40.5,23.4c2.1,1.2,3,2.8,2.9,5.1
							C452.8,18,452.8,25.8,452.8,33.6z M445.2,33.5c0-6.7,0-13.4,0-20.1c0-1.5-0.4-2.5-1.8-3.3c-11.8-6.7-23.6-13.5-35.3-20.4
							c-1.4-0.8-2.3-0.8-3.7,0c-11.7,6.8-23.5,13.6-35.3,20.5c-0.9,0.5-1.7,1.9-1.7,2.9c-0.1,13.6,0,27.2-0.1,40.8
							c0,1.6,0.6,2.4,1.9,3.2c11.7,6.7,23.4,13.4,35.1,20.3c1.5,0.9,2.5,0.8,3.9,0c11.7-6.8,23.3-13.6,35.1-20.2
							c1.5-0.9,1.9-1.9,1.9-3.5C445.1,46.9,445.2,40.2,445.2,33.5z"/>
					</g>
				</g>
			</g>
			<g id="XMLID_4_">
				<path id="XMLID_5_" class="st4" d="M406.3,30.2c1.7-1.3,3.4-2.5,5.1-3.8c-0.6-1.1-0.8-2.2-0.7-3.4c0-0.1-0.2-0.3-0.3-0.4
					c-2.5-0.9-4.9-1.8-7.4-2.7c-0.3-0.1-0.5,0.1-0.6,0.2c-4,3.6-10.4,1.9-12-3.3c-1.3-4.3,1.5-8.8,6.1-9.4c4.2-0.6,8,2.4,8.3,6.6
					c0.1,0.6,0,1.2,0,1.8c2.1,0.8,4.3,1.6,6.4,2.3h0.1c1,0.5,1.9,0.5,3,0c3.5-1.7,7.8,0.8,8.2,4.7c0.4,3.2-1.9,6.4-5.8,6.6
					c-0.4,0-0.8-0.1-1.2-0.1c-0.3,0-0.6,0-0.8,0.2c-1.8,1.3-3.5,2.6-5.3,3.9c-0.3,0.2-0.4,0.4-0.3,0.8c0.2,1,0.1,2-0.2,3
					c0,0.2,0,0.4,0.1,0.5c0.9,0.8,1.8,1.6,2.8,2.4c0.1,0.1,0.4,0.1,0.6,0.1c4.5-1.6,9,0.9,9.9,5.6c0.8,4-2.1,8.1-6.2,8.6
					s-7.6-2-8.4-6c-0.3-1.6-0.1-3.1,0.7-4.6c0.2-0.4,0.1-0.6-0.2-0.9c-0.8-0.6-1.5-1.3-2.2-1.9c-0.2-0.2-0.4-0.2-0.7-0.1
					c-3.6,1.3-7.4-1-7.9-4.7c-0.3-2.3,0.5-4.2,2.3-5.5c1.9-1.4,3.9-1.6,6.1-0.6c0.1,0,0.1,0.1,0.2,0.1
					C406.1,30.2,406.2,30.2,406.3,30.2z M397.4,19.1c2.4,0,4.4-2,4.4-4.4s-2-4.4-4.4-4.4s-4.4,2-4.4,4.4
					C393,17.2,395,19.1,397.4,19.1z M415.1,51.5c2.4,0,4.4-2,4.4-4.4s-1.9-4.4-4.4-4.4c-2.4,0-4.4,1.9-4.4,4.4
					C410.6,49.5,412.7,51.5,415.1,51.5z M400.4,35.4c0,1.6,1.3,2.9,2.9,2.9s2.9-1.3,2.9-2.9c0-1.6-1.3-2.9-2.9-3
					C401.7,32.4,400.4,33.7,400.4,35.4z M416.6,20.7c-1.6,0-2.9,1.3-2.9,2.9c0,1.6,1.3,2.9,2.9,2.9s2.9-1.3,2.9-2.9
					S418.2,20.7,416.6,20.7z"/>
			</g>
		</g>
	</g>
</g>
</svg>
