<?xml version="1.0" encoding="utf-8"?>
<!-- Generator: Adobe Illustrator 20.1.0, SVG Export Plug-In . SVG Version: 6.00 Build 0)  -->
<svg version="1.1" id="Layer_1" xmlns="http://www.w3.org/2000/svg" xmlns:xlink="http://www.w3.org/1999/xlink" x="0px" y="0px"
	 viewBox="0 0 131 143" style="enable-background:new 0 0 131 143;" xml:space="preserve">
<style type="text/css">
	.st0{fill:#FFFFFF;}
</style>
<title>Page 1</title>
<desc>Created with Sketch.</desc>
<g>
	<path class="st0" d="M97.3,54.6c0.3,4.8-0.6,9.3-2.3,13.5C90.4,79,79.7,86.8,67.1,87l0-10.6c0-0.5-0.3-0.9-0.7-1.1
		c-0.4-0.2-0.8-0.1-1.2,0.1l-21.7,16c-1,0.7-1,2.2,0,2.9l21.8,15.9c0.3,0.3,0.8,0.3,1.2,0.1c0.4-0.2,0.7-0.6,0.7-1.1l0-10.6
		c19.1-0.3,35.1-13.2,40.1-30.7c1.5-5.3,2.1-10.9,1.4-16.8c-1-8.8-4.8-16.7-10.4-23l-9.5,7C93.7,40.3,96.9,47.2,97.3,54.6z"/>
	<path class="st0" d="M102,16L82,1.3L80.2,0c-0.3-0.3-0.8-0.3-1.2-0.1c-0.3,0.1-0.5,0.4-0.6,0.6v3.6L82,6.7L94.6,16
		c1,0.7,1,2.2,0,2.9L82,28.2l-3.5,2.6l0,3.2c0,0.5,0.3,0.9,0.7,1.1c0.4,0.2,0.8,0.1,1.2-0.1l1.7-1.2l20-14.8
		C103,18.1,103,16.7,102,16z"/>
	<g>
		<path class="st0" d="M87.9,16L82,11.7l-3.5-2.6L71,3.6l-5-3.6c-0.3-0.3-0.8-0.3-1.2-0.1c-0.4,0.2-0.7,0.6-0.7,1.1l0,10.6
			c-19.1,0.3-35.1,13.2-40.1,30.7c-1.5,5.3-2.1,10.9-1.4,16.8c1.1,9.5,5.5,18.1,11.9,24.6c0.5,0.5,1.4,0.6,2.1,0.1l7-5.1
			c0.8-0.6,0.9-1.7,0.1-2.4c-5.6-5.2-9.2-12.6-9.7-20.6c-0.3-4.8,0.6-9.3,2.3-13.5c4.6-10.9,15.2-18.7,27.8-18.9l0,10.6
			c0,0.5,0.3,0.9,0.7,1.1c0.4,0.2,0.8,0.1,1.2-0.1l4.9-3.6l7.4-5.5l3.5-2.6l5.9-4.3C88.9,18.1,88.9,16.7,87.9,16z"/>
	</g>
</g>
</svg>
