<?xml version="1.0" encoding="UTF-8"?>
<svg width="150px" height="150px" viewBox="0 0 150 150" version="1.1" xmlns="http://www.w3.org/2000/svg" xmlns:xlink="http://www.w3.org/1999/xlink">
    <!-- Generator: Sketch 49.3 (51167) - http://www.bohemiancoding.com/sketch -->
    <title>Icons/Architect/Black</title>
    <desc>Created with Sketch.</desc>
    <defs>
        <polygon id="path-1" points="0.000186956522 0.666971917 85.9850435 0.666971917 85.9850435 146.045455 0.000186956522 146.045455"></polygon>
    </defs>
    <g id="Icons/Architect/Black" stroke="none" stroke-width="1" fill="none" fill-rule="evenodd">
        <g id="Page-1" transform="translate(32.000000, 2.000000)">
            <g id="Group-3">
                <mask id="mask-2" fill="white">
                    <use xlink:href="#path-1"></use>
                </mask>
                <g id="Clip-2"></g>
                <path d="M42.9936435,142.324551 C21.3487522,142.324551 3.73931739,124.800957 3.73931739,103.261578 C3.73931739,92.5016561 8.09633913,82.4338219 15.8167087,75.0841077 L15.8167087,95.8002368 L19.307187,89.7528387 C19.8269261,88.8533104 20.403687,87.9975026 21.0150348,87.1723923 L21.6647087,87.1723923 L21.6647087,86.3323984 C26.8041435,79.9380261 34.6479043,76.090612 42.9936435,76.090612 C52.7387522,76.090612 61.8145565,81.325923 66.6782304,89.7528387 L70.1687087,95.8011671 L70.1687087,87.1723923 L70.1687087,75.0841077 C77.890013,82.4319615 82.2461,92.4997956 82.2461,103.261578 C82.2461,124.800957 64.6376,142.324551 42.9936435,142.324551 Z M16.3813174,52.6386888 C14.4687522,52.1400877 13.0534913,50.4052166 13.0534913,48.347557 L13.0534913,24.5626129 C13.0534913,22.1170492 15.0529913,20.1272962 17.5105348,20.1272962 L24.8083826,20.1272962 L29.3607739,24.6574959 L17.9667087,49.2219693 L17.9255783,49.2219693 L17.9255783,49.311271 L16.3813174,52.6386888 Z M45.9812087,4.38787522 L48.7921,4.38787522 C62.8774043,4.38787522 74.3378391,15.7924438 74.3378391,29.8090866 L74.3378391,64.1548845 L25.1047087,15.1608205 C29.8992087,8.38877649 37.599013,4.38787522 45.9812087,4.38787522 Z M66.4295783,67.2004438 L66.4295783,83.0207944 C60.5909261,76.3427032 52.047013,72.3697087 42.9936435,72.3697087 C42.1467304,72.3697087 41.3054261,72.41622 40.4697304,72.4841265 L40.4697304,51.3838141 L27.3509913,51.3838141 L27.3509913,55.1047174 L36.7306,55.1047174 L36.7306,73.0180761 C31.0714261,74.18737 25.8487957,76.910141 21.6647087,80.844066 L21.6647087,50.127079 L32.1782087,27.4611966 L56.2170783,51.3838141 L49.4950565,51.3838141 L49.4950565,55.1047174 L59.9562087,55.1047174 L66.4295783,61.5465313 L66.4295783,67.2004438 Z M70.1687087,70.1427481 L70.1687087,65.2674346 L78.0769696,73.137145 L78.0769696,29.8090866 C78.0769696,13.7403657 64.9404696,0.666971917 48.7921,0.666971917 L45.9812087,0.666971917 C35.8061,0.666971917 26.509687,5.8064696 21.1159913,14.4157096 L20.3298391,15.6705843 L21.0692522,16.4063929 L17.5105348,16.4063929 C12.9908609,16.4063929 9.31436087,20.064971 9.31436087,24.5626129 L9.31436087,48.347557 C9.31436087,52.8451989 12.9908609,56.5037771 17.5105348,56.5037771 L17.9255783,56.5037771 L17.9255783,68.4683416 L16.533687,69.5520547 C6.02673043,77.7296699 0.000186956522,90.0170229 0.000186956522,103.261578 C0.000186956522,126.852105 19.2875565,146.045455 42.9936435,146.045455 C66.6987957,146.045455 85.9852304,126.852105 85.9852304,103.261578 C85.9852304,90.3249276 80.2251,78.314782 70.1687087,70.1427481 Z" id="Fill-1" fill="#4F4959" mask="url(#mask-2)"></path>
            </g>
            <path d="M39.3177156,92.4146023 C37.3953785,92.4146023 35.8312647,90.9508638 35.8312647,89.1509941 C35.8312647,88.9627608 35.8513789,88.773631 35.8916071,88.5853977 L52.1093507,88.5853977 C52.1486211,88.773631 52.1687353,88.9618644 52.1687353,89.1509941 C52.1687353,90.9508638 50.6055793,92.4146023 48.6832422,92.4146023 L39.3177156,92.4146023 Z M54.5805164,85 L33.4166101,85 L32.875444,85.9519231 C32.2950074,86.9764505 32,88.0520698 32,89.1509941 C32,92.9273142 35.282436,96 39.3177156,96 L48.6832422,96 C52.717564,96 56,92.9273142 56,89.1509941 C56,88.0440026 55.7040348,86.9656943 55.1226404,85.946545 L54.5805164,85 Z" id="Fill-4" fill="#4F4959"></path>
        </g>
    </g>
</svg>