<?xml version="1.0" encoding="UTF-8"?>
<svg width="36px" height="36px" viewBox="0 0 36 36" version="1.1" xmlns="http://www.w3.org/2000/svg" xmlns:xlink="http://www.w3.org/1999/xlink">
    <!-- Generator: Sketch 48.2 (47327) - http://www.bohemiancoding.com/sketch -->
    <title>Group</title>
    <desc>Created with Sketch.</desc>
    <defs></defs>
    <g id="Mobile" stroke="none" stroke-width="1" fill="none" fill-rule="evenodd" transform="translate(-68.000000, -520.000000)">
        <g id="Group-3" transform="translate(68.000000, 520.000000)">
            <g id="Group">
                <path d="M35.9741,17.974 C35.9741,27.9008 27.9269,35.948 18.0001,35.948 C8.0731,35.948 0.0259,27.9008 0.0259,17.974 C0.0259,8.0472 8.0731,0 18.0001,0 C27.9269,0 35.9741,8.0472 35.9741,17.974" id="Fill-1-Copy" fill="#FFFFFF" transform="translate(18.000000, 17.974000) rotate(-180.000000) translate(-18.000000, -17.974000) "></path>
                <path d="M14.8335988,24.7987769 C14.6355988,24.7987769 14.4369988,24.7263769 14.2811988,24.5801769 C13.9557988,24.2751769 13.9391988,23.7637769 14.2443988,23.4383769 L19.4547988,17.8807769 L14.2793988,12.3603769 C13.9741988,12.0349769 13.9905988,11.5235769 14.3161988,11.2185769 C14.6417988,10.9131769 15.1527988,10.9299769 15.4579988,11.2553769 L21.1513988,17.3283769 C21.4429988,17.6391769 21.4429988,18.1225769 21.1513988,18.4333769 L15.4229988,24.5433769 C15.2639988,24.7129769 15.0491988,24.7987769 14.8335988,24.7987769" id="Fill-3-Copy" fill="#72C02C" transform="translate(17.697999, 17.899388) rotate(-180.000000) translate(-17.697999, -17.899388) "></path>
            </g>
        </g>
    </g>
</svg>