<?xml version="1.0" encoding="UTF-8"?>
<svg width="36px" height="36px" viewBox="0 0 36 36" version="1.1" xmlns="http://www.w3.org/2000/svg" xmlns:xlink="http://www.w3.org/1999/xlink">
    <!-- Generator: Sketch 48.2 (47327) - http://www.bohemiancoding.com/sketch -->
    <title>Group 2</title>
    <desc>Created with Sketch.</desc>
    <defs></defs>
    <g id="Mobile" stroke="none" stroke-width="1" fill="none" fill-rule="evenodd" transform="translate(-272.000000, -520.000000)">
        <g id="Group-3" transform="translate(68.000000, 520.000000)">
            <g id="Group-2" transform="translate(204.000000, 0.000000)">
                <path d="M35.9482,17.974 C35.9482,27.9008 27.901,35.948 17.9742,35.948 C8.0472,35.948 0,27.9008 0,17.974 C0,8.0472 8.0472,0 17.9742,0 C27.901,0 35.9482,8.0472 35.9482,17.974" id="Fill-1" fill="#FFFFFF"></path>
                <path d="M14.8076988,24.7987769 C14.6096988,24.7987769 14.4110988,24.7263769 14.2552988,24.5801769 C13.9298988,24.2751769 13.9132988,23.7637769 14.2184988,23.4383769 L19.4288988,17.8807769 L14.2534988,12.3603769 C13.9482988,12.0349769 13.9646988,11.5235769 14.2902988,11.2185769 C14.6158988,10.9131769 15.1268988,10.9299769 15.4320988,11.2553769 L21.1254988,17.3283769 C21.4170988,17.6391769 21.4170988,18.1225769 21.1254988,18.4333769 L15.3970988,24.5433769 C15.2380988,24.7129769 15.0232988,24.7987769 14.8076988,24.7987769" id="Fill-3" fill="#72C02C"></path>
            </g>
        </g>
    </g>
</svg>