<?xml version="1.0" encoding="utf-8"?>
<!-- Generator: Adobe Illustrator 20.1.0, SVG Export Plug-In . SVG Version: 6.00 Build 0)  -->
<svg version="1.1" id="Layer_1" xmlns="http://www.w3.org/2000/svg" xmlns:xlink="http://www.w3.org/1999/xlink" x="0px" y="0px"
	 viewBox="0 0 111.8 113.7" style="enable-background:new 0 0 111.8 113.7;" xml:space="preserve">
<style type="text/css">
	.st0{clip-path:url(#SVGID_2_);}
	.st1{fill:#FFFFFF;}
	.st2{fill:#504A5A;}
</style>
<title>business-leader</title>
<g>
	<g>
		<defs>
			<circle id="SVGID_1_" cx="55.9" cy="56.8" r="53.4"/>
		</defs>
		<clipPath id="SVGID_2_">
			<use xlink:href="#SVGID_1_"  style="overflow:visible;"/>
		</clipPath>
		<g class="st0">
			<g>
				<ellipse class="st1" cx="76.8" cy="45.9" rx="6.5" ry="5.6"/>
				<path class="st2" d="M76.8,53.3c-4.6,0-8.4-3.3-8.4-7.4s3.8-7.4,8.4-7.4c4.6,0,8.4,3.3,8.4,7.4S81.4,53.3,76.8,53.3z M76.8,42.2
					c-2.6,0-4.7,1.7-4.7,3.7c0,2.1,2.1,3.7,4.7,3.7c2.6,0,4.7-1.7,4.7-3.7C81.5,43.9,79.4,42.2,76.8,42.2z"/>
			</g>
			<g>
				<path class="st1" d="M59.8,33.4c-14.6,1.3-27.7,6.7-37.5,14.8c-0.1,1.1-0.1,2.2-0.1,3.3c0,26.8,18.1,48.4,40.4,48.4
					c19.5,0,35.8-16.6,39.6-38.7c-1.8,0.3-3.7,0.5-5.6,0.5C80.2,61.7,66.2,50.1,59.8,33.4z"/>
				<path class="st2" d="M62.6,101.8c-23.3,0-42.2-22.5-42.2-50.3c0-1,0-2.1,0.1-3.4l0-0.8l0.6-0.5c10.3-8.5,23.9-13.9,38.5-15.2
					l1.4-0.1l0.5,1.3c6.3,16.5,20,27.1,35,27.1c1.7,0,3.5-0.2,5.3-0.5l2.5-0.4l-0.4,2.5C100,84.8,82.6,101.8,62.6,101.8z M24.1,49.1
					c0,0.9-0.1,1.6-0.1,2.4c0,25.7,17.3,46.6,38.5,46.6c17.5,0,32.9-14.5,37.3-34.8c-1.1,0.1-2.3,0.2-3.4,0.2
					c-16.1,0-30.8-11-37.9-28.1C45.6,36.8,33.5,41.6,24.1,49.1z"/>
			</g>
			<g>
				<path class="st2" d="M94.3,74.1c-4.6,0-9-0.9-13.3-2.6l1.3-3.4c5.5,2.2,11.3,2.9,17.3,1.8l0.6,3.6C98.2,74,96.2,74.1,94.3,74.1z
					"/>
			</g>
			<g>
				<path class="st1" d="M23.7,116.3V88.9c0-4,3.2-7.2,7.2-7.2h37.4c4,0,7.2,3.2,7.2,7.2v27.4"/>
				<path class="st2" d="M77.4,116.3h-3.6V88.9c0-3-2.4-5.4-5.4-5.4H30.9c-3,0-5.4,2.4-5.4,5.4v27.4h-3.6V88.9c0-5,4.1-9,9-9h37.4
					c5,0,9,4.1,9,9V116.3z"/>
			</g>
			<g>
				<path class="st1" d="M40.7,82.1V38c0-4.5,3.7-8.2,8.2-8.2l0,0c4.5,0,8.2,3.7,8.2,8.2v58.5C57.2,96.2,40.7,82.2,40.7,82.1z"/>
				<path class="st2" d="M57.2,98.4c-0.6,0-1.2-0.3-1.5-0.8c-0.9-0.9-6.6-5.8-10.4-9.1C39,83,39,83,38.9,82.2l0-44.2
					c0-5.5,4.5-10.1,10.1-10.1C54.5,27.9,59,32.5,59,38v58.5C59,97.5,58.2,98.4,57.2,98.4z M42.6,81.3c1,0.8,3.1,2.7,5.1,4.4
					c3.6,3.1,6,5.2,7.7,6.6V38c0-3.5-2.9-6.4-6.4-6.4c-3.5,0-6.4,2.9-6.4,6.4V81.3z"/>
			</g>
			<g>
				<path class="st1" d="M50,16.7c-12,0-22.1,7.6-26,18.2c-3-1.2-6.3-0.4-7.6,2.1c-1.5,2.7-0.2,6.3,3,8c1,0.5,2,0.8,3,0.9
					C23.1,60.5,35.2,72,50,72c15.3,0,27.7-12.4,27.7-27.7C77.6,29.1,65.2,16.7,50,16.7z"/>
				<path class="st2" d="M50,73.9c-15.2,0-27.8-11.5-29.4-26.4c-0.8-0.2-1.5-0.5-2.2-0.9c-1.9-1.1-3.3-2.7-4.1-4.6
					c-0.8-2-0.6-4.1,0.4-5.9c1.2-2.2,3.7-3.6,6.4-3.6c0.6,0,1.1,0.1,1.7,0.2C27.5,21.9,38.2,14.8,50,14.8
					c16.3,0,29.5,13.2,29.5,29.5S66.2,73.9,50,73.9z M21.2,36.1c-1.5,0-2.7,0.6-3.3,1.7c-0.5,0.8-0.5,1.8-0.1,2.8
					c0.4,1.1,1.3,2.1,2.4,2.7c0.7,0.4,1.5,0.6,2.3,0.7l1.6,0.1l0.1,1.6C24.9,59.5,36.2,70.2,50,70.2c14.3,0,25.9-11.6,25.9-25.9
					S64.2,18.5,50,18.5c-10.8,0-20.6,6.8-24.3,17L25,37.3l-1.8-0.7C22.6,36.3,21.8,36.1,21.2,36.1z"/>
			</g>
			<g>
				<path class="st1" d="M24.1,34.5c3.2,2.7,6.8,2.8,9,2.8c11.8,0,19.4-9.4,23.4-19.8c-2.1-0.5-4.3-0.8-6.5-0.8
					C38.1,16.7,28.1,24.1,24.1,34.5z"/>
				<path class="st2" d="M33.1,39.1c-1.9,0-6.3,0-10.2-3.2l-1-0.8l0.5-1.2c4.3-11.3,15.4-19,27.6-19c2.3,0,4.6,0.3,6.9,0.8l2,0.5
					l-0.7,1.9C51.1,36.4,39.4,39.1,33.1,39.1z M26.3,33.8c2.2,1.4,4.6,1.6,6.8,1.6c11.5,0,17.8-9.7,20.8-16.7
					c-1.3-0.2-2.6-0.3-4-0.3C39.8,18.5,30.4,24.6,26.3,33.8z"/>
			</g>
			<g>
				<path class="st1" d="M77.1,39c-2.3-12-12.4-21.2-24.8-22.2C54.7,28.7,64.7,37.9,77.1,39z"/>
				<path class="st2" d="M79.4,41L77,40.8c-13-1.1-23.9-10.9-26.4-23.7l-0.5-2.4l2.4,0.2c13,1.1,23.9,10.9,26.4,23.7L79.4,41z
					 M54.8,18.9c2.8,9.2,10.5,16.1,19.9,17.9C71.9,27.7,64.2,20.7,54.8,18.9z"/>
			</g>
			<g>
				<path class="st2" d="M37.1,49.2c-1.9,0-3.8-0.7-5.3-2.2l2.6-2.6c1.5,1.5,3.9,1.5,5.4,0l2.6,2.6C41,48.5,39.1,49.2,37.1,49.2z"/>
			</g>
			<g>
				<path class="st2" d="M60.1,49.2c-1.9,0-3.8-0.7-5.3-2.2l2.6-2.6c1.5,1.5,3.9,1.5,5.4,0l2.6,2.6C63.9,48.5,62,49.2,60.1,49.2z"/>
			</g>
			<g>
				<rect x="47.6" y="41" class="st2" width="3.6" height="11.9"/>
			</g>
		</g>
	</g>
	<g>
		<path class="st2" d="M55.9,112C25.5,112,0.7,87.3,0.7,56.8S25.5,1.7,55.9,1.7c30.4,0,55.2,24.8,55.2,55.2S86.3,112,55.9,112z
			 M55.9,5.3C27.5,5.3,4.4,28.4,4.4,56.8s23.1,51.5,51.5,51.5s51.5-23.1,51.5-51.5S84.3,5.3,55.9,5.3z"/>
	</g>
	<g>
		<path class="st2" d="M48.8,66.1c-2.3,0-4.6-0.4-6.8-1.3l1.4-3.4c4,1.6,8.5,1.4,12.4-0.7l1.7,3.2C54.7,65.4,51.8,66.1,48.8,66.1z"
			/>
	</g>
</g>
</svg>
