<?xml version="1.0" encoding="UTF-8"?>
<svg width="23px" height="15px" viewBox="0 0 23 15" version="1.1" xmlns="http://www.w3.org/2000/svg" xmlns:xlink="http://www.w3.org/1999/xlink">
    <!-- Generator: Sketch 44.1 (41455) - http://www.bohemiancoding.com/sketch -->
    <title>Page 1 Copy 4</title>
    <desc>Created with Sketch.</desc>
    <defs>
        <polygon id="path-1" points="0 7.46304643 0 2.14285714e-05 22.9580592 2.14285714e-05 22.9580592 14.9260714 0 14.9260714"></polygon>
    </defs>
    <g id="Page-1" stroke="none" stroke-width="1" fill="none" fill-rule="evenodd">
        <g id="Home-Page" transform="translate(-434.000000, -2507.000000)">
            <g id="business-leader" transform="translate(287.000000, 2057.000000)">
                <g id="Group-22" transform="translate(147.000000, 447.000000)">
                    <g id="Page-1-Copy-4" transform="translate(0.000000, 3.000000)">
                        <mask id="mask-2" fill="white">
                            <use xlink:href="#path-1"></use>
                        </mask>
                        <g id="Clip-2"></g>
                        <path d="M0,7.55410714 C0,7.33082143 0.0842596154,7.10689286 0.254326923,6.93117857 C0.6095,6.56410714 1.204625,6.54546429 1.58346154,6.88960714 L8.05221154,12.7659643 L21.3745192,0.246535714 C21.7533558,-0.0978214286 22.3484808,-0.0791785714 22.7036538,0.287892857 C23.0590481,0.655178571 23.0395865,1.23139286 22.6609712,1.57575 L8.69532692,14.6795357 C8.33374038,15.00825 7.77090385,15.00825 7.40909615,14.6795357 L0.297230769,8.21903571 C0.0997403846,8.03967857 0,7.79732143 0,7.55410714" id="Fill-1" fill="#71C02C" mask="url(#mask-2)"></path>
                    </g>
                </g>
            </g>
        </g>
    </g>
</svg>