<?xml version="1.0" encoding="utf-8"?>
<!-- Generator: Adobe Illustrator 20.1.0, SVG Export Plug-In . SVG Version: 6.00 Build 0)  -->
<svg version="1.1" id="Layer_1" xmlns="http://www.w3.org/2000/svg" xmlns:xlink="http://www.w3.org/1999/xlink" x="0px" y="0px"
	 viewBox="0 0 129 131" style="enable-background:new 0 0 129 131;" xml:space="preserve">
<style type="text/css">
	.st0{fill:#FFFFFF;}
</style>
<title>Page 1</title>
<desc>Created with Sketch.</desc>
<g>
	<g>
		<path class="st0" d="M92.3,27.4c-2.7,0-5.2,1-7.1,3c-3.9,3.9-3.9,10.3,0,14.3c1.9,1.9,4.4,3,7.1,3c2.7,0,5.2-1,7.1-3
			c3.9-3.9,3.9-10.3,0-14.3C97.5,28.5,95,27.4,92.3,27.4L92.3,27.4z M94.7,39.9c-0.6,0.6-1.5,1-2.4,1c-0.9,0-1.7-0.4-2.4-1
			c-1.3-1.3-1.3-3.4,0-4.8c0.6-0.6,1.5-1,2.4-1c0.9,0,1.7,0.3,2.4,1C96,36.4,96,38.6,94.7,39.9L94.7,39.9z M94.7,39.9"/>
		<path class="st0" d="M116.1,15.7l-0.5-1.4l-1.4-0.5c-5-1.9-10.3-2.9-15.6-2.9c-11.4,0-22.1,4.4-30,12.4L58.4,33.3L33,36.5
			L14.3,55.2l15.9,6.4l-3.5,3.5l5.1,5.1l-7.9,11.1L48.5,106l11.1-7.9l5.1,5.1l3.5-3.5l6.3,15.9l18.7-18.7l3.2-25.4l10.1-10.1
			C118.4,49.5,122.2,31.5,116.1,15.7L116.1,15.7z M26.3,52.7l9.9-9.9l14.5-1.8L35.3,56.4L26.3,52.7z M49.2,97.2L32.6,80.6l4-5.6
			l18.2,18.2L49.2,97.2z M86.9,93.7l-9.9,9.9l-3.6-9.1l15.3-15.3L86.9,93.7z M101.8,56.6L64.7,93.7L52.8,81.8L79,55.6l-4.8-4.8
			L48,77L36.1,65.1L73.2,28c6.7-6.7,15.7-10.4,25.3-10.4c4,0,8,0.7,11.8,1.9C114.7,32.5,111.4,46.9,101.8,56.6L101.8,56.6z
			 M101.8,56.6"/>
	</g>
	<path class="st0" d="M19.5,105.6L29,96l4.8,4.8l-9.5,9.5L19.5,105.6z M19.5,105.6"/>
	<path class="st0" d="M33.8,119.8l-4.8-4.8l9.5-9.5l4.8,4.8L33.8,119.8z M33.8,119.8"/>
	<path class="st0" d="M9.9,96l9.5-9.5l4.8,4.8l-9.5,9.5L9.9,96z M9.9,96"/>
</g>
</svg>
