<?xml version="1.0" encoding="UTF-8"?>
<svg width="150px" height="150px" viewBox="0 0 150 150" version="1.1" xmlns="http://www.w3.org/2000/svg" xmlns:xlink="http://www.w3.org/1999/xlink">
    <!-- Generator: Sketch 49.3 (51167) - http://www.bohemiancoding.com/sketch -->
    <title>Icons/Designer/Black</title>
    <desc>Created with Sketch.</desc>
    <defs>
        <polygon id="path-1" points="0.0005 0.5013 101.284 0.5013 101.284 134 0.0005 134"></polygon>
    </defs>
    <g id="Icons/Designer/Black" stroke="none" stroke-width="1" fill="none" fill-rule="evenodd">
        <g id="Page-1" transform="translate(24.000000, 8.000000)">
            <path d="M54.248,87.7168 L54.248,83.7168 C51.624,83.7168 49.206,82.1338 47.616,79.3728 L44.149,81.3698 C46.439,85.3438 50.215,87.7168 54.248,87.7168" id="Fill-1" fill="#4F4959"></path>
            <g id="Group-5" transform="translate(0.000000, 0.499000)">
                <mask id="mask-2" fill="white">
                    <use xlink:href="#path-1"></use>
                </mask>
                <g id="Clip-4"></g>
                <path d="M68.7725,128.7363 C68.7725,129.4333 68.2065,130.0003 67.5085,130.0003 L61.1425,130.0003 L61.1425,118.4023 L57.1425,118.4023 L57.1425,130.0003 L37.0455,130.0003 C36.3485,130.0003 35.7815,129.4333 35.7815,128.7363 L35.7815,114.0513 C35.7815,113.3543 36.3485,112.7863 37.0455,112.7863 L67.5085,112.7863 C68.2065,112.7863 68.7725,113.3543 68.7725,114.0513 L68.7725,128.7363 Z M34.6645,98.4503 C21.3265,98.4503 10.3275,88.2533 9.0475,75.2443 C10.5035,75.7063 12.0665,75.9703 13.7025,75.9703 C14.6665,75.9703 15.6145,75.8783 16.5435,75.7063 C20.4835,84.7773 27.6225,92.1453 36.5325,96.3793 L35.2035,96.3793 L35.2035,98.4343 C35.0235,98.4383 34.8425,98.4503 34.6645,98.4503 Z M13.1785,56.0603 L13.1785,59.5003 C13.1785,63.8143 13.8565,67.9713 15.1025,71.8773 C14.6415,71.9333 14.1755,71.9703 13.7025,71.9703 C8.3525,71.9703 4.0005,68.3973 4.0005,64.0043 C4.0005,59.7573 8.0735,56.2853 13.1785,56.0603 Z M7.8335,51.5623 C7.8335,27.3423 26.2195,7.1883 50.0695,4.7783 L50.0695,6.1053 C47.1735,28.7133 29.9785,47.2893 7.8335,52.0733 L7.8335,51.5623 Z M83.0905,53.7163 C83.4545,57.0383 83.6665,61.8743 83.6665,64.2853 L83.6665,72.4863 C83.6665,94.5903 60.9465,96.3083 53.9835,96.3083 C33.6895,96.3083 17.1785,79.7963 17.1785,59.5003 L17.1785,53.4333 C32.3485,47.5773 44.4925,35.4783 50.4635,20.4223 C53.8015,37.0373 66.7245,50.0633 83.0905,53.7163 Z M54.5685,16.2533 C73.1075,18.6363 88.3625,32.6543 92.4535,50.7563 L92.4435,50.7563 C90.4625,50.7563 88.5165,50.6013 86.6135,50.3133 C86.6055,50.2783 86.5975,50.2353 86.5895,50.2013 L86.3185,50.2643 C69.2605,47.5543 55.7885,33.7203 53.8575,16.2533 L54.5685,16.2533 Z M65.1255,108.7863 L39.2035,108.7863 L39.2035,97.5263 C43.7905,99.3153 48.7715,100.3083 53.9835,100.3083 C57.7135,100.3083 61.5005,99.9193 65.1255,99.0813 L65.1255,108.7863 Z M86.3805,117.6603 L72.7725,117.6603 L72.7725,114.0513 C72.7725,111.7153 71.2335,109.7543 69.1255,109.0663 L69.1255,97.9463 C79.5015,94.3913 87.6665,86.5373 87.6665,72.4863 L87.6665,64.2853 C87.6665,62.4393 87.5165,58.0483 87.1805,54.4223 C88.9075,54.6343 90.6615,54.7563 92.4435,54.7563 L97.2525,54.7563 L96.8575,52.4223 C93.3005,31.4343 76.0655,14.9233 54.9445,12.2693 L53.0085,12.2633 C53.4505,10.3663 53.8075,8.4403 54.0535,6.4813 L54.0695,0.5013 L51.9575,0.6193 C24.9715,2.1343 3.8335,24.5103 3.8335,51.5623 L3.8335,55.7243 C1.4645,57.8763 0.0005,60.7913 0.0005,64.0043 C0.0005,67.6913 1.9215,70.9923 4.9345,73.1893 C5.1935,89.3673 18.4265,102.4503 34.6645,102.4503 C34.8425,102.4503 35.0235,102.4383 35.2035,102.4343 L35.2035,109.1363 C33.2095,109.8873 31.7815,111.7993 31.7815,114.0513 L31.7815,117.6603 L19.4525,117.6603 C11.2355,117.6603 4.5495,124.3453 4.5495,132.5623 L8.5495,132.5623 C8.5495,126.5513 13.4405,121.6603 19.4525,121.6603 L31.7815,121.6603 L31.7815,128.7363 C31.7815,131.6383 34.1425,134.0003 37.0455,134.0003 L67.5085,134.0003 C70.4115,134.0003 72.7725,131.6383 72.7725,128.7363 L72.7725,121.6603 L86.3805,121.6603 C92.3925,121.6603 97.2845,126.5513 97.2845,132.5623 L101.2845,132.5623 C101.2845,124.3453 94.5985,117.6603 86.3805,117.6603 Z" id="Fill-3" fill="#4F4959" mask="url(#mask-2)"></path>
            </g>
            <path d="M28.4766,54.4785 L25.6486,57.3065 C27.9386,59.5985 30.9846,60.8595 34.2226,60.8595 C37.4616,60.8595 40.5066,59.5985 42.7976,57.3065 L39.9696,54.4785 C38.4336,56.0145 36.3926,56.8595 34.2226,56.8595 C32.0526,56.8595 30.0116,56.0145 28.4766,54.4785" id="Fill-6" fill="#4F4959"></path>
            <path d="M75.5381,57.3066 L72.7101,54.4786 C71.1741,56.0146 69.1331,56.8596 66.9631,56.8596 C64.7931,56.8596 62.7521,56.0146 61.2171,54.4786 L58.3891,57.3066 C60.6791,59.5986 63.7251,60.8596 66.9631,60.8596 C70.2021,60.8596 73.2471,59.5986 75.5381,57.3066" id="Fill-8" fill="#4F4959"></path>
        </g>
    </g>
</svg>