<?xml version="1.0" encoding="UTF-8"?>
<svg width="150px" height="150px" viewBox="0 0 150 150" version="1.1" xmlns="http://www.w3.org/2000/svg" xmlns:xlink="http://www.w3.org/1999/xlink">
    <!-- Generator: Sketch 49.3 (51167) - http://www.bohemiancoding.com/sketch -->
    <title>Icons/DevOps/Black</title>
    <desc>Created with Sketch.</desc>
    <defs>
        <polygon id="path-1" points="0 0.062 98.525 0.062 98.525 119 0 119"></polygon>
    </defs>
    <g id="Icons/DevOps/Black" stroke="none" stroke-width="1" fill="none" fill-rule="evenodd">
        <g id="Page-1" transform="translate(26.000000, 15.000000)">
            <g id="Group-3" transform="translate(0.000000, 0.938000)">
                <mask id="mask-2" fill="white">
                    <use xlink:href="#path-1"></use>
                </mask>
                <g id="Clip-2"></g>
                <path d="M68.25,101.0352 L49.264,111.9962 L30.276,101.0352 L30.276,93.8142 L34.831,93.8142 L34.831,98.4022 L49.264,106.7352 L63.693,98.4022 L63.693,93.8142 L68.25,93.8142 L68.25,101.0352 Z M21.445,52.2742 C21.473,52.0422 21.49,51.8062 21.49,51.5672 L21.49,35.7132 L21.463,35.7132 L21.48,19.3312 C21.48,10.9112 28.331,4.0612 36.751,4.0612 L61.504,4.0612 C69.923,4.0612 76.772,10.9112 76.772,19.3312 L76.822,67.1232 L61.546,84.6872 L36.806,84.6872 L24.474,70.5072 L24.416,70.5562 L21.43,67.1232 L21.445,52.2742 Z M15.417,53.6422 C14.272,53.6422 13.342,52.7122 13.342,51.5672 L13.342,39.7132 L17.459,39.7132 L17.445,51.9932 C17.249,52.9332 16.415,53.6422 15.417,53.6422 Z M38.831,88.6872 L59.693,88.6872 L59.693,96.0942 L49.264,102.1162 L38.831,96.0942 L38.831,88.6872 Z M81.284,39.7132 L85.433,39.7132 L85.433,51.5672 C85.433,52.7122 84.503,53.6422 83.359,53.6422 C82.215,53.6422 81.284,52.7122 81.284,51.5672 L81.284,39.7132 Z M81.732,89.8142 L63.693,89.8142 L63.693,88.4332 L76.798,73.3632 L76.74,73.3122 L80.824,68.6172 L80.813,57.0752 C81.588,57.4352 82.449,57.6422 83.359,57.6422 C86.708,57.6422 89.433,54.9172 89.433,51.5672 L89.433,35.7132 L80.79,35.7132 L80.772,19.3292 C80.771,8.7052 72.128,0.0612 61.504,0.0612 L36.751,0.0612 C26.125,0.0612 17.48,8.7062 17.48,19.3292 L17.463,35.7132 L9.342,35.7132 L9.342,51.5672 C9.342,54.9172 12.067,57.6422 15.417,57.6422 C16.127,57.6422 16.806,57.5142 17.439,57.2892 L17.428,68.6172 L34.831,88.6302 L34.831,89.8142 L16.797,89.8142 C7.535,89.8142 0,96.5862 0,104.9102 L0,117.7532 L4,117.7532 L4,104.9102 C4,98.7922 9.74,93.8142 16.797,93.8142 L26.276,93.8142 L26.276,103.3442 L49.264,116.6152 L72.25,103.3442 L72.25,93.8142 L81.732,93.8142 C88.786,93.8142 94.525,98.7922 94.525,104.9102 L94.525,119.0002 L98.525,119.0002 L98.525,104.9102 C98.525,96.5862 90.992,89.8142 81.732,89.8142 Z" id="Fill-1" fill="#4F4959" mask="url(#mask-2)"></path>
            </g>
            <path d="M49.5713,73.94 L48.6793,73.94 C46.5323,73.94 44.7173,72.487 44.1663,70.511 L54.0843,70.511 C53.5333,72.487 51.7183,73.94 49.5713,73.94 Z M58.0173,66.511 L40.2583,66.511 L40.0533,68.281 C40.0163,68.601 39.9953,68.927 39.9953,69.254 C39.9953,74.044 43.8903,77.94 48.6793,77.94 L49.5713,77.94 C54.3593,77.94 58.2553,74.044 58.2553,69.254 C58.2553,68.935 58.2363,68.617 58.2043,68.304 L58.0173,66.511 Z" id="Fill-4" fill="#4F4959"></path>
            <polygon id="Fill-6" fill="#4F4959" points="41.4219 50.8374 56.8319 50.8374 56.8319 31.3164 52.8319 31.3164 52.8319 46.8374 45.4219 46.8374 45.4219 29.3164 29.9829 29.3164 29.9829 33.3164 41.4219 33.3164"></polygon>
            <path d="M40.0146,40.3325 L37.1866,37.5045 C35.6506,39.0395 33.6106,39.8855 31.4396,39.8855 C29.2696,39.8855 27.2286,39.0395 25.6936,37.5045 L22.8656,40.3325 C25.1556,42.6235 28.2016,43.8855 31.4396,43.8855 C34.6786,43.8855 37.7236,42.6235 40.0146,40.3325" id="Fill-8" fill="#4F4959"></path>
            <path d="M74.0146,40.3325 L71.1866,37.5045 C69.6506,39.0395 67.6106,39.8855 65.4396,39.8855 C63.2696,39.8855 61.2286,39.0395 59.6936,37.5045 L56.8656,40.3325 C59.1556,42.6235 62.2016,43.8855 65.4396,43.8855 C68.6786,43.8855 71.7236,42.6235 74.0146,40.3325" id="Fill-10" fill="#4F4959"></path>
        </g>
    </g>
</svg>