<?xml version="1.0" encoding="UTF-8"?>
<svg width="150px" height="150px" viewBox="0 0 150 150" version="1.1" xmlns="http://www.w3.org/2000/svg" xmlns:xlink="http://www.w3.org/1999/xlink">
    <!-- Generator: Sketch 49.3 (51167) - http://www.bohemiancoding.com/sketch -->
    <title>Icons/EM/Black</title>
    <desc>Created with Sketch.</desc>
    <defs>
        <polygon id="path-1" points="0 0.4536 104.865 0.4536 104.865 132.9996 0 132.9996"></polygon>
    </defs>
    <g id="Icons/EM/Black" stroke="none" stroke-width="1" fill="none" fill-rule="evenodd">
        <g id="Page-1" transform="translate(23.000000, 8.000000)">
            <g id="Group-3" transform="translate(0.000000, 0.547000)">
                <mask id="mask-2" fill="white">
                    <use xlink:href="#path-1"></use>
                </mask>
                <g id="Clip-2"></g>
                <path d="M65.4155,104.7256 L65.4155,97.1646 C71.9105,95.3676 77.4125,91.1626 80.8945,85.5696 L80.8945,90.9586 C80.8945,96.4426 78.9145,101.6446 75.3345,105.7486 C72.2665,104.5756 69.0745,103.6296 65.7855,102.9456 L65.4155,104.7256 Z M52.4325,114.4766 C47.4785,114.4766 43.4495,110.4476 43.4495,105.4956 L43.4495,97.7276 C44.9325,97.9856 46.4545,98.1276 48.0095,98.1276 L58.3455,98.1276 C59.3845,98.1276 60.4075,98.0616 61.4155,97.9446 L61.4155,105.4956 C61.4155,110.4476 57.3855,114.4766 52.4325,114.4766 Z M30.6545,105.3446 C27.3075,101.3106 25.4595,96.2126 25.4595,90.9586 L25.4595,85.5696 C28.6725,90.7296 33.6045,94.7076 39.4495,96.7046 L39.4495,104.3366 L39.1595,102.9306 C36.2405,103.5336 33.4035,104.3546 30.6545,105.3446 Z M16.5225,67.0556 C16.5225,63.6406 18.5495,60.6966 21.4595,59.3406 L21.4595,71.5786 L21.4595,74.7696 C18.5495,73.4146 16.5225,70.4706 16.5225,67.0556 Z M25.4595,27.0036 C25.4595,14.5696 35.5755,4.4536 48.0095,4.4536 L58.3455,4.4536 C70.7795,4.4536 80.8945,14.5696 80.8945,27.0036 L80.8945,46.3826 L80.8945,54.0916 C70.2425,51.9686 60.2705,41.5326 55.0625,26.8076 L53.1775,21.4766 L51.2915,26.8076 C46.0825,41.5326 36.1105,51.9686 25.4595,54.0906 L25.4595,46.3826 L25.4595,27.0036 Z M89.8315,67.0556 C89.8315,70.4716 87.8055,73.4156 84.8945,74.7706 L84.8945,71.5786 L84.8945,59.3396 C87.8055,60.6946 89.8315,63.6396 89.8315,67.0556 Z M58.3455,94.1276 L48.0095,94.1276 C35.5755,94.1276 25.4595,84.0126 25.4595,71.5786 L25.4595,58.1406 C36.5635,56.2776 46.9815,46.7286 53.1775,32.8656 C59.3715,46.7286 69.7895,56.2786 80.8945,58.1426 L80.8945,71.5786 C80.8945,84.0126 70.7795,94.1276 58.3455,94.1276 Z M79.1985,107.3956 C82.8885,102.7276 84.8945,96.9796 84.8945,90.9586 L84.8945,79.0416 C90.0565,77.4986 93.8315,72.7126 93.8315,67.0556 C93.8315,61.3986 90.0565,56.6126 84.8945,55.0696 L84.8945,46.3826 L84.8945,27.0036 C84.8945,12.3636 72.9845,0.4536 58.3455,0.4536 L48.0095,0.4536 C33.3695,0.4536 21.4595,12.3636 21.4595,27.0036 L21.4595,46.3826 L21.4595,55.0696 C16.2985,56.6136 12.5225,61.3996 12.5225,67.0556 C12.5225,72.7116 16.2985,77.4966 21.4595,79.0406 L21.4595,90.9586 C21.4595,96.7096 23.3535,102.2946 26.7855,106.8706 C15.0925,112.0006 5.4965,120.5756 -0.0005,131.1566 L3.5495,132.9996 C10.2755,120.0536 23.7075,110.3456 39.5365,106.9486 C40.2625,113.4246 45.7655,118.4766 52.4325,118.4766 C59.1005,118.4766 64.6045,113.4226 65.3295,106.9466 C81.1555,110.3436 94.5925,120.0576 101.3155,132.9996 L104.8655,131.1566 C99.5485,120.9216 90.3805,112.5756 79.1985,107.3956 Z" id="Fill-1" fill="#4F4959" mask="url(#mask-2)"></path>
            </g>
            <path d="M45.0493,61.8019 L49.0493,61.8019 C49.0493,58.1379 44.8553,55.2689 39.5003,55.2689 C34.1473,55.2689 29.9543,58.1379 29.9543,61.8019 L33.9543,61.8019 C33.9543,60.7939 36.1663,59.2689 39.5003,59.2689 C42.8363,59.2689 45.0493,60.7939 45.0493,61.8019" id="Fill-4" fill="#4F4959"></path>
            <path d="M64.0503,55.2687 C58.6963,55.2687 54.5023,58.1387 54.5023,61.8017 L58.5023,61.8017 C58.5023,60.7937 60.7153,59.2687 64.0503,59.2687 C67.3853,59.2687 69.5983,60.7937 69.5983,61.8017 L73.5983,61.8017 C73.5983,58.1387 69.4043,55.2687 64.0503,55.2687" id="Fill-6" fill="#4F4959"></path>
            <path d="M44.6421,74.7716 L58.0851,74.7716 L58.0851,77.2936 C58.0851,79.7526 56.0851,81.7536 53.6251,81.7536 L49.1031,81.7536 C46.6431,81.7536 44.6421,79.7526 44.6421,77.2936 L44.6421,74.7716 Z M40.6421,77.2936 C40.6421,81.9586 44.4371,85.7536 49.1031,85.7536 L53.6251,85.7536 C58.2901,85.7536 62.0851,81.9586 62.0851,77.2936 L62.0851,70.7716 L40.6421,70.7716 L40.6421,77.2936 Z" id="Fill-8" fill="#4F4959"></path>
        </g>
    </g>
</svg>