<svg aria-hidden="true" style="position: absolute; width: 0; height: 0; overflow: hidden;" version="1.1" xmlns="http://www.w3.org/2000/svg" xmlns:xlink="http://www.w3.org/1999/xlink">
<defs>
<symbol id="icon-linkedingreen" viewBox="0 0 32 32">
<title>linkedingreen</title>
<path d="M15.804 1.009c-8.67 0-15.723 6.824-15.723 15.212s7.053 15.212 15.723 15.212c8.67 0 15.723-6.824 15.723-15.212s-7.053-15.212-15.723-15.212zM15.804 29.693c-7.678 0-13.924-6.043-13.924-13.472s6.246-13.472 13.924-13.472c7.678 0 13.924 6.043 13.924 13.472s-6.246 13.472-13.924 13.472z"></path>
<path d="M11.307 12.72c-0.497 0-0.899 0.39-0.899 0.87v7.195c0 0.481 0.403 0.87 0.899 0.87s0.899-0.39 0.899-0.87v-7.195c0-0.481-0.403-0.87-0.899-0.87z"></path>
<path d="M11.307 8.659c-0.237 0-0.469 0.093-0.636 0.255-0.168 0.161-0.264 0.386-0.264 0.615s0.096 0.453 0.264 0.616c0.167 0.161 0.399 0.254 0.636 0.254s0.469-0.093 0.636-0.254c0.168-0.163 0.264-0.387 0.264-0.616s-0.096-0.454-0.264-0.615c-0.167-0.162-0.399-0.255-0.636-0.255z"></path>
<path d="M19.077 13.397c-0.941 0-1.813 0.294-2.523 0.79v-0.597c0-0.481-0.403-0.87-0.899-0.87s-0.899 0.39-0.899 0.87v7.195c0 0.481 0.403 0.87 0.899 0.87s0.899-0.39 0.899-0.87v-3.207c0-1.346 1.132-2.441 2.523-2.441s2.523 1.095 2.523 2.441v3.4c0 0.481 0.403 0.87 0.899 0.87s0.899-0.39 0.899-0.87v-3.4c0-2.306-1.939-4.182-4.322-4.182z"></path>
</symbol>
<symbol id="icon-facebookgreen" viewBox="0 0 31 32">
<title>facebookgreen</title>
<path d="M30.602 16.254c0-8.399-6.767-15.208-15.115-15.208s-15.115 6.809-15.115 15.208c0 8.399 6.767 15.208 15.115 15.208s15.115-6.809 15.115-15.208zM1.747 16.254c0-7.636 6.152-13.826 13.741-13.826s13.74 6.19 13.74 13.826c0 7.636-6.152 13.826-13.741 13.826s-13.741-6.19-13.741-13.826z"></path>
<path d="M16.068 25.032v-8.778h2.879l0.455-2.909h-3.333v-1.459c0-0.759 0.247-1.483 1.33-1.483h2.164v-2.903h-3.072c-2.583 0-3.288 1.712-3.288 4.084v1.76h-1.772v2.91h1.773v8.778h2.866z"></path>
</symbol>
<symbol id="icon-githubgreen" viewBox="0 0 32 32">
<title>githubgreen</title>
<path d="M16.136 1.046c2.094 0 4.056 0.399 5.885 1.196s3.429 1.883 4.798 3.258c1.369 1.375 2.451 2.981 3.244 4.818s1.191 3.807 1.191 5.91c0 2.103-0.397 4.073-1.191 5.91s-1.875 3.443-3.244 4.818c-1.369 1.375-2.968 2.461-4.798 3.258s-3.791 1.196-5.885 1.196-4.056-0.399-5.885-1.196c-1.829-0.797-3.429-1.883-4.798-3.258s-2.445-2.981-3.227-4.818c-0.782-1.837-1.174-3.807-1.174-5.91s0.391-4.073 1.174-5.91c0.782-1.837 1.858-3.443 3.227-4.818s2.968-2.461 4.798-3.258c1.829-0.797 3.791-1.196 5.885-1.196zM16.136 2.71c-1.864 0-3.613 0.352-5.246 1.057s-3.060 1.67-4.28 2.894c-1.22 1.225-2.18 2.658-2.882 4.298s-1.053 3.397-1.053 5.269c0 1.872 0.351 3.628 1.053 5.269s1.663 3.074 2.882 4.298c1.22 1.225 2.646 2.19 4.28 2.894s3.383 1.057 5.246 1.057 3.613-0.352 5.246-1.057c1.634-0.705 3.060-1.67 4.28-2.894s2.18-2.658 2.882-4.298c0.702-1.641 1.053-3.397 1.053-5.269s-0.351-3.628-1.053-5.269c-0.702-1.641-1.662-3.074-2.882-4.298s-2.646-2.19-4.28-2.894c-1.634-0.705-3.383-1.057-5.246-1.057zM20.002 18.725c1.45-0.509 2.174-1.467 2.174-2.877 0-0.739-0.121-1.323-0.362-1.751s-0.627-0.78-1.156-1.057c-0.253-0.139-0.552-0.22-0.897-0.243s-0.713-0.029-1.105-0.017c-0.391 0.012-0.805 0.035-1.242 0.069s-0.874 0.052-1.311 0.052c-0.437 0-0.874-0.017-1.312-0.052s-0.851-0.058-1.243-0.069c-0.391-0.012-0.759-0.006-1.104 0.017s-0.644 0.104-0.897 0.243c-0.529 0.277-0.909 0.63-1.139 1.057s-0.345 1.011-0.345 1.751c0 1.41 0.725 2.369 2.174 2.877 0.253 0.069 0.529 0.139 0.828 0.208 0.253 0.046 0.569 0.092 0.949 0.139s0.823 0.070 1.329 0.070h1.519c0.483 0 0.92-0.023 1.312-0.070s0.725-0.093 1.001-0.139c0.322-0.069 0.598-0.139 0.828-0.208zM24.144 13.699c0 0.739-0.081 1.439-0.242 2.097s-0.46 1.254-0.897 1.785c-0.437 0.532-1.041 0.971-1.812 1.317s-1.754 0.566-2.951 0.659c0.184 0.092 0.42 0.208 0.708 0.347s0.535 0.404 0.742 0.797c0.115 0.254 0.19 0.624 0.224 1.109s0.052 0.982 0.052 1.49c0 0.509-0.006 0.976-0.017 1.404s0.006 0.688 0.052 0.78c0.092 0.185 0.224 0.347 0.397 0.485s0.316 0.243 0.431 0.312c0.115 0.070 0.149 0.156 0.104 0.26s-0.207 0.168-0.483 0.19c-0.138 0-0.311-0.023-0.518-0.069s-0.403-0.127-0.587-0.243c-0.184-0.116-0.339-0.26-0.466-0.433s-0.19-0.399-0.19-0.676v-2.842c0-0.323-0.075-0.555-0.224-0.693s-0.305-0.231-0.466-0.277v3.744c0 0.67 0.081 1.109 0.242 1.317 0.069 0.093 0.132 0.191 0.19 0.295s0.092 0.191 0.104 0.26c0.012 0.069-0.029 0.11-0.121 0.121s-0.264-0.017-0.518-0.087c-0.483-0.116-0.828-0.381-1.035-0.797s-0.311-0.855-0.311-1.317v-3.674h-0.759v3.674c0 0.462-0.098 0.901-0.293 1.317s-0.546 0.682-1.053 0.797c-0.253 0.069-0.42 0.098-0.5 0.087s-0.121-0.052-0.121-0.121c0-0.069 0.034-0.156 0.104-0.26s0.138-0.202 0.207-0.295c0.046-0.092 0.098-0.254 0.155-0.485s0.086-0.508 0.086-0.832v-3.744c-0.161 0.046-0.311 0.139-0.449 0.277s-0.207 0.37-0.207 0.693v2.842c0 0.277-0.063 0.503-0.19 0.676s-0.282 0.318-0.466 0.433c-0.184 0.116-0.38 0.197-0.587 0.243s-0.38 0.069-0.518 0.069c-0.276-0.023-0.437-0.087-0.483-0.19s-0.011-0.191 0.104-0.26c0.115-0.070 0.259-0.174 0.431-0.312s0.305-0.3 0.397-0.485c0.046-0.116 0.063-0.422 0.052-0.919s-0.017-1.046-0.017-1.646c-0.184 0.069-0.426 0.116-0.725 0.139s-0.633 0-1.001-0.070c-0.621-0.116-1.093-0.318-1.415-0.607s-0.633-0.745-0.932-1.369c-0.161-0.3-0.339-0.549-0.535-0.745s-0.368-0.352-0.518-0.468c-0.15-0.116-0.265-0.214-0.345-0.295s-0.086-0.156-0.017-0.225c0.138-0.162 0.328-0.231 0.569-0.208s0.385 0.058 0.431 0.104c0.276 0.116 0.552 0.358 0.828 0.728s0.564 0.682 0.863 0.936c0.138 0.116 0.311 0.231 0.518 0.347s0.437 0.197 0.69 0.243c0.253 0.046 0.529 0.046 0.828 0s0.598-0.173 0.897-0.381c0.069-0.301 0.178-0.537 0.328-0.711s0.311-0.312 0.483-0.416 0.334-0.185 0.483-0.243c0.15-0.058 0.27-0.11 0.362-0.156-1.266-0.092-2.301-0.306-3.106-0.641s-1.444-0.763-1.916-1.283c-0.472-0.52-0.794-1.115-0.966-1.785s-0.259-1.375-0.259-2.115c0-0.763 0.115-1.444 0.345-2.045s0.552-1.132 0.966-1.595c-0.184-0.555-0.247-1.138-0.19-1.751s0.178-1.161 0.362-1.647c0.874 0.046 1.605 0.231 2.192 0.555s0.995 0.589 1.225 0.797c0.989-0.277 2.013-0.416 3.072-0.416h0.242c0.989 0 1.945 0.116 2.865 0.347 0.253-0.208 0.667-0.462 1.243-0.763s1.289-0.474 2.14-0.52c0.184 0.462 0.305 0.982 0.362 1.56s0.017 1.132-0.121 1.664c0.46 0.462 0.817 1.011 1.070 1.647s0.38 1.358 0.38 2.167zM16.067 12.901v0zM20.52 15.605c0 0.324-0.086 0.601-0.259 0.832s-0.385 0.347-0.639 0.347c-0.253 0-0.46-0.116-0.621-0.347s-0.242-0.508-0.242-0.832 0.081-0.601 0.242-0.832c0.161-0.231 0.368-0.347 0.621-0.347s0.466 0.116 0.639 0.347c0.173 0.231 0.259 0.508 0.259 0.832zM13.755 15.605c0 0.324-0.086 0.601-0.259 0.832s-0.385 0.347-0.639 0.347c-0.253 0-0.46-0.116-0.621-0.347s-0.242-0.508-0.242-0.832 0.081-0.601 0.242-0.832c0.161-0.231 0.368-0.347 0.621-0.347s0.466 0.116 0.639 0.347c0.173 0.231 0.259 0.508 0.259 0.832z"></path>
</symbol>
<symbol id="icon-twittergreen" viewBox="0 0 32 32">
<title>twittergreen</title>
<path d="M22.231 13.183c0-0.153-0.003-0.304-0.010-0.454 0.653-0.488 1.219-1.098 1.667-1.796-0.599 0.27-1.242 0.45-1.918 0.526 0.69-0.426 1.219-1.106 1.469-1.922-0.646 0.392-1.36 0.673-2.12 0.819-0.609-0.694-1.477-1.136-2.438-1.153-1.844-0.030-3.339 1.531-3.339 3.488 0 0.278 0.029 0.548 0.087 0.808-2.777-0.179-5.238-1.628-6.884-3.812-0.287 0.523-0.452 1.135-0.452 1.79 0 1.239 0.589 2.341 1.485 2.991-0.548-0.025-1.062-0.191-1.513-0.464v0.045c0 1.732 1.151 3.184 2.679 3.523-0.28 0.080-0.576 0.121-0.879 0.12-0.216-0.001-0.425-0.025-0.628-0.069 0.425 1.42 1.659 2.457 3.119 2.491-1.143 0.95-2.583 1.518-4.147 1.513-0.269 0-0.536-0.018-0.797-0.051 1.479 1.016 3.233 1.608 5.12 1.608 6.141 0.001 9.499-5.356 9.499-10.003z"></path>
<path d="M30.864 16.195c0-8.366-6.767-15.149-15.115-15.149s-15.115 6.782-15.115 15.149c0 8.366 6.767 15.148 15.115 15.148s15.115-6.782 15.115-15.148zM2.009 16.195c0-7.606 6.152-13.771 13.741-13.771s13.741 6.165 13.741 13.771c0 7.606-6.152 13.771-13.741 13.771s-13.741-6.165-13.741-13.771z"></path>
</symbol>
</defs>
</svg>
