<?xml version="1.0" encoding="UTF-8"?>
<svg width="26px" height="27px" viewBox="0 0 26 27" version="1.1" xmlns="http://www.w3.org/2000/svg" xmlns:xlink="http://www.w3.org/1999/xlink">
    <!-- Generator: Sketch 48.2 (47327) - http://www.bohemiancoding.com/sketch -->
    <title>facebook</title>
    <desc>Created with Sketch.</desc>
    <defs></defs>
    <g id="Team-Members-Section-Designers" stroke="none" stroke-width="1" fill="none" fill-rule="evenodd" transform="translate(-214.000000, -1898.000000)">
        <g id="Profile-1" transform="translate(114.000000, 1526.000000)" fill="#72C02C" fill-rule="nonzero">
            <g id="Icons-Copy" transform="translate(66.535433, 372.882793)">
                <g id="facebook" transform="translate(33.779528, 0.000000)">
                    <path d="M25.5058143,12.8318182 C25.5058143,5.7451321 19.795971,0 12.7529071,0 C5.7098016,0 0,5.7451321 0,12.8318182 C0,19.9184624 5.7098016,25.6636364 12.7529071,25.6636364 C19.795971,25.6636364 25.5058143,19.9184624 25.5058143,12.8318182 Z M1.15934762,12.8318182 C1.15934762,6.38907132 6.34978082,1.1665213 12.7529071,1.1665213 C19.1560334,1.1665213 24.3464666,6.38907132 24.3464666,12.8318182 C24.3464666,19.2745651 19.1560334,24.4971151 12.7529071,24.4971151 C6.34978082,24.4971151 1.15934762,19.2745651 1.15934762,12.8318182 Z" id="Shape"></path>
                    <path d="M13.2421437,20.2380837 L13.2421437,12.8318182 L15.670989,12.8318182 L16.0547431,10.3774604 L13.2421437,10.3774604 L13.2421437,9.14678001 C13.2421437,8.50636325 13.4508162,7.89509066 14.3643995,7.89509066 L16.1903574,7.89509066 L16.1903574,5.44538753 L13.5980581,5.44538753 C11.4184779,5.44538753 10.8237174,6.88951223 10.8237174,8.8913178 L10.8237174,10.3763282 L9.3281681,10.3763282 L9.3281681,12.8318182 L10.8237174,12.8318182 L10.8237174,20.2380837 L13.2421437,20.2380837 L13.2421437,20.2380837 Z" id="Shape"></path>
                </g>
            </g>
        </g>
    </g>
</svg>