<?xml version="1.0" encoding="UTF-8" standalone="no"?>
<svg width="20px" height="20px" viewBox="0 0 20 20" version="1.1" xmlns="http://www.w3.org/2000/svg" xmlns:xlink="http://www.w3.org/1999/xlink">
    <!-- Generator: Sketch 3.7.2 (28276) - http://www.bohemiancoding.com/sketch -->
    <title>Shape</title>
    <desc>Created with Sketch.</desc>
    <defs></defs>
    <g id="Welcome" stroke="none" stroke-width="1" fill="none" fill-rule="evenodd">
        <g id="Desktop-HD" transform="translate(-465.000000, -2122.000000)" fill="#72C02C">
            <g id="Group-3" transform="translate(361.000000, 1825.000000)">
                <g id="Group-6-Copy-3" transform="translate(21.000000, 91.000000)">
                    <g id="Group-5" transform="translate(0.000000, 130.000000)">
                        <path d="M101,76 L85,76 C83.9,76 83,76.9 83,78 L83,94 C83,95.1 83.9,96 85,96 L101,96 C102.1,96 103,95.1 103,94 L103,78 C103,76.9 102.1,76 101,76 L101,76 Z M100,78 L100,81 L98,81 C97.4,81 97,81.4 97,82 L97,84 L100,84 L100,87 L97,87 L97,94 L94,94 L94,87 L92,87 L92,84 L94,84 L94,81.5 C94,79.6 95.6,78 97.5,78 L100,78 L100,78 Z" id="Shape"></path>
                    </g>
                </g>
            </g>
        </g>
    </g>
</svg>