<?xml version="1.0" encoding="utf-8"?>
<!-- Generator: Adobe Illustrator 20.1.0, SVG Export Plug-In . SVG Version: 6.00 Build 0)  -->
<svg version="1.1" id="Layer_1" xmlns="http://www.w3.org/2000/svg" xmlns:xlink="http://www.w3.org/1999/xlink" x="0px" y="0px"
	 viewBox="0 0 107.7 111.3" style="enable-background:new 0 0 107.7 111.3;" xml:space="preserve">
<style type="text/css">
	.st0{clip-path:url(#SVGID_2_);}
	.st1{fill:none;}
	.st2{fill:#504A5A;}
	.st3{fill:#FFFFFF;}
</style>
<title>finance-leader</title>
<g id="Layer_2">
	<g id="Layer_1-2">
		<g>
			<defs>
				<circle id="SVGID_1_" cx="53.9" cy="53.9" r="52.1"/>
			</defs>
			<clipPath id="SVGID_2_">
				<use xlink:href="#SVGID_1_"  style="overflow:visible;"/>
			</clipPath>
			<g class="st0">
				<path class="st1" d="M22,111.3V91.4c0-4.6,4.3-8.4,9.5-8.4h41.6c5.2,0,9.5,3.8,9.5,8.4v19.9"/>
				<path class="st2" d="M84.3,111.3h-3.6V91.4c0-3.6-3.4-6.6-7.7-6.6H31.5c-4.2,0-7.7,3-7.7,6.6v19.9h-3.6V91.4
					c0-5.6,5-10.2,11.3-10.2h41.6c6.2,0,11.3,4.6,11.3,10.2L84.3,111.3z"/>
				<path class="st3" d="M52.1,53.8h0.5c4.4,0,8,3.6,8,8v20.5c0,4.4-3.6,8-8,8h-0.5c-4.4,0-8-3.6-8-8V61.8
					C44.1,57.4,47.6,53.8,52.1,53.8z"/>
				<path class="st2" d="M52.5,92H52c-5.4,0-9.8-4.4-9.8-9.8V61.8c0-5.4,4.3-9.8,9.7-9.8c0,0,0,0,0,0h0.5c5.4,0,9.8,4.4,9.8,9.8
					v20.5C62.2,87.6,57.9,92,52.5,92z M52,55.6c-3.4,0-6.2,2.8-6.2,6.2v20.5c0,3.4,2.8,6.2,6.2,6.2h0h0.5c3.4,0,6.2-2.8,6.2-6.2
					V61.8c0-3.4-2.8-6.2-6.2-6.2L52,55.6z"/>
				<path class="st3" d="M73.2,46.2h0.3c2.3,0,4.2,1.9,4.2,4.2v7.7c0,2.3-1.9,4.2-4.2,4.2h-0.3c-2.3,0-4.2-1.9-4.2-4.2v-7.7
					C69.1,48.1,70.9,46.2,73.2,46.2z"/>
				<path class="st2" d="M73.6,64h-0.3c-3.3,0-6-2.7-6-6l0,0v-7.6c0-3.3,2.7-6,6-6h0.3c3.3,0,6,2.7,6,6V58
					C79.6,61.3,76.9,64,73.6,64L73.6,64z M73.2,48c-1.3,0-2.4,1.1-2.4,2.4v0V58c0,1.3,1.1,2.4,2.4,2.4l0,0h0.3
					c1.3,0,2.4-1.1,2.4-2.4c0,0,0,0,0,0v-7.6c0-1.3-1.1-2.4-2.4-2.4l0,0L73.2,48z"/>
				<path class="st3" d="M72.9,56.1c0,11.7-9.5,21.2-21.2,21.2c0,0,0,0,0,0l0,0c-11.7,0-21.2-9.5-21.2-21.2V39.1
					C30.5,27.5,40,18,51.7,18l0,0c11.7,0,21.2,9.5,21.2,21.1V56.1z"/>
				<path class="st2" d="M51.7,79c-12.7,0-23-10.3-23-23V39.1c0.8-12.7,11.7-22.3,24.4-21.5c11.6,0.7,20.8,9.9,21.5,21.5v16.9
					C74.6,68.7,64.3,79,51.7,79z M51.7,19.7c-10.7,0-19.4,8.7-19.4,19.4v16.9c0,10.7,8.7,19.4,19.4,19.4s19.4-8.7,19.4-19.4V39.1
					C71.1,28.4,62.4,19.8,51.7,19.7L51.7,19.7z"/>
				<path class="st3" d="M51.7,71c-8.2,0-14.9-6.7-14.9-14.9"/>
				<path class="st2" d="M51.7,72.8c-9.2,0-16.7-7.5-16.7-16.7h3.6c0,7.3,5.9,13.1,13.1,13.2V72.8z"/>
				<path class="st3" d="M79.1,28.2c0.4-1.1,0.6-2.2,0.6-3.4v-8H44.1c-3.3,0-6.4,1.7-8.2,4.4h-3.4c-4.2,0-7.6,3.4-7.6,7.6v27.6h5.3
					V40c0-2.9,2.4-5.3,5.3-5.3h0.7c4.6,5.2,12.3,8.7,21,8.7c11.9,0,22-6.4,24.8-15.1L79.1,28.2z"/>
				<path class="st2" d="M32.1,58.2h-8.9V28.8c0-5.2,4.2-9.4,9.4-9.4H35c2.2-2.8,5.6-4.5,9.1-4.5h37.4v9.8c0,0.5,0,1.1-0.1,1.6h3.1
					l-0.7,2.3c-3.1,9.6-14,16.4-26.4,16.4c-8.6,0-16.7-3.2-21.8-8.7c-1.9,0.1-3.5,1.7-3.4,3.6V58.2z M26.8,54.7h1.8V40
					c0-3.9,3.2-7.1,7.1-7.1h1.5l0.5,0.6c4.4,5.1,11.8,8.1,19.7,8.1c9.9,0,18.6-4.7,22.1-11.6h-2.8l0.9-2.4c0.3-0.9,0.5-1.8,0.5-2.8
					v-6.3H44.1c-2.7,0-5.2,1.4-6.7,3.6L36.9,23h-4.3c-3.2,0-5.8,2.6-5.8,5.8L26.8,54.7z"/>
				<path class="st3" d="M30.5,46.2c-2.1,0.2-5.5,2-5.5,4.1V58c0,2.2,3.4,3.9,5.5,4.1V46.2z"/>
				<path class="st2" d="M32.3,64.2l-2-0.2c-2.9-0.3-7.1-2.6-7.1-5.9v-7.7c0-3.3,4.2-5.6,7.1-5.9l2-0.2V64.2z M28.7,48.6
					c-1.1,0.5-2,1.3-2,1.8V58c0,0.5,0.9,1.2,2,1.8V48.6z"/>
				<polyline class="st3" points="55.3,44.2 58,58 52.7,58 				"/>
				<polygon class="st2" points="60.2,59.8 52.7,59.8 52.7,56.2 55.8,56.2 53.6,44.6 57.1,43.9 				"/>
				<rect x="44.2" y="49.6" class="st1" width="4.5" height="3.6"/>
				<rect x="61.1" y="49.6" class="st1" width="4.5" height="3.6"/>
				<path class="st2" d="M64.1,53.6c-1.9,0-3.8-0.8-5.2-2.1l2.5-2.5c1.5,1.5,3.8,1.5,5.3,0l2.5,2.5C67.9,52.8,66,53.6,64.1,53.6z"/>
				<path class="st2" d="M46.2,53.6c-1.9,0-3.8-0.8-5.2-2.1l2.5-2.5c1.5,1.5,3.8,1.5,5.3,0l2.5,2.5C50,52.8,48.1,53.6,46.2,53.6z"/>
			</g>
		</g>
		<path class="st2" d="M53.9,107.7C24.1,107.7,0,83.6,0,53.9S24.1,0,53.9,0s53.9,24.1,53.9,53.9C107.7,83.6,83.6,107.7,53.9,107.7z
			 M53.9,3.6C26.1,3.6,3.6,26.1,3.6,53.9s22.5,50.3,50.3,50.3s50.3-22.5,50.3-50.3C104.1,26.1,81.6,3.6,53.9,3.6L53.9,3.6z"/>
	</g>
</g>
</svg>
