<?xml version="1.0" encoding="UTF-8"?>
<svg width="27px" height="27px" viewBox="0 0 27 27" version="1.1" xmlns="http://www.w3.org/2000/svg" xmlns:xlink="http://www.w3.org/1999/xlink">
    <!-- Generator: Sketch 48.2 (47327) - http://www.bohemiancoding.com/sketch -->
    <title>23957</title>
    <desc>Created with Sketch.</desc>
    <defs></defs>
    <g id="Team-Members-Section-Designers" stroke="none" stroke-width="1" fill="none" fill-rule="evenodd" transform="translate(-281.000000, -1898.000000)">
        <g id="Profile-1" transform="translate(114.000000, 1526.000000)" fill="#72C02C" fill-rule="nonzero">
            <g id="Icons-Copy" transform="translate(66.535433, 372.882793)">
                <g id="23957" transform="translate(101.338583, 0.000000)">
                    <g id="9310">
                        <path d="M12.7410108,0 C14.5077643,0 16.1628822,0.336351347 17.7063171,1.00905404 C19.2499423,1.68175673 20.5991808,2.59819229 21.7543182,3.7583607 C22.9095508,4.91852911 23.8220498,6.27368381 24.491863,7.8238248 C25.1614858,9.37396579 25.4964399,11.0362239 25.4964399,12.8105991 C25.4964399,14.5849265 25.1614858,16.2472802 24.491863,17.7973734 C23.8220498,19.34761 22.9095508,20.7026213 21.7543182,21.8628375 C20.5991808,23.0229582 19.2498471,23.9393937 17.7063171,24.6120964 C16.1628346,25.2847991 14.5077643,25.6211026 12.7410108,25.6211026 C10.9742573,25.6211026 9.3191393,25.2847991 7.77565685,24.612192 C6.23217441,23.9394893 4.88284069,23.0230537 3.72765572,21.8629331 C2.57247074,20.7027169 1.66482541,19.3475622 1.00471971,17.797469 C0.344614005,16.2472802 0.0145611552,14.5849743 0.0145611552,12.8105991 C0.0145611552,11.0362239 0.344614005,9.37396579 1.00471971,7.8238248 C1.66482541,6.27368381 2.57247074,4.91852911 3.72765572,3.7583607 C4.88284069,2.59819229 6.23217441,1.68175673 7.77565685,1.00905404 C9.3191393,0.336351347 10.9742573,0 12.7410108,0 Z M12.7410108,1.40390127 C11.168406,1.40390127 9.69287561,1.70125536 8.31441959,2.29596354 C6.93596357,2.89067172 5.73224141,3.70473947 4.70325311,4.7381668 C3.67426482,5.77159412 2.86369385,6.98050911 2.2715402,8.36491175 C1.67938656,9.74931439 1.38330974,11.2312102 1.38330974,12.8105991 C1.38330974,14.3899403 1.67938656,15.871836 2.2715402,17.2562865 C2.86369385,18.6407369 3.67426482,19.8496041 4.70325311,20.8830792 C5.73224141,21.9164588 6.93596357,22.7305743 8.31441959,23.3252825 C9.69287561,23.9199429 11.168406,24.2173447 12.7410108,24.2173447 C14.3136155,24.2173447 15.7891459,23.9199429 17.1676495,23.3252825 C18.5460579,22.7307177 19.7498277,21.9164588 20.7787684,20.8830792 C21.8078043,19.8496041 22.6183277,18.6407369 23.2104813,17.2562865 C23.8026825,15.8717405 24.0987118,14.3898447 24.0987118,12.8105991 C24.0987118,11.2313058 23.8026825,9.74931439 23.2104813,8.36491175 C22.6184704,6.98050911 21.8078043,5.77159412 20.7787684,4.7381668 C19.7498277,3.70473947 18.5460579,2.89067172 17.1676495,2.29596354 C15.7891459,1.70125536 14.3136155,1.40390127 12.7410108,1.40390127 Z M16.0027095,14.9164988 C17.225799,14.4873856 17.8373675,13.6783359 17.8373675,12.4888717 C17.8373675,11.8649156 17.735487,11.3725752 17.5315832,11.0118506 C17.3277746,10.651126 17.0025755,10.3537719 16.5559858,10.1197883 C16.3424222,10.0027966 16.0900764,9.93455137 15.7988058,9.91505274 C15.5076302,9.89555411 15.1970874,9.89067945 14.8668918,9.90042877 C14.536839,9.91017808 14.187514,9.92967671 13.8185362,9.95892465 C13.4496536,9.9881726 13.080771,10.0027966 12.7119836,10.0027966 C12.343101,10.0027966 11.9742184,9.9881726 11.6053358,9.95892465 C11.2364532,9.92967671 10.8869855,9.91017808 10.5569327,9.90042877 C10.2268798,9.89067945 9.91624183,9.89555411 9.62501873,9.91505274 C9.33379562,9.93455137 9.08140227,10.0027966 8.86783866,10.1197883 C8.42129657,10.3537719 8.10095115,10.651126 7.90680242,11.0118506 C7.71265368,11.3725752 7.61557932,11.8649156 7.61557932,12.4888717 C7.61557932,13.6783359 8.22714783,14.4874812 9.45028487,14.9164988 C9.66384847,14.9749469 9.89682696,15.0333472 10.1492203,15.0919865 C10.3627839,15.1308404 10.6297384,15.1699332 10.9500838,15.2088349 C11.2704293,15.2478321 11.6441656,15.2674741 12.0712928,15.2674741 L13.3526269,15.2674741 C13.7603392,15.2674741 14.1292218,15.2479755 14.459465,15.2088349 C14.7895178,15.1699332 15.0710335,15.1307926 15.304012,15.0919865 C15.5755823,15.0334428 15.8085608,14.9749469 16.0027095,14.9164988 Z M19.4973868,10.6754993 C19.4973868,11.2994554 19.4293395,11.8892889 19.2935782,12.4449998 C19.1576265,13.0005674 18.9052807,13.5028482 18.5363981,13.9512689 C18.1675155,14.3997852 17.6578275,14.7702591 17.0074292,15.0626907 C16.357031,15.355218 15.5270927,15.5404071 14.5174717,15.6184495 C14.6727907,15.6963962 14.8718407,15.7939371 15.1145266,15.9108811 C15.3572126,16.0279207 15.5659224,16.2521549 15.7406563,16.5835838 C15.8376831,16.7979731 15.9007814,17.1100468 15.9299037,17.519518 C15.9590736,17.9288936 15.9735872,18.3482097 15.9735872,18.7770839 C15.9735872,19.2061971 15.9687335,19.600901 15.9590736,19.9615779 C15.9493186,20.3223503 15.9639274,20.5418054 16.0027571,20.6197044 C16.080369,20.7756934 16.1920997,20.912136 16.3376161,21.02908 C16.4832752,21.146024 16.6046182,21.2337678 16.701645,21.2923115 C16.7986717,21.3509507 16.8277465,21.4240228 16.7890119,21.5117666 C16.7501821,21.5995105 16.614278,21.6531795 16.3812995,21.6724869 C16.2648579,21.6724869 16.1191988,21.6531795 15.9444649,21.6140389 C15.769731,21.5750416 15.6045619,21.5067964 15.4493856,21.4092555 C15.2941618,21.3118101 15.1630162,21.1898959 15.0562344,21.0438473 C14.9494526,20.8974642 14.8961093,20.7074482 14.8961093,20.4733213 L14.8961093,18.0749899 C14.8961093,17.8020569 14.833011,17.6070706 14.7067191,17.4900311 C14.5807128,17.3730871 14.4496624,17.2950448 14.3135679,17.2560953 L14.3135679,20.4148732 C14.3135679,20.9803334 14.38152,21.3508074 14.5174717,21.526295 C14.5756687,21.6043373 14.6291072,21.6872065 14.6775968,21.7749503 C14.7260864,21.8626942 14.7553039,21.9357662 14.7649637,21.9943099 C14.7747188,22.052758 14.7406951,22.0869284 14.6628929,22.0967255 C14.585281,22.106427 14.4397646,22.0820537 14.2260582,22.0236534 C13.8183459,21.9262081 13.5271228,21.7019261 13.3524365,21.3509507 C13.1777502,20.9999754 13.0903357,20.6295015 13.0903357,20.2395289 L13.0903357,17.1392947 L12.4497877,17.1392947 L12.4497877,20.2395289 C12.4497877,20.6295015 12.3672744,20.9999754 12.202248,21.3509507 C12.0372216,21.7019261 11.7411448,21.9262081 11.3140176,22.0236534 C11.1004539,22.0821971 10.9596961,22.106427 10.8917441,22.0967255 C10.823792,22.087024 10.789816,22.052758 10.789816,21.9943099 C10.789816,21.9357662 10.8189383,21.8626942 10.8771829,21.7749503 C10.9354275,21.6872065 10.9936721,21.6043373 11.0519168,21.526295 C11.0907465,21.4483483 11.13443,21.3118101 11.1829672,21.1168238 C11.2315043,20.9219331 11.2557729,20.6879018 11.2557729,20.4148732 L11.2557729,17.2560953 C11.1198688,17.294997 10.9936721,17.3729437 10.8771829,17.4900789 C10.7606937,17.6070228 10.702449,17.8020091 10.702449,18.0750377 L10.702449,20.4733691 C10.702449,20.7073526 10.6490581,20.8974165 10.5422763,21.0437995 C10.4354945,21.190087 10.3044441,21.3117623 10.1491251,21.4093032 C9.99380615,21.5067486 9.82877973,21.575185 9.65404587,21.6139911 C9.47931201,21.6529883 9.33370045,21.6725347 9.21721121,21.6725347 C8.98423273,21.6531317 8.84832862,21.5995583 8.80949887,21.5118144 C8.77066912,21.4240706 8.79979143,21.3509029 8.8968658,21.2924548 C8.99394017,21.2338156 9.11528313,21.1460718 9.26089468,21.0290322 C9.40650623,20.9121838 9.51814175,20.7755978 9.59580125,20.6197522 C9.63463099,20.5222112 9.64919215,20.2638544 9.63948471,19.8445383 C9.62977728,19.4253656 9.62492356,18.9621775 9.62492356,18.4553566 C9.46960457,18.5139002 9.2657484,18.5528975 9.01335504,18.5723961 C8.76096168,18.5917036 8.47944602,18.5723961 8.16880804,18.5137569 C7.64460646,18.4162159 7.24660155,18.2457941 6.97479332,18.0018701 C6.70298509,17.7581372 6.4408843,17.3730393 6.18849094,16.8465763 C6.05258683,16.5931419 5.90212156,16.3835317 5.73709513,16.2177455 C5.57206871,16.052055 5.42645715,15.9204392 5.30026048,15.8228983 C5.1740638,15.725453 5.07698943,15.6425838 5.00903737,15.5743386 C4.94108532,15.5060934 4.9362316,15.4427228 4.99447622,15.3841792 C5.11096546,15.2477366 5.27113817,15.1891929 5.47499434,15.2085959 C5.67885051,15.2280945 5.80019347,15.2573903 5.83902322,15.2963398 C6.0720017,15.3937851 6.30498018,15.5985685 6.53795866,15.9106421 C6.77093715,16.2227636 7.01362307,16.4858995 7.26601642,16.7002888 C7.38250566,16.7977342 7.52811721,16.8951795 7.70285108,16.9927205 C7.87758494,17.0901658 8.07173367,17.1586022 8.28529728,17.1974083 C8.49886089,17.2364055 8.73183937,17.2364055 8.98423273,17.1974083 C9.23662609,17.1585544 9.48901944,17.0512163 9.7414128,16.8758243 C9.79965742,16.6221987 9.89187807,16.4224811 10.0180747,16.2760981 C10.1442714,16.1298105 10.2801755,16.0128666 10.4257871,15.9251227 C10.5713986,15.8373789 10.7073028,15.7691337 10.8334994,15.7203393 C10.9596961,15.6715928 11.0616242,15.6277209 11.1392837,15.5887236 C10.0714656,15.5107769 9.19779634,15.3305579 8.51827577,15.0478278 C7.83875519,14.7650977 7.29999245,14.4042297 6.90198754,13.9655583 C6.50398264,13.5268392 6.23217441,13.0247495 6.08656285,12.4592415 C5.9409513,11.8937812 5.86814553,11.2990731 5.86814553,10.6751169 C5.86814553,10.0316622 5.96521989,9.45645264 6.15936863,8.94948829 C6.35351737,8.44252394 6.6253256,7.99405548 6.97479332,7.6040829 C6.81947433,7.13611581 6.76608343,6.64377543 6.81462061,6.12706177 C6.8631578,5.61034811 6.96508588,5.14725567 7.12040487,4.73778447 C7.85817006,4.77678173 8.4745923,4.93277076 8.96967157,5.20575156 C9.46475085,5.47873236 9.80936486,5.70296659 10.0035136,5.87845425 C10.8383532,5.64447071 11.702315,5.52747894 12.5953992,5.52747894 L12.7992554,5.52747894 C13.6340474,5.52747894 14.439955,5.62497208 15.2163596,5.81995837 C15.4299232,5.64447071 15.7793909,5.42998579 16.2648103,5.17650362 C16.7501346,4.92302144 17.3521384,4.77678173 18.070346,4.73778447 C18.2256649,5.12775705 18.327593,5.56647619 18.3761302,6.05394191 C18.424715,6.54140763 18.390739,7.00937472 18.2742497,7.45784319 C18.6625472,7.84781576 18.9632874,8.3109082 19.1769938,8.84712049 C19.3906049,9.38371511 19.4973868,9.99304725 19.4973868,10.6754993 Z M12.6827661,10.0027966 L12.7501097,10.0027966 L12.8174533,10.0027966 L12.6827661,10.0027966 Z M16.4395442,12.2841361 C16.4395442,12.5571169 16.3668811,12.7911005 16.2211268,12.9860868 C16.0754677,13.1810731 15.8959277,13.2785184 15.6823641,13.2785184 C15.4688957,13.2785184 15.2941618,13.1810731 15.1581625,12.9860868 C15.0223536,12.7910527 14.9542588,12.5570691 14.9542588,12.2841361 C14.9542588,12.0112031 15.0224012,11.7771718 15.1581625,11.5821855 C15.294019,11.3871992 15.4687529,11.2897061 15.6823641,11.2897061 C15.8959753,11.2897061 16.0756105,11.3871992 16.2211268,11.5821855 C16.366786,11.7771718 16.4395442,12.0111553 16.4395442,12.2841361 Z M10.7315713,12.2841361 C10.7315713,12.5571169 10.6587656,12.7911005 10.513154,12.9860868 C10.3675425,13.1810731 10.1879549,13.2785184 9.97439128,13.2785184 C9.76082767,13.2785184 9.58609381,13.1810731 9.45018969,12.9860868 C9.31428558,12.7910527 9.24633352,12.5570691 9.24633352,12.2841361 C9.24633352,12.0112031 9.31428558,11.7771718 9.45018969,11.5821855 C9.58609381,11.3871992 9.76082767,11.2897061 9.97439128,11.2897061 C10.1879549,11.2897061 10.3675425,11.3871992 10.513154,11.5821855 C10.6588132,11.7771718 10.7315713,12.0111553 10.7315713,12.2841361 Z" id="Shape"></path>
                    </g>
                </g>
            </g>
        </g>
    </g>
</svg>