<?xml version="1.0" encoding="utf-8"?>
<!-- Generator: Adobe Illustrator 19.0.0, SVG Export Plug-In . SVG Version: 6.00 Build 0)  -->
<svg version="1.1" id="Layer_1" xmlns="http://www.w3.org/2000/svg" xmlns:xlink="http://www.w3.org/1999/xlink" x="0px" y="0px"
	 viewBox="-829 691 20 20" style="enable-background:new -829 691 20 20;" xml:space="preserve">
<style type="text/css">
	.st0{fill:#72C02C;}
	.st1{fill:#FFFFFF;}
</style>
<title>Shape</title>
<desc>Created with Sketch.</desc>
<g id="Desktop-HD" transform="translate(-406.000000, -2122.000000)">
	<g id="Group-3" transform="translate(361.000000, 1825.000000)">
		<g id="Group-6-Copy-3" transform="translate(21.000000, 91.000000)">
			<g id="Group-5" transform="translate(0.000000, 130.000000)">
				<path id="Shape" class="st0" d="M-787,767h-16c-1.1,0-2,0.9-2,2v16c0,1.1,0.9,2,2,2h16c1.1,0,2-0.9,2-2v-16
					C-785,767.9-785.9,767-787,767L-787,767z"/>
			</g>
		</g>
	</g>
</g>
<g>
	<path class="st1" d="M-827.3,701c-0.1-2.7,2.3-5.3,5-5.3c1.4-0.1,2.7,0.4,3.8,1.3c-0.4,0.5-0.9,0.9-1.3,1.4c-0.9-0.6-2-1-3.1-0.6
		c-1.7,0.5-2.8,2.6-2.2,4.3c0.5,1.8,2.7,2.8,4.4,2c0.9-0.3,1.5-1.1,1.7-2c-1,0-2,0-3,0c0-0.6,0-1.2,0-1.8c1.7,0,3.4,0,5.1,0
		c0.1,1.5-0.1,3.1-1.1,4.2c-1.3,1.7-3.7,2.2-5.7,1.5C-825.9,705.3-827.4,703.2-827.3,701z"/>
	<path class="st1" d="M-813.7,698.7c0.5,0,1,0,1.5,0c0,0.5,0,1,0,1.5c0.5,0,1,0,1.5,0c0,0.5,0,1,0,1.5c-0.5,0-1,0-1.5,0
		c0,0.5,0,1,0,1.5c-0.5,0-1,0-1.5,0c0-0.5,0-1,0-1.5c-0.5,0-1,0-1.5,0c0-0.5,0-1,0-1.5c0.5,0,1,0,1.5,0
		C-813.7,699.7-813.7,699.2-813.7,698.7z"/>
</g>
</svg>
