<?xml version="1.0" encoding="utf-8"?>
<!-- Generator: Adobe Illustrator 16.0.0, SVG Export Plug-In . SVG Version: 6.00 Build 0)  -->
<!DOCTYPE svg PUBLIC "-//W3C//DTD SVG 1.1//EN" "http://www.w3.org/Graphics/SVG/1.1/DTD/svg11.dtd">
<svg version="1.1" id="Layer_1" xmlns="http://www.w3.org/2000/svg" xmlns:xlink="http://www.w3.org/1999/xlink" x="0px" y="0px"
	 width="1280px" height="319.11px" viewBox="0 36.348 1280 319.11" enable-background="new 0 36.348 1280 319.11"
	 xml:space="preserve">
<rect y="36.348" fill="#F2F2F2" width="1280" height="319.11"/>
<path fill="#58595B" d="M1141,855.93L1141,855.93c2.648,0,4.812,2.168,4.812,4.812c0,2.646-2.164,4.814-4.812,4.814
	s-4.812-2.168-4.812-4.814C1136.188,858.098,1138.352,855.93,1141,855.93"/>
<path fill="#58595B" d="M1031.746,900.854L1031.746,900.854c2.647,0,4.812,2.168,4.812,4.811c0,2.648-2.163,4.816-4.812,4.816
	s-4.812-2.168-4.812-4.816C1026.934,903.022,1029.098,900.854,1031.746,900.854"/>
<path fill="#58595B" d="M1068.116,874.551L1068.116,874.551c1.545,0,2.812,1.27,2.812,2.812c0,1.551-1.268,2.812-2.812,2.812
	c-1.55,0-2.813-1.264-2.813-2.812C1065.303,875.819,1066.566,874.551,1068.116,874.551"/>
<path fill="#58595B" d="M957.126,900.008h24.087c1.41,0,2.567,1.152,2.567,2.566s-1.157,2.572-2.567,2.572h-24.087
	c-1.417,0-2.57-1.158-2.57-2.572S955.709,900.008,957.126,900.008"/>
<path fill="#58595B" d="M971.739,914.62v-24.086c0-1.414-1.158-2.57-2.571-2.57c-1.414,0-2.571,1.156-2.571,2.57v24.086
	c0,1.414,1.157,2.568,2.571,2.568C970.581,917.188,971.739,916.034,971.739,914.62"/>
<path fill="#58595B" d="M1185.757,853.667h9.924c0.583,0,1.062,0.475,1.062,1.059c0,0.582-0.479,1.059-1.062,1.059h-9.924
	c-0.582,0-1.059-0.477-1.059-1.059C1184.698,854.141,1185.175,853.667,1185.757,853.667"/>
<path fill="#58595B" d="M1191.779,859.688v-9.926c0-0.582-0.479-1.059-1.062-1.059c-0.58,0-1.058,0.477-1.058,1.059v9.926
	c0,0.58,0.478,1.059,1.058,1.059C1191.302,860.745,1191.779,860.268,1191.779,859.688"/>
<path fill="#58595B" d="M1122.757,905.667h9.924c0.583,0,1.062,0.475,1.062,1.059c0,0.582-0.479,1.059-1.062,1.059h-9.924
	c-0.582,0-1.059-0.477-1.059-1.059C1121.698,906.141,1122.175,905.667,1122.757,905.667"/>
<path fill="#58595B" d="M1128.779,911.688v-9.926c0-0.582-0.479-1.059-1.062-1.059c-0.58,0-1.058,0.477-1.058,1.059v9.926
	c0,0.58,0.478,1.059,1.058,1.059C1128.302,912.745,1128.779,912.268,1128.779,911.688"/>
<path fill="#58595B" d="M905.02,909.249h9.924c0.582,0,1.061,0.475,1.061,1.059c0,0.582-0.479,1.059-1.061,1.059h-9.924
	c-0.584,0-1.06-0.477-1.06-1.059C903.96,909.723,904.436,909.249,905.02,909.249"/>
<path fill="#58595B" d="M911.04,915.268v-9.924c0-0.582-0.478-1.059-1.062-1.059c-0.58,0-1.058,0.477-1.058,1.059v9.924
	c0,0.582,0.479,1.061,1.058,1.061C910.562,916.327,911.04,915.85,911.04,915.268"/>
<path fill="#58595B" d="M860.069,930.239h9.925c0.583,0,1.061,0.477,1.061,1.059s-0.478,1.059-1.061,1.059h-9.925
	c-0.582,0-1.06-0.477-1.06-1.059C859.011,930.715,859.487,930.239,860.069,930.239"/>
<path fill="#58595B" d="M866.093,936.26v-9.926c0-0.582-0.479-1.059-1.061-1.059c-0.58,0-1.06,0.477-1.06,1.059v9.926
	c0,0.582,0.479,1.059,1.06,1.059C865.614,937.319,866.093,936.842,866.093,936.26"/>
<g>
	<g>
		<path fill="#58595B" d="M1496.835,875.088h-45.121c-2.647,0-4.813-2.168-4.813-4.816c0-2.646,2.166-4.812,4.813-4.812h45.121
			c2.647,0,4.813,2.164,4.813,4.812S1499.482,875.088,1496.835,875.088"/>
		<path fill="#58595B" d="M1693.331,786.129h-45.123c-2.644,0-4.812-2.168-4.812-4.814c0-2.648,2.168-4.812,4.812-4.812h45.123
			c2.647,0,4.815,2.164,4.815,4.812C1698.146,783.961,1695.979,786.129,1693.331,786.129"/>
		<path fill="#58595B" d="M1519.788,846.872h-45.12c-2.648,0-4.814-2.164-4.814-4.812c0-2.646,2.166-4.814,4.814-4.814h45.121
			c2.648,0,4.814,2.168,4.814,4.814C1524.602,844.708,1522.436,846.872,1519.788,846.872"/>
		<path fill="#58595B" d="M1693.331,888.68h-45.123c-2.644,0-4.812-2.168-4.812-4.814c0-2.648,2.168-4.812,4.812-4.812h45.123
			c2.647,0,4.815,2.164,4.815,4.812C1698.146,886.512,1695.979,888.68,1693.331,888.68"/>
		<path fill="#58595B" d="M1640.555,927.924h-45.123c-2.648,0-4.812-2.164-4.812-4.811c0-2.648,2.165-4.816,4.812-4.816h45.123
			c2.647,0,4.812,2.168,4.812,4.816C1645.367,925.76,1643.202,927.924,1640.555,927.924"/>
		<path fill="#58595B" d="M1698.146,815.637L1698.146,815.637c-2.647,0-4.812-2.168-4.812-4.811c0-2.648,2.164-4.816,4.812-4.816
			c2.648,0,4.812,2.168,4.812,4.816C1702.959,813.469,1700.795,815.637,1698.146,815.637"/>
		<path fill="#58595B" d="M1515.998,801.819L1515.998,801.819c-2.648,0-4.812-2.168-4.812-4.812c0-2.646,2.164-4.814,4.812-4.814
			s4.812,2.168,4.812,4.814C1520.811,799.651,1518.646,801.819,1515.998,801.819"/>
		<path fill="#58595B" d="M1571.656,893.495L1571.656,893.495c-2.648,0-4.812-2.168-4.812-4.812c0-2.646,2.164-4.814,4.812-4.814
			c2.647,0,4.812,2.168,4.812,4.814C1576.468,891.327,1574.304,893.495,1571.656,893.495"/>
		<path fill="#58595B" d="M1667.959,858.61L1667.959,858.61c-1.545,0-2.812-1.268-2.812-2.812c0-1.549,1.268-2.811,2.812-2.811
			c1.549,0,2.812,1.262,2.812,2.811C1670.771,857.342,1669.508,858.61,1667.959,858.61"/>
		<path fill="#58595B" d="M1586.436,769.141L1586.436,769.141c-1.545,0-2.812-1.268-2.812-2.812c0-1.549,1.267-2.812,2.812-2.812
			c1.549,0,2.813,1.264,2.813,2.812C1589.249,767.874,1587.984,769.141,1586.436,769.141"/>
		<path fill="#58595B" d="M1697.426,743.684h-24.087c-1.41,0-2.567-1.152-2.567-2.566c0-1.412,1.157-2.57,2.567-2.57h24.087
			c1.417,0,2.571,1.158,2.571,2.57C1699.997,742.532,1698.843,743.684,1697.426,743.684"/>
		<path fill="#58595B" d="M1682.812,729.073v24.086c0,1.414,1.157,2.57,2.571,2.57s2.571-1.156,2.571-2.57v-24.086
			c0-1.414-1.157-2.568-2.571-2.568S1682.812,727.659,1682.812,729.073"/>
		<path fill="#58595B" d="M1505.553,909.928h-9.925c-0.583,0-1.06-0.477-1.06-1.059s0.477-1.059,1.06-1.059h9.925
			c0.582,0,1.059,0.477,1.059,1.059S1506.135,909.928,1505.553,909.928"/>
		<path fill="#58595B" d="M1499.531,903.907v9.926c0,0.582,0.477,1.059,1.06,1.059c0.582,0,1.058-0.477,1.058-1.059v-9.926
			c0-0.582-0.476-1.059-1.058-1.059C1500.008,902.85,1499.531,903.325,1499.531,903.907"/>
		<path fill="#58595B" d="M1468.795,790.026h-9.924c-0.583,0-1.061-0.477-1.061-1.059s0.478-1.059,1.061-1.059h9.924
			c0.583,0,1.059,0.477,1.059,1.059C1469.854,789.551,1469.378,790.026,1468.795,790.026"/>
		<path fill="#58595B" d="M1462.773,784.006v9.924c0,0.582,0.478,1.061,1.061,1.061c0.58,0,1.059-0.479,1.059-1.061v-9.924
			c0-0.582-0.479-1.059-1.059-1.059C1463.251,782.948,1462.773,783.424,1462.773,784.006"/>
		<g>
			<path fill="#58595B" d="M1610.213,830.133h-39.191c-2.293,0-4.177-1.877-4.177-4.178c0-2.299,1.884-4.184,4.177-4.184h39.191
				c2.307,0,4.184,1.885,4.184,4.184C1614.396,828.256,1612.518,830.133,1610.213,830.133"/>
			<path fill="#58595B" d="M1586.436,806.358v39.189c0,2.299,1.883,4.184,4.184,4.184s4.184-1.885,4.184-4.184v-39.189
				c0-2.303-1.883-4.18-4.184-4.18C1588.318,802.18,1586.436,804.057,1586.436,806.358"/>
		</g>
		<path fill="#58595B" d="M1531.795,738.026h-9.924c-0.583,0-1.061-0.477-1.061-1.059s0.478-1.059,1.061-1.059h9.924
			c0.583,0,1.059,0.477,1.059,1.059C1532.854,737.551,1532.378,738.026,1531.795,738.026"/>
		<path fill="#58595B" d="M1525.773,732.006v9.924c0,0.582,0.478,1.061,1.061,1.061c0.58,0,1.059-0.479,1.059-1.061v-9.924
			c0-0.582-0.479-1.059-1.059-1.059C1526.251,730.948,1525.773,731.424,1525.773,732.006"/>
		<path fill="#58595B" d="M1762.454,925.797h-23.041c-1.353,0-2.462-1.104-2.462-2.459c0-1.352,1.109-2.455,2.462-2.455h23.041
			c1.353,0,2.458,1.104,2.458,2.455C1764.912,924.692,1763.807,925.797,1762.454,925.797"/>
		<path fill="#58595B" d="M1748.472,911.819v23.041c0,1.352,1.11,2.459,2.462,2.459c1.348,0,2.457-1.107,2.457-2.459v-23.041
			c0-1.352-1.109-2.457-2.457-2.457C1749.582,909.362,1748.472,910.467,1748.472,911.819"/>
		<path fill="#58595B" d="M1749.533,734.444h-9.924c-0.582,0-1.061-0.477-1.061-1.059s0.479-1.059,1.061-1.059h9.924
			c0.584,0,1.06,0.477,1.06,1.059C1750.592,733.969,1750.115,734.444,1749.533,734.444"/>
		<path fill="#58595B" d="M1743.511,728.424v9.924c0,0.582,0.478,1.061,1.062,1.061c0.58,0,1.058-0.479,1.058-1.061v-9.924
			c0-0.582-0.478-1.059-1.058-1.059C1743.988,727.366,1743.511,727.842,1743.511,728.424"/>
		<path fill="#58595B" d="M1794.482,713.454h-9.925c-0.583,0-1.061-0.477-1.061-1.061c0-0.58,0.478-1.057,1.061-1.057h9.925
			c0.582,0,1.059,0.477,1.059,1.057C1795.541,712.979,1795.064,713.454,1794.482,713.454"/>
		<path fill="#58595B" d="M1788.46,707.432v9.926c0,0.582,0.478,1.059,1.062,1.059c0.579,0,1.058-0.477,1.058-1.059v-9.926
			c0-0.582-0.478-1.059-1.058-1.059C1788.938,706.374,1788.46,706.85,1788.46,707.432"/>
	</g>
	<g>
		<path fill="#58595B" d="M1718.683,651.456h45.121c2.647,0,4.814-2.168,4.814-4.816c0-2.646-2.167-4.811-4.814-4.811h-45.121
			c-2.646,0-4.813,2.164-4.813,4.811C1713.869,649.288,1716.036,651.456,1718.683,651.456"/>
		<path fill="#58595B" d="M1522.188,562.499h45.123c2.644,0,4.812-2.168,4.812-4.816c0-2.646-2.168-4.811-4.812-4.811h-45.123
			c-2.648,0-4.816,2.164-4.816,4.811C1517.371,560.331,1519.539,562.499,1522.188,562.499"/>
		<path fill="#58595B" d="M1695.73,623.241h45.121c2.647,0,4.813-2.164,4.813-4.812c0-2.646-2.166-4.814-4.813-4.814h-45.121
			c-2.648,0-4.814,2.168-4.814,4.814C1690.916,621.077,1693.082,623.241,1695.73,623.241"/>
		<path fill="#58595B" d="M1522.188,665.049h45.123c2.644,0,4.812-2.17,4.812-4.816s-2.168-4.812-4.812-4.812h-45.123
			c-2.648,0-4.816,2.166-4.816,4.812S1519.539,665.049,1522.188,665.049"/>
		<path fill="#58595B" d="M1574.963,704.293h45.123c2.648,0,4.812-2.164,4.812-4.812c0-2.646-2.166-4.814-4.812-4.814h-45.123
			c-2.646,0-4.812,2.168-4.812,4.814C1570.15,702.129,1572.316,704.293,1574.963,704.293"/>
		<path fill="#58595B" d="M1517.371,592.006L1517.371,592.006c2.648,0,4.812-2.168,4.812-4.812c0-2.646-2.163-4.814-4.812-4.814
			s-4.812,2.168-4.812,4.814C1512.559,589.838,1514.723,592.006,1517.371,592.006"/>
		<path fill="#58595B" d="M1699.52,578.188L1699.52,578.188c2.648,0,4.812-2.17,4.812-4.812c0-2.646-2.164-4.816-4.812-4.816
			c-2.647,0-4.812,2.17-4.812,4.816C1694.708,576.018,1696.872,578.188,1699.52,578.188"/>
		<path fill="#58595B" d="M1643.861,669.864L1643.861,669.864c2.648,0,4.812-2.168,4.812-4.812c0-2.646-2.164-4.814-4.812-4.814
			c-2.647,0-4.812,2.168-4.812,4.814C1639.05,667.696,1641.214,669.864,1643.861,669.864"/>
		<path fill="#58595B" d="M1547.559,634.979L1547.559,634.979c1.545,0,2.812-1.268,2.812-2.812c0-1.549-1.268-2.811-2.812-2.811
			c-1.549,0-2.812,1.262-2.812,2.811C1544.746,633.711,1546.01,634.979,1547.559,634.979"/>
		<path fill="#58595B" d="M1629.082,545.509L1629.082,545.509c1.545,0,2.812-1.268,2.812-2.812c0-1.551-1.268-2.812-2.812-2.812
			c-1.549,0-2.812,1.264-2.812,2.812C1626.27,544.241,1627.533,545.509,1629.082,545.509"/>
		<path fill="#58595B" d="M1518.092,520.053h24.087c1.41,0,2.567-1.152,2.567-2.566c0-1.413-1.157-2.571-2.567-2.571h-24.087
			c-1.417,0-2.57,1.158-2.57,2.571S1516.675,520.053,1518.092,520.053"/>
		<path fill="#58595B" d="M1532.705,505.44v24.087c0,1.413-1.157,2.569-2.571,2.569s-2.571-1.156-2.571-2.569V505.44
			c0-1.414,1.157-2.567,2.571-2.567S1532.705,504.026,1532.705,505.44"/>
		<path fill="#58595B" d="M1709.965,686.297h9.925c0.583,0,1.06-0.477,1.06-1.059s-0.477-1.061-1.06-1.061h-9.925
			c-0.582,0-1.059,0.479-1.059,1.061S1709.383,686.297,1709.965,686.297"/>
		<path fill="#58595B" d="M1715.986,680.276v9.926c0,0.582-0.477,1.057-1.06,1.057c-0.582,0-1.058-0.475-1.058-1.057v-9.926
			c0-0.582,0.476-1.059,1.058-1.059C1715.51,679.217,1715.986,679.694,1715.986,680.276"/>
		<path fill="#58595B" d="M1746.723,566.395h9.924c0.584,0,1.062-0.477,1.062-1.059s-0.478-1.059-1.062-1.059h-9.924
			c-0.583,0-1.059,0.477-1.059,1.059C1745.665,565.918,1746.141,566.395,1746.723,566.395"/>
		<path fill="#58595B" d="M1752.746,560.374v9.926c0,0.582-0.479,1.059-1.061,1.059c-0.58,0-1.059-0.477-1.059-1.059v-9.926
			c0-0.582,0.479-1.059,1.059-1.059C1752.268,559.315,1752.746,559.792,1752.746,560.374"/>
		<g>
			<path fill="#58595B" d="M1605.306,606.5h39.191c2.294,0,4.177-1.877,4.177-4.178c0-2.299-1.883-4.184-4.177-4.184h-39.191
				c-2.306,0-4.183,1.885-4.183,4.184C1601.123,604.624,1603,606.5,1605.306,606.5"/>
			<path fill="#58595B" d="M1629.082,582.725v39.191c0,2.299-1.883,4.182-4.184,4.182s-4.184-1.883-4.184-4.182v-39.191
				c0-2.301,1.883-4.178,4.184-4.178S1629.082,580.424,1629.082,582.725"/>
		</g>
		<path fill="#58595B" d="M1683.723,514.395h9.924c0.584,0,1.062-0.476,1.062-1.059c0-0.582-0.478-1.058-1.062-1.058h-9.924
			c-0.583,0-1.059,0.476-1.059,1.058C1682.665,513.919,1683.141,514.395,1683.723,514.395"/>
		<path fill="#58595B" d="M1689.746,508.374v9.925c0,0.582-0.479,1.06-1.061,1.06c-0.58,0-1.059-0.478-1.059-1.06v-9.925
			c0-0.582,0.479-1.059,1.059-1.059C1689.268,507.315,1689.746,507.792,1689.746,508.374"/>
		<path fill="#58595B" d="M1453.064,702.165h23.041c1.353,0,2.461-1.104,2.461-2.457c0-1.352-1.109-2.457-2.461-2.457h-23.041
			c-1.354,0-2.459,1.105-2.459,2.457C1450.607,701.061,1451.712,702.165,1453.064,702.165"/>
		<path fill="#58595B" d="M1467.046,688.188v23.041c0,1.352-1.11,2.459-2.462,2.459c-1.348,0-2.457-1.107-2.457-2.459v-23.041
			c0-1.352,1.109-2.457,2.457-2.457C1465.936,685.729,1467.046,686.836,1467.046,688.188"/>
		<path fill="#58595B" d="M1465.984,510.812h9.924c0.582,0,1.061-0.477,1.061-1.06c0-0.582-0.479-1.058-1.061-1.058h-9.924
			c-0.584,0-1.06,0.476-1.06,1.058C1464.926,510.337,1465.402,510.812,1465.984,510.812"/>
		<path fill="#58595B" d="M1472.007,504.792v9.925c0,0.582-0.478,1.06-1.062,1.06c-0.58,0-1.058-0.478-1.058-1.06v-9.925
			c0-0.582,0.478-1.059,1.058-1.059C1471.529,503.733,1472.007,504.21,1472.007,504.792"/>
		<path fill="#58595B" d="M1421.036,489.821h9.924c0.583,0,1.062-0.477,1.062-1.06c0-0.582-0.479-1.058-1.062-1.058h-9.924
			c-0.583,0-1.06,0.476-1.06,1.058C1419.979,489.346,1420.454,489.821,1421.036,489.821"/>
		<path fill="#58595B" d="M1427.059,483.801v9.925c0,0.582-0.478,1.06-1.061,1.06c-0.58,0-1.059-0.478-1.059-1.06v-9.925
			c0-0.582,0.479-1.059,1.059-1.059C1426.581,482.742,1427.059,483.219,1427.059,483.801"/>
	</g>
	<g>
		<path fill="#58595B" d="M2615.817,601.506h45.121c2.648,0,4.814-2.168,4.814-4.814c0-2.648-2.166-4.812-4.814-4.812h-45.121
			c-2.646,0-4.812,2.164-4.812,4.812C2611.004,599.338,2613.171,601.506,2615.817,601.506"/>
		<path fill="#58595B" d="M2419.321,512.549h45.123c2.645,0,4.812-2.168,4.812-4.814c0-2.648-2.168-4.812-4.812-4.812h-45.123
			c-2.647,0-4.815,2.164-4.815,4.812C2414.506,510.381,2416.674,512.549,2419.321,512.549"/>
		<path fill="#58595B" d="M2592.864,573.292h45.121c2.647,0,4.813-2.164,4.813-4.812c0-2.646-2.166-4.814-4.813-4.814h-45.121
			c-2.647,0-4.813,2.168-4.813,4.814C2588.051,571.127,2590.217,573.292,2592.864,573.292"/>
		<path fill="#58595B" d="M2419.321,615.1h45.123c2.645,0,4.812-2.17,4.812-4.816s-2.168-4.812-4.812-4.812h-45.123
			c-2.647,0-4.815,2.166-4.815,4.812S2416.674,615.1,2419.321,615.1"/>
		<path fill="#58595B" d="M2472.099,654.344h45.122c2.647,0,4.812-2.164,4.812-4.812c0-2.646-2.165-4.814-4.812-4.814h-45.122
			c-2.647,0-4.812,2.168-4.812,4.814C2467.286,652.18,2469.45,654.344,2472.099,654.344"/>
		<path fill="#58595B" d="M2414.506,542.057L2414.506,542.057c2.647,0,4.812-2.168,4.812-4.812c0-2.647-2.164-4.815-4.812-4.815
			s-4.812,2.168-4.812,4.815C2409.694,539.889,2411.858,542.057,2414.506,542.057"/>
		<path fill="#58595B" d="M2596.655,528.237L2596.655,528.237c2.646,0,4.812-2.168,4.812-4.812c0-2.646-2.164-4.814-4.812-4.814
			c-2.648,0-4.812,2.168-4.812,4.814C2591.843,526.069,2594.007,528.237,2596.655,528.237"/>
		<path fill="#58595B" d="M2540.997,619.915L2540.997,619.915c2.647,0,4.812-2.168,4.812-4.812c0-2.646-2.164-4.814-4.812-4.814
			c-2.648,0-4.812,2.168-4.812,4.814C2536.185,617.747,2538.349,619.915,2540.997,619.915"/>
		<path fill="#58595B" d="M2444.694,585.03L2444.694,585.03c1.545,0,2.812-1.27,2.812-2.812c0-1.551-1.268-2.812-2.812-2.812
			c-1.551,0-2.813,1.264-2.813,2.812C2441.881,583.762,2443.145,585.03,2444.694,585.03"/>
		<path fill="#58595B" d="M2526.217,495.56L2526.217,495.56c1.546,0,2.812-1.268,2.812-2.812c0-1.55-1.268-2.812-2.812-2.812
			c-1.55,0-2.812,1.264-2.812,2.812C2523.403,494.292,2524.667,495.56,2526.217,495.56"/>
		<path fill="#58595B" d="M2415.228,470.104h24.086c1.41,0,2.568-1.152,2.568-2.566c0-1.413-1.158-2.571-2.568-2.571h-24.086
			c-1.418,0-2.57,1.158-2.57,2.571C2412.656,468.95,2413.81,470.104,2415.228,470.104"/>
		<path fill="#58595B" d="M2429.84,455.491v24.087c0,1.413-1.157,2.57-2.571,2.57s-2.569-1.157-2.569-2.57v-24.087
			c0-1.414,1.155-2.567,2.569-2.567S2429.84,454.077,2429.84,455.491"/>
		<path fill="#58595B" d="M2607.1,636.348h9.925c0.582,0,1.06-0.477,1.06-1.059s-0.478-1.059-1.06-1.059h-9.925
			c-0.582,0-1.058,0.477-1.058,1.059S2606.518,636.348,2607.1,636.348"/>
		<path fill="#58595B" d="M2613.12,630.327v9.926c0,0.582-0.477,1.057-1.06,1.057c-0.582,0-1.058-0.475-1.058-1.057v-9.926
			c0-0.582,0.476-1.059,1.058-1.059C2612.645,629.268,2613.12,629.745,2613.12,630.327"/>
		<path fill="#58595B" d="M2643.858,516.445h9.925c0.582,0,1.061-0.477,1.061-1.06c0-0.582-0.479-1.058-1.061-1.058h-9.925
			c-0.582,0-1.059,0.476-1.059,1.058C2642.8,515.97,2643.276,516.445,2643.858,516.445"/>
		<path fill="#58595B" d="M2649.88,510.425v9.925c0,0.582-0.479,1.06-1.061,1.06c-0.58,0-1.059-0.478-1.059-1.06v-9.925
			c0-0.582,0.479-1.059,1.059-1.059C2649.401,509.366,2649.88,509.843,2649.88,510.425"/>
		<g>
			<path fill="#58595B" d="M2502.44,556.551h39.191c2.295,0,4.178-1.877,4.178-4.178c0-2.298-1.883-4.183-4.178-4.183h-39.191
				c-2.306,0-4.184,1.885-4.184,4.183C2498.257,554.674,2500.135,556.551,2502.44,556.551"/>
			<path fill="#58595B" d="M2526.217,532.776v39.189c0,2.301-1.884,4.184-4.183,4.184c-2.301,0-4.185-1.883-4.185-4.184v-39.189
				c0-2.302,1.884-4.179,4.185-4.179C2524.333,528.599,2526.217,530.476,2526.217,532.776"/>
		</g>
		<path fill="#58595B" d="M2580.858,464.445h9.925c0.582,0,1.061-0.477,1.061-1.06c0-0.582-0.479-1.058-1.061-1.058h-9.925
			c-0.582,0-1.059,0.476-1.059,1.058C2579.8,463.97,2580.276,464.445,2580.858,464.445"/>
		<path fill="#58595B" d="M2586.88,458.425v9.925c0,0.582-0.479,1.06-1.061,1.06c-0.58,0-1.059-0.478-1.059-1.06v-9.925
			c0-0.582,0.479-1.059,1.059-1.059C2586.401,457.366,2586.88,457.843,2586.88,458.425"/>
		<path fill="#58595B" d="M2350.198,652.215h23.041c1.353,0,2.463-1.104,2.463-2.457c0-1.352-1.11-2.457-2.463-2.457h-23.041
			c-1.353,0-2.457,1.105-2.457,2.457C2347.741,651.112,2348.847,652.215,2350.198,652.215"/>
		<path fill="#58595B" d="M2364.181,638.239v23.041c0,1.352-1.108,2.457-2.462,2.457c-1.347,0-2.456-1.105-2.456-2.457v-23.041
			c0-1.354,1.109-2.459,2.456-2.459C2363.071,635.78,2364.181,636.887,2364.181,638.239"/>
		<path fill="#58595B" d="M2363.119,460.863h9.925c0.582,0,1.061-0.477,1.061-1.06c0-0.582-0.479-1.058-1.061-1.058h-9.925
			c-0.583,0-1.06,0.476-1.06,1.058C2362.061,460.388,2362.536,460.863,2363.119,460.863"/>
		<path fill="#58595B" d="M2369.142,454.843v9.925c0,0.582-0.479,1.06-1.061,1.06c-0.58,0-1.059-0.478-1.059-1.06v-9.925
			c0-0.582,0.479-1.059,1.059-1.059C2368.663,453.784,2369.142,454.261,2369.142,454.843"/>
		<path fill="#58595B" d="M2318.171,439.872h9.924c0.583,0,1.062-0.476,1.062-1.059c0-0.582-0.479-1.059-1.062-1.059h-9.924
			c-0.582,0-1.059,0.477-1.059,1.059C2317.112,439.396,2317.589,439.872,2318.171,439.872"/>
		<path fill="#58595B" d="M2324.192,433.852v9.926c0,0.582-0.478,1.059-1.061,1.059c-0.58,0-1.058-0.477-1.058-1.059v-9.926
			c0-0.582,0.478-1.059,1.058-1.059C2323.716,432.793,2324.192,433.27,2324.192,433.852"/>
	</g>
	<g>
		<path fill="#58595B" d="M2563.847,768.604h45.121c2.647,0,4.813,2.168,4.813,4.816c0,2.646-2.166,4.812-4.813,4.812h-45.121
			c-2.646,0-4.812-2.164-4.812-4.812C2559.033,770.772,2561.199,768.604,2563.847,768.604"/>
		<path fill="#58595B" d="M2367.351,857.563h45.122c2.646,0,4.812,2.168,4.812,4.814c0,2.648-2.168,4.812-4.812,4.812h-45.122
			c-2.646,0-4.814-2.164-4.814-4.812C2362.535,859.731,2364.703,857.563,2367.351,857.563"/>
		<path fill="#58595B" d="M2540.894,796.821h45.12c2.648,0,4.814,2.164,4.814,4.811c0,2.648-2.166,4.816-4.814,4.816h-45.12
			c-2.646,0-4.812-2.168-4.812-4.816C2536.08,798.985,2538.246,796.821,2540.894,796.821"/>
		<path fill="#58595B" d="M2367.351,755.012h45.122c2.646,0,4.812,2.168,4.812,4.816c0,2.646-2.168,4.811-4.812,4.811h-45.122
			c-2.646,0-4.814-2.164-4.814-4.811C2362.536,757.18,2364.703,755.012,2367.351,755.012"/>
		<path fill="#58595B" d="M2420.127,715.768h45.123c2.646,0,4.812,2.164,4.812,4.812c0,2.646-2.165,4.814-4.812,4.814h-45.123
			c-2.647,0-4.812-2.168-4.812-4.814C2415.315,717.932,2417.479,715.768,2420.127,715.768"/>
		<path fill="#58595B" d="M2362.535,828.055L2362.535,828.055c2.646,0,4.812,2.168,4.812,4.812c0,2.646-2.164,4.814-4.812,4.814
			c-2.648,0-4.812-2.168-4.812-4.814C2357.723,830.223,2359.887,828.055,2362.535,828.055"/>
		<path fill="#58595B" d="M2489.026,750.198L2489.026,750.198c2.647,0,4.812,2.168,4.812,4.811c0,2.648-2.164,4.816-4.812,4.816
			s-4.812-2.168-4.812-4.816C2484.214,752.366,2486.378,750.198,2489.026,750.198"/>
		<path fill="#58595B" d="M2392.723,785.083L2392.723,785.083c1.545,0,2.812,1.268,2.812,2.811c0,1.551-1.269,2.812-2.812,2.812
			c-1.549,0-2.812-1.262-2.812-2.812C2389.91,786.35,2391.174,785.083,2392.723,785.083"/>
		<path fill="#58595B" d="M2555.129,733.764h9.924c0.583,0,1.06,0.477,1.06,1.059s-0.477,1.059-1.06,1.059h-9.924
			c-0.582,0-1.059-0.477-1.059-1.059S2554.547,733.764,2555.129,733.764"/>
		<path fill="#58595B" d="M2561.149,739.786v-9.926c0-0.582-0.476-1.059-1.059-1.059c-0.582,0-1.058,0.477-1.058,1.059v9.926
			c0,0.582,0.476,1.057,1.058,1.057C2560.674,740.842,2561.149,740.368,2561.149,739.786"/>
		<g>
			<path fill="#58595B" d="M2450.469,813.559h39.191c2.295,0,4.178,1.879,4.178,4.18c0,2.299-1.883,4.184-4.178,4.184h-39.191
				c-2.305,0-4.183-1.885-4.183-4.184C2446.286,815.438,2448.164,813.559,2450.469,813.559"/>
			<path fill="#58595B" d="M2474.246,837.334v-39.189c0-2.301-1.884-4.184-4.185-4.184s-4.184,1.883-4.184,4.184v39.189
				c0,2.301,1.883,4.178,4.184,4.178S2474.246,839.635,2474.246,837.334"/>
		</g>
		<path fill="#58595B" d="M2298.228,717.897h23.04c1.354,0,2.464,1.104,2.464,2.457c0,1.352-1.109,2.455-2.464,2.455h-23.04
			c-1.353,0-2.458-1.104-2.458-2.455C2295.77,719,2296.875,717.897,2298.228,717.897"/>
		<path fill="#58595B" d="M2312.209,731.874v-23.041c0-1.352-1.109-2.459-2.461-2.459c-1.349,0-2.457,1.107-2.457,2.459v23.041
			c0,1.352,1.108,2.457,2.457,2.457C2311.1,734.331,2312.209,733.225,2312.209,731.874"/>
	</g>
	<g>
		<path fill="#58595B" d="M1490.01,487.557h-45.121c-2.646,0-4.814-2.168-4.814-4.815c0-2.648,2.168-4.812,4.814-4.812h45.121
			c2.646,0,4.814,2.164,4.814,4.812C1494.824,485.389,1492.658,487.557,1490.01,487.557"/>
		<path fill="#58595B" d="M1686.506,398.598h-45.123c-2.645,0-4.812-2.168-4.812-4.813c0-2.648,2.168-4.813,4.812-4.813h45.123
			c2.648,0,4.816,2.165,4.816,4.813C1691.322,396.43,1689.154,398.598,1686.506,398.598"/>
		<path fill="#58595B" d="M1512.963,459.34h-45.12c-2.647,0-4.813-2.164-4.813-4.812c0-2.646,2.166-4.814,4.813-4.814h45.121
			c2.647,0,4.813,2.168,4.813,4.814C1517.777,457.176,1515.611,459.34,1512.963,459.34"/>
		<path fill="#58595B" d="M1686.506,501.148h-45.123c-2.645,0-4.812-2.168-4.812-4.816c0-2.646,2.168-4.812,4.812-4.812h45.123
			c2.648,0,4.816,2.166,4.816,4.812C1691.322,498.98,1689.154,501.148,1686.506,501.148"/>
		<path fill="#58595B" d="M1633.73,540.393h-45.123c-2.648,0-4.812-2.164-4.812-4.812c0-2.646,2.165-4.814,4.812-4.814h45.123
			c2.646,0,4.812,2.168,4.812,4.814C1638.542,538.229,1636.378,540.393,1633.73,540.393"/>
		<path fill="#58595B" d="M1691.322,428.105L1691.322,428.105c-2.648,0-4.812-2.168-4.812-4.812c0-2.646,2.164-4.814,4.812-4.814
			c2.647,0,4.812,2.169,4.812,4.814C1696.134,425.938,1693.97,428.105,1691.322,428.105"/>
		<path fill="#58595B" d="M1509.173,414.287L1509.173,414.287c-2.647,0-4.812-2.168-4.812-4.812c0-2.647,2.164-4.815,4.812-4.815
			s4.812,2.168,4.812,4.815C1513.984,412.119,1511.82,414.287,1509.173,414.287"/>
		<path fill="#58595B" d="M1564.831,505.963L1564.831,505.963c-2.647,0-4.812-2.168-4.812-4.812c0-2.646,2.164-4.814,4.812-4.814
			s4.812,2.168,4.812,4.814C1569.643,503.795,1567.479,505.963,1564.831,505.963"/>
		<path fill="#58595B" d="M1661.134,471.078L1661.134,471.078c-1.545,0-2.812-1.269-2.812-2.812c0-1.549,1.267-2.812,2.812-2.812
			c1.55,0,2.813,1.264,2.813,2.812C1663.947,469.811,1662.684,471.078,1661.134,471.078"/>
		<path fill="#58595B" d="M1579.611,381.609L1579.611,381.609c-1.545,0-2.812-1.269-2.812-2.812c0-1.55,1.268-2.812,2.812-2.812
			c1.549,0,2.812,1.263,2.812,2.812C1582.424,380.341,1581.161,381.609,1579.611,381.609"/>
		<path fill="#58595B" d="M1690.602,356.153h-24.088c-1.41,0-2.566-1.153-2.566-2.567c0-1.413,1.156-2.571,2.566-2.571h24.088
			c1.416,0,2.57,1.158,2.57,2.571C1693.172,355,1692.018,356.153,1690.602,356.153"/>
		<path fill="#58595B" d="M1675.988,341.541v24.087c0,1.413,1.156,2.57,2.57,2.57s2.571-1.157,2.571-2.57v-24.087
			c0-1.414-1.157-2.567-2.571-2.567C1677.146,338.973,1675.988,340.126,1675.988,341.541"/>
		<path fill="#58595B" d="M1498.729,522.396h-9.925c-0.583,0-1.059-0.478-1.059-1.06s0.476-1.059,1.059-1.059h9.925
			c0.582,0,1.059,0.477,1.059,1.059S1499.311,522.396,1498.729,522.396"/>
		<path fill="#58595B" d="M1492.708,516.375v9.926c0,0.582,0.476,1.06,1.06,1.06c0.581,0,1.057-0.478,1.057-1.06v-9.926
			c0-0.582-0.476-1.057-1.057-1.057C1493.184,515.318,1492.708,515.793,1492.708,516.375"/>
		<path fill="#58595B" d="M1461.97,402.494h-9.924c-0.583,0-1.062-0.476-1.062-1.06c0-0.582,0.479-1.057,1.062-1.057h9.924
			c0.583,0,1.06,0.475,1.06,1.057C1463.029,402.02,1462.553,402.494,1461.97,402.494"/>
		<path fill="#58595B" d="M1455.947,396.475v9.925c0,0.582,0.479,1.059,1.062,1.059c0.58,0,1.058-0.477,1.058-1.059v-9.925
			c0-0.582-0.478-1.059-1.058-1.059C1456.426,395.416,1455.947,395.893,1455.947,396.475"/>
		<g>
			<path fill="#58595B" d="M1603.388,442.602h-39.19c-2.295,0-4.178-1.877-4.178-4.178c0-2.299,1.883-4.184,4.178-4.184h39.19
				c2.306,0,4.183,1.885,4.183,4.184C1607.57,440.725,1605.693,442.602,1603.388,442.602"/>
			<path fill="#58595B" d="M1579.611,418.826v39.188c0,2.302,1.883,4.185,4.183,4.185c2.301,0,4.185-1.883,4.185-4.185v-39.188
				c0-2.301-1.884-4.178-4.185-4.178C1581.495,414.648,1579.611,416.525,1579.611,418.826"/>
		</g>
		<path fill="#58595B" d="M1524.97,350.495h-9.924c-0.583,0-1.062-0.477-1.062-1.06c0-0.582,0.479-1.058,1.062-1.058h9.924
			c0.583,0,1.06,0.476,1.06,1.058C1526.029,350.019,1525.553,350.495,1524.97,350.495"/>
		<path fill="#58595B" d="M1518.947,344.474v9.926c0,0.582,0.479,1.059,1.062,1.059c0.58,0,1.058-0.477,1.058-1.059v-9.926
			c0-0.582-0.478-1.059-1.058-1.059C1519.426,343.416,1518.947,343.892,1518.947,344.474"/>
		<path fill="#58595B" d="M1755.63,538.266h-23.041c-1.353,0-2.462-1.104-2.462-2.459c0-1.352,1.109-2.455,2.462-2.455h23.041
			c1.353,0,2.458,1.104,2.458,2.455C1758.087,537.16,1756.982,538.266,1755.63,538.266"/>
		<path fill="#58595B" d="M1741.648,524.287v23.041c0,1.352,1.109,2.459,2.461,2.459c1.348,0,2.457-1.107,2.457-2.459v-23.041
			c0-1.353-1.108-2.457-2.457-2.457C1742.757,521.83,1741.648,522.936,1741.648,524.287"/>
		<path fill="#58595B" d="M1742.709,346.913h-9.924c-0.583,0-1.062-0.477-1.062-1.06c0-0.581,0.479-1.058,1.062-1.058h9.924
			c0.583,0,1.059,0.477,1.059,1.058C1743.768,346.438,1743.292,346.913,1742.709,346.913"/>
		<path fill="#58595B" d="M1736.688,340.892v9.926c0,0.582,0.478,1.059,1.061,1.059c0.58,0,1.058-0.477,1.058-1.059v-9.926
			c0-0.582-0.478-1.059-1.058-1.059C1737.165,339.833,1736.688,340.31,1736.688,340.892"/>
		<path fill="#58595B" d="M1729.068,310.512h-9.924c-0.584,0-1.062-0.476-1.062-1.059c0-0.582,0.478-1.059,1.062-1.059h9.924
			c0.582,0,1.059,0.477,1.059,1.059C1730.127,310.037,1729.65,310.512,1729.068,310.512"/>
		<path fill="#58595B" d="M1781.635,319.901v9.925c0,0.582,0.479,1.059,1.061,1.059c0.58,0,1.059-0.477,1.059-1.059v-9.925
			c0-0.582-0.479-1.06-1.059-1.06C1782.113,318.842,1781.635,319.319,1781.635,319.901"/>
	</g>
	<g>
		<path fill="#58595B" d="M2608.6,236.546h45.121c2.647,0,4.813,2.168,4.813,4.816c0,2.647-2.166,4.812-4.813,4.812H2608.6
			c-2.646,0-4.812-2.165-4.812-4.812C2603.786,238.714,2605.952,236.546,2608.6,236.546"/>
		<path fill="#58595B" d="M2412.104,325.504h45.122c2.646,0,4.812,2.168,4.812,4.814c0,2.647-2.168,4.812-4.812,4.812h-45.122
			c-2.646,0-4.814-2.164-4.814-4.812C2407.288,327.672,2409.456,325.504,2412.104,325.504"/>
		<path fill="#58595B" d="M2585.646,264.762h45.12c2.648,0,4.814,2.164,4.814,4.812c0,2.646-2.166,4.814-4.814,4.814h-45.12
			c-2.646,0-4.812-2.168-4.812-4.814C2580.833,266.926,2582.999,264.762,2585.646,264.762"/>
		<path fill="#58595B" d="M2412.104,222.953h45.122c2.646,0,4.812,2.169,4.812,4.816s-2.168,4.812-4.812,4.812h-45.122
			c-2.646,0-4.814-2.165-4.814-4.812S2409.456,222.953,2412.104,222.953"/>
		<path fill="#58595B" d="M2464.88,183.709h45.123c2.646,0,4.812,2.164,4.812,4.812c0,2.647-2.166,4.815-4.812,4.815h-45.123
			c-2.646,0-4.812-2.168-4.812-4.815C2460.067,185.873,2462.233,183.709,2464.88,183.709"/>
		<path fill="#58595B" d="M2407.288,295.997L2407.288,295.997c2.646,0,4.812,2.168,4.812,4.812c0,2.646-2.164,4.814-4.812,4.814
			c-2.648,0-4.812-2.168-4.812-4.814C2402.476,298.165,2404.64,295.997,2407.288,295.997"/>
		<path fill="#58595B" d="M2591.883,323.872L2591.883,323.872c2.648,0,4.812,2.168,4.812,4.812c0,2.648-2.164,4.816-4.812,4.816
			c-2.647,0-4.812-2.168-4.812-4.816C2587.069,326.04,2589.233,323.872,2591.883,323.872"/>
		<path fill="#58595B" d="M2482.629,368.793L2482.629,368.793c2.647,0,4.812,2.168,4.812,4.812c0,2.647-2.163,4.815-4.812,4.815
			s-4.812-2.168-4.812-4.815C2477.817,370.961,2479.98,368.793,2482.629,368.793"/>
		<path fill="#58595B" d="M2533.778,218.139L2533.778,218.139c2.647,0,4.812,2.168,4.812,4.812c0,2.647-2.164,4.815-4.812,4.815
			s-4.812-2.168-4.812-4.815C2528.967,220.307,2531.131,218.139,2533.778,218.139"/>
		<path fill="#58595B" d="M2437.476,253.024L2437.476,253.024c1.545,0,2.812,1.268,2.812,2.812c0,1.549-1.269,2.812-2.812,2.812
			c-1.549,0-2.812-1.264-2.812-2.812C2434.663,254.292,2435.927,253.024,2437.476,253.024"/>
		<path fill="#58595B" d="M2518.999,342.493L2518.999,342.493c1.545,0,2.812,1.268,2.812,2.812c0,1.552-1.268,2.812-2.812,2.812
			c-1.55,0-2.813-1.262-2.813-2.812C2516.186,343.76,2517.449,342.493,2518.999,342.493"/>
		<path fill="#58595B" d="M2408.009,367.95h24.087c1.41,0,2.567,1.151,2.567,2.565s-1.157,2.572-2.567,2.572h-24.087
			c-1.417,0-2.57-1.158-2.57-2.572S2406.592,367.95,2408.009,367.95"/>
		<path fill="#58595B" d="M2422.622,382.561v-24.086c0-1.414-1.158-2.569-2.571-2.569c-1.414,0-2.571,1.155-2.571,2.569v24.086
			c0,1.414,1.157,2.568,2.571,2.568C2421.464,385.129,2422.622,383.975,2422.622,382.561"/>
		<path fill="#58595B" d="M2599.882,201.705h9.924c0.583,0,1.059,0.477,1.059,1.059s-0.476,1.059-1.059,1.059h-9.924
			c-0.582,0-1.059-0.477-1.059-1.059S2599.3,201.705,2599.882,201.705"/>
		<path fill="#58595B" d="M2605.901,207.727v-9.926c0-0.582-0.476-1.058-1.059-1.058c-0.582,0-1.058,0.476-1.058,1.058v9.926
			c0,0.582,0.476,1.058,1.058,1.058C2605.427,208.784,2605.901,208.309,2605.901,207.727"/>
		<path fill="#58595B" d="M2636.64,321.608h9.924c0.583,0,1.062,0.475,1.062,1.059c0,0.582-0.479,1.057-1.062,1.057h-9.924
			c-0.582,0-1.059-0.475-1.059-1.057C2635.581,322.083,2636.058,321.608,2636.64,321.608"/>
		<path fill="#58595B" d="M2642.662,327.627v-9.924c0-0.582-0.479-1.06-1.062-1.06c-0.58,0-1.058,0.478-1.058,1.06v9.924
			c0,0.582,0.478,1.059,1.058,1.059C2642.185,328.686,2642.662,328.209,2642.662,327.627"/>
		<g>
			<path fill="#58595B" d="M2495.222,281.5h39.191c2.295,0,4.178,1.877,4.178,4.178c0,2.299-1.883,4.184-4.178,4.184h-39.191
				c-2.305,0-4.183-1.885-4.183-4.184C2491.039,283.377,2492.917,281.5,2495.222,281.5"/>
			<path fill="#58595B" d="M2518.999,305.276v-39.189c0-2.301-1.884-4.184-4.184-4.184c-2.302,0-4.185,1.883-4.185,4.184v39.189
				c0,2.301,1.883,4.178,4.185,4.178C2517.115,309.454,2518.999,307.577,2518.999,305.276"/>
		</g>
		<path fill="#58595B" d="M2573.64,373.608h9.924c0.583,0,1.062,0.475,1.062,1.059c0,0.582-0.479,1.057-1.062,1.057h-9.924
			c-0.582,0-1.059-0.475-1.059-1.057C2572.581,374.083,2573.058,373.608,2573.64,373.608"/>
		<path fill="#58595B" d="M2579.662,379.627v-9.924c0-0.582-0.479-1.06-1.062-1.06c-0.58,0-1.058,0.478-1.058,1.06v9.924
			c0,0.582,0.478,1.059,1.058,1.059C2579.185,380.686,2579.662,380.209,2579.662,379.627"/>
		<path fill="#58595B" d="M2342.981,185.837h23.039c1.354,0,2.463,1.104,2.463,2.458c0,1.352-1.108,2.456-2.463,2.456h-23.039
			c-1.354,0-2.459-1.104-2.459-2.456C2340.522,186.941,2341.628,185.837,2342.981,185.837"/>
		<path fill="#58595B" d="M2356.962,199.814v-23.041c0-1.352-1.109-2.458-2.461-2.458c-1.348,0-2.457,1.106-2.457,2.458v23.041
			c0,1.352,1.109,2.458,2.457,2.458C2355.853,202.272,2356.962,201.166,2356.962,199.814"/>
		<path fill="#58595B" d="M2355.901,377.19h9.924c0.582,0,1.061,0.475,1.061,1.059c0,0.582-0.479,1.057-1.061,1.057h-9.924
			c-0.584,0-1.06-0.475-1.06-1.057C2354.843,377.665,2355.317,377.19,2355.901,377.19"/>
		<path fill="#58595B" d="M2361.923,383.209v-9.924c0-0.582-0.479-1.06-1.061-1.06c-0.58,0-1.059,0.478-1.059,1.06v9.924
			c0,0.582,0.479,1.059,1.059,1.059C2361.444,384.268,2361.923,383.792,2361.923,383.209"/>
		<path fill="#58595B" d="M2310.952,398.18h9.925c0.583,0,1.061,0.478,1.061,1.06s-0.478,1.059-1.061,1.059h-9.925
			c-0.582,0-1.06-0.477-1.06-1.059S2310.37,398.18,2310.952,398.18"/>
		<path fill="#58595B" d="M2316.976,404.201v-9.925c0-0.582-0.479-1.06-1.061-1.06c-0.58,0-1.059,0.478-1.059,1.06v9.925
			c0,0.582,0.479,1.059,1.059,1.059C2316.497,405.26,2316.976,404.783,2316.976,404.201"/>
	</g>
</g>
<g>
	<path fill="#58595B" d="M370,1002.93L370,1002.93c2.648,0,4.812,2.168,4.812,4.812c0,2.646-2.164,4.814-4.812,4.814
		s-4.812-2.168-4.812-4.814C365.188,1005.098,367.352,1002.93,370,1002.93"/>
	<path fill="#58595B" d="M49.286,1060.374L49.286,1060.374c2.648,0,4.812,2.168,4.812,4.812c0,2.646-2.164,4.814-4.812,4.814
		s-4.812-2.168-4.812-4.814C44.474,1062.542,46.638,1060.374,49.286,1060.374"/>
	<path fill="#58595B" d="M297.116,1021.551L297.116,1021.551c1.545,0,2.812,1.27,2.812,2.812c0,1.551-1.268,2.812-2.812,2.812
		c-1.55,0-2.813-1.264-2.813-2.812C294.303,1022.819,295.566,1021.551,297.116,1021.551"/>
	<path fill="#58595B" d="M259.017,1045.551L259.017,1045.551c1.545,0,2.812,1.27,2.812,2.812c0,1.551-1.268,2.812-2.812,2.812
		c-1.55,0-2.813-1.264-2.813-2.812C256.204,1046.819,257.467,1045.551,259.017,1045.551"/>
	<path fill="#58595B" d="M186.126,1047.008h24.087c1.41,0,2.567,1.152,2.567,2.566s-1.157,2.572-2.567,2.572h-24.087
		c-1.417,0-2.57-1.158-2.57-2.572S184.709,1047.008,186.126,1047.008"/>
	<path fill="#58595B" d="M200.739,1061.62v-24.086c0-1.414-1.158-2.57-2.571-2.57c-1.414,0-2.571,1.156-2.571,2.57v24.086
		c0,1.414,1.157,2.568,2.571,2.568C199.581,1064.188,200.739,1063.034,200.739,1061.62"/>
	<path fill="#58595B" d="M414.757,1000.667h9.924c0.583,0,1.062,0.475,1.062,1.059c0,0.582-0.479,1.059-1.062,1.059h-9.924
		c-0.582,0-1.059-0.477-1.059-1.059C413.698,1001.141,414.175,1000.667,414.757,1000.667"/>
	<path fill="#58595B" d="M420.779,1006.688v-9.926c0-0.582-0.479-1.059-1.062-1.059c-0.58,0-1.058,0.477-1.058,1.059v9.926
		c0,0.58,0.478,1.059,1.058,1.059C420.302,1007.745,420.779,1007.268,420.779,1006.688"/>
	<path fill="#58595B" d="M351.757,1052.667h9.924c0.583,0,1.061,0.475,1.061,1.059c0,0.582-0.478,1.059-1.061,1.059h-9.924
		c-0.582,0-1.059-0.477-1.059-1.059C350.698,1053.141,351.175,1052.667,351.757,1052.667"/>
	<path fill="#58595B" d="M357.779,1058.688v-9.926c0-0.582-0.478-1.059-1.061-1.059c-0.58,0-1.058,0.477-1.058,1.059v9.926
		c0,0.582,0.478,1.059,1.058,1.059C357.302,1059.745,357.779,1059.27,357.779,1058.688"/>
	<path fill="#58595B" d="M134.019,1046.249h9.924c0.582,0,1.061,0.475,1.061,1.059c0,0.582-0.479,1.059-1.061,1.059h-9.924
		c-0.583,0-1.059-0.477-1.059-1.059C132.96,1046.723,133.436,1046.249,134.019,1046.249"/>
	<path fill="#58595B" d="M140.04,1052.27v-9.926c0-0.582-0.478-1.059-1.061-1.059c-0.58,0-1.058,0.477-1.058,1.059v9.926
		c0,0.582,0.478,1.059,1.058,1.059C139.562,1053.327,140.04,1052.85,140.04,1052.27"/>
	<path fill="#58595B" d="M89.069,1077.239h9.925c0.583,0,1.061,0.477,1.061,1.059s-0.478,1.059-1.061,1.059h-9.925
		c-0.582,0-1.059-0.477-1.059-1.059C88.011,1077.715,88.487,1077.239,89.069,1077.239"/>
	<path fill="#58595B" d="M95.093,1083.26v-9.926c0-0.582-0.479-1.059-1.061-1.059c-0.58,0-1.059,0.477-1.059,1.059v9.926
		c0,0.582,0.479,1.059,1.059,1.059C94.614,1084.319,95.093,1083.842,95.093,1083.26"/>
</g>
<g>
	<g>
		<path fill="#58595B" d="M65.741,294.091L65.741,294.091c-2.648,0-4.812-2.168-4.812-4.812c0-2.647,2.163-4.815,4.812-4.815
			c2.647,0,4.812,2.168,4.812,4.815C70.555,291.923,68.391,294.091,65.741,294.091"/>
		<path fill="#58595B" d="M291.147,254.132L291.147,254.132c-2.647,0-4.812-2.168-4.812-4.812c0-2.647,2.164-4.815,4.812-4.815
			c2.648,0,4.812,2.168,4.812,4.815C295.961,251.964,293.797,254.132,291.147,254.132"/>
		<path fill="#58595B" d="M138.625,275.47L138.625,275.47c-1.545,0-2.812-1.268-2.812-2.812c0-1.55,1.269-2.812,2.812-2.812
			c1.55,0,2.812,1.263,2.812,2.812C141.438,274.202,140.175,275.47,138.625,275.47"/>
		<path fill="#58595B" d="M176.725,251.47L176.725,251.47c-1.545,0-2.812-1.268-2.812-2.812c0-1.55,1.268-2.812,2.812-2.812
			c1.549,0,2.812,1.263,2.812,2.812C179.538,250.202,178.273,251.47,176.725,251.47"/>
		<path fill="#58595B" d="M249.615,250.014h-24.088c-1.409,0-2.566-1.153-2.566-2.567c0-1.413,1.157-2.571,2.566-2.571h24.088
			c1.417,0,2.57,1.158,2.57,2.571C252.186,248.86,251.032,250.014,249.615,250.014"/>
		<path fill="#58595B" d="M235.002,235.401v24.087c0,1.413,1.158,2.57,2.571,2.57s2.571-1.157,2.571-2.57v-24.087
			c0-1.414-1.158-2.567-2.571-2.567S235.002,233.987,235.002,235.401"/>
		<path fill="#58595B" d="M20.984,296.355h-9.924c-0.584,0-1.062-0.476-1.062-1.059c0-0.582,0.478-1.058,1.062-1.058h9.924
			c0.582,0,1.059,0.476,1.059,1.058C22.043,295.88,21.566,296.355,20.984,296.355"/>
		<path fill="#58595B" d="M14.962,290.335v9.925c0,0.582,0.478,1.059,1.062,1.059c0.58,0,1.058-0.477,1.058-1.059v-9.925
			c0-0.582-0.478-1.059-1.058-1.059C15.439,289.276,14.962,289.753,14.962,290.335"/>
		<path fill="#58595B" d="M83.984,244.355h-9.924c-0.584,0-1.062-0.476-1.062-1.059c0-0.582,0.478-1.058,1.062-1.058h9.924
			c0.582,0,1.059,0.476,1.059,1.058C85.043,243.88,84.566,244.355,83.984,244.355"/>
		<path fill="#58595B" d="M77.962,238.335v9.925c0,0.582,0.478,1.059,1.062,1.059c0.58,0,1.058-0.477,1.058-1.059v-9.925
			c0-0.582-0.478-1.059-1.058-1.059C78.439,237.276,77.962,237.753,77.962,238.335"/>
		<path fill="#58595B" d="M126.5,261.081h-9.924c-0.582,0-1.061-0.476-1.061-1.059c0-0.582,0.479-1.058,1.061-1.058h9.924
			c0.583,0,1.059,0.476,1.059,1.058C127.559,260.605,127.083,261.081,126.5,261.081"/>
		<path fill="#58595B" d="M120.479,255.061v9.925c0,0.582,0.479,1.059,1.062,1.059c0.58,0,1.058-0.477,1.058-1.059v-9.925
			c0-0.582-0.478-1.059-1.058-1.059C120.956,254.002,120.479,254.479,120.479,255.061"/>
		<path fill="#58595B" d="M336.672,219.782h-9.925c-0.583,0-1.062-0.476-1.062-1.059c0-0.582,0.479-1.058,1.062-1.058h9.925
			c0.582,0,1.059,0.476,1.059,1.058C337.729,219.307,337.254,219.782,336.672,219.782"/>
		<path fill="#58595B" d="M330.647,213.762v9.925c0,0.582,0.479,1.059,1.062,1.059c0.58,0,1.059-0.477,1.059-1.059v-9.925
			c0-0.582-0.479-1.059-1.059-1.059C331.127,212.703,330.647,213.18,330.647,213.762"/>
	</g>
	<g>
		<path fill="#58595B" d="M1178,63.931L1178,63.931c2.648,0,4.812,2.168,4.812,4.812c0,2.647-2.164,4.815-4.812,4.815
			s-4.812-2.168-4.812-4.815C1173.188,66.099,1175.352,63.931,1178,63.931"/>
		<path fill="#58595B" d="M857.286,121.374L857.286,121.374c2.647,0,4.812,2.168,4.812,4.812c0,2.647-2.164,4.815-4.812,4.815
			c-2.648,0-4.812-2.168-4.812-4.815C852.474,123.542,854.638,121.374,857.286,121.374"/>
		<path fill="#58595B" d="M1105.116,82.552L1105.116,82.552c1.545,0,2.812,1.268,2.812,2.812c0,1.55-1.268,2.812-2.812,2.812
			c-1.55,0-2.813-1.263-2.813-2.812C1102.303,83.819,1103.566,82.552,1105.116,82.552"/>
		<path fill="#58595B" d="M1067.018,106.552L1067.018,106.552c1.545,0,2.812,1.268,2.812,2.812c0,1.55-1.268,2.812-2.812,2.812
			c-1.551,0-2.813-1.263-2.813-2.812C1064.203,107.819,1065.467,106.552,1067.018,106.552"/>
		<path fill="#58595B" d="M994.126,108.008h24.087c1.41,0,2.567,1.153,2.567,2.567c0,1.413-1.157,2.571-2.567,2.571h-24.087
			c-1.417,0-2.57-1.158-2.57-2.571C991.556,109.161,992.709,108.008,994.126,108.008"/>
		<path fill="#58595B" d="M1008.739,122.62V98.533c0-1.413-1.158-2.57-2.571-2.57c-1.414,0-2.571,1.157-2.571,2.57v24.087
			c0,1.414,1.157,2.567,2.571,2.567C1007.581,125.188,1008.739,124.034,1008.739,122.62"/>
		<path fill="#58595B" d="M1222.757,61.666h9.924c0.583,0,1.062,0.476,1.062,1.059c0,0.582-0.479,1.058-1.062,1.058h-9.924
			c-0.582,0-1.059-0.476-1.059-1.058C1221.698,62.142,1222.175,61.666,1222.757,61.666"/>
		<path fill="#58595B" d="M1228.779,67.687v-9.925c0-0.582-0.479-1.059-1.062-1.059c-0.58,0-1.058,0.477-1.058,1.059v9.925
			c0,0.582,0.478,1.059,1.058,1.059C1228.302,68.745,1228.779,68.269,1228.779,67.687"/>
		<path fill="#58595B" d="M1139.757,73.666h9.924c0.583,0,1.062,0.476,1.062,1.059c0,0.582-0.479,1.058-1.062,1.058h-9.924
			c-0.582,0-1.059-0.476-1.059-1.058C1138.698,74.142,1139.175,73.666,1139.757,73.666"/>
		<path fill="#58595B" d="M1145.779,79.687v-9.925c0-0.582-0.479-1.059-1.062-1.059c-0.58,0-1.058,0.477-1.058,1.059v9.925
			c0,0.582,0.478,1.059,1.058,1.059C1145.302,80.745,1145.779,80.269,1145.779,79.687"/>
		<path fill="#58595B" d="M942.02,107.248h9.924c0.582,0,1.061,0.476,1.061,1.059c0,0.582-0.479,1.058-1.061,1.058h-9.924
			c-0.584,0-1.06-0.476-1.06-1.058C940.96,107.724,941.436,107.248,942.02,107.248"/>
		<path fill="#58595B" d="M948.04,113.269v-9.925c0-0.582-0.478-1.059-1.062-1.059c-0.58,0-1.058,0.477-1.058,1.059v9.925
			c0,0.582,0.479,1.059,1.058,1.059C947.562,114.327,948.04,113.851,948.04,113.269"/>
		<path fill="#58595B" d="M897.069,138.239h9.925c0.583,0,1.061,0.476,1.061,1.059c0,0.582-0.478,1.058-1.061,1.058h-9.925
			c-0.582,0-1.06-0.476-1.06-1.058C896.011,138.715,896.487,138.239,897.069,138.239"/>
		<path fill="#58595B" d="M903.093,144.26v-9.925c0-0.582-0.479-1.059-1.061-1.059c-0.58,0-1.06,0.477-1.06,1.059v9.925
			c0,0.582,0.479,1.059,1.06,1.059C902.614,145.318,903.093,144.842,903.093,144.26"/>
	</g>
	<g>
		<polygon fill="#4F4F4F" points="1280,84.269 0,334.269 0,355.458 1280,355.458 		"/>
	</g>
</g>
</svg>
