<?xml version="1.0" encoding="UTF-8"?>
<svg width="150px" height="150px" viewBox="0 0 150 150" version="1.1" xmlns="http://www.w3.org/2000/svg" xmlns:xlink="http://www.w3.org/1999/xlink">
    <!-- Generator: Sketch 49.3 (51167) - http://www.bohemiancoding.com/sketch -->
    <title>Icons/HR/Black</title>
    <desc>Created with Sketch.</desc>
    <defs>
        <polygon id="path-1" points="0 0.265 77.653 0.265 77.653 101.7989 0 101.7989"></polygon>
    </defs>
    <g id="Icons/HR/Black" stroke="none" stroke-width="1" fill="none" fill-rule="evenodd">
        <g id="Page-1" transform="translate(36.000000, 8.000000)">
            <path d="M77.7965,133.735 L73.0585,133.735 L73.0585,114.784 C73.0585,110.865 69.8705,107.678 65.9525,107.678 L13.8375,107.678 C9.9185,107.678 6.7305,110.865 6.7305,114.784 L6.7305,133.735 L1.9935,133.735 L1.9935,114.784 C1.9935,108.253 7.3065,102.94 13.8375,102.94 L65.9525,102.94 C72.4825,102.94 77.7965,108.253 77.7965,114.784 L77.7965,133.735 Z" id="Fill-1" fill="#4F4959"></path>
            <path d="M40.0936,119.1638 C33.8376,119.1638 28.7636,114.0918 28.7636,107.8348 L28.7636,47.1908 C28.7636,40.9358 33.8376,35.8608 40.0936,35.8608 C46.3496,35.8608 51.4216,40.9358 51.4216,47.1908 L51.4216,107.8348 C51.4216,114.0918 46.3496,119.1638 40.0936,119.1638" id="Fill-3" fill="#FFFFFF"></path>
            <path d="M40.0936,38.23 C35.1526,38.23 31.1326,42.25 31.1326,47.191 L31.1326,107.835 C31.1326,112.776 35.1526,116.795 40.0936,116.795 C45.0336,116.795 49.0536,112.776 49.0536,107.835 L49.0536,47.191 C49.0536,42.25 45.0336,38.23 40.0936,38.23 M40.0936,121.533 C32.5406,121.533 26.3956,115.388 26.3956,107.835 L26.3956,47.191 C26.3956,39.638 32.5406,33.492 40.0936,33.492 C47.6466,33.492 53.7906,39.638 53.7906,47.191 L53.7906,107.835 C53.7906,115.388 47.6466,121.533 40.0936,121.533" id="Fill-5" fill="#4F4959"></path>
            <path d="M75.2842,100.1649 L75.2842,39.8249 C75.2842,19.7229 58.9292,3.3689 38.8262,3.3689 C18.7232,3.3689 2.3692,19.7229 2.3692,39.8249 L2.3692,100.1639 L3.5832,100.1639 C19.8482,100.1639 33.0912,86.9979 33.2252,70.7629 L45.3602,70.7629 C45.4942,86.9989 58.7372,100.1649 75.0012,100.1649 L75.2842,100.1649 Z" id="Fill-7" fill="#FFFFFF"></path>
            <g id="Group-11" transform="translate(0.000000, 0.735000)">
                <mask id="mask-2" fill="white">
                    <use xlink:href="#path-1"></use>
                </mask>
                <g id="Clip-10"></g>
                <path d="M38.826,5.0029 C20.03,5.0029 4.738,20.2939 4.738,39.0899 L4.738,97.0359 C19.124,96.4289 30.736,84.5379 30.857,70.0079 L30.876,67.6589 L47.709,67.6589 L47.729,70.0079 C47.846,84.2229 58.962,95.9129 72.915,96.9809 L72.915,39.0899 C72.915,20.2939 57.623,5.0029 38.826,5.0029 Z M77.653,101.7989 L75.001,101.7989 C58.285,101.7989 44.438,88.8119 43.096,72.3969 L35.489,72.3969 C34.147,88.8119 20.3,101.7979 3.583,101.7979 L0,101.7989 L0,39.0899 C0,17.6819 17.417,0.2649 38.826,0.2649 C60.235,0.2649 77.653,17.6819 77.653,39.0899 L77.653,101.7989 Z" id="Fill-9" fill="#4F4959" mask="url(#mask-2)"></path>
            </g>
            <path d="M73.5191,62.6055 C73.5191,65.6775 71.0281,68.1665 67.9581,68.1665 L67.4921,68.1665 C64.4231,68.1665 61.9341,65.6775 61.9341,62.6055 L61.9341,52.4105 C61.9341,49.3375 64.4231,46.8475 67.4921,46.8475 L67.9581,46.8475 C71.0281,46.8475 73.5191,49.3375 73.5191,52.4105 L73.5191,62.6055 Z" id="Fill-12" fill="#FFFFFF"></path>
            <path d="M67.4917,49.216 C65.7337,49.216 64.3027,50.649 64.3027,52.41 L64.3027,62.605 C64.3027,64.366 65.7337,65.798 67.4917,65.798 L67.9577,65.798 C69.7177,65.798 71.1497,64.366 71.1497,62.605 L71.1497,52.41 C71.1497,50.649 69.7177,49.216 67.9577,49.216 L67.4917,49.216 Z M67.9577,70.536 L67.4917,70.536 C63.1207,70.536 59.5647,66.978 59.5647,62.605 L59.5647,52.41 C59.5647,48.037 63.1207,44.478 67.4917,44.478 L67.9577,44.478 C72.3297,44.478 75.8877,48.037 75.8877,52.41 L75.8877,62.605 C75.8877,66.978 72.3297,70.536 67.9577,70.536 Z" id="Fill-14" fill="#4F4959"></path>
            <path d="M66.9932,41.3471 L66.9932,62.3581 C66.9932,77.9141 54.3832,90.5251 38.8262,90.5251 C23.2702,90.5251 10.6602,77.9141 10.6602,62.3581 L10.6602,41.3471" id="Fill-16" fill="#FFFFFF"></path>
            <path d="M38.826,92.8941 C21.99,92.8941 8.291,79.1961 8.291,62.3581 L8.291,41.3471 L13.029,41.3471 L13.029,62.3581 C13.029,76.5831 24.601,88.1561 38.826,88.1561 C53.051,88.1561 64.624,76.5831 64.624,62.3581 L64.624,41.3471 L69.362,41.3471 L69.362,62.3581 C69.362,79.1961 55.664,92.8941 38.826,92.8941" id="Fill-18" fill="#4F4959"></path>
            <path d="M10.6599,46.905 C7.8609,47.196 3.3049,49.534 3.3049,52.41 L3.3049,62.606 C3.3049,65.481 7.8609,67.819 10.6599,68.109 L10.6599,46.905 Z" id="Fill-20" fill="#FFFFFF"></path>
            <path d="M8.291,50.0748 C6.845,50.7848 5.674,51.7838 5.674,52.4098 L5.674,62.6058 C5.674,63.2328 6.845,64.2308 8.291,64.9398 L8.291,50.0748 Z M13.029,70.7368 L10.416,70.4648 C6.541,70.0628 0.936,67.0328 0.936,62.6058 L0.936,52.4098 C0.936,47.9838 6.541,44.9528 10.415,44.5488 L13.029,44.2768 L13.029,70.7368 Z" id="Fill-22" fill="#4F4959"></path>
            <path d="M37.3177,79.2489 L40.8487,79.2489 C43.6347,79.2489 45.8937,76.9899 45.8937,74.2039 L45.8937,73.6999" id="Fill-24" fill="#FFFFFF"></path>
            <path d="M40.849,81.6177 L37.318,81.6177 L37.318,76.8797 L40.849,76.8797 C42.324,76.8797 43.524,75.6797 43.524,74.2037 L43.524,73.6997 L48.262,73.6997 L48.262,74.2037 C48.262,78.2917 44.937,81.6177 40.849,81.6177" id="Fill-26" fill="#4F4959"></path>
            <path d="M19.5489,19.2906 C14.0779,24.4296 10.6599,31.7276 10.6599,39.8246 L10.6599,43.7156 L31.7189,43.7156 C34.7419,43.7156 37.3779,42.0946 38.8259,39.6796 C40.2749,42.0946 42.9109,43.7156 45.9329,43.7156 L66.9929,43.7156" id="Fill-28" fill="#FFFFFF"></path>
            <path d="M66.9932,46.0849 L45.9322,46.0849 C43.2502,46.0849 40.7482,45.1049 38.8262,43.3719 C36.9032,45.1049 34.4032,46.0849 31.7192,46.0849 L8.2912,46.0849 L8.2912,39.8249 C8.2912,31.4289 11.8042,23.3159 17.9272,17.5639 L21.1702,21.0179 C15.9202,25.9489 13.0282,32.6279 13.0282,39.8249 L13.0282,41.3469 L31.7192,41.3469 C33.8132,41.3469 35.7112,40.2689 36.7952,38.4609 L38.8252,35.0759 L40.8572,38.4609 C41.9422,40.2679 43.8392,41.3469 45.9322,41.3469 L66.9932,41.3469 L66.9932,46.0849 Z" id="Fill-30" fill="#4F4959"></path>
            <path d="M24.8398,62.6652 C22.3518,62.6652 19.8628,61.7182 17.9678,59.8242 L21.3178,56.4732 C23.2578,58.4142 26.4188,58.4162 28.3608,56.4742 L31.7108,59.8242 C29.8168,61.7182 27.3278,62.6652 24.8398,62.6652" id="Fill-32" fill="#4F4959"></path>
            <path d="M52.765,62.6652 C50.277,62.6652 47.788,61.7182 45.893,59.8242 L49.243,56.4732 C51.183,58.4142 54.344,58.4162 56.286,56.4742 L59.636,59.8242 C57.742,61.7182 55.253,62.6652 52.765,62.6652" id="Fill-34" fill="#4F4959"></path>
        </g>
    </g>
</svg>