<?xml version="1.0" encoding="UTF-8"?>
<svg width="90px" height="94px" viewBox="0 0 90 94" version="1.1" xmlns="http://www.w3.org/2000/svg" xmlns:xlink="http://www.w3.org/1999/xlink">
    <!-- Generator: Sketch 48.2 (47327) - http://www.bohemiancoding.com/sketch -->
    <title>Artboard 5 Copy 2</title>
    <desc>Created with Sketch.</desc>
    <defs></defs>
    <g id="Case-Studies" stroke="none" stroke-width="1" fill="none" fill-rule="evenodd">
        <g id="Artboard-5-Copy-2" fill="#72C02C" fill-rule="nonzero">
            <g id="003-raspberry-copy-2" transform="translate(9.000000, 2.000000)">
                <path d="M21.9850435,45.4003448 C24.746087,43.7896552 26.9201739,40.3339655 25.5553043,36.2451724 C25.2845217,35.432069 24.4001739,34.9898276 23.5784348,35.2598276 C22.7582609,35.5282759 22.3121739,36.4065517 22.5845217,37.2196552 C23.4563478,39.8343103 21.9521739,41.8189655 20.3994783,42.7251724 C18.8373913,43.6344828 16.3455652,43.9774138 14.457913,41.9462069 C13.8709565,41.3162069 12.8817391,41.2743103 12.2462609,41.8546552 C11.6107826,42.435 11.5685217,43.4172414 12.153913,44.0472414 C13.809913,45.8301724 15.8321739,46.5455172 17.7777391,46.5455172 C19.2975652,46.547069 20.7704348,46.1094828 21.9850435,45.4003448 Z" id="Shape"></path>
                <path d="M56.3024348,54.3894828 C55.4822609,54.657931 55.0361739,55.5362069 55.3085217,56.3493103 C56.1803478,58.9639655 54.6761739,60.9501724 53.1234783,61.8563793 C51.5613913,62.7672414 49.068,63.1086207 47.181913,61.0758621 C46.5949565,60.4458621 45.6073043,60.4039655 44.9702609,60.9843103 C44.3347826,61.5646552 44.2925217,62.5468966 44.877913,63.1768966 C46.533913,64.9598276 48.5561739,65.6767241 50.5017391,65.6767241 C52.0231304,65.6767241 53.496,65.2391379 54.7106087,64.53 C57.4716522,62.9193103 59.6457391,59.4636207 58.2808696,55.3748276 C58.010087,54.5617241 57.1226087,54.1163793 56.3024348,54.3894828 Z" id="Shape"></path>
                <path d="M31.0429565,59.6017241 C30.2290435,59.3146552 29.3337391,59.7413793 29.0473043,60.5482759 C28.1238261,63.1443103 25.7071304,63.8068966 23.9196522,63.5772414 C22.1227826,63.3506897 19.9393043,62.1093103 19.6998261,59.355 C19.6262609,58.5015517 18.8671304,57.8482759 18.0062609,57.9413793 C17.1453913,58.0143103 16.5067826,58.7653448 16.5803478,59.6203448 C16.9528696,63.9217241 20.3353043,66.2524138 23.522087,66.6558621 C23.8648696,66.6993103 24.2154783,66.7210345 24.5692174,66.7210345 C27.5024348,66.7210345 30.708,65.2034483 31.9961739,61.5801724 C32.2857391,60.7732759 31.8584348,59.8872414 31.0429565,59.6017241 Z" id="Shape"></path>
                <path d="M37.6106087,52.1674138 C37.9533913,52.2108621 38.3024348,52.2325862 38.6577391,52.2325862 C41.5909565,52.2325862 44.7965217,50.7165517 46.0846957,47.0917241 C46.3726957,46.2832759 45.9453913,45.3972414 45.129913,45.1132759 C44.316,44.8262069 43.4206957,45.252931 43.1342609,46.0598276 C42.2107826,48.6558621 39.7987826,49.3075862 38.0066087,49.0887931 C36.2097391,48.8622414 34.0262609,47.6193103 33.7867826,44.8665517 C33.7132174,44.0131034 32.9525217,43.3613793 32.0932174,43.452931 C31.2323478,43.5258621 30.5937391,44.2768966 30.6673043,45.1318966 C31.0398261,49.4332759 34.4222609,51.7655172 37.6106087,52.1674138 Z" id="Shape"></path>
                <path d="M42.6537391,68.3363793 C41.8226087,68.5737931 41.3452174,69.435 41.5831304,70.2574138 C42.3532174,72.9031034 40.7723478,74.8287931 39.1852174,75.6760345 C37.5902609,76.5263793 35.085913,76.7731034 33.278087,74.6705172 C32.7177391,74.0172414 31.7285217,73.9396552 31.0711304,74.4951724 C30.4137391,75.0506897 30.333913,76.0298276 30.8942609,76.6831034 C32.5612174,78.6243103 34.6805217,79.4001724 36.72,79.4001724 C38.1333913,79.4001724 39.5092174,79.0262069 40.665913,78.4101724 C43.488,76.9065517 45.7951304,73.5362069 44.589913,69.3977586 C44.352,68.5737931 43.4848696,68.0989655 42.6537391,68.3363793 Z" id="Shape"></path>
                <path d="M59.1026087,38.8256897 C57.2337391,40.8631034 54.7513043,40.5387931 53.1923478,39.6418966 C51.6255652,38.7403448 50.0994783,36.7556897 50.9587826,34.1255172 C51.2248696,33.3108621 50.774087,32.4356897 49.9523478,32.1718966 C49.1337391,31.9081034 48.2462609,32.355 47.9817391,33.1696552 C46.6387826,37.2755172 48.8426087,40.7281034 51.6224348,42.3263793 C52.8245217,43.0168966 54.2770435,43.442069 55.7749565,43.442069 C57.7314783,43.442069 59.7646957,42.7174138 61.4191304,40.9127586 C62.0013913,40.2781034 61.9544348,39.2974138 61.3142609,38.7201724 C60.674087,38.1444828 59.6848696,38.1925862 59.1026087,38.8256897 Z" id="Shape"></path>
                <path d="M71.2173913,44.2241379 C71.2173913,40.7389655 69.429913,37.557931 66.4935652,35.7144828 C66.1946087,31.7017241 63.518087,28.2615517 59.6895652,26.9472414 C59.5768696,26.622931 59.4234783,26.3218966 59.2794783,26.0162069 C62.7652174,23.1874138 65.1803478,19.827931 66.4434783,16.0013793 C66.7111304,15.192931 66.2728696,14.3224138 65.4605217,14.0493103 C54.8092174,10.4586207 48.758087,12.2741379 45.7544348,14.0881034 C44.0233043,5.16568966 38.1631304,1.575 35.8293913,0.47637931 C35.5429565,0.187758621 35.1594783,0 34.7274783,0 L34.3972174,0 C33.9902609,0 33.6427826,0.170689655 33.3782609,0.436034483 C31.1071304,1.485 25.1233043,5.05086207 23.3702609,14.0865517 C20.3650435,12.2741379 14.3107826,10.4601724 3.66417391,14.0477586 C2.85182609,14.3208621 2.41356522,15.1913793 2.68121739,15.9998276 C4.068,20.2003448 6.9213913,23.9368966 10.9784348,26.9022414 C6.81808696,28.2212069 3.91304348,32.0260345 3.91304348,36.4655172 C3.91304348,37.0955172 3.97408696,37.7255172 4.09304348,38.3446552 C2.00347826,40.2455172 0.782608696,42.9532759 0.782608696,45.7758621 C0.782608696,48.4851724 1.8986087,51.0765517 3.82695652,52.9587931 C2.86591304,54.5275862 2.34782609,56.3384483 2.34782609,58.1896552 C2.34782609,62.5251724 5.07286957,66.2539655 9.05165217,67.6660345 C8.75895652,68.6172414 8.60869565,69.6087931 8.60869565,70.6034483 C8.60869565,74.9343103 11.376,78.7267241 15.4408696,80.1232759 C16.8495652,84.1531034 20.6749565,86.8965517 25.0434783,86.8965517 C26.5648696,86.8965517 28.044,86.5644828 29.3994783,85.9251724 C31.3012174,88.4715517 34.3048696,90 37.5652174,90 C40.6064348,90 43.4347826,88.6717241 45.3568696,86.3906897 C46.3789565,86.7274138 47.4386087,86.8965517 48.5217391,86.8965517 C53.3316522,86.8965517 57.4810435,83.4765517 58.4671304,78.9113793 C63.072,77.9337931 66.5217391,73.8201724 66.5217391,69.0517241 C66.5217391,68.31 66.4372174,67.572931 66.2697391,66.8451724 C69.314087,65.042069 71.2173913,61.7772414 71.2173913,58.1896552 C71.2173913,55.5687931 70.1796522,53.0689655 68.3765217,51.2068966 C70.1796522,49.3448276 71.2173913,46.845 71.2173913,44.2241379 Z M6.21704348,16.4948276 C19.0533913,12.6698276 23.2325217,17.9255172 23.2622609,17.9643103 C23.6441739,18.4981034 24.3203478,18.7386207 24.9542609,18.5648276 C25.5897391,18.3925862 26.0483478,17.8448276 26.1015652,17.1946552 C26.8685217,7.86103448 32.6050435,4.275 34.5631304,3.31603448 C36.5212174,4.275 42.2593043,7.86103448 43.0246957,17.1946552 C43.077913,17.837069 43.5318261,18.3708621 44.1563478,18.5493103 C44.7824348,18.7293103 45.4586087,18.4965517 45.849913,17.982931 C45.8937391,17.927069 50.076,12.6713793 62.9107826,16.4963793 C61.7822609,19.0706897 59.9869565,21.3889655 57.5561739,23.4186207 C57.492,23.3503448 57.4215652,23.2913793 57.3558261,23.2246552 C57.24,23.1067241 57.1226087,22.9918966 57.0005217,22.8786207 C56.7187826,22.617931 56.426087,22.3727586 56.1193043,22.1462069 C56.052,22.0965517 55.9862609,22.0453448 55.9173913,21.9987931 C55.5730435,21.7582759 55.2114783,21.5472414 54.8389565,21.3517241 C54.7246957,21.2912069 54.6088696,21.2353448 54.4930435,21.1794828 C54.1064348,20.9948276 53.7104348,20.8272414 53.301913,20.6922414 C53.2737391,20.682931 53.2471304,20.6705172 53.2189565,20.6612069 C52.7806957,20.52 52.3267826,20.4206897 51.8681739,20.34 C51.7523478,20.3198276 51.6365217,20.3012069 51.5175652,20.2856897 C51.0464348,20.2174138 50.5706087,20.1724138 50.0869565,20.1724138 C46.6153043,20.1724138 43.466087,21.9072414 41.6144348,24.6739655 C39.729913,22.8134483 37.1535652,21.7241379 34.4347826,21.7241379 C31.7911304,21.7241379 29.2695652,22.752931 27.3913043,24.5405172 C25.5130435,22.752931 22.9914783,21.7241379 20.3478261,21.7241379 C19.9408696,21.7241379 19.5401739,21.7551724 19.1426087,21.8017241 C19.0142609,21.8172414 18.8874783,21.8389655 18.7606957,21.8575862 C18.4930435,21.8994828 18.2285217,21.9506897 17.9671304,22.0143103 C17.8215652,22.0484483 17.6775652,22.0825862 17.5335652,22.122931 C17.2878261,22.1927586 17.0467826,22.2781034 16.8088696,22.3665517 C16.4989565,22.4798276 16.1984348,22.6117241 15.9026087,22.7544828 C15.7789565,22.815 15.6521739,22.8693103 15.530087,22.9360345 C15.2906087,23.0648276 15.0605217,23.2060345 14.832,23.3534483 C14.7725217,23.3922414 14.7130435,23.4310345 14.6535652,23.4713793 C14.1292174,23.8236207 13.629913,24.2115517 13.1775652,24.66 C9.96104348,22.3851724 7.5866087,19.6013793 6.21704348,16.4948276 Z M65.0833043,52.4762069 C66.9646957,53.7858621 68.0869565,55.9225862 68.0869565,58.1896552 C68.0869565,61.0013793 66.3996522,63.5260345 63.7873043,64.6231034 L62.4052174,65.2034483 L62.9342609,66.5968966 C63.237913,67.3975862 63.3913043,68.2231034 63.3913043,69.0517241 C63.3913043,72.6424138 60.566087,75.6962069 56.9598261,76.0034483 L55.6466087,76.1151724 L55.533913,77.417069 C55.224,80.9922414 52.1436522,83.7931034 48.5217391,83.7931034 C47.4730435,83.7931034 46.454087,83.5618966 45.4914783,83.1041379 L44.2424348,82.5113793 L43.4958261,83.6674138 C42.192,85.6893103 39.974087,86.8965517 37.5652174,86.8965517 C34.9278261,86.8965517 32.5330435,85.4503448 31.3137391,83.1212069 L30.4966957,81.5601724 L29.0363478,82.5594828 C27.8561739,83.3663793 26.4756522,83.7931034 25.0434783,83.7931034 C21.8081739,83.7931034 19.0017391,81.6175862 18.2175652,78.5001724 L17.9906087,77.5955172 L17.078087,77.3705172 C13.9351304,76.5946552 11.7391304,73.8124138 11.7391304,70.6034483 C11.7391304,69.452069 12.0146087,68.3534483 12.5593043,67.337069 L13.5892174,65.4144828 L11.4198261,65.0762069 C7.97791304,64.5393103 5.47826087,61.6437931 5.47826087,58.1896552 C5.47826087,56.5494828 6.06521739,54.9543103 7.13269565,53.6974138 L8.21895652,52.4172414 L6.8493913,51.4396552 C5.01182609,50.1268966 3.91304348,48.0087931 3.91304348,45.7758621 C3.91304348,43.5475862 4.95704348,41.5039655 6.77582609,40.167931 L7.6586087,39.5193103 L7.34243478,38.4765517 C7.14365217,37.8186207 7.04347826,37.1436207 7.04347826,36.4655172 C7.04347826,33.0594828 9.50086957,30.1686207 12.8864348,29.592931 L13.6737391,29.4594828 L14.025913,28.7487931 C14.2153043,28.3655172 14.4453913,28.0148276 14.6926957,27.6796552 C14.702087,27.6687931 14.7146087,27.6641379 14.7224348,27.6517241 C15.372,26.7889655 16.185913,26.1077586 17.1,25.6282759 C17.1532174,25.6003448 17.2048696,25.5708621 17.2596522,25.5444828 C17.4271304,25.4622414 17.5993043,25.3924138 17.7714783,25.3241379 C17.892,25.2775862 18.0125217,25.2325862 18.1346087,25.1922414 C18.2770435,25.1456897 18.4194783,25.1006897 18.5650435,25.0634483 C18.7387826,25.0184483 18.9156522,24.9827586 19.0925217,24.9517241 C19.2052174,24.9315517 19.3163478,24.9067241 19.4306087,24.8927586 C19.7342609,24.8524138 20.037913,24.8275862 20.3478261,24.8275862 C22.6346087,24.8275862 24.7883478,25.9401724 26.1109565,27.8053448 L27.3913043,29.6115517 L28.6716522,27.8053448 C29.9942609,25.9401724 32.148,24.8275862 34.4347826,24.8275862 C36.9547826,24.8275862 39.297913,26.1822414 40.5532174,28.3608621 L42.2984348,31.3944828 L43.3987826,28.0768966 C44.352,25.2062069 47.0394783,23.2758621 50.0869565,23.2758621 C50.450087,23.2758621 50.8038261,23.3115517 51.1528696,23.3658621 C51.2593043,23.3813793 51.3641739,23.4046552 51.4690435,23.4248276 C51.7194783,23.4744828 51.9652174,23.5381034 52.2062609,23.6125862 C52.3095652,23.6451724 52.4144348,23.6746552 52.5161739,23.7118966 C52.833913,23.8282759 53.1422609,23.9601724 53.438087,24.1184483 C53.496,24.1494828 53.5476522,24.1898276 53.6055652,24.2224138 C53.841913,24.3574138 54.0688696,24.5063793 54.288,24.6677586 C54.3991304,24.75 54.5055652,24.84 54.6104348,24.9284483 C54.7653913,25.0572414 54.9125217,25.1937931 55.0549565,25.335 C55.1613913,25.4405172 55.2678261,25.5444828 55.368,25.6577586 C55.5166957,25.8253448 55.6528696,26.0053448 55.7843478,26.1884483 C55.8485217,26.2768966 55.9205217,26.3575862 55.98,26.4491379 C55.9815652,26.4522414 55.9862609,26.4537931 55.9878261,26.4568966 C56.4026087,27.0915517 56.7203478,27.8006897 56.9128696,28.5687931 L57.1398261,29.4734483 L58.0523478,29.6984483 C61.1953043,30.4743103 63.3913043,33.2565517 63.3834783,36.5803448 L63.3553043,37.5594828 L64.2365217,38.0063793 C66.6109565,39.2089655 68.0869565,41.5908621 68.0869565,44.2241379 C68.0869565,46.4912069 66.9646957,48.6263793 65.0833043,49.9375862 L63.2613913,51.2068966 L65.0833043,52.4762069 Z" id="Shape"></path>
            </g>
        </g>
    </g>
</svg>