<?xml version="1.0" encoding="UTF-8" standalone="no"?>
<svg width="18px" height="18px" viewBox="0 0 18 18" version="1.1" xmlns="http://www.w3.org/2000/svg" xmlns:xlink="http://www.w3.org/1999/xlink">
    <!-- Generator: Sketch 3.7.2 (28276) - http://www.bohemiancoding.com/sketch -->
    <title>Shape</title>
    <desc>Created with Sketch.</desc>
    <defs></defs>
    <g id="Welcome" stroke="none" stroke-width="1" fill="none" fill-rule="evenodd">
        <g id="Desktop-HD" transform="translate(-748.000000, -4830.000000)" fill="#72C02C">
            <g id="Group-2" transform="translate(411.000000, 4726.000000)">
                <g id="Group-Copy-4" transform="translate(333.000000, 0.000000)">
                    <path d="M7.6,111.8 C9,114.6 11.4,116.9 14.2,118.4 L16.4,116.2 C16.7,115.9 17.1,115.8 17.4,116 C18.5,116.4 19.7,116.6 21,116.6 C21.6,116.6 22,117 22,117.6 L22,121 C22,121.6 21.6,122 21,122 C11.6,122 4,114.4 4,105 C4,104.4 4.4,104 5,104 L8.5,104 C9.1,104 9.5,104.4 9.5,105 C9.5,106.2 9.7,107.4 10.1,108.6 C10.2,108.9 10.1,109.3 9.9,109.6 L7.6,111.8 L7.6,111.8 Z" id="Shape"></path>
                </g>
            </g>
        </g>
    </g>
</svg>