<?xml version="1.0" encoding="UTF-8" standalone="no"?>
<svg width="20px" height="20px" viewBox="0 0 20 20" version="1.1" xmlns="http://www.w3.org/2000/svg" xmlns:xlink="http://www.w3.org/1999/xlink">
    <!-- Generator: Sketch 3.7.2 (28276) - http://www.bohemiancoding.com/sketch -->
    <title>Shape</title>
    <desc>Created with Sketch.</desc>
    <defs></defs>
    <g id="Welcome" stroke="none" stroke-width="1" fill="none" fill-rule="evenodd">
        <g id="Desktop-HD" transform="translate(-748.000000, -4872.000000)" fill="#72C02C">
            <g id="Group-2" transform="translate(411.000000, 4726.000000)">
                <g id="Group-Copy-4" transform="translate(333.000000, 0.000000)">
                    <path d="M14,146 C8.5,146 4,150.5 4,156 C4,161.5 8.5,166 14,166 C19.5,166 24,161.5 24,156 C24,150.5 19.5,146 14,146 L14,146 Z M20.9,152 L18,152 C17.7,150.7 17.2,149.6 16.6,148.4 C18.4,149.1 20,150.3 20.9,152 L20.9,152 Z M14,148 C14.8,149.2 15.5,150.5 15.9,152 L12.1,152 C12.5,150.6 13.2,149.2 14,148 L14,148 Z M6.3,158 C6.1,157.4 6,156.7 6,156 C6,155.3 6.1,154.6 6.3,154 L9.7,154 C9.6,154.7 9.6,155.3 9.6,156 C9.6,156.7 9.7,157.3 9.7,158 L6.3,158 L6.3,158 Z M7.1,160 L10,160 C10.3,161.3 10.8,162.4 11.4,163.6 C9.6,162.9 8,161.7 7.1,160 L7.1,160 Z M10,152 L7.1,152 C8.1,150.3 9.6,149.1 11.4,148.4 C10.8,149.6 10.3,150.7 10,152 L10,152 Z M14,164 C13.2,162.8 12.5,161.5 12.1,160 L15.9,160 C15.5,161.4 14.8,162.8 14,164 L14,164 Z M16.3,158 L11.7,158 C11.6,157.3 11.5,156.7 11.5,156 C11.5,155.3 11.6,154.7 11.7,154 L16.4,154 C16.5,154.7 16.6,155.3 16.6,156 C16.6,156.7 16.4,157.3 16.3,158 L16.3,158 Z M16.6,163.6 C17.2,162.5 17.7,161.3 18,160 L20.9,160 C20,161.7 18.4,162.9 16.6,163.6 L16.6,163.6 Z M18.4,158 C18.5,157.3 18.5,156.7 18.5,156 C18.5,155.3 18.4,154.7 18.4,154 L21.8,154 C22,154.6 22.1,155.3 22.1,156 C22.1,156.7 22,157.4 21.8,158 L18.4,158 L18.4,158 Z" id="Shape"></path>
                </g>
            </g>
        </g>
    </g>
</svg>