<?xml version="1.0" encoding="UTF-8"?>
<svg width="90px" height="94px" viewBox="0 0 90 94" version="1.1" xmlns="http://www.w3.org/2000/svg" xmlns:xlink="http://www.w3.org/1999/xlink">
    <!-- Generator: Sketch 48.2 (47327) - http://www.bohemiancoding.com/sketch -->
    <title>Artboard 5 Copy 4</title>
    <desc>Created with Sketch.</desc>
    <defs></defs>
    <g id="Case-Studies" stroke="none" stroke-width="1" fill="none" fill-rule="evenodd">
        <g id="Artboard-5-Copy-4" fill="#72C02C" fill-rule="nonzero">
            <g id="001-blog-copy" transform="translate(2.000000, 9.000000)">
                <path d="M84.5478908,0.078845815 L36.2031501,0.078845815 C35.493692,0.078845815 34.9186823,0.653030837 34.9186823,1.36147137 L34.9186823,33.6998062 C34.9186823,33.8352335 34.9401404,33.9698238 34.982386,34.0987225 L39.1184327,46.7225903 C39.2746745,47.1991806 39.6947836,47.5415154 40.1938519,47.5982643 C40.2426355,47.6037885 40.2912515,47.606467 40.3395322,47.606467 C40.7856257,47.606467 41.2045614,47.3742819 41.438924,46.9867489 L48.6957817,34.9825991 L84.5480585,34.9825991 C85.2576842,34.9825991 85.8325263,34.4084141 85.8325263,33.6999736 L85.8325263,1.36147137 C85.8323587,0.653198238 85.2571813,0.078845815 84.5478908,0.078845815 Z M83.2632554,32.417348 L47.9705653,32.417348 C47.520616,32.417348 47.1033567,32.6525463 46.8708382,33.0370661 L40.6883938,43.2644229 L37.4877856,33.4955771 L37.4877856,2.64426432 L83.263423,2.64426432 L83.263423,32.417348 L83.2632554,32.417348 Z" id="Shape"></path>
                <path d="M77.5124873,8.3787489 L44.1476725,8.3787489 C43.4380468,8.3787489 42.8632047,8.95293392 42.8632047,9.66137445 C42.8632047,10.369815 43.4382144,10.944 44.1476725,10.944 L77.5124873,10.944 C78.2219454,10.944 78.7969552,10.369815 78.7969552,9.66137445 C78.7969552,8.95293392 78.2217778,8.3787489 77.5124873,8.3787489 Z" id="Shape"></path>
                <path d="M77.5124873,15.9812599 L44.1476725,15.9812599 C43.4380468,15.9812599 42.8632047,16.5554449 42.8632047,17.2638855 C42.8632047,17.972326 43.4382144,18.546511 44.1476725,18.546511 L77.5124873,18.546511 C78.2219454,18.546511 78.7969552,17.972326 78.7969552,17.2638855 C78.7969552,16.5554449 78.2217778,15.9812599 77.5124873,15.9812599 Z" id="Shape"></path>
                <path d="M77.5124873,23.5836035 L44.1476725,23.5836035 C43.4380468,23.5836035 42.8632047,24.1577885 42.8632047,24.8662291 C42.8632047,25.5746696 43.4382144,26.1488546 44.1476725,26.1488546 L77.5124873,26.1488546 C78.2219454,26.1488546 78.7969552,25.5746696 78.7969552,24.8662291 C78.7969552,24.1577885 78.2217778,23.5836035 77.5124873,23.5836035 Z" id="Shape"></path>
                <path d="M29.6290955,56.0324229 L25.0033684,56.0324229 L25.0033684,52.8615154 L27.791076,49.7955683 C29.1565146,48.2941498 29.908386,46.3501233 29.908386,44.3217269 L29.908386,37.2344758 C29.908386,32.4278943 25.992117,28.5170749 21.1784639,28.5170749 L17.0385614,28.5170749 C12.225076,28.5170749 8.30880702,32.4277269 8.30880702,37.2344758 L8.30880702,44.3217269 C8.30880702,46.3499559 9.060846,48.2941498 10.4259493,49.7955683 L13.2138246,52.8615154 L13.2138246,56.0324229 L8.58843275,56.0324229 C3.85273294,56.0324229 0,59.87963 0,64.6087048 L0,74.6385286 C0,75.3471366 0.575177388,75.9211542 1.28446784,75.9211542 L36.9330604,75.9211542 C37.6425185,75.9211542 38.2175283,75.3469692 38.2175283,74.6385286 L38.2175283,64.6087048 C38.2175283,59.87963 34.3647953,56.0324229 29.6290955,56.0324229 Z M35.6485926,73.3555683 L2.56910331,73.3555683 L2.56910331,64.60837 C2.56910331,61.2941674 5.26930214,58.597674 8.58843275,58.597674 L14.4987953,58.597674 C15.2082534,58.597674 15.7832632,58.023489 15.7832632,57.3150485 L15.7832632,52.2957004 C15.7832632,51.8380264 15.5433684,51.4365991 15.182269,51.2096035 L12.3281754,48.070837 C11.3930721,47.0424934 10.878078,45.7108194 10.878078,44.3217269 L10.878078,37.2344758 C10.878078,33.8422643 13.6418129,31.0824934 17.038729,31.0824934 L21.1786316,31.0824934 C24.5757154,31.0824934 27.3394503,33.8422643 27.3394503,37.2344758 L27.3394503,44.3217269 C27.3394503,45.7109868 26.8244561,47.0424934 25.8891852,48.070837 L23.0350916,51.2096035 C22.6739922,51.4365991 22.4340975,51.8380264 22.4340975,52.2957004 L22.4340975,57.3150485 C22.4340975,58.0236564 23.0092749,58.597674 23.7185653,58.597674 L29.6289279,58.597674 C32.9478908,58.597674 35.6482573,61.2941674 35.6482573,64.60837 L35.6482573,73.3555683 L35.6485926,73.3555683 Z" id="Shape"></path>
            </g>
        </g>
    </g>
</svg>