<?xml version="1.0" encoding="UTF-8"?>
<svg width="90px" height="94px" viewBox="0 0 90 94" version="1.1" xmlns="http://www.w3.org/2000/svg" xmlns:xlink="http://www.w3.org/1999/xlink">
    <!-- Generator: Sketch 48.2 (47327) - http://www.bohemiancoding.com/sketch -->
    <title>Artboard 5 Copy 3</title>
    <desc>Created with Sketch.</desc>
    <defs></defs>
    <g id="Case-Studies" stroke="none" stroke-width="1" fill="none" fill-rule="evenodd">
        <g id="Artboard-5-Copy-3" fill="#72C02C" fill-rule="nonzero">
            <g id="002-sign-copy" transform="translate(5.000000, 7.000000)">
                <path d="M78.668125,36.7150097 L55.5482813,13.6403899 C55.068125,13.1616374 54.2901562,13.1611696 53.8103125,13.6403899 C53.3303125,14.1194542 53.3303125,14.8959064 53.8103125,15.3748148 L76.9301563,38.4494347 C77.3242188,38.842729 77.54125,39.36577 77.54125,39.9218713 C77.54125,40.4779727 77.324375,41.0010136 76.93,41.394308 L41.474375,76.7811306 C41.0804687,77.174425 40.55625,77.3908772 39.9990625,77.3908772 C39.4417187,77.3908772 38.9178125,77.174425 38.52375,76.7811306 L3.06796875,41.3946199 C2.254375,40.5826121 2.254375,39.2614425 3.06796875,38.4495906 L38.5234375,3.06307992 C38.9176563,2.66978558 39.4417187,2.45302144 39.9989063,2.45302144 C40.55625,2.45302144 41.0803125,2.66947368 41.4742187,3.06292398 L50.4920312,12.0631579 C50.9721875,12.5422222 51.7501563,12.5422222 52.23,12.0631579 C52.71,11.5840936 52.71,10.8074854 52.23,10.328577 L43.2123438,1.32834308 C42.3540625,0.471734893 41.2128125,0 39.9990625,0 C38.7853125,0 37.6442188,0.471734893 36.7857812,1.32834308 L1.32984375,36.7150097 C-0.441875,38.4832749 -0.441875,41.3607797 1.32984375,43.1292008 L36.7857812,78.5158674 C37.6440625,79.3724756 38.7853125,79.8442105 39.9989062,79.8442105 C41.2128125,79.8442105 42.3540625,79.3724756 43.2123437,78.5158674 L78.6679688,43.1292008 C79.5264063,42.2725926 79.9990625,41.1335673 79.9990625,39.9221832 C79.9990625,38.7107992 79.5264063,37.5716179 78.668125,36.7150097 Z" id="Shape"></path>
                <path d="M75.2195312,39.0548148 L40.8682812,4.77052632 C40.6378125,4.54066277 40.3253125,4.41122807 39.9992187,4.41122807 C39.673125,4.41122807 39.3607812,4.54035088 39.1301562,4.77052632 L4.77890625,39.0546589 C4.30078125,39.5318519 4.29875,40.3050292 4.7746875,40.7848733 L27.1348437,63.3288109 C27.6125,63.8103704 28.390625,63.8139571 28.8726562,63.3376998 C29.3548437,62.8611306 29.3589062,62.0845224 28.8815625,61.6032749 L7.3815625,39.9265497 L39.9992187,7.37231969 L72.6125,39.9220273 L39.9875,72.4832749 L32.1834375,64.8990253 C31.6971875,64.4261988 30.9190625,64.4368031 30.4457812,64.9221053 C29.9721875,65.4074074 29.9825,66.1840156 30.4689062,66.6563743 L39.141875,75.0852242 C39.380625,75.317271 39.69,75.4331384 39.9992187,75.4331384 C40.31375,75.4331384 40.6284375,75.3132164 40.8682812,75.0738402 L75.2196875,40.7893957 C75.6995312,40.3103314 75.6995312,39.5338791 75.2195312,39.0548148 Z" id="Shape"></path>
                <path d="M48.9967187,24.2814815 L43.3032812,16.4538012 C43.0720312,16.1358285 42.7021875,15.9477583 42.3089063,15.9477583 C41.9153125,15.9477583 41.545625,16.1358285 41.3145313,16.4538012 L35.62125,24.2814815 C35.3498438,24.6546589 35.3109375,25.1482261 35.5209375,25.5589864 C35.730625,25.9697466 36.15375,26.22846 36.6157813,26.22846 L38.96125,26.22846 L38.96125,28.5957115 C38.96125,29.2955945 38.72625,29.6042105 37.2860938,30.7965692 C35.6460938,32.15423 33.1679688,34.205848 33.1679688,38.1879142 C33.1679688,42.1701365 35.6460938,44.2217544 37.2860938,45.5792593 C38.72625,46.7717739 38.96125,47.0803899 38.96125,47.7802729 C38.96125,48.4801559 38.7260938,48.7887719 37.2859375,49.9812865 C35.6460938,51.3387914 33.1678125,53.3904094 33.1678125,57.3727875 L33.1678125,59.0407797 C33.1678125,59.7182066 33.7178125,60.2672904 34.3967188,60.2672904 L38.695625,60.2672904 C39.3745313,60.2672904 39.9245313,59.7182066 39.9245313,59.0407797 L39.9245313,57.3727875 C39.9245313,56.6727485 40.1595313,56.3641326 41.6,55.1716179 C43.2398438,53.8139571 45.7179688,51.7621832 45.7179688,47.7802729 C45.7179688,47.102846 45.1679688,46.5537622 44.4890625,46.5537622 C43.8101563,46.5537622 43.2601563,47.102846 43.2601563,47.7802729 C43.2601563,50.6099025 41.544375,52.0304094 40.0307813,53.2835867 C38.655,54.4226121 37.466875,55.4061598 37.466875,57.3727875 L37.466875,57.814269 L35.6257813,57.814269 L35.6257813,57.3727875 C35.6257813,54.542846 37.3415625,53.1224951 38.8553125,51.8693177 C40.2309375,50.7302924 41.4189063,49.7465887 41.4189063,47.7802729 C41.4189063,45.8138012 40.2307813,44.8302534 38.8553125,43.6912281 C37.3415625,42.4380507 35.6259375,41.0176998 35.6259375,38.1879142 C35.6259375,35.3582846 37.3417188,33.9379337 38.8553125,32.6846004 C40.2310938,31.545731 41.4189063,30.5620273 41.4189063,28.5957115 L41.4189063,25.0019493 C41.4189063,24.3245224 40.8689063,23.7754386 40.19,23.7754386 L39.0260938,23.7754386 L42.30875,19.2622222 L45.5914063,23.7754386 L44.48875,23.7754386 C43.8098437,23.7754386 43.2598438,24.3245224 43.2598438,25.0019493 L43.2598438,28.5957115 C43.2598438,31.4253411 41.5439063,32.845848 40.0303125,34.0988694 C38.6545313,35.2377388 37.4665625,36.2214425 37.4665625,38.1877583 C37.4665625,40.15423 38.6546875,41.1379337 40.0304688,42.2768031 C40.7651563,42.8851462 41.598125,43.5745809 42.2290625,44.4675244 C42.6203125,45.0211306 43.3867188,45.1535283 43.9415625,44.7630409 C44.49625,44.3727096 44.62875,43.6074854 44.2376563,43.0538791 C43.41875,41.8947368 42.4101562,41.0598051 41.5995312,40.3889279 C40.1592188,39.1964133 39.9242188,38.8879532 39.9242188,38.1879142 C39.9242188,37.4880312 40.1592188,37.1794152 41.599375,35.9870565 C43.239375,34.6295517 45.7176562,32.5779337 45.7176562,28.5957115 L45.7176562,26.22846 L48.0020312,26.22846 C48.4639062,26.22846 48.8870312,25.9697466 49.096875,25.5589864 C49.306875,25.1482261 49.268125,24.6546589 48.9967187,24.2814815 Z" id="Shape"></path>
            </g>
        </g>
    </g>
</svg>