<?xml version="1.0" encoding="UTF-8" standalone="no"?>
<svg width="20px" height="16px" viewBox="0 0 20 16" version="1.1" xmlns="http://www.w3.org/2000/svg" xmlns:xlink="http://www.w3.org/1999/xlink">
    <!-- Generator: Sketch 3.7.2 (28276) - http://www.bohemiancoding.com/sketch -->
    <title>Shape</title>
    <desc>Created with Sketch.</desc>
    <defs></defs>
    <g id="Welcome" stroke="none" stroke-width="1" fill="none" fill-rule="evenodd">
        <g id="Desktop-HD" transform="translate(-747.000000, -4790.000000)" fill="#72C02C">
            <g id="Group-2" transform="translate(411.000000, 4726.000000)">
                <g id="Group-Copy-4" transform="translate(333.000000, 0.000000)">
                    <path d="M21,64 L5,64 C3.9,64 3,64.9 3,66 L3,78 C3,79.1 3.9,80 5,80 L21,80 C22.1,80 23,79.1 23,78 L23,66 C23,64.9 22.1,64 21,64 L21,64 Z M21,68 L13,73 L5,68 L5,66 L13,71 L21,66 L21,68 L21,68 Z" id="Shape"></path>
                </g>
            </g>
        </g>
    </g>
</svg>