<?xml version="1.0" encoding="utf-8"?>
<!-- Generator: Adobe Illustrator 19.2.1, SVG Export Plug-In . SVG Version: 6.00 Build 0)  -->
<svg version="1.1" id="Capa_1" xmlns="http://www.w3.org/2000/svg" xmlns:xlink="http://www.w3.org/1999/xlink" x="0px" y="0px"
	 viewBox="0 0 150 150" style="enable-background:new 0 0 150 150;" xml:space="preserve">
<style type="text/css">
	.st0{fill:#FFFFFF;}
	.st1{fill:#4E4A59;}
	.st2{fill:none;}
</style>
<g>
	<g>
		<g>
			<path class="st0" d="M2.9,126.2v-5.5c0-5.9,5.4-10.7,12.1-10.7h43.1c6.7,0,12.1,4.8,12.1,10.7v5.5"/>
			<path class="st1" d="M72.3,126.2h-4v-5.5c0-4.8-4.5-8.7-10.1-8.7H15.1c-5.6,0-10.1,3.9-10.1,8.7v5.5h-4v-5.5
				c0-7,6.3-12.7,14.1-12.7h43.1c7.8,0,14.1,5.7,14.1,12.7V126.2z"/>
		</g>
		<g>
			<path class="st0" d="M36.6,122.8c9.2,0,15.6-4.2,15.6-10.3V110H21v2.5C21,118.5,27.4,122.8,36.6,122.8z"/>
			<path class="st1" d="M36.6,124.8c-10.4,0-17.6-5-17.6-12.3V108h35.2v4.5C54.2,119.7,47,124.8,36.6,124.8z M23,112v0.5
				c0,4.9,5.6,8.3,13.6,8.3s13.6-3.4,13.6-8.3V112H23z"/>
		</g>
		<g>
			<path class="st0" d="M36.6,116.7c-5.3,0-9.6-1.9-9.6-4.3V89.7c0-2.3,4.3-4.3,9.6-4.3l0,0c5.3,0,9.6,1.9,9.6,4.3v22.8
				C46.2,114.8,41.9,116.7,36.6,116.7L36.6,116.7z"/>
			<path class="st1" d="M36.6,118.8c-5.8,0-11.6-2.1-11.6-6.3V89.7c0-4.1,5.8-6.3,11.6-6.3s11.6,2.1,11.6,6.3v22.8
				C48.2,116.6,42.3,118.8,36.6,118.8z M36.6,87.5c-5,0-7.5,1.7-7.6,2.3l0,22.8c0.1,0.5,2.6,2.2,7.6,2.2s7.5-1.7,7.6-2.3l0-22.8
				C44,89.2,41.5,87.5,36.6,87.5z"/>
		</g>
		<g>
			<path class="st0" d="M60.2,81c0,6.6-7.4,22.1-14,22.1h-19c-6.6,0-14-15.4-14-22.1V55.4c0-6.6,5.4-12,12-12h23.1
				c6.6,0,12,5.4,12,12V81z"/>
			<path class="st1" d="M46.2,105h-19c-8.4,0-16-17.3-16-24.1V55.4c0-7.7,6.3-14,14-14h23.1c7.7,0,14,6.3,14,14V81
				C62.2,87.7,54.6,105,46.2,105z M25.1,45.4c-5.5,0-10,4.5-10,10V81c0,2.9,1.8,8.2,4.3,12.5c2.7,4.6,5.6,7.5,7.8,7.5h19
				c2.1,0,5.1-2.9,7.8-7.5c2.5-4.3,4.3-9.6,4.3-12.5V55.4c0-5.5-4.5-10-10-10H25.1z"/>
		</g>
		<g>
			<path class="st1" d="M36,81.6h-4V68.2c0-1.3-1.1-2.4-2.4-2.4v-4c3.5,0,6.4,2.9,6.4,6.4V81.6z"/>
		</g>
		<g>
			<path class="st1" d="M36.1,96.1h-0.8c-4.2,0-7.7-3.4-7.7-7.7c0-0.3,0-0.6,0-0.8l0.2-1.8h15.6l0.2,1.8c0,0.3,0,0.6,0,0.8
				C43.8,92.7,40.3,96.1,36.1,96.1z M31.9,89.8c0.5,1.3,1.9,2.3,3.4,2.3h0.8c1.5,0,2.8-0.9,3.4-2.3H31.9z"/>
		</g>
		<g>
			<path class="st0" d="M13,62.1h-1.7c-2.2,0-4,1.8-4,4v9.4c0,2.2,1.8,4,4,4H13V62.1z"/>
			<path class="st1" d="M15,81.5h-3.7c-3.3,0-6-2.7-6-6v-9.4c0-3.3,2.7-6,6-6H15V81.5z M11,64.1c-0.9,0.2-1.7,1-1.7,2v9.4
				c0,1,0.7,1.8,1.7,2V64.1z"/>
		</g>
		<g>
			<path class="st0" d="M60.4,79.5h1.7c2.2,0,4-1.8,4-4v-9.4c0-2.2-1.8-4-4-4h-1.7V79.5z"/>
			<path class="st1" d="M62.1,81.5h-3.7V60.1h3.7c3.3,0,6,2.7,6,6v9.4C68.1,78.8,65.4,81.5,62.1,81.5z M62.4,64.1v13.3
				c0.9-0.2,1.7-1,1.7-2v-9.4C64.1,65.1,63.4,64.3,62.4,64.1z"/>
		</g>
		<g>
			<path class="st0" d="M54.8,37.7h-1.6c3.1-1.4,5-3.1,5-5.1c0-4.3-11.2-6-22.3-4.8c-13.3,1.5-20.6,10.5-20.6,10.5
				c-3.5,0-8.3,2.8-8.3,6.3c0,0.2,0,0.5,0.1,0.7l-0.1,0v18.5h6v-8.5c0-4,2-7.5,5-9.7l2.5-0.6c3.3,3.7,9.1,6.6,16,7.4
				c5.5,0.6,10.6-0.2,14.5-2c-2.7-2.1-4.9-4.6-6.5-7.3l10.8,2.6c3,2.2,5,5.7,5,9.7v8.5h6V41.4L54.8,37.7z"/>
			<path class="st1" d="M68.2,65.9h-10V55.4c0-3.1-1.4-6-3.8-7.9l-4.9-1.2c0.9,0.9,1.8,1.7,2.8,2.5l2.6,2l-3,1.4
				c-4.4,2.1-10,2.9-15.6,2.2c-6.6-0.8-12.6-3.4-16.4-7.2l-0.9,0.2c-2.4,1.9-3.8,4.8-3.8,7.9v10.5h-10l0-22c0.5-4.2,5.5-7.1,9.3-7.5
				c2.1-2.2,9.4-9.2,21.3-10.6c2.4-0.3,4.9-0.4,7.3-0.4c10.8,0,17.3,2.7,17.3,7.2c0,1.2-0.4,2.6-1.9,4.1l9.8,3.2V65.9z M62.2,61.9h2
				V42.8l-9.7-3.1h-1.3l-0.8-3.8c2.8-1.2,3.8-2.5,3.8-3.3c0-0.9-3.8-3.2-13.3-3.2c-2.2,0-4.5,0.1-6.8,0.4
				c-12.3,1.4-19.2,9.7-19.3,9.8l-0.6,0.7l-1,0c-2.6,0-6.3,2.2-6.3,4.3c0,0.1,0,0.3,0,0.4l0.2,1.6l-0.2,0.1v15.2h2v-6.5
				c0-4.5,2.2-8.7,5.8-11.4l0.3-0.2l4-1l0.8,0.9c3.1,3.5,8.5,6,14.7,6.7c3.7,0.4,7.3,0.2,10.4-0.7c-1.7-1.7-3.2-3.6-4.4-5.6l-2.4-4
				l15.7,3.7l0.3,0.2c3.6,2.6,5.8,6.9,5.8,11.4V61.9z"/>
		</g>
		<g>
			<path class="st0" d="M59.7,73.4c0,1.7-1.3,3-3,3h-14c-1.7,0-3-1.3-3-3v-5.5c0-1.7,1.3-3,3-3h14c1.7,0,3,1.3,3,3V73.4z"/>
			<path class="st1" d="M56.7,78.5h-14c-2.8,0-5-2.2-5-5v-5.5c0-2.8,2.2-5,5-5h14c2.8,0,5,2.2,5,5v5.5
				C61.8,76.2,59.5,78.5,56.7,78.5z M42.7,66.9c-0.6,0-1,0.4-1,1v5.5c0,0.6,0.4,1,1,1h14c0.6,0,1-0.4,1-1v-5.5c0-0.6-0.4-1-1-1H42.7
				z"/>
		</g>
		<g>
			<path class="st0" d="M33.7,73.4c0,1.7-1.3,3-3,3h-14c-1.7,0-3-1.3-3-3v-5.5c0-1.7,1.3-3,3-3h14c1.7,0,3,1.3,3,3V73.4z"/>
			<path class="st1" d="M30.7,78.5h-14c-2.8,0-5-2.2-5-5v-5.5c0-2.8,2.2-5,5-5h14c2.8,0,5,2.2,5,5v5.5
				C35.7,76.2,33.4,78.5,30.7,78.5z M16.6,66.9c-0.6,0-1,0.4-1,1v5.5c0,0.6,0.4,1,1,1h14c0.6,0,1-0.4,1-1v-5.5c0-0.6-0.4-1-1-1H16.6
				z"/>
		</g>
		<g>
			<rect x="22.4" y="68.3" class="st1" width="4.9" height="4"/>
		</g>
		<g>
			<rect x="43.1" y="68.3" class="st1" width="4.9" height="4"/>
		</g>
	</g>
	<g>
		<g>
			<path class="st0" d="M79.7,126v-12.1c0-5.9,5.4-10.7,12.1-10.7h43.1c6.7,0,12.1,4.8,12.1,10.7V126"/>
			<path class="st1" d="M149.1,126h-4v-12.1c0-4.8-4.5-8.7-10.1-8.7H91.8c-5.6,0-10.1,3.9-10.1,8.7V126h-4v-12.1
				c0-7,6.3-12.7,14.1-12.7h43.1c7.8,0,14.1,5.7,14.1,12.7V126z"/>
		</g>
		<g>
			<path class="st0" d="M113.4,114.5c-6.3,0-11.4-4-11.4-8.9V57.8c0-4.9,5.1-8.9,11.4-8.9l0,0c6.3,0,11.4,4,11.4,8.9v47.8
				C124.8,110.5,119.7,114.5,113.4,114.5L113.4,114.5z"/>
			<path class="st1" d="M113.4,116.5c-7.6,0-13.8-4.9-13.8-10.9V57.8c0-6,6.2-10.9,13.8-10.9s13.8,4.9,13.8,10.9v47.8
				C127.3,111.6,121.1,116.5,113.4,116.5z M113.4,50.8c-4.9,0-8.9,3.1-8.9,7v47.8c0,3.8,4,7,8.9,7c4.9,0,8.9-3.1,8.9-7V57.8
				C122.3,54,118.3,50.8,113.4,50.8z"/>
		</g>
		<g>
			<path class="st0" d="M145,68c0,4-3.2,7.3-7.3,7.3H87.3c-4,0-7.3-3.2-7.3-7.3l0,0c0-4,3.2-7.3,7.3-7.3h50.4
				C141.7,60.8,145,64,145,68L145,68z"/>
			<path class="st1" d="M137.7,77.2H87.3c-5.1,0-9.2-4.1-9.2-9.2c0-5.1,4.1-9.2,9.2-9.2h50.4c5.1,0,9.2,4.1,9.2,9.2
				C146.9,73.1,142.8,77.2,137.7,77.2z M87.3,62.7c-2.9,0-5.3,2.4-5.3,5.3c0,2.9,2.4,5.3,5.3,5.3h50.4c2.9,0,5.3-2.4,5.3-5.3
				c0-2.9-2.4-5.3-5.3-5.3H87.3z"/>
		</g>
		<g>
			<path class="st0" d="M138.9,78c0,14.2-11.5,25.7-25.7,25.7h0c-14.2,0-25.7-11.5-25.7-25.7V57.1c0-14.2,11.5-25.7,25.7-25.7h0
				c14.2,0,25.7,11.5,25.7,25.7V78z"/>
			<path class="st1" d="M113.2,105.7L113.2,105.7c-15.3,0-27.7-12.4-27.7-27.7V57.1c0-15.3,12.4-27.7,27.7-27.7h0
				c15.3,0,27.7,12.4,27.7,27.7V78C140.9,93.3,128.5,105.7,113.2,105.7z M113.2,33.3c-13.1,0-23.8,10.7-23.8,23.8V78
				c0,13.1,10.7,23.8,23.8,23.8h0c13.1,0,23.8-10.7,23.8-23.8V57.1C137,43.9,126.3,33.3,113.2,33.3L113.2,33.3z"/>
		</g>
		<g>
			<path class="st0" d="M117.4,73.3c0,2.4-1.9,4.3-4.3,4.3l0,0c-2.4,0-4.3-1.9-4.3-4.3"/>
			<path class="st1" d="M113.2,79.5c-3.4,0-6.2-2.8-6.2-6.2h3.9c0,1.3,1,2.3,2.3,2.3c1.3,0,2.3-1,2.3-2.3h3.9
				C119.4,76.8,116.6,79.5,113.2,79.5z"/>
		</g>
		<g>
			<g>
				<rect x="102.6" y="62.4" class="st1" width="4.7" height="3.9"/>
			</g>
		</g>
		<g>
			<g>
				<rect x="118.4" y="62.4" class="st1" width="4.7" height="3.9"/>
			</g>
		</g>
		<g>
			<path class="st0" d="M109,97.1V99c0,2,1.6,3.6,3.6,3.6h2.5c2,0,3.6-1.6,3.6-3.6v-1.9H109z"/>
			<path class="st1" d="M115.2,104.6h-2.5c-3.1,0-5.6-2.5-5.6-5.6v-3.8h13.7V99C120.8,102.1,118.3,104.6,115.2,104.6z M111,99.1
				c0,0.9,0.8,1.6,1.7,1.6h2.5c0.9,0,1.6-0.7,1.7-1.6H111z"/>
		</g>
		<g>
			<path class="st1" d="M113,90.2c-2.5,0-5-0.5-7.3-1.4l1.5-3.6c4.3,1.7,9.1,1.5,13.2-0.7l1.8,3.4C119.3,89.4,116.1,90.2,113,90.2z"
				/>
		</g>
		
			<rect x="119" y="57.6" transform="matrix(0.9001 0.4356 -0.4356 0.9001 38.1673 -48.3927)" class="st1" width="11.2" height="2.9"/>
		<rect x="95.9" y="57.6" transform="matrix(-0.866 0.5 -0.5 -0.866 218.9509 59.4295)" class="st1" width="11.2" height="2.9"/>
		<g>
			<path class="st0" d="M128.1,34.1l-1.8-3.9l0,0h-6.6l-5.7-4.4l-5.9,4c0,0-4.3-2.5-5.2-0.8c-1,1.6-3.2,5.1-3.2,5.1
				c-9.8,1.2-11.8,11.1-11.8,11.1v26.3l5.8-25.6c3.5-4.3,7.5-3.7,7.5-3.7l26.1,0.4l0,0c1.2-0.1,4.3,0.4,5.6,4.9l1.4,9.9l4.6,14.2
				V47.8v-4.2c-0.3-3.1-1.9-7.6-4.9-8.4C132.5,34.8,130.5,34.4,128.1,34.1z"/>
			<path class="st1" d="M138.9,73.4c-0.9,0-1.6-0.5-1.9-1.4l-4.6-14.2c0-0.1-0.1-0.2-0.1-0.3l-1.4-9.8c-1-3.3-3.1-3.3-3.5-3.3
				c-0.1,0-0.1,0-0.2,0l-26.1-0.4c-0.1,0-0.2,0-0.3,0c-0.1,0-2.8-0.3-5.4,2.7l-5.7,25.2c-0.2,1-1.2,1.7-2.2,1.5c-1-0.1-1.8-1-1.8-2
				V45.2c0-0.1,0-0.3,0-0.4c0.8-3.7,4.4-11,12.5-12.5c0.7-1.1,2-3.2,2.6-4.3c1.5-2.5,4.9-1.4,6.8-0.5l4.9-3.3
				c0.7-0.5,1.7-0.5,2.4,0.1l5.2,4h5.9c0.8,0,1.5,0.5,1.8,1.2l1.3,2.9c1.9,0.3,3.6,0.6,5.1,1c3.8,1,6,6,6.4,10.1c0,0.1,0,0.1,0,0.2
				v27.8c0,1-0.7,1.8-1.7,2C139.1,73.4,139,73.4,138.9,73.4z M136.2,56.8l0.7,2V43.7c-0.3-2.8-1.8-6.1-3.5-6.6
				c-1.6-0.4-3.5-0.8-5.6-1.1c-0.7-0.1-1.3-0.5-1.6-1.2l-1.2-2.7h-5.3c-0.4,0-0.9-0.1-1.2-0.4l-4.6-3.5l-4.7,3.2
				c-0.6,0.4-1.5,0.5-2.1,0.1c-0.9-0.5-2.1-1-2.8-1.1c-1,1.7-2.8,4.6-2.9,4.8c-0.3,0.5-0.8,0.8-1.4,0.9c-7.6,1-9.7,8.1-10,9.3v8.2
				l1.9-8.3c0.1-0.3,0.2-0.6,0.4-0.8c3.8-4.7,8.2-4.6,9.2-4.5l26,0.4c2.6-0.2,6.2,1.4,7.6,6.3c0,0.1,0,0.2,0.1,0.3L136.2,56.8z"/>
		</g>
	</g>
</g>
<rect class="st2" width="150" height="150"/>
</svg>
