<?xml version="1.0" encoding="UTF-8"?>
<svg width="150px" height="150px" viewBox="0 0 150 150" version="1.1" xmlns="http://www.w3.org/2000/svg" xmlns:xlink="http://www.w3.org/1999/xlink">
    <!-- Generator: Sketch 49.3 (51167) - http://www.bohemiancoding.com/sketch -->
    <title>leadership</title>
    <desc>Created with Sketch.</desc>
    <defs>
        <polygon id="path-1" points="0.0001 0.055 101.088 0.055 101.088 133.9996 0.0001 133.9996"></polygon>
        <polygon id="path-3" points="0 134.945 101.088 134.945 101.088 1 0 1"></polygon>
    </defs>
    <g id="leadership" stroke="none" stroke-width="1" fill="none" fill-rule="evenodd">
        <g id="Icons/Client-PO/Black">
            <g id="Page-1" transform="translate(24.000000, 8.000000)">
                <g id="Group-3" transform="translate(0.000000, 0.945000)">
                    <mask id="mask-2" fill="white">
                        <use xlink:href="#path-1"></use>
                    </mask>
                    <g id="Clip-2"></g>
                    <path d="M55.4111,101.2686 L63.1811,96.7826 L63.8461,106.8456 L55.4111,101.2686 Z M39.2971,106.8436 L39.9621,96.7826 L47.7321,101.2686 L39.2971,106.8436 Z M41.1661,85.0296 C44.5051,86.2616 48.1131,86.9356 51.8751,86.9356 C55.4211,86.9356 58.8261,86.3296 62.0021,85.2296 L62.0001,92.8446 L51.5721,98.8666 L41.1651,92.8576 L41.1661,85.0296 Z M24.8351,55.8966 L24.8351,52.5416 C27.4091,55.5726 31.2391,57.5036 35.5171,57.5036 C43.2471,57.5036 49.5351,51.2146 49.5351,43.4846 L49.5351,40.8266 L54.8541,40.8266 L54.8541,43.4846 C54.8541,51.2146 61.1421,57.5036 68.8721,57.5036 C72.8071,57.5036 76.3641,55.8676 78.9121,53.2476 L78.9121,55.8966 C78.9121,70.8056 66.7831,82.9356 51.8751,82.9356 C36.9651,82.9356 24.8351,70.8056 24.8351,55.8966 Z M17.2521,66.6036 L17.2521,60.6656 C18.3271,61.3206 19.4891,61.8246 20.5771,62.1576 L20.5771,66.6036 L17.2521,66.6036 Z M25.6611,10.1296 L31.3511,10.1296 L31.9441,9.2276 C34.0721,5.9886 37.6461,4.0546 41.5051,4.0546 L88.3491,4.0546 L88.3491,13.0446 C88.3491,19.3476 83.2201,24.4756 76.9161,24.4756 L29.9041,24.4756 C24.7611,24.4756 20.5771,28.6596 20.5771,33.8036 L20.5771,37.1956 C19.4891,37.5276 18.3271,38.0316 17.2521,38.6856 L17.2521,18.5396 C17.2521,13.9026 21.0241,10.1296 25.6611,10.1296 Z M17.2521,44.4206 C17.2521,43.4886 18.7911,42.2266 20.5771,41.4396 L20.5771,57.9126 C18.7911,57.1246 17.2521,55.8626 17.2521,54.9306 L17.2521,44.4206 Z M25.4981,40.8266 L45.5351,40.8266 L45.5351,43.4846 C45.5351,49.0096 41.0411,53.5036 35.5171,53.5036 C29.9931,53.5036 25.4981,49.0096 25.4981,43.4846 L25.4981,40.8266 Z M58.8541,40.8266 L78.8901,40.8266 L78.8901,43.4846 C78.8901,49.0096 74.3961,53.5036 68.8721,53.5036 C63.3481,53.5036 58.8541,49.0096 58.8541,43.4846 L58.8541,40.8266 Z M85.6401,44.4206 L85.6401,54.9306 C85.6401,56.6846 84.4221,58.1496 82.7911,58.5496 C82.8651,57.6736 82.9121,56.7906 82.9121,55.8966 L82.9121,40.8426 C84.4801,41.2846 85.6401,42.7126 85.6401,44.4206 Z M84.3091,89.0296 L66.0011,89.0296 L66.0021,83.5186 C74.0961,79.3626 80.1331,71.7576 82.1621,62.6536 C86.3071,62.5176 89.6401,59.1096 89.6401,54.9306 L89.6401,44.4206 C89.6401,40.4976 86.7021,37.2556 82.9121,36.7606 L82.9121,32.6666 L78.9121,32.6666 L78.9121,36.8266 L58.5031,36.8266 L54.8541,36.8266 L49.5351,36.8266 L47.5131,36.8266 L24.8351,36.8266 L24.8351,36.5286 L24.8351,32.6666 L24.7051,32.6666 C25.2281,30.2746 27.3571,28.4756 29.9041,28.4756 L76.9161,28.4756 C85.4261,28.4756 92.3491,21.5536 92.3491,13.0446 L92.3491,0.0546 L41.5051,0.0546 C36.6631,0.0546 32.1561,2.3066 29.2401,6.1296 L25.6611,6.1296 C18.8191,6.1296 13.2521,11.6966 13.2521,18.5396 L13.2521,44.4206 L13.2521,54.9306 L13.2521,70.6036 L24.5481,70.6036 C27.4311,75.9386 31.8301,80.3386 37.1661,83.2216 L37.1651,90.5486 L37.0881,90.5036 L37.0881,89.0296 L16.7781,89.0296 C7.5271,89.0296 0.0001,95.7956 0.0001,104.1116 L0.0001,133.9996 L4.0001,133.9996 L4.0001,104.1116 C4.0001,98.0006 9.7321,93.0296 16.7781,93.0296 L36.2021,93.0296 L34.7731,114.6276 L51.5711,103.5256 L68.3701,114.6306 L66.9411,93.0296 L84.3091,93.0296 C91.3551,93.0296 97.0881,98.0006 97.0881,104.1116 L97.0881,133.9996 L101.0881,133.9996 L101.0881,104.1116 C101.0881,95.7956 93.5611,89.0296 84.3091,89.0296 Z" id="Fill-1" fill="#4F4959" mask="url(#mask-2)"></path>
                </g>
                <path d="M59.981,68.9137 L56.515,66.9157 C55.432,68.7947 53.741,69.9157 51.991,69.9157 C50.214,69.9157 48.565,68.8227 47.467,66.9157 L44.002,68.9137 C45.806,72.0457 48.793,73.9157 51.991,73.9157 C55.188,73.9157 58.175,72.0457 59.981,68.9137" id="Fill-4" fill="#4F4959"></path>
                <mask id="mask-4" fill="white">
                    <use xlink:href="#path-3"></use>
                </mask>
                <g id="Clip-7"></g>
                <polygon id="Fill-6" fill="#4F4959" mask="url(#mask-4)" points="35.303 48.275 40.594 48.275 40.594 44.275 35.303 44.275"></polygon>
                <polygon id="Fill-8" fill="#4F4959" mask="url(#mask-4)" points="64.606 48.275 69.899 48.275 69.899 44.275 64.606 44.275"></polygon>
            </g>
        </g>
    </g>
</svg>