<?xml version="1.0" encoding="UTF-8"?>
<svg width="28px" height="28px" viewBox="0 0 28 28" version="1.1" xmlns="http://www.w3.org/2000/svg" xmlns:xlink="http://www.w3.org/1999/xlink">
    <!-- Generator: Sketch 48.2 (47327) - http://www.bohemiancoding.com/sketch -->
    <title>linked in</title>
    <desc>Created with Sketch.</desc>
    <defs></defs>
    <g id="Team-Members-Section-Designers" stroke="none" stroke-width="1" fill="none" fill-rule="evenodd" transform="translate(-247.000000, -1898.000000)">
        <g id="Profile-1" transform="translate(114.000000, 1526.000000)" fill="#72C02C" fill-rule="nonzero">
            <g id="Icons-Copy" transform="translate(66.535433, 372.882793)">
                <g id="linked-in" transform="translate(66.535433, 0.000000)">
                    <path d="M13.7579237,0 C6.17176576,0 0,5.97111034 0,13.3106283 C0,20.6501463 6.17176576,26.6212567 13.7579237,26.6212567 C21.3440816,26.6212567 27.5158473,20.6501463 27.5158473,13.3106283 C27.5158473,5.97111034 21.3440816,0 13.7579237,0 Z M13.7579237,25.0983596 C7.03969218,25.0983596 1.57407311,19.8103532 1.57407311,13.3106283 C1.57407311,6.81090349 7.03969218,1.52289711 13.7579237,1.52289711 C20.4761551,1.52289711 25.9417742,6.81090349 25.9417742,13.3106283 C25.9417742,19.8103532 20.4761551,25.0983596 13.7579237,25.0983596 Z" id="Shape"></path>
                    <path d="M9.82274089,10.2473208 C9.38803436,10.2473208 9.03570433,10.5881959 9.03570433,11.0087694 L9.03570433,17.3045952 C9.03570433,17.7251686 9.38803436,18.0660438 9.82274089,18.0660438 C10.2574474,18.0660438 10.6097774,17.7251686 10.6097774,17.3045952 L10.6097774,11.0087694 C10.6097774,10.5881959 10.2574474,10.2473208 9.82274089,10.2473208 Z" id="Shape"></path>
                    <path d="M9.82274089,6.69364041 C9.61548793,6.69364041 9.41260739,6.77486159 9.26656839,6.91699866 C9.1196549,7.05828967 9.03570433,7.25457418 9.03570433,7.45508897 C9.03570433,7.65560375 9.1196549,7.85180366 9.26656839,7.99402533 C9.41260739,8.13531634 9.61548793,8.21653752 9.82274089,8.21653752 C10.0299938,8.21653752 10.2328744,8.13531634 10.3789134,7.99402533 C10.5258269,7.85180366 10.6097774,7.65560375 10.6097774,7.45508897 C10.6097774,7.25457418 10.5258269,7.05828967 10.3789134,6.91699866 C10.2328744,6.77486159 10.0299938,6.69364041 9.82274089,6.69364041 Z" id="Shape"></path>
                    <path d="M16.6218622,10.8395586 C15.7980973,10.8395586 15.0356338,11.0964206 14.4137875,11.5307 L14.4137875,11.0087694 C14.4137875,10.5881959 14.0614574,10.2473208 13.6267509,10.2473208 C13.1920444,10.2473208 12.8397143,10.5881959 12.8397143,11.0087694 L12.8397143,17.3045952 C12.8397143,17.7251686 13.1920444,18.0660438 13.6267509,18.0660438 C14.0614574,18.0660438 14.4137875,17.7251686 14.4137875,17.3045952 L14.4137875,14.4987419 C14.4137875,13.320781 15.4043167,12.3624557 16.6218622,12.3624557 C17.8394078,12.3624557 18.829937,13.320781 18.829937,14.4987419 L18.829937,17.473806 C18.829937,17.8943794 19.182267,18.2352546 19.6169736,18.2352546 C20.0516801,18.2352546 20.4040101,17.8943794 20.4040101,17.473806 L20.4040101,14.4987419 C20.4040101,12.4810724 18.7073342,10.8395586 16.6218622,10.8395586 Z" id="Shape"></path>
                </g>
            </g>
        </g>
    </g>
</svg>