<?xml version="1.0" encoding="UTF-8" standalone="no"?>
<svg width="20px" height="20px" viewBox="0 0 20 20" version="1.1" xmlns="http://www.w3.org/2000/svg" xmlns:xlink="http://www.w3.org/1999/xlink">
    <!-- Generator: Sketch 3.7.2 (28276) - http://www.bohemiancoding.com/sketch -->
    <title>Shape</title>
    <desc>Created with Sketch.</desc>
    <defs></defs>
    <g id="Welcome" stroke="none" stroke-width="1" fill="none" fill-rule="evenodd">
        <g id="Desktop-HD" transform="translate(-435.000000, -2122.000000)" fill="#72C02C">
            <g id="Group-3" transform="translate(361.000000, 1825.000000)">
                <g id="Group-6-Copy-3" transform="translate(21.000000, 91.000000)">
                    <g id="Group-5" transform="translate(0.000000, 130.000000)">
                        <path d="M71,76 L55,76 C53.9,76 53,76.9 53,78 L53,94 C53,95.1 53.9,96 55,96 L71,96 C72.1,96 73,95.1 73,94 L73,78 C73,76.9 72.1,76 71,76 L71,76 Z M59,93 L56,93 L56,84 L59,84 L59,93 L59,93 Z M57.5,82.3 C56.5,82.3 55.7,81.5 55.7,80.5 C55.7,79.5 56.5,78.7 57.5,78.7 C58.5,78.7 59.3,79.5 59.3,80.5 C59.3,81.5 58.5,82.3 57.5,82.3 L57.5,82.3 Z M70,93 L67,93 L67,87.7 C67,86.9 66.3,86.2 65.5,86.2 C64.7,86.2 64,86.9 64,87.7 L64,93 L61,93 L61,84 L64,84 L64,85.2 C64.5,84.4 65.6,83.8 66.5,83.8 C68.4,83.8 70,85.4 70,87.3 L70,93 L70,93 Z" id="Shape"></path>
                    </g>
                </g>
            </g>
        </g>
    </g>
</svg>