<?xml version="1.0" encoding="utf-8"?>
<!-- Generator: Adobe Illustrator 19.2.1, SVG Export Plug-In . SVG Version: 6.00 Build 0)  -->
<svg version="1.1" id="Capa_1" xmlns="http://www.w3.org/2000/svg" xmlns:xlink="http://www.w3.org/1999/xlink" x="0px" y="0px"
	 viewBox="0 0 20 20" style="enable-background:new 0 0 20 20;" xml:space="preserve">
<style type="text/css">
	.st0{fill:#72C02C;}
</style>
<title>Shape</title>
<desc>Created with Sketch.</desc>
<g id="Welcome">
	<g id="Desktop-HD" transform="translate(-435.000000, -2122.000000)">
		<g id="Group-3" transform="translate(361.000000, 1825.000000)">
			<g id="Group-6-Copy-3" transform="translate(21.000000, 91.000000)">
				<g id="Group-5" transform="translate(0.000000, 130.000000)">
					<path id="Shape" class="st0" d="M71,76H55c-1.1,0-2,0.9-2,2v16c0,1.1,0.9,2,2,2h16c1.1,0,2-0.9,2-2V78C73,76.9,72.1,76,71,76
						L71,76z M59,93h-3v-9h3V93L59,93z M57.4,82.3c-1,0-1.8-0.8-1.8-1.8s0.8-1.8,1.8-1.8s1.8,0.8,1.8,1.8S58.4,82.3,57.4,82.3
						L57.4,82.3z M70,93h-3v-5.3c0-0.8-0.7-1.5-1.5-1.5S64,86.9,64,87.7V93h-3v-9h3v1.2c0.5-0.8,1.6-1.4,2.5-1.4
						c1.9,0,3.5,1.6,3.5,3.5V93L70,93z"/>
				</g>
			</g>
		</g>
	</g>
</g>
</svg>
