<?xml version="1.0" encoding="UTF-8" standalone="no"?>
<svg width="121px" height="103px" viewBox="0 0 121 103" version="1.1" xmlns="http://www.w3.org/2000/svg" xmlns:xlink="http://www.w3.org/1999/xlink">
    <!-- Generator: Sketch 3.7.2 (28276) - http://www.bohemiancoding.com/sketch -->
    <title>PïxelHeart</title>
    <desc>Created with Sketch.</desc>
    <defs></defs>
    <g id="Welcome" stroke="none" stroke-width="1" fill="none" fill-rule="evenodd">
        <g id="Desktop-HD" transform="translate(-660.000000, -4116.000000)" fill="#73BE44">
            <g id="PïxelHeart" transform="translate(660.000000, 4116.000000)">
                <g id="XMLID_1_">
                    <path d="M31.9491489,14.1528678 L17.9955319,14.1528678 L17.9955319,0.0770573566 L31.9491489,0.0770573566 L31.9491489,14.1528678 L31.9491489,14.1528678 Z" id="XMLID_27_"></path>
                    <path d="M17.8668085,67.3481297 L17.8668085,53.2466334 L31.9491489,53.2466334 L31.9491489,67.3481297 L17.8668085,67.3481297 L17.8668085,67.3481297 Z" id="XMLID_26_"></path>
                    <path d="M0.205957447,35.5234414 L14.1595745,35.5234414 L14.1595745,49.6249377 L0.205957447,49.6249377 L0.205957447,35.5234414 L0.205957447,35.5234414 Z" id="XMLID_25_"></path>
                    <path d="M17.8925532,49.5735661 L17.8925532,35.4977556 L31.8719149,35.4977556 L31.8719149,49.5735661 L17.8925532,49.5735661 L17.8925532,49.5735661 Z" id="XMLID_24_"></path>
                    <path d="M0.102978723,31.7990025 L0.102978723,17.723192 L14.0823404,17.723192 L14.0823404,31.7990025 L0.102978723,31.7990025 L0.102978723,31.7990025 Z" id="XMLID_23_"></path>
                    <path d="M32.0006383,17.8259352 L32.0006383,31.8246883 L17.8925532,31.8246883 L17.8925532,17.8259352 L32.0006383,17.8259352 L32.0006383,17.8259352 Z" id="XMLID_22_"></path>
                    <path d="M53.6261702,70.9698254 L67.4253191,70.9698254 L67.4253191,85.0713217 L53.6261702,85.0713217 L53.6261702,70.9698254 L53.6261702,70.9698254 Z" id="XMLID_21_"></path>
                    <path d="M35.656383,14.0758105 L35.656383,0.154114713 L49.7129787,0.154114713 L49.7129787,14.0758105 L35.656383,14.0758105 L35.656383,14.0758105 Z" id="XMLID_20_"></path>
                    <path d="M85.266383,14.1528678 L71.39,14.1528678 L71.39,0.154114713 L85.266383,0.154114713 L85.266383,14.1528678 L85.266383,14.1528678 Z" id="XMLID_19_"></path>
                    <path d="M89.1023404,14.0501247 L89.1023404,0.0770573566 L102.978723,0.0770573566 L102.978723,14.0501247 L89.1023404,14.0501247 L89.1023404,14.0501247 Z" id="XMLID_18_"></path>
                    <path d="M49.6357447,31.8760599 L35.7078723,31.8760599 L35.7078723,17.8002494 L49.6357447,17.8002494 L49.6357447,31.8760599 L49.6357447,31.8760599 Z" id="XMLID_17_"></path>
                    <path d="M67.3995745,49.6506234 L53.5746809,49.6506234 L53.5746809,35.5491272 L67.3995745,35.5491272 L67.3995745,49.6506234 L67.3995745,49.6506234 Z" id="XMLID_16_"></path>
                    <path d="M85.2921277,49.6506234 L71.312766,49.6506234 L71.312766,35.574813 L85.2921277,35.574813 L85.2921277,49.6506234 L85.2921277,49.6506234 Z" id="XMLID_15_"></path>
                    <path d="M89.0508511,49.6506234 L89.0508511,35.574813 L102.927234,35.574813 L102.927234,49.6506234 L89.0508511,49.6506234 L89.0508511,49.6506234 Z" id="XMLID_14_"></path>
                    <path d="M120.819787,49.6249377 L107.020638,49.6249377 L107.020638,35.5234414 L120.819787,35.5234414 L120.819787,49.6249377 L120.819787,49.6249377 Z" id="XMLID_13_"></path>
                    <path d="M106.994894,17.7488778 L120.845532,17.7488778 L120.845532,31.8760599 L106.994894,31.8760599 L106.994894,17.7488778 L106.994894,17.7488778 Z" id="XMLID_12_"></path>
                    <path d="M89.1795745,17.7745636 L103.055957,17.7745636 L103.055957,31.8760599 L89.1795745,31.8760599 L89.1795745,17.7745636 L89.1795745,17.7745636 Z" id="XMLID_11_"></path>
                    <path d="M35.8108511,35.5234414 L49.6614894,35.5234414 L49.6614894,49.6506234 L35.8108511,49.6506234 L35.8108511,35.5234414 L35.8108511,35.5234414 Z" id="XMLID_10_"></path>
                    <path d="M49.6357447,67.3738155 L35.7078723,67.3738155 L35.7078723,53.2723192 L49.6357447,53.2723192 L49.6357447,67.3738155 L49.6357447,67.3738155 Z" id="XMLID_9_"></path>
                    <path d="M67.4253191,67.425187 L53.6519149,67.425187 L53.6519149,53.2466334 L67.4253191,53.2466334 L67.4253191,67.425187 L67.4253191,67.425187 Z" id="XMLID_8_"></path>
                    <path d="M71.2870213,67.3738155 L71.2870213,53.2466334 L85.1634043,53.2466334 L85.1634043,67.3738155 L71.2870213,67.3738155 L71.2870213,67.3738155 Z" id="XMLID_7_"></path>
                    <path d="M89.0765957,67.3738155 L89.0765957,53.298005 L102.952979,53.298005 L102.952979,67.3738155 L89.0765957,67.3738155 L89.0765957,67.3738155 Z" id="XMLID_6_"></path>
                    <path d="M85.2921277,17.7745636 L85.2921277,31.8760599 L71.4157447,31.8760599 L71.4157447,17.7745636 L85.2921277,17.7745636 L85.2921277,17.7745636 Z" id="XMLID_5_"></path>
                    <path d="M53.5746809,31.7990025 L53.5746809,17.8002494 L67.3995745,17.8002494 L67.3995745,31.7990025 L53.5746809,31.7990025 L53.5746809,31.7990025 Z" id="XMLID_4_"></path>
                    <path d="M49.7902128,71.021197 L49.7902128,85.0456359 L35.7851064,85.0456359 L35.7851064,71.021197 L49.7902128,71.021197 L49.7902128,71.021197 Z" id="XMLID_3_"></path>
                    <path d="M85.1891489,85.1483791 L71.3385106,85.1483791 L71.3385106,71.0468828 L85.1891489,71.0468828 L85.1891489,85.1483791 L85.1891489,85.1483791 Z" id="XMLID_2_"></path>
                    <path d="M53.5746809,102.794514 L53.5746809,88.7700748 L67.3995745,88.7700748 L67.3995745,102.794514 L53.5746809,102.794514 L53.5746809,102.794514 Z" id="XMLID_28_"></path>
                </g>
            </g>
        </g>
    </g>
</svg>