<?xml version="1.0" encoding="utf-8"?>
<!-- Generator: Adobe Illustrator 19.2.1, SVG Export Plug-In . SVG Version: 6.00 Build 0)  -->
<svg version="1.1" id="Capa_1" xmlns="http://www.w3.org/2000/svg" xmlns:xlink="http://www.w3.org/1999/xlink" x="0px" y="0px"
	 viewBox="0 0 121 103" style="enable-background:new 0 0 121 103;" xml:space="preserve">
<style type="text/css">
	.st0{fill:#73BE44;}
</style>
<title>PïxelHeart</title>
<desc>Created with Sketch.</desc>
<g id="Welcome">
	<g id="Desktop-HD" transform="translate(-660.000000, -4116.000000)">
		<g id="PïxelHeart" transform="translate(660.000000, 4116.000000)">
			<g id="XMLID_1_">
				<path id="XMLID_27_" class="st0" d="M32,14.2H18V0.1h14V14.2L32,14.2z"/>
				<path id="XMLID_26_" class="st0" d="M17.9,67.4V53.2H32v14.1H17.9L17.9,67.4z"/>
				<path id="XMLID_25_" class="st0" d="M0.2,35.6h14v14.1h-14V35.6L0.2,35.6z"/>
				<path id="XMLID_24_" class="st0" d="M17.9,49.6V35.5h14v14.1H17.9L17.9,49.6z"/>
				<path id="XMLID_23_" class="st0" d="M0.1,31.9V17.8h14v14.1H0.1L0.1,31.9z"/>
				<path id="XMLID_22_" class="st0" d="M32,17.9v14H17.9v-14H32L32,17.9z"/>
				<path id="XMLID_21_" class="st0" d="M53.7,71.1h13.8v14.1H53.7V71.1L53.7,71.1z"/>
				<path id="XMLID_20_" class="st0" d="M35.7,14.1V0.2h14.1v13.9H35.7L35.7,14.1z"/>
				<path id="XMLID_19_" class="st0" d="M85.3,14.2H71.4v-14h13.9V14.2L85.3,14.2z"/>
				<path id="XMLID_18_" class="st0" d="M89.1,14.1v-14H103v14H89.1L89.1,14.1z"/>
				<path id="XMLID_17_" class="st0" d="M49.7,32H35.8V17.9h13.9V32L49.7,32z"/>
				<path id="XMLID_16_" class="st0" d="M67.4,49.8H53.6V35.6h13.8V49.8L67.4,49.8z"/>
				<path id="XMLID_15_" class="st0" d="M85.3,49.8h-14V35.6h14V49.8L85.3,49.8z"/>
				<path id="XMLID_14_" class="st0" d="M89.1,49.8V35.6H103v14.1H89.1L89.1,49.8z"/>
				<path id="XMLID_13_" class="st0" d="M120.8,49.6H107V35.5h13.8V49.6L120.8,49.6z"/>
				<path id="XMLID_12_" class="st0" d="M107,17.8h13.9v14.1H107V17.8L107,17.8z"/>
				<path id="XMLID_11_" class="st0" d="M89.2,17.9h13.9V32H89.2V17.9L89.2,17.9z"/>
				<path id="XMLID_10_" class="st0" d="M35.8,35.6h13.9v14.1H35.8V35.6L35.8,35.6z"/>
				<path id="XMLID_9_" class="st0" d="M49.7,67.5H35.8V53.4h13.9V67.5L49.7,67.5z"/>
				<path id="XMLID_8_" class="st0" d="M67.5,67.5H53.7V53.2h13.8V67.5L67.5,67.5z"/>
				<path id="XMLID_7_" class="st0" d="M71.3,67.5V53.4h13.9v14.1H71.3L71.3,67.5z"/>
				<path id="XMLID_6_" class="st0" d="M89.1,67.5V53.4H103v14.1H89.1L89.1,67.5z"/>
				<path id="XMLID_5_" class="st0" d="M85.3,17.9V32H71.4V17.9H85.3L85.3,17.9z"/>
				<path id="XMLID_4_" class="st0" d="M53.6,31.9v-14h13.8v14H53.6L53.6,31.9z"/>
				<path id="XMLID_3_" class="st0" d="M49.8,71.1v14h-14v-14H49.8L49.8,71.1z"/>
				<path id="XMLID_2_" class="st0" d="M85.2,85.1H71.3V71h13.9V85.1L85.2,85.1z"/>
				<path id="XMLID_28_" class="st0" d="M53.6,102.9v-14h13.8v14H53.6L53.6,102.9z"/>
			</g>
		</g>
	</g>
</g>
</svg>
