<?xml version="1.0" encoding="UTF-8"?>
<svg width="150px" height="150px" viewBox="0 0 150 150" version="1.1" xmlns="http://www.w3.org/2000/svg" xmlns:xlink="http://www.w3.org/1999/xlink">
    <!-- Generator: Sketch 49.3 (51167) - http://www.bohemiancoding.com/sketch -->
    <title>Icons/PO/Black</title>
    <desc>Created with Sketch.</desc>
    <defs>
        <polygon id="path-1" points="0 0.093 103.6339 0.093 103.6339 131.7286 0 131.7286"></polygon>
        <polygon id="path-3" points="0 140 103.634 140 103.634 0.093 0 0.093"></polygon>
    </defs>
    <g id="Icons/PO/Black" stroke="none" stroke-width="1" fill="none" fill-rule="evenodd">
        <g id="Page-1" transform="translate(23.000000, 5.000000)">
            <polygon id="Fill-1" fill="#4F4959" points="45.4219 72.261 49.4219 72.261 49.4219 49.99 36.6099 49.99 36.6099 53.99 45.4219 53.99"></polygon>
            <g id="Group-10" transform="translate(0.000000, 0.907000)">
                <path d="M59.2344,84.4551 C59.4834,84.9251 59.6104,85.4051 59.6104,85.8821 C59.6104,87.5731 58.2344,88.9491 56.5434,88.9491 L47.7584,88.9491 C46.0674,88.9491 44.6914,87.5731 44.6914,85.8821 L40.6914,85.8821 C40.6914,89.7791 43.8624,92.9491 47.7584,92.9491 L56.5434,92.9491 C60.4394,92.9491 63.6104,89.7791 63.6104,85.8821 C63.6104,84.7451 63.3274,83.6341 62.7674,82.5801 L59.2344,84.4551 Z" id="Fill-2" fill="#4F4959"></path>
                <g id="Group-6">
                    <mask id="mask-2" fill="white">
                        <use xlink:href="#path-1"></use>
                    </mask>
                    <g id="Clip-5"></g>
                    <path d="M74.6719,122.0596 L58.2459,112.2066 L67.9009,112.2066 C70.6099,112.2066 72.8669,109.7316 74.6719,106.2836 L74.6719,122.0596 Z M28.4309,102.6576 C30.4319,107.8646 33.2289,112.2066 36.8189,112.2066 L44.8569,112.2066 L28.4309,122.0596 L28.4309,102.6576 Z M26.4609,96.4046 L26.4399,96.4046 L26.4399,96.3236 C26.4459,96.3506 26.4539,96.3776 26.4609,96.4046 Z M23.0679,46.3526 L23.0679,23.3786 C23.0679,21.1276 24.8999,19.2966 27.1499,19.2966 L34.0809,19.2966 L38.2989,23.5146 L25.9519,50.2536 C24.2839,49.7416 23.0679,48.1866 23.0679,46.3526 Z M54.5169,4.0926 L57.2179,4.0926 C70.6459,4.0926 81.5699,15.0176 81.5699,28.4456 L81.5699,46.2646 L55.6919,20.3856 L52.8629,23.2136 L81.5699,51.9206 L81.5699,61.1296 L80.0379,59.5976 L80.0379,59.1896 L79.6309,59.1896 L34.7159,14.2746 C39.2919,7.8706 46.5829,4.0926 54.5169,4.0926 Z M36.8189,108.2066 C34.4599,108.2066 28.6839,94.7566 28.6839,85.8816 L28.6839,53.8806 L41.3129,26.5286 L63.8659,49.0826 L57.8949,49.0826 L57.8949,53.0826 L67.8659,53.0826 L76.0379,61.2546 L76.0379,85.8816 C76.0379,94.7566 70.2609,108.2066 67.9009,108.2066 L36.8189,108.2066 Z M84.0719,94.0096 L78.8349,94.0096 C79.6359,90.3926 80.0379,87.2776 80.0379,85.8816 L80.0379,65.2546 L85.5699,70.7876 L85.5699,55.9206 L91.0409,61.3916 L93.8689,58.5626 L85.5699,50.2646 L85.5699,28.4456 C85.5699,12.8116 72.8519,0.0926 57.2179,0.0926 L54.5169,0.0926 C44.6639,0.0926 35.6649,5.0936 30.4439,13.4706 L29.6039,14.8196 L30.0809,15.2966 L27.1499,15.2966 C22.6929,15.2966 19.0679,18.9226 19.0679,23.3786 L19.0679,46.3526 C19.0679,49.9486 21.4309,52.9996 24.6839,54.0456 L24.6839,85.8816 C24.6839,87.2776 25.0859,90.3926 25.8859,94.0076 L19.5619,94.0076 C8.7759,94.0076 -0.0001,102.7836 -0.0001,113.5706 L-0.0001,130.6016 L3.9999,130.6016 L3.9999,113.5706 C3.9999,104.9896 10.9809,98.0076 19.5619,98.0076 L24.4309,98.0076 L24.4309,129.1236 L51.5509,112.8546 L78.6719,129.1236 L78.6719,98.6206 L77.6509,98.6206 C77.7099,98.4166 77.7679,98.2136 77.8259,98.0096 L84.0719,98.0096 C92.6529,98.0096 99.6339,104.9906 99.6339,113.5706 L99.6339,131.7286 L103.6339,131.7286 L103.6339,113.5706 C103.6339,102.7846 94.8589,94.0096 84.0719,94.0096 Z" id="Fill-4" fill="#4F4959" mask="url(#mask-2)"></path>
                </g>
                <mask id="mask-4" fill="white">
                    <use xlink:href="#path-3"></use>
                </mask>
                <g id="Clip-8"></g>
                <polygon id="Fill-7" fill="#4F4959" mask="url(#mask-4)" points="48.359 127.592 52.359 127.592 52.359 121.952 48.359 121.952"></polygon>
                <polygon id="Fill-9" fill="#4F4959" mask="url(#mask-4)" points="48.359 140 52.359 140 52.359 134.36 48.359 134.36"></polygon>
            </g>
        </g>
    </g>
</svg>