<?xml version="1.0" encoding="UTF-8"?>
<svg width="150px" height="150px" viewBox="0 0 150 150" version="1.1" xmlns="http://www.w3.org/2000/svg" xmlns:xlink="http://www.w3.org/1999/xlink">
    <!-- Generator: Sketch 49.3 (51167) - http://www.bohemiancoding.com/sketch -->
    <title>Icons/QA/Black</title>
    <desc>Created with Sketch.</desc>
    <defs>
        <polygon id="path-1" points="0 0.471 102.157 0.471 102.157 135.9996 0 135.9996"></polygon>
    </defs>
    <g id="Icons/QA/Black" stroke="none" stroke-width="1" fill="none" fill-rule="evenodd">
        <g id="Page-1" transform="translate(24.000000, 7.000000)">
            <g id="Group-3" transform="translate(0.000000, 0.529000)">
                <mask id="mask-2" fill="white">
                    <use xlink:href="#path-1"></use>
                </mask>
                <g id="Clip-2"></g>
                <path d="M85.75,84.7656 L80.463,63.0276 C83.08,62.0016 84.94,59.4586 84.94,56.4836 L84.94,48.4426 C84.94,44.5646 81.785,41.4096 77.906,41.4096 L75.205,41.4096 L74.021,36.5376 L73.965,36.3496 C69.885,24.7046 62.517,23.5966 58.506,23.9666 C55.123,24.2686 52.646,25.9526 51.08,27.9296 C49.515,25.9526 47.039,24.2686 43.658,23.9666 C39.636,23.5956 32.271,24.7076 28.194,36.3476 L26.962,41.4096 L25.902,41.4096 C22.024,41.4096 18.87,44.5646 18.87,48.4426 L18.87,56.4836 C18.87,58.8696 20.067,60.9786 21.89,62.2506 L16.408,84.7736 L16.408,38.1446 L16.43,38.1446 C16.43,19.5776 31.979,4.4706 51.091,4.4706 C70.177,4.4706 85.708,19.5366 85.75,38.0696 L85.75,84.7656 Z M76.178,45.4096 L77.906,45.4096 C79.579,45.4096 80.94,46.7696 80.94,48.4426 L80.94,56.4836 C80.94,57.5716 80.359,58.5186 79.497,59.0536 L76.178,45.4096 Z M83.456,107.2746 L83.455,107.2746 L83.453,107.2806 C80.21,113.2776 73.863,117.3626 66.579,117.3626 L65.261,117.3626 L65.261,97.0836 L64.915,97.0836 C72.183,89.7196 76.457,77.6006 77.611,68.2286 L85.544,100.8466 C85.224,103.1416 84.516,105.3136 83.456,107.2746 Z M51.08,99.6556 C36.916,99.0986 28.3,76.1216 28.225,63.5156 L41.839,63.5156 C45.718,63.5156 48.873,60.3616 48.873,56.4836 L48.873,50.4426 L52.374,50.4426 L54.937,56.0946 L54.937,56.4836 C54.937,58.7136 55.983,60.7016 57.609,61.9906 L59.337,65.8016 L51.937,65.8016 L51.937,69.8016 L65.542,69.8016 L62.692,63.5156 L73.933,63.5156 C73.866,76.1116 65.257,99.0956 51.08,99.6556 Z M61.261,119.8696 C61.261,125.4846 56.693,130.0526 51.08,130.0526 C45.464,130.0526 40.896,125.4846 40.896,119.8696 L40.896,100.1736 C43.879,102.2406 47.25,103.5266 51.012,103.6556 L51.08,103.6576 L51.148,103.6556 C54.909,103.5266 58.278,102.2416 61.261,100.1786 L61.261,119.8696 Z M41.839,45.4096 C43.512,45.4096 44.873,46.7696 44.873,48.4426 L44.873,56.4836 C44.873,58.1556 43.512,59.5156 41.839,59.5156 L28.22,59.5156 L28.22,53.1276 L30.097,45.4096 L41.839,45.4096 Z M72.062,45.4096 L73.937,53.1196 L73.937,59.5156 L61.97,59.5156 C61.541,59.5156 61.134,59.4236 60.765,59.2626 L58.937,55.2316 L58.937,48.4426 C58.937,46.7696 60.297,45.4096 61.97,45.4096 L72.062,45.4096 Z M61.97,41.4096 C58.787,41.4096 56.095,43.5366 55.23,46.4426 L48.579,46.4426 C47.715,43.5366 45.022,41.4096 41.839,41.4096 L31.07,41.4096 L32.002,37.5776 C34.429,30.7206 38.218,27.4896 43.296,27.9506 C47.325,28.3096 48.943,31.6356 49.076,32.8066 L51.069,32.5786 L53.079,32.8096 C53.213,31.6386 54.833,28.3106 58.868,27.9506 C65.171,27.3826 68.479,32.8416 70.157,37.5806 L71.088,41.4096 L61.97,41.4096 Z M22.87,56.4836 L22.87,48.4426 C22.87,46.7696 24.23,45.4096 25.902,45.4096 L25.989,45.4096 L23.052,57.4786 C22.941,57.1646 22.87,56.8336 22.87,56.4836 Z M36.896,97.0836 L36.896,117.3626 L35.578,117.3626 C25.909,117.3626 17.911,110.1606 16.613,100.8436 L24.548,68.2246 C25.706,77.5996 29.983,89.7196 37.249,97.0836 L36.896,97.0836 Z M87.215,108.7096 C88.473,106.2526 89.308,103.5446 89.614,100.6796 L89.62,100.6786 L89.616,100.6636 C89.703,99.8516 89.75,99.0276 89.75,98.1926 L89.75,38.1446 L89.752,38.1446 C89.752,38.1196 89.75,38.0946 89.75,38.0696 L89.75,36.1906 L89.7,36.1906 C88.653,16.3216 71.735,0.4706 51.091,0.4706 C30.446,0.4706 13.528,16.3216 12.481,36.1906 L12.408,36.1906 L12.408,98.1926 C12.408,99.0266 12.455,99.8496 12.541,100.6616 L12.537,100.6786 L12.544,100.6806 C12.851,103.5426 13.685,106.2486 14.94,108.7046 C5.671,112.8516 0,120.3586 0,128.6886 L0,135.9996 L4,135.9996 L4,128.6886 C4,121.8326 8.984,115.5876 17.09,112.1386 C21.323,117.7376 28.034,121.3626 35.578,121.3626 L36.976,121.3626 C37.724,128.4836 43.763,134.0526 51.08,134.0526 C58.396,134.0526 64.433,128.4836 65.181,121.3626 L66.579,121.3626 C74.122,121.3626 80.833,117.7386 85.066,112.1416 C93.104,115.5576 98.157,121.8236 98.157,128.6886 L98.157,135.9996 L102.157,135.9996 L102.157,128.6886 C102.157,120.3566 96.405,112.8246 87.215,108.7096 Z" id="Fill-1" fill="#4F4959" mask="url(#mask-2)"></path>
            </g>
            <path d="M51.7578,85.7194 L50.8678,85.7194 C48.7198,85.7194 46.9048,84.2664 46.3548,82.2914 L56.2748,82.2914 C55.7238,84.2664 53.9068,85.7194 51.7578,85.7194 Z M60.2048,78.2914 L42.4398,78.2914 L42.2398,80.0694 C42.2038,80.3864 42.1828,80.7084 42.1828,81.0334 C42.1828,85.8234 46.0788,89.7194 50.8678,89.7194 L51.7578,89.7194 C56.5488,89.7194 60.4458,85.8234 60.4458,81.0334 C60.4458,80.7144 60.4238,80.3974 60.3918,80.0844 L60.2048,78.2914 Z" id="Fill-4" fill="#4F4959"></path>
        </g>
    </g>
</svg>