<?xml version="1.0" encoding="utf-8"?>
<!-- Generator: Adobe Illustrator 19.0.0, SVG Export Plug-In . SVG Version: 6.00 Build 0)  -->
<svg version="1.1" id="Layer_1" xmlns="http://www.w3.org/2000/svg" xmlns:xlink="http://www.w3.org/1999/xlink" x="0px" y="0px"
	 viewBox="0 0 140 140" style="enable-background:new 0 0 140 140;" xml:space="preserve">
<style type="text/css">
	.st0{fill:#568800;}
	.st1{fill:#76BE00;}
	.st2{fill:#FFFFFF;}
</style>
<g>
	<path class="st0" d="M4.6,86.9h14.6c0.9,0,1.6,0.7,1.6,1.6s-0.7,1.6-1.6,1.6H4.6c-0.9,0-1.6-0.7-1.6-1.6S3.8,86.9,4.6,86.9"/>
	<path class="st0" d="M127.2,46.2h-24.1c-1.4,0-2.6-1.2-2.6-2.6c0-1.4,1.2-2.6,2.6-2.6h24.1c1.4,0,2.6,1.2,2.6,2.6
		C129.8,45.1,128.7,46.2,127.2,46.2"/>
	<path class="st0" d="M28.3,91l-17,17c-1,1-2.6,1-3.6,0s-1-2.6,0-3.6l17-17c1-1,2.6-1,3.6,0S29.3,90,28.3,91"/>
	<path class="st0" d="M135.1,98.7h-19.5c-1.1,0-2.1-0.9-2.1-2.1c0-1.1,0.9-2.1,2.1-2.1h19.5c1.1,0,2.1,0.9,2.1,2.1
		C137.1,97.8,136.2,98.7,135.1,98.7"/>
	<path class="st0" d="M124.1,108.3h-19.5c-1.1,0-2.1-0.9-2.1-2.1c0-1.1,0.9-2.1,2.1-2.1h19.5c1.1,0,2.1,0.9,2.1,2.1
		C126.2,107.4,125.3,108.3,124.1,108.3"/>
	<path class="st0" d="M35.4,46.2L35.4,46.2c-1.4,0-2.6-1.2-2.6-2.6c0-1.4,1.2-2.6,2.6-2.6c1.4,0,2.6,1.2,2.6,2.6
		C38,45.1,36.8,46.2,35.4,46.2"/>
	<path class="st0" d="M115.2,87.8L115.2,87.8c-1.6,0-2.9-1.3-2.9-2.9s1.3-2.9,2.9-2.9s2.9,1.3,2.9,2.9S116.8,87.8,115.2,87.8"/>
	<path class="st0" d="M12,66L12,66c-1.6,0-2.9-1.3-2.9-2.9c0-1.6,1.3-2.9,2.9-2.9c1.6,0,2.9,1.3,2.9,2.9C14.8,64.7,13.5,66,12,66"/>
	<path class="st0" d="M119,63.1h-9.8c-0.6,0-1-0.5-1-1s0.5-1,1-1h9.8c0.6,0,1,0.5,1,1S119.6,63.1,119,63.1"/>
	<path class="st0" d="M113.1,57.2V67c0,0.6,0.5,1,1,1s1-0.5,1-1v-9.8c0-0.6-0.5-1-1-1S113.1,56.6,113.1,57.2"/>
	<path class="st0" d="M28.6,73.3H18.2c-0.6,0-1.1-0.5-1.1-1.1s0.5-1.1,1.1-1.1h10.4c0.6,0,1.1,0.5,1.1,1.1
		C29.8,72.8,29.3,73.3,28.6,73.3"/>
	<path class="st0" d="M22.3,66.9v10.4c0,0.6,0.5,1.1,1.1,1.1s1.1-0.5,1.1-1.1V66.9c0-0.6-0.5-1.1-1.1-1.1
		C22.8,65.8,22.3,66.3,22.3,66.9"/>
	<path class="st0" d="M127.9,77.9h-6.1c-0.4,0-0.7-0.3-0.7-0.7s0.3-0.7,0.7-0.7h6.1c0.4,0,0.7,0.3,0.7,0.7
		C128.5,77.6,128.2,77.9,127.9,77.9"/>
	<path class="st0" d="M124.2,74.2v6.1c0,0.4,0.3,0.7,0.7,0.7s0.7-0.3,0.7-0.7v-6.1c0-0.4-0.3-0.7-0.7-0.7S124.2,73.8,124.2,74.2"/>
	<g id="XMLID_53_">
		<g>
			<path class="st1" d="M47.5,36c0,2.6-0.7,3.3-1.7,4.4c-0.8,0.9-1.8,2-2.3,3.9h-6.9c-0.5-1.9-1.5-3-2.3-3.9c-1-1.1-1.7-1.8-1.7-4.4
				c0-4.1,3.3-7.4,7.4-7.4C44.1,28.6,47.5,31.9,47.5,36z"/>
			<path class="st2" d="M104.4,69v24.4c0,8.2-6.7,14.9-15,14.9c-1.4,0-2.5-1.1-2.5-2.5s1.1-2.5,2.5-2.5c5.5,0,9.9-4.4,9.9-9.8V69
				c0-15.7-12.9-28.5-28.7-28.5c-3.7,0-7.2,0.7-10.6,2c-1.3,0.5-2.8-0.1-3.3-1.4c-0.5-1.3,0.1-2.8,1.4-3.3c4-1.6,8.2-2.4,12.5-2.4
				C89.2,35.5,104.4,50.5,104.4,69z"/>
			<path class="st2" d="M89.8,114.6c1.4,0.4,2.1,1.8,1.7,3.2c-0.3,1.1-1.3,1.8-2.4,1.8c-0.2,0-0.5,0-0.7-0.1
				c-7.8-2.3-12.5-6.1-14-11.1c-0.4-1.3,0.3-2.8,1.7-3.2s2.8,0.3,3.2,1.7C80.1,110.2,83.7,112.8,89.8,114.6z"/>
			<path class="st2" d="M65.1,105.2c1.4,0.4,2.1,1.8,1.7,3.2c-1.5,5-6.3,8.8-14,11.1c-0.3,0.1-0.5,0.1-0.8,0.1
				c-1.1,0-2.1-0.7-2.4-1.8c-0.4-1.3,0.3-2.8,1.7-3.2c6-1.8,9.6-4.4,10.6-7.8C62.4,105.5,63.8,104.8,65.1,105.2z"/>
			<path class="st2" d="M54.9,63.4c1,0.7,2.1,1.3,3.4,1.8l0.3,0.1h0.1c0.1-0.3,0.2-0.6,0.4-0.9c0.7-1.6,1.3-3.5,1.5-4.2
				c0.4-1.3,1.8-2.1,3.2-1.7c1.4,0.4,2.1,1.8,1.8,3.1c-0.3,1-1,3-1.7,4.7c-0.2,0.4-0.3,0.7-0.4,1c-0.6,1.4-1,2.7-2.4,3.3
				s-2.7,0.1-4.4-0.6l-0.3-0.1c-0.5-0.2-1-0.4-1.5-0.7c-0.4,1.9-0.7,3.9-0.7,6.1c0,7.7,4,14.7,10.3,18.4c2.5,1.4,4.3,2.1,6.1,2.1
				s3.6-0.6,6.1-2.1C83.1,90,87,83,87,75.3c0-2.2-0.2-4.2-0.7-6.1c-2.2,1-4.6,1.9-7.2,2.4c-2.6,0.6-5.5,0.9-8.4,0.9
				c-1.4,0-2.5-1.1-2.5-2.5s1.1-2.5,2.5-2.5c6.2,0,11.9-1.5,15.6-4c0.1-0.1,0.3-0.2,0.4-0.3c0.2-0.1,0.4-0.2,0.6-0.2
				c0.5-0.1,1,0,1.5,0.1c0.2,0.1,0.4,0.2,0.6,0.4c0.3,0.2,0.5,0.5,0.7,0.8c0,0.1,0.1,0.2,0.1,0.3c1.2,3.2,1.9,6.8,1.9,10.8
				c0,9.5-4.9,18.2-12.8,22.8c-3.3,1.9-6,2.8-8.6,2.8l0,0c-2.7,0-5.3-0.9-8.6-2.8c-7.9-4.6-12.8-13.3-12.8-22.8
				c0-3.9,0.6-7.6,1.9-10.8c0-0.1,0.1-0.2,0.1-0.3c0.2-0.3,0.4-0.6,0.7-0.8c0.2-0.2,0.4-0.3,0.7-0.4c0.5-0.2,1-0.2,1.5-0.1
				c0.2,0,0.4,0.1,0.6,0.2C54.7,63.2,54.8,63.3,54.9,63.4z"/>
			<path class="st2" d="M51.8,103.3c1.4,0,2.6,1.1,2.6,2.5s-1.1,2.5-2.6,2.5c-8.3,0-15-6.7-15-14.9V69c0-1.2,0.1-2.4,0.2-3.6
				c0.1-1.4,1.4-2.4,2.8-2.3c1.4,0.2,2.4,1.4,2.3,2.8c-0.1,1-0.2,2-0.2,3.1v24.4C41.9,98.9,46.4,103.3,51.8,103.3z"/>
			<path class="st2" d="M52.6,36c0,4.5-1.7,6.4-3,7.8c-0.9,1-1.3,1.5-1.3,3c0,1.4-1.1,2.5-2.6,2.5H34.3c-1.4,0-2.6-1.1-2.6-2.5
				c0-1.6-0.4-2-1.3-3c-1.3-1.4-3-3.3-3-7.8c0-6.9,5.6-12.5,12.5-12.5C46.9,23.5,52.6,29.1,52.6,36z M45.8,40.4
				c1-1.1,1.7-1.8,1.7-4.4c0-4.1-3.3-7.4-7.4-7.4c-4.1,0-7.4,3.3-7.4,7.4c0,2.6,0.7,3.3,1.7,4.4c0.8,0.9,1.8,2,2.3,3.9h6.9
				C44,42.4,45,41.3,45.8,40.4z"/>
			<path class="st2" d="M44.1,52c1.4,0,2.5,1.1,2.5,2.5S45.5,57,44.1,57h-1.4c0,0.1,0,0.1,0,0.2c0,1.4-1.1,2.5-2.6,2.5H40
				c-1.4,0-2.6-1.1-2.6-2.5c0-0.1,0-0.1,0-0.2H36c-1.4,0-2.5-1.1-2.5-2.5S34.6,52,36,52H44.1z"/>
			<path class="st1" d="M22.7,25.4c1,1,1,2.6,0,3.6c-0.5,0.5-1.1,0.8-1.8,0.8c-0.6,0-1.3-0.3-1.8-0.8l-3.2-3.2c-1-1-1-2.6,0-3.6
				s2.6-1,3.6,0L22.7,25.4z"/>
			<path class="st1" d="M22.7,41.6c1,1,1,2.6,0,3.6l-3.2,3.2c-0.5,0.5-1.2,0.7-1.8,0.7s-1.3-0.3-1.8-0.7c-1-1-1-2.6,0-3.6l3.2-3.2
				C20.1,40.6,21.7,40.6,22.7,41.6z"/>
			<path class="st1" d="M18.4,32.8c1.4,0,2.6,1.1,2.6,2.5s-1.1,2.5-2.6,2.5h-5.3c-1.4,0-2.6-1.1-2.6-2.5s1.1-2.5,2.6-2.5H18.4z"/>
		</g>
	</g>
</g>
</svg>
