<?xml version="1.0" encoding="utf-8"?>
<!-- Generator: Adobe Illustrator 19.0.0, SVG Export Plug-In . SVG Version: 6.00 Build 0)  -->
<svg version="1.1" id="Layer_1" xmlns="http://www.w3.org/2000/svg" xmlns:xlink="http://www.w3.org/1999/xlink" x="0px" y="0px"
	 viewBox="0 0 140 140" style="enable-background:new 0 0 140 140;" xml:space="preserve">
<style type="text/css">
	.st0{fill:#568800;}
	.st1{fill:#76BE00;}
	.st2{fill:#FFFFFF;}
</style>
<g>
	<g>
		<path class="st0" d="M32.2,89.5H8.1c-1.4,0-2.6-1.2-2.6-2.6s1.2-2.6,2.6-2.6h24.1c1.4,0,2.6,1.2,2.6,2.6S33.6,89.5,32.2,89.5"/>
		<path class="st0" d="M132.6,48.7h-24.1c-1.4,0-2.6-1.2-2.6-2.6c0-1.4,1.2-2.6,2.6-2.6h24.1c1.4,0,2.6,1.2,2.6,2.6
			C135.1,47.5,134,48.7,132.6,48.7"/>
		<path class="st0" d="M40,81H15.9c-1.4,0-2.6-1.2-2.6-2.6s1.2-2.6,2.6-2.6H40c1.4,0,2.6,1.2,2.6,2.6C42.6,79.9,41.4,81,40,81"/>
		<path class="st0" d="M132.6,103.3h-24.1c-1.4,0-2.6-1.2-2.6-2.6s1.2-2.6,2.6-2.6h24.1c1.4,0,2.6,1.2,2.6,2.6
			S134,103.3,132.6,103.3"/>
		<path class="st0" d="M104.4,124.3H80.3c-1.4,0-2.6-1.2-2.6-2.6c0-1.4,1.2-2.6,2.6-2.6h24.1c1.4,0,2.6,1.2,2.6,2.6
			S105.8,124.3,104.4,124.3"/>
		<path class="st0" d="M132.3,57.2L132.3,57.2c-1.4,0-2.6-1.2-2.6-2.6c0-1.4,1.2-2.6,2.6-2.6s2.6,1.2,2.6,2.6
			C134.8,56,133.7,57.2,132.3,57.2"/>
		<path class="st0" d="M127,95.6L127,95.6c-0.8,0-1.5-0.7-1.5-1.5s0.7-1.5,1.5-1.5s1.5,0.7,1.5,1.5S127.8,95.6,127,95.6"/>
		<path class="st0" d="M134.7,26h-12.8c-0.8,0-1.4-0.6-1.4-1.4c0-0.8,0.6-1.4,1.4-1.4h12.8c0.8,0,1.4,0.6,1.4,1.4S135.5,26,134.7,26
			"/>
		<path class="st0" d="M127,18.2V31c0,0.8,0.6,1.4,1.4,1.4s1.4-0.6,1.4-1.4V18.2c0-0.8-0.6-1.4-1.4-1.4
			C127.6,16.9,127,17.5,127,18.2"/>
		<path class="st0" d="M32.4,114.7h-5.3c-0.3,0-0.6-0.3-0.6-0.6s0.3-0.6,0.6-0.6h5.3c0.3,0,0.6,0.3,0.6,0.6S32.7,114.7,32.4,114.7"
			/>
		<path class="st0" d="M29.2,111.5v5.3c0,0.3,0.3,0.6,0.6,0.6s0.6-0.3,0.6-0.6v-5.3c0-0.3-0.3-0.6-0.6-0.6S29.2,111.2,29.2,111.5"/>
		<path class="st0" d="M12.8,50.7H7.5c-0.3,0-0.6-0.3-0.6-0.6s0.3-0.6,0.6-0.6h5.3c0.3,0,0.6,0.3,0.6,0.6
			C13.4,50.5,13.1,50.7,12.8,50.7"/>
		<path class="st0" d="M9.6,47.5v5.3c0,0.3,0.3,0.6,0.6,0.6s0.6-0.3,0.6-0.6v-5.3c0-0.3-0.3-0.6-0.6-0.6C9.9,47,9.6,47.2,9.6,47.5"
			/>
		<rect x="22.3" y="32.4" class="st1" width="98.3" height="55.3"/>
		<rect x="48.8" y="114" class="st1" width="43.6" height="7.3"/>
		<polygon class="st1" points="85.2,113 56.6,113 62.3,99.4 80.3,99.8 		"/>
		<path class="st2" d="M71.4,92c-1.2,0-2.2,1-2.2,2.2s1,2.2,2.2,2.2s2.2-1,2.2-2.2S72.6,92,71.4,92"/>
		<path class="st2" d="M120.4,30.8H22.2c-1.2,0-2.1,0.9-2.1,2.1v68.4c0,1.2,0.9,2.1,2.1,2.1h36.5l-3.7,8.9h-6.9
			c-1.2,0-2.1,0.9-2.1,2.1v8c0,1.2,0.9,2.1,2.1,2.1h46.2c1.2,0,2.1-0.9,2.1-2.1v-8c0-1.2-0.9-2.1-2.1-2.1h-6.9l-3.7-8.9h36.5
			c1.2,0,2.1-0.9,2.1-2.1V32.9C122.5,31.7,121.6,30.8,120.4,30.8 M118.4,85.3h-94V35h94L118.4,85.3L118.4,85.3z M92.4,120.2h-42
			v-3.8h42.1L92.4,120.2L92.4,120.2z M83.1,112.2H59.6l3.7-8.9h16.1L83.1,112.2z M24.4,89.5h94v9.7h-94V89.5z"/>
		<path class="st2" d="M87.7,60.1L87.7,60.1c0-1.2-0.9-2.1-2.1-2.1h-2.2c-0.1-0.7-0.3-1.4-0.6-2.1l1.9-1.1c1-0.6,1.3-1.9,0.8-2.9
			c-0.6-1-1.9-1.3-2.9-0.8l-1.9,1.1c-0.5-0.6-1-1.1-1.5-1.5l1.1-1.9c0.6-1,0.2-2.3-0.8-2.9c-1-0.6-2.3-0.2-2.9,0.8l-1.1,1.9
			c-0.7-0.2-1.4-0.4-2.1-0.6v-2.2c0-1.2-0.9-2.1-2.1-2.1l0,0l0,0c-1.2,0-2.1,0.9-2.1,2.1V48c-0.7,0.1-1.4,0.3-2.1,0.6L66,46.7
			c-0.6-1-1.9-1.3-2.9-0.8c-1,0.6-1.3,1.9-0.8,2.9l1.1,1.9c-0.6,0.5-1.1,1-1.5,1.5L60,51.1c-1-0.6-2.3-0.2-2.9,0.8
			c-0.6,1-0.2,2.3,0.8,2.9l1.9,1.1c-0.2,0.7-0.4,1.4-0.6,2.1H57c-1.2,0-2.1,0.9-2.1,2.1c0,1.2,0.9,2.1,2.1,2.1h2.2
			c0.1,0.7,0.3,1.4,0.6,2.1l-1.9,1.1c-1,0.6-1.3,1.9-0.8,2.9c0.6,1,1.9,1.3,2.9,0.8l1.9-1.1c0.5,0.6,1,1.1,1.5,1.5l-1.1,1.9
			c-0.6,1-0.2,2.3,0.8,2.9c1,0.6,2.3,0.2,2.9-0.8l1.1-1.9c0.7,0.2,1.4,0.4,2.1,0.6v2.2c0,1.2,0.9,2.1,2.1,2.1l0,0l0,0
			c1.2,0,2.1-0.9,2.1-2.1v-2.2c0.7-0.1,1.4-0.3,2.1-0.6l1.1,1.9c0.6,1,1.9,1.3,2.9,0.8c1-0.6,1.3-1.9,0.8-2.9l-1.1-1.9
			c0.6-0.5,1.1-1,1.5-1.5l1.9,1.1c1,0.6,2.3,0.2,2.9-0.8c0.6-1,0.2-2.3-0.8-2.9l-1.9-1.1c0.2-0.7,0.4-1.4,0.6-2.1h2.2
			C86.8,62.2,87.7,61.2,87.7,60.1 M71.4,68.1L71.4,68.1C71.4,68.1,71.3,68.1,71.4,68.1c-4.4,0-8-3.6-8-8s3.6-8,8-8l0,0l0,0
			c4.4,0,8,3.6,8,8S75.8,68.1,71.4,68.1"/>
		<path class="st2" d="M45.4,44.3H31c-0.7,0-1.2,0.5-1.2,1.2s0.5,1.2,1.2,1.2h14.4c0.7,0,1.2-0.5,1.2-1.2
			C46.6,44.9,46,44.3,45.4,44.3"/>
		<path class="st2" d="M45.4,50.2H31c-0.7,0-1.2,0.5-1.2,1.2s0.5,1.2,1.2,1.2h14.4c0.7,0,1.2-0.5,1.2-1.2
			C46.6,50.7,46,50.2,45.4,50.2"/>
		<path class="st2" d="M45.4,56H31c-0.7,0-1.2,0.5-1.2,1.2s0.5,1.2,1.2,1.2h14.4c0.7,0,1.2-0.5,1.2-1.2C46.6,56.5,46,56,45.4,56"/>
		<path class="st2" d="M45.4,61.8H31c-0.7,0-1.2,0.5-1.2,1.2s0.5,1.2,1.2,1.2h14.4c0.7,0,1.2-0.5,1.2-1.2
			C46.6,62.4,46,61.8,45.4,61.8"/>
		<path class="st2" d="M45.4,67.6H31c-0.7,0-1.2,0.5-1.2,1.2S30.3,70,31,70h14.4c0.7,0,1.2-0.5,1.2-1.2C46.6,68.2,46,67.6,45.4,67.6
			"/>
		<path class="st2" d="M45.4,73.5H31c-0.7,0-1.2,0.5-1.2,1.2s0.5,1.2,1.2,1.2h14.4c0.7,0,1.2-0.5,1.2-1.2C46.6,74,46,73.5,45.4,73.5
			"/>
		<path class="st2" d="M110.3,57H96.8c-0.6,0-1.2,0.5-1.2,1.2c0,0.6,0.5,1.2,1.2,1.2h13.5c0.6,0,1.2-0.5,1.2-1.2S110.9,57,110.3,57"
			/>
		<path class="st2" d="M110.3,51.6H96.8c-0.6,0-1.2,0.5-1.2,1.2c0,0.6,0.5,1.2,1.2,1.2h13.5c0.6,0,1.2-0.5,1.2-1.2
			S110.9,51.6,110.3,51.6"/>
		<path class="st2" d="M110.3,46.1H96.8c-0.6,0-1.2,0.5-1.2,1.2c0,0.6,0.5,1.2,1.2,1.2h13.5c0.6,0,1.2-0.5,1.2-1.2
			S110.9,46.1,110.3,46.1"/>
		<path class="st2" d="M110.3,62.5H96.8c-0.6,0-1.2,0.5-1.2,1.2v11c0,0.6,0.5,1.2,1.2,1.2h13.5c0.6,0,1.2-0.5,1.2-1.2v-11
			C111.5,63,110.9,62.5,110.3,62.5 M109.2,73.5H98v-8.7h11.2V73.5z"/>
	</g>
</g>
</svg>
