<?xml version="1.0" encoding="utf-8"?>
<!-- Generator: Adobe Illustrator 19.0.0, SVG Export Plug-In . SVG Version: 6.00 Build 0)  -->
<svg version="1.1" id="Layer_1" xmlns="http://www.w3.org/2000/svg" xmlns:xlink="http://www.w3.org/1999/xlink" x="0px" y="0px"
	 viewBox="0 0 114.4 114.4" style="enable-background:new 0 0 114.4 114.4;" xml:space="preserve">
<style type="text/css">
	.st0{fill:#76BE00;}
	.st1{fill:#568800;}
</style>
<g>
	<path class="st0" d="M19.5,93.4c-1,0-2,0.4-2.7,1.1c-0.8,0.7-1.2,1.7-1.2,2.7s0.4,2,1.1,2.7c0.7,0.7,1.7,1.1,2.7,1.1s2-0.4,2.7-1.1
		c0.7-0.7,1.1-1.7,1.1-2.7s-0.4-2-1.1-2.7C21.5,93.8,20.5,93.4,19.5,93.4L19.5,93.4z"/>
	<path class="st0" d="M95.8,93.4c-1,0-2,0.4-2.7,1.1c-0.7,0.7-1.1,1.7-1.1,2.7s0.4,2,1.1,2.7s1.7,1.1,2.7,1.1s2-0.4,2.7-1.1
		c0.7-0.7,1.1-1.7,1.1-2.7s-0.4-2-1.1-2.7S96.8,93.4,95.8,93.4L95.8,93.4z"/>
	<path class="st1" d="M102.2,37.4c1,0,2-0.4,2.7-1.1c0.7-0.7,1.1-1.7,1.1-2.7s-0.4-2-1.1-2.7s-1.7-1.1-2.7-1.1s-2,0.4-2.7,1.1
		c-0.7,0.7-1.1,1.7-1.1,2.7s0.4,2,1.1,2.7C100.2,37,101.2,37.4,102.2,37.4L102.2,37.4z"/>
	<path class="st1" d="M32.2,12c1,0,2-0.4,2.7-1.1c0.7-0.7,1.1-1.7,1.1-2.7s-0.4-2-1.1-2.7s-1.7-1.1-2.7-1.1s-2,0.4-2.7,1.1
		c-0.7,0.7-1.1,1.7-1.1,2.7s0.4,2,1.1,2.7S31.2,12,32.2,12L32.2,12z"/>
	<path class="st0" d="M13.1,37.4c1,0,2-0.4,2.7-1.1c0.7-0.7,1.1-1.7,1.1-2.7s-0.4-2-1.1-2.7s-1.7-1.1-2.7-1.1s-2,0.4-2.7,1.1
		c-0.7,0.7-1.1,1.7-1.1,2.7s0.4,2,1.1,2.7C11.1,37,12.1,37.4,13.1,37.4L13.1,37.4z"/>
	<g>
		<path class="st0" d="M83.1,12c1,0,2-0.4,2.7-1.1c0.7-0.7,1.1-1.7,1.1-2.7s-0.4-2-1.1-2.7s-1.7-1.1-2.7-1.1s-2,0.4-2.7,1.1
			c-0.7,0.7-1.1,1.7-1.1,2.7s0.4,2,1.1,2.7S82.1,12,83.1,12L83.1,12z"/>
		<path class="st0" d="M31.1,73.8l8.3-8.1c0.3-0.3,0.4-0.8,0.3-1.2c-0.1-0.4-0.5-0.7-0.9-0.8L27.4,62l-5.2-10.5
			c-0.2-0.4-0.6-0.6-1-0.6s-0.8,0.3-1,0.7l-5.1,10.5L3.7,63.8c-0.4,0.1-0.8,0.4-0.9,0.8c-0.1,0.4,0,0.9,0.3,1.2l8.3,8.1L9.5,85.4
			c-0.1,0.4,0.1,0.9,0.5,1.1c0.4,0.3,0.8,0.3,1.2,0.1l10.2-5.4l10.2,5.4c0.4,0.2,0.9,0.2,1.2-0.1c0.4-0.3,0.5-0.7,0.5-1.1L31.1,73.8
			z"/>
	</g>
	<path class="st0" d="M112,64.4c-0.1-0.4-0.5-0.7-0.9-0.8l-11.4-1.7l-5.1-10.5c-0.2-0.4-0.6-0.6-1-0.6s-0.8,0.3-1,0.7L87.5,62
		l-11.4,1.7c-0.4,0.1-0.8,0.4-0.9,0.8c-0.1,0.4,0,0.9,0.3,1.2l8.3,8.1l-1.9,11.5c-0.1,0.4,0.1,0.9,0.5,1.1c0.4,0.3,0.8,0.3,1.2,0.1
		l10.2-5.4l10.2,5.4c0.4,0.2,0.9,0.2,1.2-0.1c0.4-0.3,0.5-0.7,0.5-1.1l-1.9-11.5l8.3-8.1C112,65.3,112.1,64.9,112,64.4L112,64.4z"/>
	<path class="st0" d="M33.4,24.7c-0.1,0.4,0,0.9,0.3,1.2l11.1,10.9l-2.6,15.4c-0.1,0.4,0.1,0.9,0.5,1.1c0.3,0.3,0.8,0.3,1.2,0.1
		l13.8-7.3l13.8,7.3c0.4,0.2,0.9,0.2,1.2-0.1c0.4-0.3,0.5-0.7,0.5-1.1l-2.6-15.4l11.1-10.9c0.3-0.3,0.4-0.8,0.3-1.2
		s-0.5-0.7-0.9-0.8l-15.4-2.2l-6.9-14c-0.2-0.4-0.6-0.6-1-0.6s-0.8,0.2-1,0.6l-6.9,14l-15.4,2.2C33.9,23.9,33.5,24.2,33.4,24.7
		L33.4,24.7z"/>
	<path class="st1" d="M63.7,86.8L67,57.1l-9.3-4.9l-9.3,4.9l3.3,29.7c-5.7-6.9-11-9.9-14.6-11.3l1.4,9.5c4,2.8,9.4,8.1,15.1,18.9
		l0.3,2.6c0.2,2,1.9,3.4,3.8,3.4c2,0,3.6-1.5,3.8-3.4l0.3-2.6c5.3-10.3,10.5-16,14.5-18.9l1.5-9.5C74.2,77,69.1,80.1,63.7,86.8
		L63.7,86.8z"/>
</g>
</svg>
