<?xml version="1.0" encoding="utf-8"?>
<!-- Generator: Adobe Illustrator 19.0.0, SVG Export Plug-In . SVG Version: 6.00 Build 0)  -->
<svg version="1.1" id="Layer_1" xmlns="http://www.w3.org/2000/svg" xmlns:xlink="http://www.w3.org/1999/xlink" x="0px" y="0px"
	 viewBox="0 0 140 140" style="enable-background:new 0 0 140 140;" xml:space="preserve">
<style type="text/css">
	.st0{fill:#568800;}
	.st1{fill:#FFFFFF;}
	.st2{fill:#76BE00;}
</style>
<g>
	<path class="st0" d="M29.5,85.5H5.4c-1.4,0-2.6-1.2-2.6-2.6s1.2-2.6,2.6-2.6h24.1c1.4,0,2.6,1.2,2.6,2.6S30.9,85.5,29.5,85.5"/>
	<path class="st0" d="M69.8,34.2H45.7c-1.4,0-2.6-1.2-2.6-2.6c0-1.4,1.2-2.6,2.6-2.6h24.1c1.4,0,2.6,1.2,2.6,2.6
		S71.2,34.2,69.8,34.2"/>
	<path class="st0" d="M27.5,77H12.2c-0.9,0-1.6-0.7-1.6-1.6c0-0.9,0.7-1.6,1.6-1.6h15.3c0.9,0,1.6,0.7,1.6,1.6S28.4,77,27.5,77"/>
	<path class="st0" d="M129.9,99.3h-24.1c-1.4,0-2.6-1.2-2.6-2.6s1.2-2.6,2.6-2.6h24.1c1.4,0,2.6,1.2,2.6,2.6S131.3,99.3,129.9,99.3"
		/>
	<path class="st0" d="M116.3,111.3H92.2c-1.4,0-2.6-1.2-2.6-2.6c0-1.4,1.2-2.6,2.6-2.6h24.1c1.4,0,2.6,1.2,2.6,2.6
		S117.7,111.3,116.3,111.3"/>
	<path class="st0" d="M37.2,44.2L37.2,44.2c-1.4,0-2.6-1.2-2.6-2.6c0-1.4,1.2-2.6,2.6-2.6s2.6,1.2,2.6,2.6
		C39.8,43.1,38.6,44.2,37.2,44.2"/>
	<path class="st0" d="M124.2,62.1L124.2,62.1c-0.8,0-1.5-0.7-1.5-1.5s0.7-1.5,1.5-1.5s1.5,0.7,1.5,1.5S125.1,62.1,124.2,62.1"/>
	<path class="st0" d="M120.3,75.9h-12.8c-0.8,0-1.4-0.6-1.4-1.4c0-0.8,0.6-1.4,1.4-1.4h12.8c0.8,0,1.4,0.6,1.4,1.4
		C121.6,75.2,121,75.9,120.3,75.9"/>
	<path class="st0" d="M112.5,68.1v12.8c0,0.8,0.6,1.4,1.4,1.4s1.4-0.6,1.4-1.4V68.1c0-0.8-0.6-1.4-1.4-1.4S112.5,67.3,112.5,68.1"/>
	<path class="st0" d="M137.3,48.2H132c-0.3,0-0.6-0.3-0.6-0.6s0.3-0.6,0.6-0.6h5.3c0.3,0,0.6,0.3,0.6,0.6S137.6,48.2,137.3,48.2"/>
	<path class="st0" d="M134,45v5.3c0,0.3,0.3,0.6,0.6,0.6s0.6-0.3,0.6-0.6V45c0-0.3-0.3-0.6-0.6-0.6S134,44.6,134,45"/>
	<path class="st0" d="M25.9,53.5H15.5c-0.6,0-1.1-0.5-1.1-1.1s0.5-1.1,1.1-1.1h10.4c0.6,0,1.1,0.5,1.1,1.1
		C27.1,53,26.6,53.5,25.9,53.5"/>
	<path class="st0" d="M19.6,47.1v10.4c0,0.6,0.5,1.1,1.1,1.1s1.1-0.5,1.1-1.1V47.1c0-0.6-0.5-1.1-1.1-1.1S19.6,46.5,19.6,47.1"/>
	<g>
		<g id="XMLID_53_">
			<g>
				<path class="st1" d="M121.3,23.5c0.9,7.5,0.1,15.3-2.3,22.5c-2.5,7.2-6.6,13.8-12,19.2L94.7,77.5l-2.3,17.7
					c-0.1,0.4-0.2,0.8-0.5,1.1l-17.1,17c-0.4,0.3-0.8,0.5-1.3,0.5c-0.2,0-0.4,0-0.5-0.1c-0.6-0.2-1.1-0.8-1.3-1.4l-2.4-12.9
					l-2.5-2.5l-2.9,5.4c-0.3,0.5-0.8,0.9-1.4,1c-0.1,0-0.2,0-0.3,0c-0.5,0-1-0.2-1.3-0.5L40.4,82.3c-0.4-0.4-0.6-1-0.5-1.6
					s0.4-1.1,1-1.3l5.4-2.9L43.8,74l-12.9-2.4c-0.7-0.1-1.2-0.6-1.4-1.3c-0.2-0.6,0-1.4,0.5-1.8l17.1-17c0.3-0.3,0.7-0.5,1.1-0.5
					l17.7-2.3l12.3-12.3c5.4-5.4,12-9.5,19.3-12c7.2-2.5,15-3.3,22.6-2.3C120.5,22,121.2,22.7,121.3,23.5z M116.3,41.8
					c1.4-5.3,1.9-10.9,1.4-16.4c-5.5-0.5-11.1,0-16.5,1.4c0.6,3.7,2.4,7.2,5.1,9.9C109.1,39.4,112.6,41.2,116.3,41.8z M104.3,62.6
					c4.8-4.8,8.6-10.8,10.9-17.2c-4.3-0.8-8.3-2.9-11.4-6s-5.2-7.1-6.1-11.4c-6.5,2.3-12.4,6.1-17.3,10.9L47,72.2l23.8,23.7
					L104.3,62.6z M88.7,94l1.6-12.3L72.8,99.1l1.7,9.1L88.7,94z M61.6,98.3l2.3-4.2l-15.1-15l-4.2,2.3L61.6,98.3z M43.8,70.1
					l17.5-17.4l-12.4,1.6L34.7,68.4L43.8,70.1z"/>
				<path class="st2" d="M117.8,25.4c0.5,5.5,0,11.1-1.4,16.4c-3.7-0.6-7.2-2.4-9.9-5.1c-2.7-2.7-4.5-6.2-5.1-9.9
					C106.6,25.4,112.3,24.9,117.8,25.4z"/>
				<path class="st2" d="M115.2,45.4c-2.3,6.4-6.1,12.4-10.9,17.2L70.9,95.9L47.1,72.2l33.4-33.3c4.9-4.8,10.8-8.6,17.3-10.9
					c0.8,4.3,2.9,8.3,6.1,11.4C106.9,42.4,110.9,44.5,115.2,45.4z M94.5,64.4c4.4-4.3,4.4-11.4,0-15.8c-4.4-4.3-11.5-4.3-15.8,0
					c-4.4,4.3-4.4,11.4,0,15.8c2.2,2.2,5,3.3,7.9,3.3C89.5,67.6,92.3,66.5,94.5,64.4z"/>
				<path class="st1" d="M94.5,48.6c4.4,4.3,4.4,11.4,0,15.8c-2.2,2.2-5,3.3-7.9,3.3s-5.7-1.1-7.9-3.3c-4.4-4.3-4.4-11.4,0-15.8
					C83,44.3,90.1,44.3,94.5,48.6z M91.9,61.8c2.9-2.9,2.9-7.7,0-10.6c-1.5-1.5-3.4-2.2-5.3-2.2s-3.8,0.7-5.3,2.2
					c-2.9,2.9-2.9,7.7,0,10.6S89,64.7,91.9,61.8z"/>
				<path class="st1" d="M50.9,99.9c0.7-0.7,1.9-0.7,2.6,0s0.7,1.9,0,2.6l-7.1,7.1c-0.4,0.4-0.8,0.5-1.3,0.5s-0.9-0.2-1.3-0.5
					c-0.7-0.7-0.7-1.9,0-2.6L50.9,99.9z"/>
				<path class="st1" d="M48.4,97.4l-15.8,15.8c-0.4,0.3-0.8,0.5-1.3,0.5s-0.9-0.2-1.3-0.5c-0.7-0.7-0.7-1.9,0-2.6l15.8-15.8
					c0.7-0.7,1.9-0.7,2.6,0C49.2,95.6,49.2,96.7,48.4,97.4z"/>
				<path class="st1" d="M43,111.4c0.3,0.8,0,1.7-0.7,2.2c-0.6,0.5-1.6,0.4-2.2-0.1s-0.9-1.3-0.6-2.1c0.3-0.7,1-1.2,1.7-1.2
					C42,110.2,42.7,110.7,43,111.4L43,111.4L43,111.4z"/>
				<path class="st1" d="M42.4,93.4c-0.4,0.4-0.8,0.5-1.3,0.5s-0.9-0.2-1.3-0.5c-0.7-0.7-0.7-1.9,0-2.6l1-1c0.7-0.7,1.9-0.7,2.6,0
					s0.7,1.9,0,2.6L42.4,93.4z"/>
				<path class="st1" d="M38.6,114.7c0.7,0.7,0.7,1.9,0,2.6l-1,1c-0.4,0.4-0.8,0.5-1.3,0.5s-0.9-0.2-1.3-0.5c-0.7-0.7-0.7-1.9,0-2.6
					l1-1C36.8,113.9,37.9,113.9,38.6,114.7z"/>
				<path class="st1" d="M39,96.2c-0.1,0.8-0.6,1.4-1.4,1.6c-0.7,0.2-1.5-0.1-2-0.8l0,0c-0.5-0.7-0.4-1.7,0.2-2.3s1.4-0.7,2.2-0.4
					C38.7,94.7,39.1,95.4,39,96.2z"/>
				<path class="st1" d="M32.1,98.5c0.7-0.7,1.9-0.7,2.6,0s0.7,1.9,0,2.6l-7.1,7.1c-0.4,0.4-0.8,0.5-1.3,0.5s-0.9-0.2-1.3-0.5
					c-0.7-0.7-0.7-1.9,0-2.6L32.1,98.5z"/>
			</g>
		</g>
	</g>
</g>
</svg>
