<?xml version="1.0" encoding="UTF-8"?>
<svg width="51px" height="38px" viewBox="0 0 51 38" version="1.1" xmlns="http://www.w3.org/2000/svg" xmlns:xlink="http://www.w3.org/1999/xlink">
    <!-- Generator: Sketch 45 (43475) - http://www.bohemiancoding.com/sketch -->
    <title>quote</title>
    <desc>Created with Sketch.</desc>
    <defs></defs>
    <g id="Page-1" stroke="none" stroke-width="1" fill="none" fill-rule="evenodd">
        <g id="Blog-Article" transform="translate(-570.000000, -1110.000000)" fill="#72C02C">
            <path d="M591.776161,1130.89054 C592.548802,1132.43799 592.935117,1134.10759 592.935117,1135.89938 C592.935117,1139.23863 591.83717,1141.98735 589.641244,1144.14565 C587.445317,1146.30394 584.680118,1147.38307 581.345563,1147.38307 C578.173669,1147.38307 575.4898,1146.36502 573.293873,1144.3289 C571.097947,1142.29277 570,1139.52368 570,1136.02155 C570,1133.17097 571.016617,1130.15755 573.049883,1126.9812 L583.785469,1110 L595.375023,1110 L588.421291,1127.10336 C589.885242,1128.0807 591.003521,1129.34308 591.776161,1130.89054 Z M616.663203,1130.89054 C617.435844,1132.43799 617.822158,1134.10759 617.822158,1135.89938 C617.822158,1139.23863 616.724212,1141.98735 614.528285,1144.14565 C612.332359,1146.30394 609.56716,1147.38307 606.232605,1147.38307 C603.060711,1147.38307 600.376841,1146.36502 598.180915,1144.3289 C595.984988,1142.29277 594.887042,1139.52368 594.887042,1136.02155 C594.887042,1133.17097 595.903659,1130.15755 597.936924,1126.9812 L608.672511,1110 L620.262064,1110 L613.308332,1127.10336 C614.772283,1128.0807 615.890562,1129.34308 616.663203,1130.89054 Z" id="quote"></path>
        </g>
    </g>
</svg>