<?xml version="1.0" encoding="UTF-8"?>
<svg width="150px" height="150px" viewBox="0 0 150 150" version="1.1" xmlns="http://www.w3.org/2000/svg" xmlns:xlink="http://www.w3.org/1999/xlink">
    <!-- Generator: Sketch 49.3 (51167) - http://www.bohemiancoding.com/sketch -->
    <title>Icons/Scrum Masters/Black</title>
    <desc>Created with Sketch.</desc>
    <defs>
        <polygon id="path-1" points="0 0.6206 82.401 0.6206 82.401 110.9996 0 110.9996"></polygon>
    </defs>
    <g id="Icons/Scrum-Masters/Black" stroke="none" stroke-width="1" fill="none" fill-rule="evenodd">
        <g id="Page-1" transform="translate(34.000000, 19.000000)">
            <path d="M21.7842,70.9425 L31.3272,80.4855 L24.9302,80.4855 C23.1952,80.4855 21.7842,79.0755 21.7842,77.3405 L21.7842,70.9425 Z M17.7842,77.3405 C17.7842,81.2805 20.9892,84.4855 24.9302,84.4855 L40.9832,84.4855 L17.7842,61.2865 L17.7842,77.3405 Z" id="Fill-1" fill="#4F4959"></path>
            <path d="M37.8467,50.9532 L35.0187,48.1252 C32.2827,50.8612 27.8277,50.8622 25.0897,48.1242 L22.2617,50.9542 C24.4117,53.1012 27.2337,54.1752 30.0557,54.1752 C32.8777,54.1752 35.7007,53.1002 37.8467,50.9532" id="Fill-3" fill="#4F4959"></path>
            <path d="M52.8506,48.1232 L50.0226,50.9512 C52.1706,53.1002 54.9926,54.1732 57.8146,54.1732 C60.6356,54.1732 63.4586,53.1002 65.6076,50.9522 L62.7796,48.1222 C60.0406,50.8602 55.5866,50.8592 52.8506,48.1232" id="Fill-5" fill="#4F4959"></path>
            <g id="Group-9" transform="translate(0.000000, 0.380000)">
                <mask id="mask-2" fill="white">
                    <use xlink:href="#path-1"></use>
                </mask>
                <g id="Clip-8"></g>
                <path d="M67.667,77.7676 C67.667,85.2756 61.559,91.3826 54.051,91.3826 L24.122,91.3826 C16.614,91.3826 10.506,85.2756 10.506,77.7676 L10.506,58.0056 C16.671,55.2606 20.985,49.0856 20.985,41.9136 L20.985,36.9186 C21.918,37.0736 22.857,37.1506 23.797,37.1506 L44.321,37.1506 L44.321,65.4056 L44.971,65.4056 L48.321,65.4056 L48.971,65.4056 C48.971,63.6376 50.409,62.2006 52.178,62.2006 C53.945,62.2006 55.383,63.6376 55.383,65.4056 C55.383,67.1716 53.945,68.6096 52.178,68.6096 L52.178,72.6096 C56.15,72.6096 59.383,69.3776 59.383,65.4056 C59.383,61.4326 56.15,58.2006 52.178,58.2006 C50.759,58.2006 49.438,58.6186 48.321,59.3296 L48.321,37.1506 L64.787,37.1506 C65.77,37.1506 66.728,37.0486 67.667,36.8936 L67.667,77.7676 Z M75.189,61.1846 L75.189,67.1816 C75.189,69.2466 73.653,70.9456 71.667,71.2336 L71.667,57.1346 C73.653,57.4216 75.189,59.1206 75.189,61.1846 Z M4,31.5726 C4,27.0526 6.238,22.8366 9.986,20.2956 L10.616,19.8696 L10.803,19.1316 C12.969,10.5876 20.632,4.6206 29.438,4.6206 L78.401,4.6206 L78.401,19.5356 C78.401,27.0426 72.294,33.1506 64.787,33.1506 L23.797,33.1506 C22.391,33.1506 20.979,32.9236 19.604,32.4766 L16.985,31.6266 L16.985,41.9136 C16.985,49.2106 11.216,55.1856 4,55.5146 L4,31.5726 Z M82.401,19.5356 L82.401,0.6206 L29.438,0.6206 C19.05,0.6206 9.979,7.4936 7.121,17.4256 C2.648,20.7466 0,25.9786 0,31.5726 L0,59.5296 L3.371,59.5296 C4.442,59.5296 5.486,59.4176 6.506,59.2336 L6.506,70.9666 C5.034,70.3396 4,68.8796 4,67.1816 L4,65.0876 L0,65.0876 L0,67.1816 C0,71.1056 2.801,74.3856 6.506,75.1326 L6.506,77.7676 C6.506,84.8476 10.714,90.9496 16.752,93.7466 L16.752,110.9996 L20.752,110.9996 L20.752,95.0506 C21.844,95.2636 22.969,95.3826 24.122,95.3826 L43.218,95.3826 L43.218,110.9996 L47.218,110.9996 L47.218,95.3826 L54.051,95.3826 C63.765,95.3826 71.667,87.4806 71.667,77.7676 L71.667,75.2636 C75.864,74.9606 79.189,71.4556 79.189,67.1816 L79.189,61.1846 C79.189,56.9116 75.864,53.4086 71.667,53.1056 L71.667,35.7486 C77.971,33.0646 82.401,26.8076 82.401,19.5356 Z" id="Fill-7" fill="#4F4959" mask="url(#mask-2)"></path>
            </g>
        </g>
    </g>
</svg>