<?xml version="1.0" encoding="utf-8"?>
<!-- Generator: Adobe Illustrator 16.0.0, SVG Export Plug-In . SVG Version: 6.00 Build 0)  -->
<!DOCTYPE svg PUBLIC "-//W3C//DTD SVG 1.1//EN" "http://www.w3.org/Graphics/SVG/1.1/DTD/svg11.dtd">
<svg version="1.1" id="Layer_1" xmlns="http://www.w3.org/2000/svg" xmlns:xlink="http://www.w3.org/1999/xlink" x="0px" y="0px"
	 width="613.433px" height="292.537px" viewBox="0 0 613.433 292.537" enable-background="new 0 0 613.433 292.537"
	 xml:space="preserve">
<g>
	<g>
		<polygon fill="#2BC000" points="215.277,182.634 215.277,72.862 310.343,17.975 405.41,72.862 405.41,182.634 310.343,237.521 		
			"/>
		<path fill="#FFFFFF" d="M310.343,22.885l90.814,52.432V180.18l-90.814,52.432L219.53,180.18V75.316L310.343,22.885z
			 M310.343,13.065l-99.318,57.341V185.09l99.318,57.341l99.318-57.341V70.406L310.343,13.065z"/>
		<g>
			<path fill="#1A8B00" d="M349.716,93.851h-24.064c-1.411,0-2.566-1.155-2.566-2.567s1.155-2.566,2.566-2.566h24.064
				c1.412,0,2.567,1.154,2.567,2.566S351.128,93.851,349.716,93.851"/>
			<path fill="#1A8B00" d="M265.192,97.818L265.192,97.818c-1.412,0-2.566-1.155-2.566-2.566c0-1.412,1.154-2.568,2.566-2.568
				s2.567,1.156,2.567,2.568C267.759,96.663,266.604,97.818,265.192,97.818"/>
			<path fill="#1A8B00" d="M334.302,184.325L334.302,184.325c-0.825,0-1.5-0.675-1.5-1.5s0.675-1.5,1.5-1.5s1.5,0.675,1.5,1.5
				S335.127,184.325,334.302,184.325"/>
			<path fill="#1A8B00" d="M291.369,160.089h-24.063c-1.412,0-2.567-1.155-2.567-2.567c0-1.411,1.155-2.566,2.567-2.566h24.063
				c1.412,0,2.567,1.155,2.567,2.566C293.936,158.934,292.781,160.089,291.369,160.089"/>
			<path fill="#1A8B00" d="M343.119,171.994h-24.064c-1.412,0-2.567-1.155-2.567-2.567s1.155-2.567,2.567-2.567h24.064
				c1.411,0,2.566,1.155,2.566,2.567S344.53,171.994,343.119,171.994"/>
			<path fill="#1A8B00" d="M346.109,132.855h-12.846c-0.753,0-1.37-0.616-1.37-1.369c0-0.755,0.617-1.371,1.37-1.371h12.846
				c0.754,0,1.37,0.616,1.37,1.371C347.479,132.239,346.863,132.855,346.109,132.855"/>
			<path fill="#1A8B00" d="M338.316,125.062v12.846c0,0.753,0.616,1.37,1.369,1.37c0.755,0,1.371-0.617,1.371-1.37v-12.846
				c0-0.754-0.616-1.37-1.371-1.37C338.932,123.692,338.316,124.309,338.316,125.062"/>
			<path fill="#1A8B00" d="M279.409,75.721h-12.847c-0.753,0-1.369-0.617-1.369-1.369c0-0.754,0.616-1.371,1.369-1.371h12.847
				c0.754,0,1.37,0.617,1.37,1.371C280.779,75.104,280.163,75.721,279.409,75.721"/>
			<path fill="#1A8B00" d="M271.615,67.928v12.846c0,0.754,0.617,1.37,1.37,1.37c0.754,0,1.371-0.616,1.371-1.37V67.928
				c0-0.754-0.617-1.37-1.371-1.37C272.232,66.558,271.615,67.174,271.615,67.928"/>
			<path fill="#2BC000" d="M329.989,176.31h-46.046c-0.604,0-1.098-0.494-1.098-1.098V83.241c0-0.604,0.494-1.097,1.098-1.097
				h46.046c0.604,0,1.098,0.492,1.098,1.097v91.971C331.086,175.815,330.592,176.31,329.989,176.31"/>
			<path fill="#FFFFFF" d="M327.219,80.986h-40.507c-3.903,0-7.083,3.18-7.083,7.084v82.312c0,3.906,3.18,7.085,7.083,7.085h40.505
				c3.905,0,7.085-3.179,7.085-7.083V88.07C334.302,84.166,331.123,80.986,327.219,80.986 M282.845,93.851h48.241v61.104h-48.241
				V93.851z M286.712,84.203h40.505c2.134,0,3.869,1.734,3.869,3.867v2.564h-48.241V88.07
				C282.845,85.938,284.581,84.203,286.712,84.203 M327.219,174.251h-40.507c-2.132,0-3.867-1.735-3.867-3.867v-12.213h48.241
				v12.213C331.086,172.516,329.351,174.251,327.219,174.251"/>
			<path fill="#FFFFFF" d="M306.966,159.778c-3.548,0-6.433,2.886-6.433,6.433s2.885,6.432,6.433,6.432
				c3.547,0,6.432-2.885,6.432-6.432S310.513,159.778,306.966,159.778 M306.966,169.427c-1.774,0-3.217-1.442-3.217-3.216
				c0-1.774,1.442-3.216,3.217-3.216c1.773,0,3.216,1.441,3.216,3.216C310.182,167.984,308.74,169.427,306.966,169.427"/>
			<path fill="#FFFFFF" d="M300.534,89.027h6.433c0.889,0,1.607-0.72,1.607-1.608c0-0.89-0.719-1.608-1.607-1.608h-6.433
				c-0.889,0-1.607,0.719-1.607,1.608C298.926,88.308,299.645,89.027,300.534,89.027"/>
			<path fill="#FFFFFF" d="M311.791,89.027h1.607c0.89,0,1.608-0.72,1.608-1.608c0-0.89-0.719-1.608-1.608-1.608h-1.607
				c-0.89,0-1.608,0.719-1.608,1.608C310.182,88.308,310.901,89.027,311.791,89.027"/>
			<path fill="#FFFFFF" d="M297.119,124.972l-0.052,0.048l1.126,0.822c0.037,0.027,0.076,0.049,0.113,0.076
				c0.222,0.16,0.451,0.311,0.683,0.459c0.143,0.091,0.285,0.178,0.429,0.263c0.221,0.13,0.44,0.257,0.666,0.376
				c0.19,0.1,0.386,0.19,0.58,0.282c0.194,0.09,0.384,0.187,0.581,0.269c0.387,0.163,0.779,0.308,1.178,0.436
				c0.138,0.046,0.28,0.079,0.42,0.12c0.299,0.087,0.598,0.167,0.902,0.233c0.156,0.035,0.313,0.065,0.472,0.094
				c0.311,0.061,0.624,0.107,0.938,0.146c0.144,0.017,0.285,0.037,0.428,0.051c0.458,0.043,0.919,0.07,1.384,0.07
				c0.464,0,0.924-0.027,1.382-0.07c0.144-0.014,0.285-0.034,0.427-0.051c0.316-0.039,0.63-0.086,0.941-0.146
				c0.156-0.028,0.312-0.059,0.468-0.094c0.308-0.067,0.611-0.147,0.913-0.235c0.136-0.04,0.274-0.073,0.409-0.116
				c0.398-0.129,0.793-0.273,1.181-0.437c0.19-0.079,0.372-0.172,0.56-0.259c0.202-0.095,0.405-0.188,0.604-0.293
				c0.219-0.115,0.432-0.238,0.645-0.364c0.153-0.09,0.307-0.183,0.457-0.278c0.223-0.143,0.441-0.287,0.654-0.439
				c0.04-0.027,0.082-0.052,0.121-0.081l1.167-0.849l-0.058-0.051c3.126-2.769,5.112-6.814,5.112-11.326
				c0-8.32-6.722-15.09-14.982-15.09c-8.262,0-14.983,6.77-14.983,15.09C291.983,118.15,293.979,122.203,297.119,124.972
				 M303.876,125.996c-0.456-0.113-0.905-0.258-1.348-0.424c-0.052-0.02-0.104-0.037-0.157-0.058
				c-0.455-0.178-0.901-0.38-1.336-0.612l2.799-1.537c0.859-0.472,1.394-1.379,1.394-2.363v-1.961l-0.27-0.321
				c-0.009-0.013-0.926-1.146-1.271-2.663l-0.154-0.542l-0.395-0.257l0.039-1.754l0.38-0.346v-2.949l-0.012-0.151
				c-0.001-0.008-0.082-0.864,0.495-1.526c0.538-0.617,1.561-0.944,2.956-0.944c1.381,0,2.399,0.319,2.94,0.927
				c0.595,0.664,0.513,1.523,0.511,1.545l-0.011,2.585l0.038,0.586l0.381,0.347v1.683c0,0.049-0.046,0.082-0.075,0.091l-0.574,0.178
				l-0.185,0.577c-0.257,0.804-0.621,1.543-1.085,2.203c-0.107,0.154-0.209,0.285-0.298,0.386l-0.289,0.33v2.016
				c0,1.027,0.565,1.949,1.477,2.408l2.979,1.5c-0.018,0.01-0.035,0.016-0.051,0.024c-0.406,0.212-0.824,0.397-1.249,0.562
				c-0.073,0.027-0.146,0.054-0.218,0.08c-0.433,0.156-0.873,0.295-1.32,0.403c-0.012,0.003-0.022,0.006-0.033,0.009
				c-1.977,0.471-4.062,0.463-6.033-0.025C303.893,126,303.885,125.998,303.876,125.996 M306.966,100.859
				c6.99,0,12.678,5.728,12.678,12.768c0,3.964-1.803,7.511-4.625,9.854c-0.057-0.031-0.111-0.07-0.169-0.1l-3.988-2.008
				c-0.125-0.062-0.206-0.192-0.206-0.332v-1.166c0.056-0.072,0.11-0.148,0.165-0.228c0.505-0.716,0.919-1.506,1.232-2.354
				c0.683-0.435,1.11-1.192,1.11-2.035v-1.683c0-0.484-0.149-0.957-0.418-1.354v-1.95c0.036-0.419,0.083-1.961-1.057-3.269
				c-1.003-1.152-2.58-1.737-4.69-1.737c-2.108,0-3.686,0.585-4.688,1.737c-1.138,1.308-1.093,2.848-1.057,3.269v1.95
				c-0.27,0.397-0.418,0.87-0.418,1.354v1.683c0,0.651,0.259,1.261,0.706,1.711c0.371,1.323,1.019,2.364,1.383,2.881v1.151
				c0,0.136-0.074,0.261-0.192,0.326l-3.725,2.047c-0.043,0.023-0.082,0.055-0.124,0.08c-2.806-2.346-4.596-5.881-4.596-9.828
				C294.288,106.587,299.976,100.859,306.966,100.859"/>
			<path fill="#FFFFFF" d="M323.696,148.624c0.869,0,1.572-0.704,1.572-1.573c0-0.868-0.703-1.572-1.572-1.572h-33.551
				c-0.868,0-1.571,0.704-1.571,1.572c0,0.869,0.703,1.573,1.571,1.573H323.696z"/>
			<path fill="#FFFFFF" d="M323.985,136.735H300.29c-0.683,0-1.235,0.553-1.235,1.233c0,0.683,0.553,1.234,1.235,1.234h23.695
				c0.682,0,1.233-0.552,1.233-1.234C325.218,137.288,324.667,136.735,323.985,136.735"/>
			<path fill="#FFFFFF" d="M292.39,134.102c-2.132,0-3.866,1.735-3.866,3.867c0,2.133,1.734,3.867,3.866,3.867
				c2.133,0,3.867-1.734,3.867-3.867C296.257,135.837,294.523,134.102,292.39,134.102 M292.39,139.368
				c-0.771,0-1.398-0.627-1.398-1.399c0-0.771,0.628-1.397,1.398-1.397c0.771,0,1.399,0.627,1.399,1.397
				C293.79,138.741,293.162,139.368,292.39,139.368"/>
		</g>
	</g>
	<g>
		<polygon fill="#2BC000" points="407.54,222.635 407.54,112.862 502.606,57.976 597.671,112.862 597.671,222.635 502.606,277.521 
					"/>
		<path fill="#FFFFFF" d="M502.606,62.886l90.813,52.431V220.18l-90.813,52.432l-90.814-52.432V115.316L502.606,62.886z
			 M502.606,53.065l-99.318,57.341V225.09l99.318,57.341l99.317-57.341V110.406L502.606,53.065z"/>
		<g>
			<path fill="#1A8B00" d="M538.687,140.807h-24.063c-1.412,0-2.567-1.155-2.567-2.567s1.155-2.566,2.567-2.566h24.063
				c1.412,0,2.567,1.154,2.567,2.566S540.099,140.807,538.687,140.807"/>
			<path fill="#1A8B00" d="M465.328,145.788h-24.063c-1.412,0-2.567-1.154-2.567-2.566s1.155-2.567,2.567-2.567h24.063
				c1.412,0,2.567,1.155,2.567,2.567S466.74,145.788,465.328,145.788"/>
			<path fill="#1A8B00" d="M454.446,178.359h-24.064c-1.411,0-2.566-1.155-2.566-2.567s1.155-2.566,2.566-2.566h24.064
				c1.412,0,2.567,1.154,2.567,2.566S455.858,178.359,454.446,178.359"/>
			<path fill="#1A8B00" d="M545.949,140.807L545.949,140.807c-1.412,0-2.566-1.155-2.566-2.567s1.154-2.566,2.566-2.566
				s2.567,1.154,2.567,2.566S547.361,140.807,545.949,140.807"/>
			<path fill="#1A8B00" d="M513.411,216.262L513.411,216.262c-0.825,0-1.5-0.675-1.5-1.5s0.675-1.5,1.5-1.5s1.5,0.675,1.5,1.5
				S514.236,216.262,513.411,216.262"/>
			<path fill="#1A8B00" d="M562.563,201.754L562.563,201.754c-0.825,0-1.5-0.675-1.5-1.5s0.675-1.5,1.5-1.5s1.5,0.675,1.5,1.5
				S563.388,201.754,562.563,201.754"/>
			<path fill="#1A8B00" d="M559.563,207.167L559.563,207.167c-0.825,0-1.5-0.675-1.5-1.5s0.675-1.5,1.5-1.5s1.5,0.675,1.5,1.5
				S560.388,207.167,559.563,207.167"/>
			<path fill="#1A8B00" d="M563.407,156.231h-8.177c-0.479,0-0.873-0.394-0.873-0.873s0.394-0.871,0.873-0.871h8.177
				c0.479,0,0.872,0.392,0.872,0.871S563.886,156.231,563.407,156.231"/>
			<path fill="#1A8B00" d="M558.446,151.271v8.176c0,0.48,0.393,0.873,0.872,0.873s0.872-0.393,0.872-0.873v-8.176
				c0-0.48-0.393-0.872-0.872-0.872S558.446,150.79,558.446,151.271"/>
			<path fill="#1A8B00" d="M466.686,202.995H453.84c-0.754,0-1.37-0.617-1.37-1.37c0-0.754,0.616-1.371,1.37-1.371h12.846
				c0.754,0,1.37,0.617,1.37,1.371C468.056,202.378,467.44,202.995,466.686,202.995"/>
			<path fill="#1A8B00" d="M458.893,195.201v12.847c0,0.753,0.616,1.37,1.37,1.37s1.37-0.617,1.37-1.37v-12.847
				c0-0.754-0.616-1.37-1.37-1.37S458.893,194.447,458.893,195.201"/>
			<rect x="474.059" y="150.025" fill="#2BC000" width="78.704" height="56.463"/>
			<rect x="447.974" y="130.695" fill="#2BC000" width="78.705" height="56.463"/>
			<path fill="#FFFFFF" d="M554.667,150.867v56.681c0,1.038-0.842,1.881-1.881,1.881h-78.751c-1.041,0-1.881-0.843-1.881-1.881
				v-18.183h-24.202c-1.039,0-1.881-0.843-1.881-1.881v-56.681c0-1.039,0.842-1.881,1.881-1.881h78.751
				c1.038,0,1.881,0.842,1.881,1.881v18.183h24.202C553.825,148.986,554.667,149.829,554.667,150.867 M550.905,163.858h-48.5v41.809
				h48.5V163.858z M550.905,152.748h-74.989v7.349h74.989V152.748z M524.822,148.986v-5.192h-74.989v41.81h22.321v-34.736
				c0-1.038,0.84-1.881,1.881-1.881H524.822z M524.822,132.685h-74.989v7.348h74.989V132.685z M498.644,163.858h-22.729v41.809
				h22.729V163.858z"/>
			<path fill="#2BC000" d="M550.905,160.097h-74.989v-7.348h74.989V160.097z M491.006,156.423c0-0.498-0.2-0.981-0.553-1.332
				c-0.351-0.349-0.834-0.549-1.328-0.549c-0.496,0-0.98,0.2-1.332,0.549c-0.349,0.351-0.55,0.838-0.55,1.332s0.201,0.98,0.55,1.328
				c0.352,0.352,0.836,0.553,1.332,0.553c0.494,0,0.978-0.201,1.328-0.553C490.806,157.403,491.006,156.917,491.006,156.423
				 M486.346,156.423c0-0.494-0.2-0.981-0.549-1.332c-0.351-0.349-0.835-0.549-1.332-0.549c-0.494,0-0.978,0.2-1.329,0.549
				c-0.348,0.351-0.549,0.838-0.549,1.332s0.201,0.98,0.549,1.328c0.352,0.352,0.835,0.553,1.329,0.553
				c0.497,0,0.981-0.201,1.332-0.553C486.146,157.403,486.346,156.917,486.346,156.423 M481.689,156.423
				c0-0.498-0.201-0.981-0.549-1.33c-0.352-0.351-0.835-0.551-1.332-0.551c-0.494,0-0.98,0.2-1.329,0.551
				c-0.351,0.349-0.552,0.832-0.552,1.33c0,0.494,0.201,0.98,0.552,1.328c0.351,0.352,0.835,0.553,1.329,0.553
				c0.497,0,0.98-0.201,1.332-0.553C481.488,157.403,481.689,156.917,481.689,156.423"/>
			<path fill="#FFFFFF" d="M535.606,167.724c1.038,0,1.882,0.84,1.882,1.881c0,1.038-0.844,1.881-1.882,1.881h-28.263
				c-1.038,0-1.881-0.843-1.881-1.881c0-1.041,0.843-1.881,1.881-1.881H535.606z"/>
			<path fill="#FFFFFF" d="M535.606,174.495c1.038,0,1.882,0.84,1.882,1.881c0,1.038-0.844,1.881-1.882,1.881h-28.263
				c-1.038,0-1.881-0.843-1.881-1.881c0-1.041,0.843-1.881,1.881-1.881H535.606z"/>
			<path fill="#FFFFFF" d="M535.606,181.267c1.038,0,1.882,0.84,1.882,1.881c0,1.038-0.844,1.881-1.882,1.881h-28.263
				c-1.038,0-1.881-0.843-1.881-1.881c0-1.041,0.843-1.881,1.881-1.881H535.606z"/>
			<path fill="#2BC000" d="M524.822,140.032h-74.989v-7.348h74.989V140.032z M464.922,136.358c0-0.494-0.199-0.98-0.552-1.329
				c-0.348-0.351-0.835-0.552-1.329-0.552c-0.496,0-0.979,0.201-1.332,0.552c-0.348,0.349-0.549,0.832-0.549,1.329
				c0,0.494,0.201,0.98,0.549,1.329c0.353,0.351,0.836,0.552,1.332,0.552c0.494,0,0.979-0.201,1.329-0.552
				C464.723,137.337,464.922,136.853,464.922,136.358 M460.263,136.358c0-0.497-0.2-0.98-0.55-1.329
				c-0.351-0.351-0.835-0.552-1.332-0.552c-0.493,0-0.978,0.201-1.329,0.552c-0.348,0.349-0.549,0.832-0.549,1.329
				c0,0.494,0.201,0.98,0.549,1.329c0.352,0.351,0.836,0.552,1.329,0.552c0.497,0,0.981-0.201,1.332-0.552
				C460.063,137.339,460.263,136.853,460.263,136.358 M455.606,136.358c0-0.494-0.201-0.98-0.549-1.329
				c-0.352-0.351-0.835-0.552-1.332-0.552c-0.494,0-0.979,0.201-1.329,0.552c-0.352,0.349-0.553,0.832-0.553,1.329
				c0,0.494,0.201,0.98,0.553,1.329c0.351,0.351,0.835,0.552,1.329,0.552c0.497,0,0.98-0.201,1.332-0.552
				C455.405,137.337,455.606,136.853,455.606,136.358"/>
			<path fill="#FFFFFF" d="M493.299,167.724c1.037,0,1.881,0.84,1.881,1.881c0,1.038-0.844,1.881-1.881,1.881h-12.038
				c-1.039,0-1.881-0.843-1.881-1.881c0-1.041,0.842-1.881,1.881-1.881H493.299z"/>
			<path fill="#FFFFFF" d="M493.299,174.495c1.037,0,1.881,0.84,1.881,1.881c0,1.038-0.844,1.881-1.881,1.881h-12.038
				c-1.039,0-1.881-0.843-1.881-1.881c0-1.041,0.842-1.881,1.881-1.881H493.299z"/>
			<path fill="#FFFFFF" d="M493.299,181.267c1.037,0,1.881,0.84,1.881,1.881c0,1.038-0.844,1.881-1.881,1.881h-12.038
				c-1.039,0-1.881-0.843-1.881-1.881c0-1.041,0.842-1.881,1.881-1.881H493.299z"/>
			<path fill="#FFFFFF" d="M490.455,155.091c0.351,0.351,0.552,0.835,0.552,1.332c0,0.494-0.201,0.98-0.552,1.328
				c-0.351,0.352-0.835,0.553-1.329,0.553c-0.497,0-0.981-0.201-1.331-0.553c-0.35-0.348-0.55-0.834-0.55-1.328
				s0.2-0.981,0.55-1.332c0.35-0.35,0.834-0.549,1.331-0.549C489.62,154.542,490.104,154.741,490.455,155.091"/>
			<path fill="#FFFFFF" d="M485.797,155.091c0.349,0.351,0.549,0.838,0.549,1.332s-0.2,0.98-0.549,1.328
				c-0.351,0.352-0.835,0.553-1.332,0.553c-0.494,0-0.978-0.201-1.329-0.553c-0.35-0.348-0.549-0.834-0.549-1.328
				s0.199-0.981,0.549-1.332c0.352-0.35,0.835-0.549,1.329-0.549C484.962,154.542,485.447,154.741,485.797,155.091"/>
			<path fill="#FFFFFF" d="M481.14,155.093c0.349,0.35,0.549,0.834,0.549,1.329c0,0.494-0.2,0.981-0.549,1.329
				c-0.352,0.352-0.835,0.553-1.332,0.553c-0.494,0-0.979-0.201-1.329-0.553c-0.351-0.348-0.552-0.835-0.552-1.329
				c0-0.495,0.201-0.979,0.552-1.329c0.349-0.351,0.835-0.552,1.329-0.552C480.305,154.541,480.789,154.742,481.14,155.093"/>
			<path fill="#FFFFFF" d="M467.215,147.659c1.038,0,1.881,0.84,1.881,1.881c0,1.039-0.843,1.881-1.881,1.881h-12.038
				c-1.039,0-1.881-0.842-1.881-1.881c0-1.041,0.842-1.881,1.881-1.881H467.215z"/>
			<path fill="#FFFFFF" d="M467.215,154.431c1.038,0,1.881,0.84,1.881,1.881c0,1.039-0.843,1.881-1.881,1.881h-12.038
				c-1.039,0-1.881-0.842-1.881-1.881c0-1.041,0.842-1.881,1.881-1.881H467.215z"/>
			<path fill="#FFFFFF" d="M467.215,161.202c1.038,0,1.881,0.84,1.881,1.881c0,1.039-0.843,1.882-1.881,1.882h-12.038
				c-1.039,0-1.881-0.843-1.881-1.882c0-1.041,0.842-1.881,1.881-1.881H467.215z"/>
			<path fill="#FFFFFF" d="M464.372,135.029c0.351,0.349,0.552,0.835,0.552,1.329s-0.201,0.978-0.552,1.328
				c-0.352,0.353-0.835,0.553-1.329,0.553c-0.497,0-0.981-0.2-1.332-0.553c-0.35-0.348-0.549-0.834-0.549-1.328
				c0-0.496,0.199-0.98,0.549-1.329c0.351-0.351,0.835-0.552,1.332-0.552C463.537,134.478,464.022,134.679,464.372,135.029"/>
			<path fill="#FFFFFF" d="M459.713,135.029c0.35,0.349,0.55,0.833,0.55,1.329c0,0.494-0.2,0.98-0.55,1.328
				c-0.351,0.353-0.835,0.553-1.332,0.553c-0.493,0-0.978-0.2-1.328-0.553c-0.35-0.348-0.55-0.834-0.55-1.328
				c0-0.496,0.2-0.98,0.55-1.329c0.351-0.351,0.835-0.552,1.328-0.552C458.878,134.478,459.363,134.679,459.713,135.029"/>
			<path fill="#FFFFFF" d="M455.056,135.029c0.35,0.349,0.549,0.835,0.549,1.329s-0.199,0.978-0.549,1.328
				c-0.351,0.353-0.835,0.553-1.332,0.553c-0.494,0-0.978-0.2-1.329-0.553c-0.351-0.348-0.552-0.834-0.552-1.328
				c0-0.496,0.201-0.98,0.552-1.329c0.352-0.351,0.835-0.552,1.329-0.552C454.221,134.478,454.706,134.679,455.056,135.029"/>
		</g>
	</g>
	<g>
		<polygon fill="#2BC000" points="17.997,222.634 17.997,112.862 113.063,57.975 208.129,112.862 208.129,222.634 113.063,277.521 
					"/>
		<path fill="#FFFFFF" d="M113.063,62.885l90.814,52.432V220.18l-90.814,52.432L22.25,220.18V115.316L113.063,62.885z
			 M113.063,53.065l-99.318,57.341V225.09l99.318,57.341l99.318-57.341V110.406L113.063,53.065z"/>
		<g>
			<path fill="#1A8B00" d="M77.211,182.537H53.148c-1.412,0-2.567-1.155-2.567-2.567s1.155-2.567,2.567-2.567h24.063
				c1.412,0,2.567,1.155,2.567,2.567S78.624,182.537,77.211,182.537"/>
			<path fill="#1A8B00" d="M177.563,141.707h-24.064c-1.41,0-2.566-1.156-2.566-2.567c0-1.412,1.156-2.567,2.566-2.567h24.064
				c1.412,0,2.568,1.155,2.568,2.567C180.131,140.551,178.975,141.707,177.563,141.707"/>
			<path fill="#1A8B00" d="M85.01,174.103H60.947c-1.412,0-2.567-1.155-2.567-2.567s1.155-2.567,2.567-2.567H85.01
				c1.412,0,2.567,1.155,2.567,2.567S86.422,174.103,85.01,174.103"/>
			<path fill="#1A8B00" d="M177.563,196.398h-24.064c-1.41,0-2.566-1.155-2.566-2.567s1.156-2.566,2.566-2.566h24.064
				c1.412,0,2.568,1.154,2.568,2.566S178.975,196.398,177.563,196.398"/>
			<path fill="#1A8B00" d="M149.417,217.328h-24.064c-1.412,0-2.566-1.154-2.566-2.566s1.154-2.567,2.566-2.567h24.064
				c1.412,0,2.566,1.155,2.566,2.567S150.829,217.328,149.417,217.328"/>
			<path fill="#1A8B00" d="M177.262,150.227L177.262,150.227c-1.412,0-2.566-1.155-2.566-2.566c0-1.412,1.154-2.568,2.566-2.568
				s2.566,1.156,2.566,2.568C179.829,149.071,178.674,150.227,177.262,150.227"/>
			<path fill="#1A8B00" d="M171.954,188.658L171.954,188.658c-0.824,0-1.5-0.675-1.5-1.5s0.676-1.5,1.5-1.5
				c0.826,0,1.5,0.675,1.5,1.5S172.78,188.658,171.954,188.658"/>
			<path fill="#1A8B00" d="M179.747,119.071h-12.846c-0.752,0-1.369-0.616-1.369-1.37s0.617-1.371,1.369-1.371h12.846
				c0.756,0,1.371,0.617,1.371,1.371S180.502,119.071,179.747,119.071"/>
			<path fill="#1A8B00" d="M171.954,111.278v12.846c0,0.753,0.617,1.37,1.371,1.37s1.371-0.617,1.371-1.37v-12.846
				c0-0.755-0.617-1.37-1.371-1.37S171.954,110.523,171.954,111.278"/>
			<path fill="#1A8B00" d="M77.418,207.731h-5.293c-0.311,0-0.564-0.254-0.564-0.564s0.254-0.564,0.564-0.564h5.293
				c0.311,0,0.564,0.254,0.564,0.564S77.729,207.731,77.418,207.731"/>
			<path fill="#1A8B00" d="M74.208,204.521v5.293c0,0.311,0.254,0.564,0.564,0.564s0.564-0.254,0.564-0.564v-5.293
				c0-0.312-0.254-0.565-0.564-0.565S74.208,204.209,74.208,204.521"/>
			<path fill="#1A8B00" d="M57.815,143.786h-5.293c-0.311,0-0.565-0.254-0.565-0.565c0-0.31,0.255-0.563,0.565-0.563h5.293
				c0.311,0,0.564,0.254,0.564,0.563C58.379,143.532,58.125,143.786,57.815,143.786"/>
			<path fill="#1A8B00" d="M54.603,140.574v5.293c0,0.312,0.255,0.565,0.565,0.565c0.31,0,0.564-0.254,0.564-0.565v-5.293
				c0-0.311-0.255-0.564-0.564-0.564C54.858,140.01,54.603,140.264,54.603,140.574"/>
			<rect x="67.27" y="125.494" fill="#2BC000" width="98.262" height="68.856"/>
			<rect x="93.809" y="207.075" fill="#2BC000" width="43.574" height="7.322"/>
			<polygon fill="#2BC000" points="130.208,206.035 101.627,206.035 107.282,192.436 125.282,192.83 			"/>
			<path fill="#FFFFFF" d="M116.358,185.067c-1.24,0-2.244,1.005-2.244,2.245s1.004,2.246,2.244,2.246s2.244-1.006,2.244-2.246
				S117.598,185.067,116.358,185.067"/>
			<path fill="#FFFFFF" d="M165.444,123.862H67.271c-1.153,0-2.089,0.935-2.089,2.089v68.399c0,1.152,0.936,2.089,2.089,2.089
				h36.493l-3.653,8.861h-6.868c-1.154,0-2.089,0.937-2.089,2.09v7.96c0,1.153,0.935,2.089,2.089,2.089h46.229
				c1.154,0,2.09-0.936,2.09-2.089v-7.96c0-1.153-0.936-2.09-2.09-2.09h-6.865l-3.654-8.861h36.492c1.154,0,2.09-0.937,2.09-2.089
				v-68.399C167.534,124.797,166.598,123.862,165.444,123.862 M163.356,178.359H69.359V128.04h93.997V178.359z M137.383,213.261
				H95.333v-3.781h42.051V213.261z M128.086,205.301h-23.457l3.654-8.861h16.148L128.086,205.301z M69.359,182.537h93.997v9.724
				H69.359V182.537z"/>
			<path fill="#FFFFFF" d="M132.694,153.123L132.694,153.123c0-1.153-0.936-2.088-2.09-2.088h-2.229
				c-0.125-0.726-0.311-1.431-0.561-2.105l1.926-1.112c1-0.577,1.342-1.854,0.764-2.854c-0.576-0.998-1.854-1.34-2.852-0.764
				l-1.932,1.116c-0.467-0.558-0.982-1.073-1.539-1.539l1.115-1.932c0.576-0.999,0.234-2.277-0.764-2.853
				c-1-0.578-2.275-0.235-2.854,0.762l-1.111,1.927c-0.676-0.248-1.381-0.435-2.107-0.562v-2.227c0-1.152-0.934-2.088-2.088-2.088
				c-0.006,0-0.01,0-0.016,0s-0.01,0-0.016,0c-1.154,0-2.09,0.936-2.09,2.088v2.227c-0.725,0.127-1.43,0.312-2.105,0.562
				l-1.111-1.927c-0.577-0.998-1.855-1.34-2.854-0.764c-0.999,0.577-1.341,1.855-0.764,2.854l1.116,1.931
				c-0.557,0.467-1.072,0.982-1.539,1.54l-1.932-1.116c-1-0.578-2.277-0.234-2.854,0.764c-0.577,1-0.235,2.277,0.764,2.854
				l1.926,1.112c-0.248,0.675-0.435,1.38-0.561,2.105h-2.227c-1.154,0-2.09,0.935-2.09,2.088s0.936,2.088,2.09,2.088h2.227
				c0.126,0.726,0.312,1.431,0.561,2.105l-1.926,1.113c-0.999,0.577-1.341,1.854-0.764,2.854c0.576,0.998,1.854,1.342,2.854,0.764
				l1.932-1.116c0.467,0.558,0.982,1.073,1.539,1.54l-1.116,1.931c-0.577,0.999-0.235,2.277,0.764,2.854s2.277,0.234,2.854-0.765
				l1.111-1.926c0.676,0.248,1.381,0.436,2.105,0.561v2.228c0,1.153,0.936,2.088,2.09,2.088c0.006,0,0.01,0,0.016,0s0.01,0,0.016,0
				c1.154,0,2.088-0.935,2.088-2.088v-2.228c0.727-0.125,1.432-0.312,2.107-0.561l1.111,1.926c0.578,0.999,1.854,1.342,2.854,0.765
				c0.998-0.577,1.34-1.855,0.764-2.854l-1.115-1.931c0.557-0.467,1.072-0.982,1.539-1.54l1.932,1.116
				c0.998,0.578,2.275,0.234,2.852-0.764c0.578-1,0.236-2.276-0.764-2.854l-1.926-1.113c0.25-0.675,0.436-1.38,0.561-2.105h2.229
				C131.758,155.213,132.694,154.276,132.694,153.123 M116.374,161.133c-0.006,0-0.012,0-0.016,0c-0.006,0-0.012,0-0.016,0
				c-4.417,0-8.009-3.594-8.009-8.01s3.592-8.01,8.009-8.01c0.004,0,0.01,0.002,0.016,0.002c0.004,0,0.01-0.002,0.016-0.002
				c4.416,0,8.008,3.594,8.008,8.01S120.79,161.133,116.374,161.133"/>
			<path fill="#FFFFFF" d="M90.364,137.396H75.997c-0.677,0-1.225,0.549-1.225,1.226c0,0.676,0.548,1.224,1.225,1.224h14.367
				c0.676,0,1.225-0.548,1.225-1.224C91.588,137.945,91.04,137.396,90.364,137.396"/>
			<path fill="#FFFFFF" d="M90.364,143.221H75.997c-0.677,0-1.225,0.549-1.225,1.226c0,0.676,0.548,1.224,1.225,1.224h14.367
				c0.676,0,1.225-0.548,1.225-1.224C91.588,143.77,91.04,143.221,90.364,143.221"/>
			<path fill="#FFFFFF" d="M90.364,149.045H75.997c-0.677,0-1.225,0.549-1.225,1.226s0.548,1.224,1.225,1.224h14.367
				c0.676,0,1.225-0.547,1.225-1.224S91.04,149.045,90.364,149.045"/>
			<path fill="#FFFFFF" d="M90.364,154.87H75.997c-0.677,0-1.225,0.548-1.225,1.225s0.548,1.224,1.225,1.224h14.367
				c0.676,0,1.225-0.547,1.225-1.224S91.04,154.87,90.364,154.87"/>
			<path fill="#FFFFFF" d="M90.364,160.694H75.997c-0.677,0-1.225,0.548-1.225,1.226c0,0.676,0.548,1.223,1.225,1.223h14.367
				c0.676,0,1.225-0.547,1.225-1.223C91.588,161.242,91.04,160.694,90.364,160.694"/>
			<path fill="#FFFFFF" d="M90.364,166.519H75.997c-0.677,0-1.225,0.548-1.225,1.226c0,0.676,0.548,1.224,1.225,1.224h14.367
				c0.676,0,1.225-0.548,1.225-1.224C91.588,167.066,91.04,166.519,90.364,166.519"/>
			<path fill="#FFFFFF" d="M155.307,150.101h-13.52c-0.637,0-1.152,0.517-1.152,1.152c0,0.637,0.516,1.153,1.152,1.153h13.52
				c0.637,0,1.152-0.517,1.152-1.153C156.459,150.617,155.944,150.101,155.307,150.101"/>
			<path fill="#FFFFFF" d="M155.307,144.62h-13.52c-0.637,0-1.152,0.517-1.152,1.151c0,0.638,0.516,1.153,1.152,1.153h13.52
				c0.637,0,1.152-0.516,1.152-1.153C156.459,145.137,155.944,144.62,155.307,144.62"/>
			<path fill="#FFFFFF" d="M155.307,139.139h-13.52c-0.637,0-1.152,0.517-1.152,1.152c0,0.637,0.516,1.153,1.152,1.153h13.52
				c0.637,0,1.152-0.517,1.152-1.153C156.459,139.655,155.944,139.139,155.307,139.139"/>
			<path fill="#FFFFFF" d="M155.307,155.581h-13.52c-0.637,0-1.152,0.517-1.152,1.153v10.961c0,0.636,0.516,1.152,1.152,1.152h13.52
				c0.637,0,1.152-0.517,1.152-1.152v-10.961C156.459,156.098,155.944,155.581,155.307,155.581 M154.155,166.543H142.94v-8.656
				h11.215V166.543z"/>
		</g>
	</g>
</g>
</svg>
