<?xml version="1.0" encoding="utf-8"?>
<!-- Generator: Adobe Illustrator 16.0.0, SVG Export Plug-In . SVG Version: 6.00 Build 0)  -->
<!DOCTYPE svg PUBLIC "-//W3C//DTD SVG 1.1//EN" "http://www.w3.org/Graphics/SVG/1.1/DTD/svg11.dtd">
<svg version="1.1" id="Layer_1" xmlns="http://www.w3.org/2000/svg" xmlns:xlink="http://www.w3.org/1999/xlink" x="0px" y="0px"
	 width="1280px" height="1103.696px" viewBox="0 0 1280 1103.696" enable-background="new 0 0 1280 1103.696" xml:space="preserve">
<polygon fill="#4F4F4F" points="1280,822.637 0,1042.637 0,334.269 1280,84.269 "/>
<g>
	<path fill="#58595B" d="M90.705,875.088H45.584c-2.647,0-4.814-2.168-4.814-4.816c0-2.646,2.167-4.812,4.814-4.812h45.121
		c2.647,0,4.814,2.164,4.814,4.812S93.353,875.088,90.705,875.088"/>
	<path fill="#58595B" d="M287.201,786.129h-45.123c-2.644,0-4.812-2.168-4.812-4.814c0-2.648,2.168-4.812,4.812-4.812h45.123
		c2.648,0,4.816,2.164,4.816,4.812C292.017,783.961,289.849,786.129,287.201,786.129"/>
	<path fill="#58595B" d="M113.658,846.872h-45.12c-2.648,0-4.814-2.164-4.814-4.812c0-2.646,2.166-4.814,4.814-4.814h45.121
		c2.648,0,4.814,2.168,4.814,4.814C118.472,844.708,116.306,846.872,113.658,846.872"/>
	<path fill="#58595B" d="M287.201,888.68h-45.123c-2.644,0-4.812-2.168-4.812-4.814c0-2.648,2.168-4.812,4.812-4.812h45.123
		c2.648,0,4.816,2.164,4.816,4.812C292.017,886.512,289.849,888.68,287.201,888.68"/>
	<path fill="#58595B" d="M234.425,927.924h-45.123c-2.648,0-4.812-2.164-4.812-4.811c0-2.648,2.165-4.816,4.812-4.816h45.123
		c2.647,0,4.812,2.168,4.812,4.816C239.237,925.76,237.072,927.924,234.425,927.924"/>
	<path fill="#58595B" d="M292.017,815.637L292.017,815.637c-2.648,0-4.812-2.168-4.812-4.811c0-2.648,2.164-4.816,4.812-4.816
		s4.812,2.168,4.812,4.816C296.829,813.469,294.665,815.637,292.017,815.637"/>
	<path fill="#58595B" d="M109.868,801.819L109.868,801.819c-2.648,0-4.812-2.168-4.812-4.812c0-2.646,2.164-4.814,4.812-4.814
		s4.812,2.168,4.812,4.814C114.68,799.651,112.516,801.819,109.868,801.819"/>
	<path fill="#58595B" d="M165.526,893.495L165.526,893.495c-2.648,0-4.812-2.168-4.812-4.812c0-2.646,2.164-4.814,4.812-4.814
		s4.812,2.168,4.812,4.814C170.338,891.327,168.174,893.495,165.526,893.495"/>
	<path fill="#58595B" d="M261.829,858.61L261.829,858.61c-1.545,0-2.812-1.268-2.812-2.812c0-1.549,1.267-2.811,2.812-2.811
		c1.549,0,2.813,1.262,2.813,2.811C264.642,857.342,263.378,858.61,261.829,858.61"/>
	<path fill="#58595B" d="M180.306,769.141L180.306,769.141c-1.545,0-2.812-1.268-2.812-2.812c0-1.549,1.267-2.812,2.812-2.812
		c1.549,0,2.813,1.264,2.813,2.812C183.119,767.874,181.855,769.141,180.306,769.141"/>
	<path fill="#58595B" d="M291.296,743.684h-24.087c-1.41,0-2.567-1.152-2.567-2.566c0-1.412,1.157-2.57,2.567-2.57h24.087
		c1.417,0,2.571,1.158,2.571,2.57C293.867,742.532,292.713,743.684,291.296,743.684"/>
	<path fill="#58595B" d="M276.683,729.073v24.086c0,1.414,1.157,2.57,2.571,2.57s2.571-1.156,2.571-2.57v-24.086
		c0-1.414-1.157-2.568-2.571-2.568S276.683,727.659,276.683,729.073"/>
	<path fill="#58595B" d="M99.423,909.928h-9.925c-0.583,0-1.059-0.477-1.059-1.059s0.476-1.059,1.059-1.059h9.925
		c0.582,0,1.058,0.477,1.058,1.059S100.005,909.928,99.423,909.928"/>
	<path fill="#58595B" d="M93.402,903.907v9.926c0,0.582,0.476,1.059,1.059,1.059c0.582,0,1.058-0.477,1.058-1.059v-9.926
		c0-0.582-0.476-1.059-1.058-1.059C93.878,902.85,93.402,903.325,93.402,903.907"/>
	<path fill="#58595B" d="M62.665,790.026h-9.924c-0.583,0-1.061-0.477-1.061-1.059s0.478-1.059,1.061-1.059h9.924
		c0.583,0,1.059,0.477,1.059,1.059C63.724,789.551,63.248,790.026,62.665,790.026"/>
	<path fill="#58595B" d="M56.643,784.006v9.924c0,0.582,0.478,1.061,1.061,1.061c0.58,0,1.058-0.479,1.058-1.061v-9.924
		c0-0.582-0.478-1.059-1.058-1.059C57.121,782.948,56.643,783.424,56.643,784.006"/>
	<g>
		<path fill="#58595B" d="M204.083,830.133h-39.191c-2.294,0-4.177-1.877-4.177-4.178c0-2.299,1.883-4.184,4.177-4.184h39.191
			c2.306,0,4.183,1.885,4.183,4.184C208.266,828.256,206.388,830.133,204.083,830.133"/>
		<path fill="#58595B" d="M180.306,806.358v39.189c0,2.299,1.883,4.184,4.183,4.184c2.301,0,4.184-1.885,4.184-4.184v-39.189
			c0-2.303-1.883-4.18-4.184-4.18C182.189,802.18,180.306,804.057,180.306,806.358"/>
	</g>
	<path fill="#58595B" d="M125.665,738.026h-9.924c-0.583,0-1.061-0.477-1.061-1.059s0.478-1.059,1.061-1.059h9.924
		c0.583,0,1.059,0.477,1.059,1.059C126.724,737.551,126.248,738.026,125.665,738.026"/>
	<path fill="#58595B" d="M119.643,732.006v9.924c0,0.582,0.478,1.061,1.061,1.061c0.58,0,1.058-0.479,1.058-1.061v-9.924
		c0-0.582-0.478-1.059-1.058-1.059C120.121,730.948,119.643,731.424,119.643,732.006"/>
	<path fill="#58595B" d="M356.324,925.797h-23.041c-1.353,0-2.462-1.104-2.462-2.459c0-1.352,1.11-2.455,2.462-2.455h23.041
		c1.353,0,2.458,1.104,2.458,2.455C358.782,924.692,357.677,925.797,356.324,925.797"/>
	<path fill="#58595B" d="M342.342,911.819v23.041c0,1.352,1.11,2.459,2.462,2.459c1.347,0,2.457-1.107,2.457-2.459v-23.041
		c0-1.352-1.109-2.457-2.457-2.457C343.452,909.362,342.342,910.467,342.342,911.819"/>
	<path fill="#58595B" d="M343.404,734.444h-9.924c-0.583,0-1.061-0.477-1.061-1.059s0.478-1.059,1.061-1.059h9.924
		c0.583,0,1.059,0.477,1.059,1.059C344.462,733.969,343.986,734.444,343.404,734.444"/>
	<path fill="#58595B" d="M337.381,728.424v9.924c0,0.582,0.478,1.061,1.061,1.061c0.58,0,1.058-0.479,1.058-1.061v-9.924
		c0-0.582-0.478-1.059-1.058-1.059C337.859,727.366,337.381,727.842,337.381,728.424"/>
	<path fill="#58595B" d="M388.352,713.454h-9.924c-0.583,0-1.061-0.477-1.061-1.061c0-0.58,0.478-1.057,1.061-1.057h9.924
		c0.583,0,1.059,0.477,1.059,1.057C389.411,712.979,388.935,713.454,388.352,713.454"/>
	<path fill="#58595B" d="M382.33,707.432v9.926c0,0.582,0.478,1.059,1.061,1.059c0.58,0,1.058-0.477,1.058-1.059v-9.926
		c0-0.582-0.478-1.059-1.058-1.059C382.808,706.374,382.33,706.85,382.33,707.432"/>
</g>
<g>
	<path fill="#58595B" d="M312.553,651.456h45.121c2.647,0,4.814-2.168,4.814-4.816c0-2.646-2.167-4.811-4.814-4.811h-45.121
		c-2.646,0-4.813,2.164-4.813,4.811C307.739,649.288,309.906,651.456,312.553,651.456"/>
	<path fill="#58595B" d="M116.057,562.499h45.123c2.644,0,4.812-2.168,4.812-4.816c0-2.646-2.168-4.811-4.812-4.811h-45.123
		c-2.648,0-4.816,2.164-4.816,4.811C111.241,560.331,113.409,562.499,116.057,562.499"/>
	<path fill="#58595B" d="M289.6,623.241h45.121c2.648,0,4.814-2.164,4.814-4.812c0-2.646-2.166-4.814-4.814-4.814H289.6
		c-2.648,0-4.814,2.168-4.814,4.814C284.786,621.077,286.952,623.241,289.6,623.241"/>
	<path fill="#58595B" d="M116.057,665.049h45.123c2.644,0,4.812-2.17,4.812-4.816s-2.168-4.812-4.812-4.812h-45.123
		c-2.648,0-4.816,2.166-4.816,4.812S113.409,665.049,116.057,665.049"/>
	<path fill="#58595B" d="M168.833,704.293h45.123c2.648,0,4.812-2.164,4.812-4.812c0-2.646-2.165-4.814-4.812-4.814h-45.123
		c-2.647,0-4.812,2.168-4.812,4.814C164.021,702.129,166.186,704.293,168.833,704.293"/>
	<path fill="#58595B" d="M111.241,592.006L111.241,592.006c2.648,0,4.812-2.168,4.812-4.812c0-2.646-2.164-4.814-4.812-4.814
		c-2.648,0-4.812,2.168-4.812,4.814C106.429,589.838,108.593,592.006,111.241,592.006"/>
	<path fill="#58595B" d="M293.39,578.188L293.39,578.188c2.648,0,4.812-2.17,4.812-4.812c0-2.646-2.164-4.816-4.812-4.816
		s-4.812,2.17-4.812,4.816C288.578,576.018,290.742,578.188,293.39,578.188"/>
	<path fill="#58595B" d="M237.732,669.864L237.732,669.864c2.648,0,4.812-2.168,4.812-4.812c0-2.646-2.164-4.814-4.812-4.814
		s-4.812,2.168-4.812,4.814C232.92,667.696,235.084,669.864,237.732,669.864"/>
	<path fill="#58595B" d="M141.429,634.979L141.429,634.979c1.545,0,2.812-1.268,2.812-2.812c0-1.549-1.267-2.811-2.812-2.811
		c-1.549,0-2.813,1.262-2.813,2.811C138.616,633.711,139.88,634.979,141.429,634.979"/>
	<path fill="#58595B" d="M222.952,545.509L222.952,545.509c1.545,0,2.812-1.268,2.812-2.812c0-1.551-1.267-2.812-2.812-2.812
		c-1.549,0-2.813,1.264-2.813,2.812C220.139,544.241,221.403,545.509,222.952,545.509"/>
	<path fill="#58595B" d="M111.962,520.053h24.087c1.41,0,2.567-1.152,2.567-2.566c0-1.413-1.157-2.571-2.567-2.571h-24.087
		c-1.417,0-2.571,1.158-2.571,2.571C109.392,518.899,110.545,520.053,111.962,520.053"/>
	<path fill="#58595B" d="M126.575,505.44v24.087c0,1.413-1.157,2.569-2.571,2.569s-2.571-1.156-2.571-2.569V505.44
		c0-1.414,1.157-2.567,2.571-2.567S126.575,504.026,126.575,505.44"/>
	<path fill="#58595B" d="M303.835,686.297h9.925c0.583,0,1.059-0.477,1.059-1.059s-0.476-1.061-1.059-1.061h-9.925
		c-0.582,0-1.058,0.479-1.058,1.061S303.253,686.297,303.835,686.297"/>
	<path fill="#58595B" d="M309.856,680.276v9.926c0,0.582-0.476,1.057-1.059,1.057c-0.582,0-1.058-0.475-1.058-1.057v-9.926
		c0-0.582,0.476-1.059,1.058-1.059C309.38,679.217,309.856,679.694,309.856,680.276"/>
	<path fill="#58595B" d="M340.593,566.395h9.924c0.583,0,1.061-0.477,1.061-1.059s-0.478-1.059-1.061-1.059h-9.924
		c-0.583,0-1.059,0.477-1.059,1.059C339.535,565.918,340.011,566.395,340.593,566.395"/>
	<path fill="#58595B" d="M346.616,560.374v9.926c0,0.582-0.478,1.059-1.061,1.059c-0.58,0-1.058-0.477-1.058-1.059v-9.926
		c0-0.582,0.478-1.059,1.058-1.059C346.138,559.315,346.616,559.792,346.616,560.374"/>
	<g>
		<path fill="#58595B" d="M199.176,606.5h39.191c2.294,0,4.177-1.877,4.177-4.178c0-2.299-1.883-4.184-4.177-4.184h-39.191
			c-2.306,0-4.183,1.885-4.183,4.184C194.993,604.624,196.87,606.5,199.176,606.5"/>
		<path fill="#58595B" d="M222.952,582.725v39.191c0,2.299-1.883,4.182-4.183,4.182c-2.301,0-4.184-1.883-4.184-4.182v-39.191
			c0-2.301,1.883-4.178,4.184-4.178C221.069,578.547,222.952,580.424,222.952,582.725"/>
	</g>
	<path fill="#58595B" d="M277.593,514.395h9.924c0.583,0,1.061-0.476,1.061-1.059c0-0.582-0.478-1.058-1.061-1.058h-9.924
		c-0.583,0-1.059,0.476-1.059,1.058C276.535,513.919,277.011,514.395,277.593,514.395"/>
	<path fill="#58595B" d="M283.616,508.374v9.925c0,0.582-0.478,1.06-1.061,1.06c-0.58,0-1.058-0.478-1.058-1.06v-9.925
		c0-0.582,0.478-1.059,1.058-1.059C283.138,507.315,283.616,507.792,283.616,508.374"/>
	<path fill="#58595B" d="M46.934,702.165h23.041c1.353,0,2.462-1.104,2.462-2.457c0-1.352-1.11-2.457-2.462-2.457H46.934
		c-1.353,0-2.458,1.105-2.458,2.457C44.477,701.061,45.582,702.165,46.934,702.165"/>
	<path fill="#58595B" d="M60.916,688.188v23.041c0,1.352-1.11,2.459-2.462,2.459c-1.347,0-2.457-1.107-2.457-2.459v-23.041
		c0-1.352,1.109-2.457,2.457-2.457C59.806,685.729,60.916,686.836,60.916,688.188"/>
	<path fill="#58595B" d="M59.854,510.812h9.924c0.583,0,1.061-0.477,1.061-1.06c0-0.582-0.478-1.058-1.061-1.058h-9.924
		c-0.583,0-1.059,0.476-1.059,1.058C58.796,510.337,59.272,510.812,59.854,510.812"/>
	<path fill="#58595B" d="M65.877,504.792v9.925c0,0.582-0.478,1.06-1.061,1.06c-0.58,0-1.058-0.478-1.058-1.06v-9.925
		c0-0.582,0.478-1.059,1.058-1.059C65.399,503.733,65.877,504.21,65.877,504.792"/>
	<path fill="#58595B" d="M14.906,489.821h9.924c0.583,0,1.061-0.477,1.061-1.06c0-0.582-0.478-1.058-1.061-1.058h-9.924
		c-0.583,0-1.059,0.476-1.059,1.058C13.848,489.346,14.324,489.821,14.906,489.821"/>
	<path fill="#58595B" d="M20.929,483.801v9.925c0,0.582-0.478,1.06-1.061,1.06c-0.58,0-1.058-0.478-1.058-1.06v-9.925
		c0-0.582,0.478-1.059,1.058-1.059C20.451,482.742,20.929,483.219,20.929,483.801"/>
</g>
<g>
	<path fill="#58595B" d="M1209.688,601.506h45.121c2.648,0,4.814-2.168,4.814-4.814c0-2.648-2.166-4.812-4.814-4.812h-45.121
		c-2.646,0-4.812,2.164-4.812,4.812C1204.874,599.338,1207.041,601.506,1209.688,601.506"/>
	<path fill="#58595B" d="M1013.191,512.549h45.123c2.645,0,4.812-2.168,4.812-4.814c0-2.648-2.168-4.812-4.812-4.812h-45.123
		c-2.647,0-4.815,2.164-4.815,4.812C1008.376,510.381,1010.544,512.549,1013.191,512.549"/>
	<path fill="#58595B" d="M1186.734,573.292h45.121c2.647,0,4.813-2.164,4.813-4.812c0-2.646-2.166-4.814-4.813-4.814h-45.121
		c-2.647,0-4.813,2.168-4.813,4.814C1181.921,571.127,1184.087,573.292,1186.734,573.292"/>
	<path fill="#58595B" d="M1013.191,615.1h45.123c2.645,0,4.812-2.17,4.812-4.816s-2.168-4.812-4.812-4.812h-45.123
		c-2.647,0-4.815,2.166-4.815,4.812S1010.544,615.1,1013.191,615.1"/>
	<path fill="#58595B" d="M1065.969,654.344h45.122c2.647,0,4.812-2.164,4.812-4.812c0-2.646-2.165-4.814-4.812-4.814h-45.122
		c-2.647,0-4.812,2.168-4.812,4.814C1061.156,652.18,1063.32,654.344,1065.969,654.344"/>
	<path fill="#58595B" d="M1008.376,542.057L1008.376,542.057c2.647,0,4.812-2.168,4.812-4.812c0-2.647-2.164-4.815-4.812-4.815
		s-4.812,2.168-4.812,4.815C1003.564,539.889,1005.729,542.057,1008.376,542.057"/>
	<path fill="#58595B" d="M1190.525,528.237L1190.525,528.237c2.646,0,4.812-2.168,4.812-4.812c0-2.646-2.164-4.814-4.812-4.814
		c-2.648,0-4.812,2.168-4.812,4.814C1185.713,526.069,1187.877,528.237,1190.525,528.237"/>
	<path fill="#58595B" d="M1134.867,619.915L1134.867,619.915c2.647,0,4.812-2.168,4.812-4.812c0-2.646-2.164-4.814-4.812-4.814
		c-2.648,0-4.812,2.168-4.812,4.814C1130.055,617.747,1132.219,619.915,1134.867,619.915"/>
	<path fill="#58595B" d="M1038.564,585.03L1038.564,585.03c1.545,0,2.812-1.27,2.812-2.812c0-1.551-1.268-2.812-2.812-2.812
		c-1.551,0-2.813,1.264-2.813,2.812C1035.751,583.762,1037.015,585.03,1038.564,585.03"/>
	<path fill="#58595B" d="M1120.087,495.56L1120.087,495.56c1.546,0,2.812-1.268,2.812-2.812c0-1.55-1.268-2.812-2.812-2.812
		c-1.55,0-2.812,1.264-2.812,2.812C1117.273,494.292,1118.537,495.56,1120.087,495.56"/>
	<path fill="#58595B" d="M1009.098,470.104h24.086c1.41,0,2.568-1.152,2.568-2.566c0-1.413-1.158-2.571-2.568-2.571h-24.086
		c-1.418,0-2.57,1.158-2.57,2.571C1006.526,468.95,1007.68,470.104,1009.098,470.104"/>
	<path fill="#58595B" d="M1023.71,455.491v24.087c0,1.413-1.157,2.57-2.571,2.57s-2.569-1.157-2.569-2.57v-24.087
		c0-1.414,1.155-2.567,2.569-2.567S1023.71,454.077,1023.71,455.491"/>
	<path fill="#58595B" d="M1200.97,636.348h9.925c0.582,0,1.06-0.477,1.06-1.059s-0.478-1.059-1.06-1.059h-9.925
		c-0.582,0-1.058,0.477-1.058,1.059S1200.388,636.348,1200.97,636.348"/>
	<path fill="#58595B" d="M1206.99,630.327v9.926c0,0.582-0.477,1.057-1.06,1.057c-0.582,0-1.058-0.475-1.058-1.057v-9.926
		c0-0.582,0.476-1.059,1.058-1.059C1206.515,629.268,1206.99,629.745,1206.99,630.327"/>
	<path fill="#58595B" d="M1237.729,516.445h9.925c0.582,0,1.061-0.477,1.061-1.06c0-0.582-0.479-1.058-1.061-1.058h-9.925
		c-0.582,0-1.059,0.476-1.059,1.058C1236.67,515.97,1237.146,516.445,1237.729,516.445"/>
	<path fill="#58595B" d="M1243.75,510.425v9.925c0,0.582-0.479,1.06-1.061,1.06c-0.58,0-1.059-0.478-1.059-1.06v-9.925
		c0-0.582,0.479-1.059,1.059-1.059C1243.271,509.366,1243.75,509.843,1243.75,510.425"/>
	<g>
		<path fill="#58595B" d="M1096.311,556.551h39.191c2.295,0,4.178-1.877,4.178-4.178c0-2.298-1.883-4.183-4.178-4.183h-39.191
			c-2.306,0-4.184,1.885-4.184,4.183C1092.127,554.674,1094.005,556.551,1096.311,556.551"/>
		<path fill="#58595B" d="M1120.087,532.776v39.189c0,2.301-1.884,4.184-4.183,4.184c-2.301,0-4.185-1.883-4.185-4.184v-39.189
			c0-2.302,1.884-4.179,4.185-4.179C1118.203,528.599,1120.087,530.476,1120.087,532.776"/>
	</g>
	<path fill="#58595B" d="M1174.729,464.445h9.925c0.582,0,1.061-0.477,1.061-1.06c0-0.582-0.479-1.058-1.061-1.058h-9.925
		c-0.582,0-1.059,0.476-1.059,1.058C1173.67,463.97,1174.146,464.445,1174.729,464.445"/>
	<path fill="#58595B" d="M1180.75,458.425v9.925c0,0.582-0.479,1.06-1.061,1.06c-0.58,0-1.059-0.478-1.059-1.06v-9.925
		c0-0.582,0.479-1.059,1.059-1.059C1180.271,457.366,1180.75,457.843,1180.75,458.425"/>
	<path fill="#58595B" d="M944.068,652.215h23.041c1.353,0,2.463-1.104,2.463-2.457c0-1.352-1.11-2.457-2.463-2.457h-23.041
		c-1.353,0-2.457,1.105-2.457,2.457C941.611,651.112,942.717,652.215,944.068,652.215"/>
	<path fill="#58595B" d="M958.051,638.239v23.041c0,1.352-1.108,2.457-2.462,2.457c-1.347,0-2.456-1.105-2.456-2.457v-23.041
		c0-1.354,1.109-2.459,2.456-2.459C956.941,635.78,958.051,636.887,958.051,638.239"/>
	<path fill="#58595B" d="M956.989,460.863h9.925c0.582,0,1.061-0.477,1.061-1.06c0-0.582-0.479-1.058-1.061-1.058h-9.925
		c-0.583,0-1.06,0.476-1.06,1.058C955.931,460.388,956.406,460.863,956.989,460.863"/>
	<path fill="#58595B" d="M963.012,454.843v9.925c0,0.582-0.479,1.06-1.061,1.06c-0.58,0-1.059-0.478-1.059-1.06v-9.925
		c0-0.582,0.479-1.059,1.059-1.059C962.533,453.784,963.012,454.261,963.012,454.843"/>
	<path fill="#58595B" d="M912.041,439.872h9.924c0.583,0,1.062-0.476,1.062-1.059c0-0.582-0.479-1.059-1.062-1.059h-9.924
		c-0.582,0-1.059,0.477-1.059,1.059C910.982,439.396,911.459,439.872,912.041,439.872"/>
	<path fill="#58595B" d="M918.062,433.852v9.926c0,0.582-0.478,1.059-1.061,1.059c-0.58,0-1.058-0.477-1.058-1.059v-9.926
		c0-0.582,0.478-1.059,1.058-1.059C917.586,432.793,918.062,433.27,918.062,433.852"/>
</g>
<g>
	<path fill="#58595B" d="M1157.717,768.604h45.121c2.647,0,4.813,2.168,4.813,4.816c0,2.646-2.166,4.812-4.813,4.812h-45.121
		c-2.646,0-4.812-2.164-4.812-4.812C1152.903,770.772,1155.069,768.604,1157.717,768.604"/>
	<path fill="#58595B" d="M961.221,857.563h45.122c2.646,0,4.812,2.168,4.812,4.814c0,2.648-2.168,4.812-4.812,4.812h-45.122
		c-2.646,0-4.814-2.164-4.814-4.812C956.405,859.731,958.573,857.563,961.221,857.563"/>
	<path fill="#58595B" d="M1134.764,796.821h45.12c2.648,0,4.814,2.164,4.814,4.811c0,2.648-2.166,4.816-4.814,4.816h-45.12
		c-2.646,0-4.812-2.168-4.812-4.816C1129.95,798.985,1132.116,796.821,1134.764,796.821"/>
	<path fill="#58595B" d="M961.221,755.012h45.122c2.646,0,4.812,2.168,4.812,4.816c0,2.646-2.168,4.811-4.812,4.811h-45.122
		c-2.646,0-4.814-2.164-4.814-4.811C956.406,757.18,958.573,755.012,961.221,755.012"/>
	<path fill="#58595B" d="M1013.997,715.768h45.123c2.646,0,4.812,2.164,4.812,4.812c0,2.646-2.165,4.814-4.812,4.814h-45.123
		c-2.647,0-4.812-2.168-4.812-4.814C1009.186,717.932,1011.35,715.768,1013.997,715.768"/>
	<path fill="#58595B" d="M956.405,828.055L956.405,828.055c2.646,0,4.812,2.168,4.812,4.812c0,2.646-2.164,4.814-4.812,4.814
		c-2.648,0-4.812-2.168-4.812-4.814C951.593,830.223,953.757,828.055,956.405,828.055"/>
	<path fill="#58595B" d="M1141,855.93L1141,855.93c2.648,0,4.812,2.168,4.812,4.812c0,2.646-2.164,4.814-4.812,4.814
		s-4.812-2.168-4.812-4.814C1136.188,858.098,1138.352,855.93,1141,855.93"/>
	<path fill="#58595B" d="M1031.746,900.854L1031.746,900.854c2.647,0,4.812,2.168,4.812,4.811c0,2.648-2.163,4.816-4.812,4.816
		s-4.812-2.168-4.812-4.816C1026.934,903.022,1029.098,900.854,1031.746,900.854"/>
	<path fill="#58595B" d="M1082.896,750.198L1082.896,750.198c2.647,0,4.812,2.168,4.812,4.811c0,2.648-2.164,4.816-4.812,4.816
		s-4.812-2.168-4.812-4.816C1078.084,752.366,1080.248,750.198,1082.896,750.198"/>
	<path fill="#58595B" d="M986.593,785.083L986.593,785.083c1.545,0,2.812,1.268,2.812,2.811c0,1.551-1.269,2.812-2.812,2.812
		c-1.549,0-2.812-1.262-2.812-2.812C983.78,786.35,985.044,785.083,986.593,785.083"/>
	<path fill="#58595B" d="M1068.116,874.551L1068.116,874.551c1.545,0,2.812,1.27,2.812,2.812c0,1.551-1.268,2.812-2.812,2.812
		c-1.55,0-2.813-1.264-2.813-2.812C1065.303,875.819,1066.566,874.551,1068.116,874.551"/>
	<path fill="#58595B" d="M957.126,900.008h24.087c1.41,0,2.567,1.152,2.567,2.566s-1.157,2.572-2.567,2.572h-24.087
		c-1.417,0-2.57-1.158-2.57-2.572S955.709,900.008,957.126,900.008"/>
	<path fill="#58595B" d="M971.739,914.62v-24.086c0-1.414-1.158-2.57-2.571-2.57c-1.414,0-2.571,1.156-2.571,2.57v24.086
		c0,1.414,1.157,2.568,2.571,2.568C970.581,917.188,971.739,916.034,971.739,914.62"/>
	<path fill="#58595B" d="M1148.999,733.764h9.924c0.583,0,1.06,0.477,1.06,1.059s-0.477,1.059-1.06,1.059h-9.924
		c-0.582,0-1.059-0.477-1.059-1.059S1148.417,733.764,1148.999,733.764"/>
	<path fill="#58595B" d="M1155.02,739.786v-9.926c0-0.582-0.476-1.059-1.059-1.059c-0.582,0-1.058,0.477-1.058,1.059v9.926
		c0,0.582,0.476,1.057,1.058,1.057C1154.544,740.842,1155.02,740.368,1155.02,739.786"/>
	<path fill="#58595B" d="M1185.757,853.667h9.924c0.583,0,1.062,0.475,1.062,1.059c0,0.582-0.479,1.059-1.062,1.059h-9.924
		c-0.582,0-1.059-0.477-1.059-1.059C1184.698,854.141,1185.175,853.667,1185.757,853.667"/>
	<path fill="#58595B" d="M1191.779,859.688v-9.926c0-0.582-0.479-1.059-1.062-1.059c-0.58,0-1.058,0.477-1.058,1.059v9.926
		c0,0.58,0.478,1.059,1.058,1.059C1191.302,860.745,1191.779,860.268,1191.779,859.688"/>
	<g>
		<path fill="#58595B" d="M1044.339,813.559h39.191c2.295,0,4.178,1.879,4.178,4.18c0,2.299-1.883,4.184-4.178,4.184h-39.191
			c-2.305,0-4.183-1.885-4.183-4.184C1040.156,815.438,1042.034,813.559,1044.339,813.559"/>
		<path fill="#58595B" d="M1068.116,837.334v-39.189c0-2.301-1.884-4.184-4.185-4.184s-4.184,1.883-4.184,4.184v39.189
			c0,2.301,1.883,4.178,4.184,4.178S1068.116,839.635,1068.116,837.334"/>
	</g>
	<path fill="#58595B" d="M1122.757,905.667h9.924c0.583,0,1.062,0.475,1.062,1.059c0,0.582-0.479,1.059-1.062,1.059h-9.924
		c-0.582,0-1.059-0.477-1.059-1.059C1121.698,906.141,1122.175,905.667,1122.757,905.667"/>
	<path fill="#58595B" d="M1128.779,911.688v-9.926c0-0.582-0.479-1.059-1.062-1.059c-0.58,0-1.058,0.477-1.058,1.059v9.926
		c0,0.58,0.478,1.059,1.058,1.059C1128.302,912.745,1128.779,912.268,1128.779,911.688"/>
	<path fill="#58595B" d="M892.098,717.897h23.04c1.354,0,2.464,1.104,2.464,2.457c0,1.352-1.109,2.455-2.464,2.455h-23.04
		c-1.353,0-2.458-1.104-2.458-2.455C889.64,719,890.745,717.897,892.098,717.897"/>
	<path fill="#58595B" d="M906.079,731.874v-23.041c0-1.352-1.109-2.459-2.461-2.459c-1.349,0-2.457,1.107-2.457,2.459v23.041
		c0,1.352,1.108,2.457,2.457,2.457C904.97,734.331,906.079,733.225,906.079,731.874"/>
	<path fill="#58595B" d="M905.02,909.249h9.924c0.582,0,1.061,0.475,1.061,1.059c0,0.582-0.479,1.059-1.061,1.059h-9.924
		c-0.584,0-1.06-0.477-1.06-1.059C903.96,909.723,904.436,909.249,905.02,909.249"/>
	<path fill="#58595B" d="M911.04,915.268v-9.924c0-0.582-0.478-1.059-1.062-1.059c-0.58,0-1.058,0.477-1.058,1.059v9.924
		c0,0.582,0.479,1.061,1.058,1.061C910.562,916.327,911.04,915.85,911.04,915.268"/>
	<path fill="#58595B" d="M860.069,930.239h9.925c0.583,0,1.061,0.477,1.061,1.059s-0.478,1.059-1.061,1.059h-9.925
		c-0.582,0-1.06-0.477-1.06-1.059C859.011,930.715,859.487,930.239,860.069,930.239"/>
	<path fill="#58595B" d="M866.093,936.26v-9.926c0-0.582-0.479-1.059-1.061-1.059c-0.58,0-1.06,0.477-1.06,1.059v9.926
		c0,0.582,0.479,1.059,1.06,1.059C865.614,937.319,866.093,936.842,866.093,936.26"/>
</g>
<g>
	<path fill="#58595B" d="M83.88,487.557H38.759c-2.647,0-4.814-2.168-4.814-4.815c0-2.648,2.167-4.812,4.814-4.812H83.88
		c2.647,0,4.814,2.164,4.814,4.812C88.694,485.389,86.528,487.557,83.88,487.557"/>
	<path fill="#58595B" d="M280.376,398.598h-45.123c-2.644,0-4.812-2.168-4.812-4.813c0-2.648,2.168-4.813,4.812-4.813h45.123
		c2.648,0,4.816,2.165,4.816,4.813C285.192,396.43,283.024,398.598,280.376,398.598"/>
	<path fill="#58595B" d="M106.833,459.34h-45.12c-2.648,0-4.814-2.164-4.814-4.812c0-2.646,2.166-4.814,4.814-4.814h45.121
		c2.648,0,4.814,2.168,4.814,4.814C111.647,457.176,109.481,459.34,106.833,459.34"/>
	<path fill="#58595B" d="M280.376,501.148h-45.123c-2.644,0-4.812-2.168-4.812-4.816c0-2.646,2.168-4.812,4.812-4.812h45.123
		c2.648,0,4.816,2.166,4.816,4.812C285.192,498.98,283.024,501.148,280.376,501.148"/>
	<path fill="#58595B" d="M227.6,540.393h-45.123c-2.648,0-4.812-2.164-4.812-4.812c0-2.646,2.165-4.814,4.812-4.814H227.6
		c2.647,0,4.812,2.168,4.812,4.814C232.412,538.229,230.248,540.393,227.6,540.393"/>
	<path fill="#58595B" d="M285.192,428.105L285.192,428.105c-2.648,0-4.812-2.168-4.812-4.812c0-2.646,2.164-4.814,4.812-4.814
		s4.812,2.169,4.812,4.814C290.004,425.938,287.84,428.105,285.192,428.105"/>
	<path fill="#58595B" d="M103.043,414.287L103.043,414.287c-2.648,0-4.812-2.168-4.812-4.812c0-2.647,2.164-4.815,4.812-4.815
		s4.812,2.168,4.812,4.815C107.855,412.119,105.691,414.287,103.043,414.287"/>
	<path fill="#58595B" d="M158.701,505.963L158.701,505.963c-2.648,0-4.812-2.168-4.812-4.812c0-2.646,2.164-4.814,4.812-4.814
		s4.812,2.168,4.812,4.814C163.513,503.795,161.349,505.963,158.701,505.963"/>
	<path fill="#58595B" d="M255.004,471.078L255.004,471.078c-1.545,0-2.812-1.269-2.812-2.812c0-1.549,1.267-2.812,2.812-2.812
		c1.549,0,2.813,1.264,2.813,2.812C257.817,469.811,256.554,471.078,255.004,471.078"/>
	<path fill="#58595B" d="M173.481,381.609L173.481,381.609c-1.545,0-2.812-1.269-2.812-2.812c0-1.55,1.267-2.812,2.812-2.812
		c1.549,0,2.813,1.263,2.813,2.812C176.294,380.341,175.031,381.609,173.481,381.609"/>
	<path fill="#58595B" d="M284.471,356.153h-24.087c-1.41,0-2.567-1.153-2.567-2.567c0-1.413,1.157-2.571,2.567-2.571h24.087
		c1.417,0,2.571,1.158,2.571,2.571C287.042,355,285.888,356.153,284.471,356.153"/>
	<path fill="#58595B" d="M269.858,341.541v24.087c0,1.413,1.157,2.57,2.571,2.57c1.414,0,2.571-1.157,2.571-2.57v-24.087
		c0-1.414-1.157-2.567-2.571-2.567C271.016,338.973,269.858,340.126,269.858,341.541"/>
	<path fill="#58595B" d="M92.599,522.396h-9.925c-0.583,0-1.059-0.478-1.059-1.06s0.476-1.059,1.059-1.059h9.925
		c0.582,0,1.058,0.477,1.058,1.059S93.181,522.396,92.599,522.396"/>
	<path fill="#58595B" d="M86.578,516.375v9.926c0,0.582,0.476,1.06,1.059,1.06c0.582,0,1.058-0.478,1.058-1.06v-9.926
		c0-0.582-0.476-1.057-1.058-1.057C87.054,515.318,86.578,515.793,86.578,516.375"/>
	<path fill="#58595B" d="M55.84,402.494h-9.924c-0.583,0-1.061-0.476-1.061-1.06c0-0.582,0.478-1.057,1.061-1.057h9.924
		c0.583,0,1.059,0.475,1.059,1.057C56.899,402.02,56.423,402.494,55.84,402.494"/>
	<path fill="#58595B" d="M49.818,396.475v9.925c0,0.582,0.478,1.059,1.061,1.059c0.58,0,1.058-0.477,1.058-1.059v-9.925
		c0-0.582-0.478-1.059-1.058-1.059C50.296,395.416,49.818,395.893,49.818,396.475"/>
	<g>
		<path fill="#58595B" d="M197.258,442.602h-39.191c-2.294,0-4.177-1.877-4.177-4.178c0-2.299,1.883-4.184,4.177-4.184h39.191
			c2.306,0,4.183,1.885,4.183,4.184C201.441,440.725,199.563,442.602,197.258,442.602"/>
		<path fill="#58595B" d="M173.481,418.826v39.188c0,2.302,1.883,4.185,4.183,4.185c2.301,0,4.184-1.883,4.184-4.185v-39.188
			c0-2.301-1.883-4.178-4.184-4.178C175.365,414.648,173.481,416.525,173.481,418.826"/>
	</g>
	<path fill="#58595B" d="M118.84,350.495h-9.924c-0.583,0-1.061-0.477-1.061-1.06c0-0.582,0.478-1.058,1.061-1.058h9.924
		c0.583,0,1.059,0.476,1.059,1.058C119.899,350.019,119.423,350.495,118.84,350.495"/>
	<path fill="#58595B" d="M112.818,344.474v9.926c0,0.582,0.478,1.059,1.061,1.059c0.58,0,1.058-0.477,1.058-1.059v-9.926
		c0-0.582-0.478-1.059-1.058-1.059C113.296,343.416,112.818,343.892,112.818,344.474"/>
	<path fill="#58595B" d="M349.5,538.266h-23.041c-1.353,0-2.462-1.104-2.462-2.459c0-1.352,1.11-2.455,2.462-2.455H349.5
		c1.353,0,2.458,1.104,2.458,2.455C351.957,537.16,350.852,538.266,349.5,538.266"/>
	<path fill="#58595B" d="M335.518,524.287v23.041c0,1.352,1.11,2.459,2.462,2.459c1.347,0,2.457-1.107,2.457-2.459v-23.041
		c0-1.353-1.109-2.457-2.457-2.457C336.627,521.83,335.518,522.936,335.518,524.287"/>
	<path fill="#58595B" d="M336.579,346.913h-9.924c-0.583,0-1.062-0.477-1.062-1.06c0-0.581,0.479-1.058,1.062-1.058h9.924
		c0.583,0,1.059,0.477,1.059,1.058C337.638,346.438,337.162,346.913,336.579,346.913"/>
	<path fill="#58595B" d="M330.557,340.892v9.926c0,0.582,0.478,1.059,1.061,1.059c0.58,0,1.058-0.477,1.058-1.059v-9.926
		c0-0.582-0.478-1.059-1.058-1.059C331.035,339.833,330.557,340.31,330.557,340.892"/>
	<path fill="#58595B" d="M322.938,310.512h-9.924c-0.583,0-1.061-0.476-1.061-1.059c0-0.582,0.478-1.059,1.061-1.059h9.924
		c0.583,0,1.059,0.477,1.059,1.059C323.997,310.037,323.521,310.512,322.938,310.512"/>
	<path fill="#58595B" d="M375.505,319.901v9.925c0,0.582,0.478,1.059,1.061,1.059c0.58,0,1.058-0.477,1.058-1.059v-9.925
		c0-0.582-0.478-1.06-1.058-1.06C375.983,318.842,375.505,319.319,375.505,319.901"/>
</g>
<g>
	<path fill="#58595B" d="M1202.47,236.546h45.121c2.647,0,4.813,2.168,4.813,4.816c0,2.647-2.166,4.812-4.813,4.812h-45.121
		c-2.646,0-4.812-2.165-4.812-4.812C1197.656,238.714,1199.822,236.546,1202.47,236.546"/>
	<path fill="#58595B" d="M1005.974,325.504h45.122c2.646,0,4.812,2.168,4.812,4.814c0,2.647-2.168,4.812-4.812,4.812h-45.122
		c-2.646,0-4.814-2.164-4.814-4.812C1001.158,327.672,1003.326,325.504,1005.974,325.504"/>
	<path fill="#58595B" d="M1179.517,264.762h45.12c2.648,0,4.814,2.164,4.814,4.812c0,2.646-2.166,4.814-4.814,4.814h-45.12
		c-2.646,0-4.812-2.168-4.812-4.814C1174.703,266.926,1176.869,264.762,1179.517,264.762"/>
	<path fill="#58595B" d="M1005.974,222.953h45.122c2.646,0,4.812,2.169,4.812,4.816s-2.168,4.812-4.812,4.812h-45.122
		c-2.646,0-4.814-2.165-4.814-4.812S1003.326,222.953,1005.974,222.953"/>
	<path fill="#58595B" d="M1058.75,183.709h45.123c2.646,0,4.812,2.164,4.812,4.812c0,2.647-2.166,4.815-4.812,4.815h-45.123
		c-2.646,0-4.812-2.168-4.812-4.815C1053.938,185.873,1056.104,183.709,1058.75,183.709"/>
	<path fill="#58595B" d="M1001.158,295.997L1001.158,295.997c2.646,0,4.812,2.168,4.812,4.812c0,2.646-2.164,4.814-4.812,4.814
		c-2.648,0-4.812-2.168-4.812-4.814C996.346,298.165,998.51,295.997,1001.158,295.997"/>
	<path fill="#58595B" d="M1185.753,323.872L1185.753,323.872c2.648,0,4.812,2.168,4.812,4.812c0,2.648-2.164,4.816-4.812,4.816
		c-2.647,0-4.812-2.168-4.812-4.816C1180.939,326.04,1183.104,323.872,1185.753,323.872"/>
	<path fill="#58595B" d="M1076.499,368.793L1076.499,368.793c2.647,0,4.812,2.168,4.812,4.812c0,2.647-2.163,4.815-4.812,4.815
		s-4.812-2.168-4.812-4.815C1071.688,370.961,1073.851,368.793,1076.499,368.793"/>
	<path fill="#58595B" d="M1127.648,218.139L1127.648,218.139c2.647,0,4.812,2.168,4.812,4.812c0,2.647-2.164,4.815-4.812,4.815
		s-4.812-2.168-4.812-4.815C1122.837,220.307,1125.001,218.139,1127.648,218.139"/>
	<path fill="#58595B" d="M1031.346,253.024L1031.346,253.024c1.545,0,2.812,1.268,2.812,2.812c0,1.549-1.269,2.812-2.812,2.812
		c-1.549,0-2.812-1.264-2.812-2.812C1028.533,254.292,1029.797,253.024,1031.346,253.024"/>
	<path fill="#58595B" d="M1112.869,342.493L1112.869,342.493c1.545,0,2.812,1.268,2.812,2.812c0,1.552-1.268,2.812-2.812,2.812
		c-1.55,0-2.813-1.262-2.813-2.812C1110.056,343.76,1111.319,342.493,1112.869,342.493"/>
	<path fill="#58595B" d="M1001.879,367.95h24.087c1.41,0,2.567,1.151,2.567,2.565s-1.157,2.572-2.567,2.572h-24.087
		c-1.417,0-2.57-1.158-2.57-2.572S1000.462,367.95,1001.879,367.95"/>
	<path fill="#58595B" d="M1016.492,382.561v-24.086c0-1.414-1.158-2.569-2.571-2.569c-1.414,0-2.571,1.155-2.571,2.569v24.086
		c0,1.414,1.157,2.568,2.571,2.568C1015.334,385.129,1016.492,383.975,1016.492,382.561"/>
	<path fill="#58595B" d="M1193.752,201.705h9.924c0.583,0,1.059,0.477,1.059,1.059s-0.476,1.059-1.059,1.059h-9.924
		c-0.582,0-1.059-0.477-1.059-1.059S1193.17,201.705,1193.752,201.705"/>
	<path fill="#58595B" d="M1199.771,207.727v-9.926c0-0.582-0.476-1.058-1.059-1.058c-0.582,0-1.058,0.476-1.058,1.058v9.926
		c0,0.582,0.476,1.058,1.058,1.058C1199.297,208.784,1199.771,208.309,1199.771,207.727"/>
	<path fill="#58595B" d="M1230.51,321.608h9.924c0.583,0,1.062,0.475,1.062,1.059c0,0.582-0.479,1.057-1.062,1.057h-9.924
		c-0.582,0-1.059-0.475-1.059-1.057C1229.451,322.083,1229.928,321.608,1230.51,321.608"/>
	<path fill="#58595B" d="M1236.532,327.627v-9.924c0-0.582-0.479-1.06-1.062-1.06c-0.58,0-1.058,0.478-1.058,1.06v9.924
		c0,0.582,0.478,1.059,1.058,1.059C1236.055,328.686,1236.532,328.209,1236.532,327.627"/>
	<g>
		<path fill="#58595B" d="M1089.092,281.5h39.191c2.295,0,4.178,1.877,4.178,4.178c0,2.299-1.883,4.184-4.178,4.184h-39.191
			c-2.305,0-4.183-1.885-4.183-4.184C1084.909,283.377,1086.787,281.5,1089.092,281.5"/>
		<path fill="#58595B" d="M1112.869,305.276v-39.189c0-2.301-1.884-4.184-4.184-4.184c-2.302,0-4.185,1.883-4.185,4.184v39.189
			c0,2.301,1.883,4.178,4.185,4.178C1110.985,309.454,1112.869,307.577,1112.869,305.276"/>
	</g>
	<path fill="#58595B" d="M1167.51,373.608h9.924c0.583,0,1.062,0.475,1.062,1.059c0,0.582-0.479,1.057-1.062,1.057h-9.924
		c-0.582,0-1.059-0.475-1.059-1.057C1166.451,374.083,1166.928,373.608,1167.51,373.608"/>
	<path fill="#58595B" d="M1173.532,379.627v-9.924c0-0.582-0.479-1.06-1.062-1.06c-0.58,0-1.058,0.478-1.058,1.06v9.924
		c0,0.582,0.478,1.059,1.058,1.059C1173.055,380.686,1173.532,380.209,1173.532,379.627"/>
	<path fill="#58595B" d="M936.852,185.837h23.039c1.354,0,2.463,1.104,2.463,2.458c0,1.352-1.108,2.456-2.463,2.456h-23.039
		c-1.354,0-2.459-1.104-2.459-2.456C934.393,186.941,935.498,185.837,936.852,185.837"/>
	<path fill="#58595B" d="M950.832,199.814v-23.041c0-1.352-1.109-2.458-2.461-2.458c-1.348,0-2.457,1.106-2.457,2.458v23.041
		c0,1.352,1.109,2.458,2.457,2.458C949.723,202.272,950.832,201.166,950.832,199.814"/>
	<path fill="#58595B" d="M949.771,377.19h9.924c0.582,0,1.061,0.475,1.061,1.059c0,0.582-0.479,1.057-1.061,1.057h-9.924
		c-0.584,0-1.06-0.475-1.06-1.057C948.713,377.665,949.188,377.19,949.771,377.19"/>
	<path fill="#58595B" d="M955.793,383.209v-9.924c0-0.582-0.479-1.06-1.061-1.06c-0.58,0-1.059,0.478-1.059,1.06v9.924
		c0,0.582,0.479,1.059,1.059,1.059C955.314,384.268,955.793,383.792,955.793,383.209"/>
	<path fill="#58595B" d="M904.822,398.18h9.925c0.583,0,1.061,0.478,1.061,1.06s-0.478,1.059-1.061,1.059h-9.925
		c-0.582,0-1.06-0.477-1.06-1.059S904.24,398.18,904.822,398.18"/>
	<path fill="#58595B" d="M910.846,404.201v-9.925c0-0.582-0.479-1.06-1.061-1.06c-0.58,0-1.059,0.478-1.059,1.06v9.925
		c0,0.582,0.479,1.059,1.059,1.059C910.367,405.26,910.846,404.783,910.846,404.201"/>
</g>
<g>
	<path fill="#58595B" d="M370,1002.93L370,1002.93c2.648,0,4.812,2.168,4.812,4.812c0,2.646-2.164,4.814-4.812,4.814
		s-4.812-2.168-4.812-4.814C365.188,1005.098,367.352,1002.93,370,1002.93"/>
	<path fill="#58595B" d="M49.286,1060.374L49.286,1060.374c2.648,0,4.812,2.168,4.812,4.812c0,2.646-2.164,4.814-4.812,4.814
		s-4.812-2.168-4.812-4.814C44.474,1062.542,46.638,1060.374,49.286,1060.374"/>
	<path fill="#58595B" d="M297.116,1021.551L297.116,1021.551c1.545,0,2.812,1.27,2.812,2.812c0,1.551-1.268,2.812-2.812,2.812
		c-1.55,0-2.813-1.264-2.813-2.812C294.303,1022.819,295.566,1021.551,297.116,1021.551"/>
	<path fill="#58595B" d="M259.017,1045.551L259.017,1045.551c1.545,0,2.812,1.27,2.812,2.812c0,1.551-1.268,2.812-2.812,2.812
		c-1.55,0-2.813-1.264-2.813-2.812C256.204,1046.819,257.467,1045.551,259.017,1045.551"/>
	<path fill="#58595B" d="M186.126,1047.008h24.087c1.41,0,2.567,1.152,2.567,2.566s-1.157,2.572-2.567,2.572h-24.087
		c-1.417,0-2.57-1.158-2.57-2.572S184.709,1047.008,186.126,1047.008"/>
	<path fill="#58595B" d="M200.739,1061.62v-24.086c0-1.414-1.158-2.57-2.571-2.57c-1.414,0-2.571,1.156-2.571,2.57v24.086
		c0,1.414,1.157,2.568,2.571,2.568C199.581,1064.188,200.739,1063.034,200.739,1061.62"/>
	<path fill="#58595B" d="M414.757,1000.667h9.924c0.583,0,1.062,0.475,1.062,1.059c0,0.582-0.479,1.059-1.062,1.059h-9.924
		c-0.582,0-1.059-0.477-1.059-1.059C413.698,1001.141,414.175,1000.667,414.757,1000.667"/>
	<path fill="#58595B" d="M420.779,1006.688v-9.926c0-0.582-0.479-1.059-1.062-1.059c-0.58,0-1.058,0.477-1.058,1.059v9.926
		c0,0.58,0.478,1.059,1.058,1.059C420.302,1007.745,420.779,1007.268,420.779,1006.688"/>
	<path fill="#58595B" d="M351.757,1052.667h9.924c0.583,0,1.061,0.475,1.061,1.059c0,0.582-0.478,1.059-1.061,1.059h-9.924
		c-0.582,0-1.059-0.477-1.059-1.059C350.698,1053.141,351.175,1052.667,351.757,1052.667"/>
	<path fill="#58595B" d="M357.779,1058.688v-9.926c0-0.582-0.478-1.059-1.061-1.059c-0.58,0-1.058,0.477-1.058,1.059v9.926
		c0,0.582,0.478,1.059,1.058,1.059C357.302,1059.745,357.779,1059.27,357.779,1058.688"/>
	<path fill="#58595B" d="M134.019,1046.249h9.924c0.582,0,1.061,0.475,1.061,1.059c0,0.582-0.479,1.059-1.061,1.059h-9.924
		c-0.583,0-1.059-0.477-1.059-1.059C132.96,1046.723,133.436,1046.249,134.019,1046.249"/>
	<path fill="#58595B" d="M140.04,1052.27v-9.926c0-0.582-0.478-1.059-1.061-1.059c-0.58,0-1.058,0.477-1.058,1.059v9.926
		c0,0.582,0.478,1.059,1.058,1.059C139.562,1053.327,140.04,1052.85,140.04,1052.27"/>
	<path fill="#58595B" d="M89.069,1077.239h9.925c0.583,0,1.061,0.477,1.061,1.059s-0.478,1.059-1.061,1.059h-9.925
		c-0.582,0-1.059-0.477-1.059-1.059C88.011,1077.715,88.487,1077.239,89.069,1077.239"/>
	<path fill="#58595B" d="M95.093,1083.26v-9.926c0-0.582-0.479-1.059-1.061-1.059c-0.58,0-1.059,0.477-1.059,1.059v9.926
		c0,0.582,0.479,1.059,1.059,1.059C94.614,1084.319,95.093,1083.842,95.093,1083.26"/>
</g>
<g>
	<path fill="#58595B" d="M65.741,294.091L65.741,294.091c-2.648,0-4.812-2.168-4.812-4.812c0-2.647,2.164-4.815,4.812-4.815
		c2.648,0,4.812,2.168,4.812,4.815C70.554,291.923,68.39,294.091,65.741,294.091"/>
	<path fill="#58595B" d="M291.148,254.132L291.148,254.132c-2.648,0-4.812-2.168-4.812-4.812c0-2.647,2.164-4.815,4.812-4.815
		s4.812,2.168,4.812,4.815C295.961,251.964,293.797,254.132,291.148,254.132"/>
	<path fill="#58595B" d="M138.625,275.47L138.625,275.47c-1.545,0-2.812-1.268-2.812-2.812c0-1.55,1.268-2.812,2.812-2.812
		c1.55,0,2.813,1.263,2.813,2.812C141.438,274.202,140.175,275.47,138.625,275.47"/>
	<path fill="#58595B" d="M176.724,251.47L176.724,251.47c-1.545,0-2.812-1.268-2.812-2.812c0-1.55,1.268-2.812,2.812-2.812
		c1.55,0,2.813,1.263,2.813,2.812C179.538,250.202,178.274,251.47,176.724,251.47"/>
	<path fill="#58595B" d="M249.615,250.014h-24.087c-1.41,0-2.567-1.153-2.567-2.567c0-1.413,1.157-2.571,2.567-2.571h24.087
		c1.417,0,2.57,1.158,2.57,2.571C252.186,248.86,251.032,250.014,249.615,250.014"/>
	<path fill="#58595B" d="M235.002,235.401v24.087c0,1.413,1.158,2.57,2.571,2.57c1.414,0,2.571-1.157,2.571-2.57v-24.087
		c0-1.414-1.157-2.567-2.571-2.567C236.16,232.834,235.002,233.987,235.002,235.401"/>
	<path fill="#58595B" d="M20.984,296.355H11.06c-0.583,0-1.061-0.476-1.061-1.059c0-0.582,0.478-1.058,1.061-1.058h9.924
		c0.582,0,1.059,0.476,1.059,1.058C22.043,295.88,21.566,296.355,20.984,296.355"/>
	<path fill="#58595B" d="M14.962,290.335v9.925c0,0.582,0.478,1.059,1.061,1.059c0.58,0,1.058-0.477,1.058-1.059v-9.925
		c0-0.582-0.478-1.059-1.058-1.059C15.439,289.276,14.962,289.753,14.962,290.335"/>
	<path fill="#58595B" d="M83.984,244.355H74.06c-0.583,0-1.061-0.476-1.061-1.059c0-0.582,0.478-1.058,1.061-1.058h9.924
		c0.582,0,1.059,0.476,1.059,1.058C85.043,243.88,84.566,244.355,83.984,244.355"/>
	<path fill="#58595B" d="M77.962,238.335v9.925c0,0.582,0.478,1.059,1.061,1.059c0.58,0,1.058-0.477,1.058-1.059v-9.925
		c0-0.582-0.478-1.059-1.058-1.059C78.439,237.276,77.962,237.753,77.962,238.335"/>
	<path fill="#58595B" d="M126.5,261.081h-9.924c-0.582,0-1.061-0.476-1.061-1.059c0-0.582,0.479-1.058,1.061-1.058h9.924
		c0.583,0,1.059,0.476,1.059,1.058C127.559,260.605,127.083,261.081,126.5,261.081"/>
	<path fill="#58595B" d="M120.479,255.061v9.925c0,0.582,0.478,1.059,1.061,1.059c0.58,0,1.058-0.477,1.058-1.059v-9.925
		c0-0.582-0.478-1.059-1.058-1.059C120.956,254.002,120.479,254.479,120.479,255.061"/>
	<path fill="#58595B" d="M336.672,219.782h-9.925c-0.583,0-1.061-0.476-1.061-1.059c0-0.582,0.478-1.058,1.061-1.058h9.925
		c0.582,0,1.059,0.476,1.059,1.058C337.73,219.307,337.254,219.782,336.672,219.782"/>
	<path fill="#58595B" d="M330.648,213.762v9.925c0,0.582,0.479,1.059,1.061,1.059c0.58,0,1.059-0.477,1.059-1.059v-9.925
		c0-0.582-0.479-1.059-1.059-1.059C331.127,212.703,330.648,213.18,330.648,213.762"/>
</g>
<g>
	<path fill="#58595B" d="M1178,63.931L1178,63.931c2.648,0,4.812,2.168,4.812,4.812c0,2.647-2.164,4.815-4.812,4.815
		s-4.812-2.168-4.812-4.815C1173.188,66.099,1175.352,63.931,1178,63.931"/>
	<path fill="#58595B" d="M857.286,121.374L857.286,121.374c2.647,0,4.812,2.168,4.812,4.812c0,2.647-2.164,4.815-4.812,4.815
		c-2.648,0-4.812-2.168-4.812-4.815C852.474,123.542,854.638,121.374,857.286,121.374"/>
	<path fill="#58595B" d="M1105.116,82.552L1105.116,82.552c1.545,0,2.812,1.268,2.812,2.812c0,1.55-1.268,2.812-2.812,2.812
		c-1.55,0-2.813-1.263-2.813-2.812C1102.303,83.819,1103.566,82.552,1105.116,82.552"/>
	<path fill="#58595B" d="M1067.018,106.552L1067.018,106.552c1.545,0,2.812,1.268,2.812,2.812c0,1.55-1.268,2.812-2.812,2.812
		c-1.551,0-2.813-1.263-2.813-2.812C1064.203,107.819,1065.467,106.552,1067.018,106.552"/>
	<path fill="#58595B" d="M994.126,108.008h24.087c1.41,0,2.567,1.153,2.567,2.567c0,1.413-1.157,2.571-2.567,2.571h-24.087
		c-1.417,0-2.57-1.158-2.57-2.571C991.556,109.161,992.709,108.008,994.126,108.008"/>
	<path fill="#58595B" d="M1008.739,122.62V98.533c0-1.413-1.158-2.57-2.571-2.57c-1.414,0-2.571,1.157-2.571,2.57v24.087
		c0,1.414,1.157,2.567,2.571,2.567C1007.581,125.188,1008.739,124.034,1008.739,122.62"/>
	<path fill="#58595B" d="M1222.757,61.666h9.924c0.583,0,1.062,0.476,1.062,1.059c0,0.582-0.479,1.058-1.062,1.058h-9.924
		c-0.582,0-1.059-0.476-1.059-1.058C1221.698,62.142,1222.175,61.666,1222.757,61.666"/>
	<path fill="#58595B" d="M1228.779,67.687v-9.925c0-0.582-0.479-1.059-1.062-1.059c-0.58,0-1.058,0.477-1.058,1.059v9.925
		c0,0.582,0.478,1.059,1.058,1.059C1228.302,68.745,1228.779,68.269,1228.779,67.687"/>
	<path fill="#58595B" d="M1139.757,73.666h9.924c0.583,0,1.062,0.476,1.062,1.059c0,0.582-0.479,1.058-1.062,1.058h-9.924
		c-0.582,0-1.059-0.476-1.059-1.058C1138.698,74.142,1139.175,73.666,1139.757,73.666"/>
	<path fill="#58595B" d="M1145.779,79.687v-9.925c0-0.582-0.479-1.059-1.062-1.059c-0.58,0-1.058,0.477-1.058,1.059v9.925
		c0,0.582,0.478,1.059,1.058,1.059C1145.302,80.745,1145.779,80.269,1145.779,79.687"/>
	<path fill="#58595B" d="M942.02,107.248h9.924c0.582,0,1.061,0.476,1.061,1.059c0,0.582-0.479,1.058-1.061,1.058h-9.924
		c-0.584,0-1.06-0.476-1.06-1.058C940.96,107.724,941.436,107.248,942.02,107.248"/>
	<path fill="#58595B" d="M948.04,113.269v-9.925c0-0.582-0.478-1.059-1.062-1.059c-0.58,0-1.058,0.477-1.058,1.059v9.925
		c0,0.582,0.479,1.059,1.058,1.059C947.562,114.327,948.04,113.851,948.04,113.269"/>
	<path fill="#58595B" d="M897.069,138.239h9.925c0.583,0,1.061,0.476,1.061,1.059c0,0.582-0.478,1.058-1.061,1.058h-9.925
		c-0.582,0-1.06-0.476-1.06-1.058C896.011,138.715,896.487,138.239,897.069,138.239"/>
	<path fill="#58595B" d="M903.093,144.26v-9.925c0-0.582-0.479-1.059-1.061-1.059c-0.58,0-1.06,0.477-1.06,1.059v9.925
		c0,0.582,0.479,1.059,1.06,1.059C902.614,145.318,903.093,144.842,903.093,144.26"/>
</g>
</svg>
