<?xml version="1.0" encoding="UTF-8"?>
<svg width="31px" height="31px" viewBox="0 0 31 31" version="1.1" xmlns="http://www.w3.org/2000/svg" xmlns:xlink="http://www.w3.org/1999/xlink">
    <!-- Generator: Sketch 45 (43475) - http://www.bohemiancoding.com/sketch -->
    <title>sharefacebook</title>
    <desc>Created with Sketch.</desc>
    <defs></defs>
    <g id="Page-1" stroke="none" stroke-width="1" fill="none" fill-rule="evenodd">
        <g id="Blog-Article" transform="translate(-109.000000, -835.000000)" fill-rule="nonzero" fill="#72C02C">
            <g id="FOLLOW-US" transform="translate(98.000000, 754.000000)">
                <g id="Icons" transform="translate(10.000000, 36.000000)">
                    <g id="facebook" transform="translate(1.000000, 45.000000)">
                        <path d="M31,15.5 C31,6.9397451 24.0602042,0 15.5,0 C6.9397451,0 0,6.9397451 0,15.5 C0,24.0602042 6.9397451,31 15.5,31 C24.0602042,31 31,24.0602042 31,15.5 Z M1.4090817,15.5 C1.4090817,7.7175817 7.7175817,1.4090817 15.5,1.4090817 C23.2824183,1.4090817 29.5909183,7.7175817 29.5909183,15.5 C29.5909183,23.2824183 23.2824183,29.5909183 15.5,29.5909183 C7.7175817,29.5909183 1.4090817,23.2824183 1.4090817,15.5 Z" id="Shape"></path>
                        <path d="M16.0946225,24.4462859 L16.0946225,15.5 L19.0466634,15.5 L19.5130817,12.5352958 L16.0946225,12.5352958 L16.0946225,11.0487141 C16.0946225,10.2751324 16.3482451,9.5367549 17.4586225,9.5367549 L19.6779085,9.5367549 L19.6779085,6.5776732 L16.5272042,6.5776732 C13.8781225,6.5776732 13.1552451,8.3220817 13.1552451,10.7401324 L13.1552451,12.5339281 L11.3375408,12.5339281 L11.3375408,15.5 L13.1552451,15.5 L13.1552451,24.4462859 L16.0946225,24.4462859 L16.0946225,24.4462859 Z" id="Shape"></path>
                    </g>
                </g>
            </g>
        </g>
    </g>
</svg>