<?xml version="1.0" encoding="utf-8"?>
<!-- Generator: Adobe Illustrator 19.0.0, SVG Export Plug-In . SVG Version: 6.00 Build 0)  -->
<svg version="1.1" id="Layer_1" xmlns="http://www.w3.org/2000/svg" xmlns:xlink="http://www.w3.org/1999/xlink" x="0px" y="0px"
	 viewBox="-829 691 20 20" style="enable-background:new -829 691 20 20;" xml:space="preserve">
<style type="text/css">
	.st0{fill:#72C02C;}
</style>
<title>Shape</title>
<desc>Created with Sketch.</desc>
<path class="st0" d="M-811,691h-16c-1.1,0-2,0.9-2,2v16c0,1.1,0.9,2,2,2h16c1.1,0,2-0.9,2-2v-16C-809,691.9-809.9,691-811,691z
	 M-821.1,697c1.8,1.1,3.7,2.2,5.5,3.3c-0.2,0.4-0.5,0.8-0.7,1.2c-1.8-1.1-3.7-2.2-5.5-3.3C-821.6,697.8-821.3,697.4-821.1,697z
	 M-822.6,700.1c2.1,0.6,4.1,1.1,6.2,1.7c-0.1,0.4-0.2,0.9-0.4,1.3c-2.1-0.6-4.1-1.1-6.2-1.7C-822.8,701-822.7,700.6-822.6,700.1z
	 M-823.2,703c2.1,0.2,4.3,0.4,6.4,0.6c0,0.5-0.1,0.9-0.1,1.4c-2.1-0.2-4.3-0.4-6.4-0.6C-823.3,703.9-823.2,703.5-823.2,703z
	 M-823.4,705.4c2.1,0,4.3,0,6.4,0c0,0.5,0,0.9,0,1.4c-2.1,0-4.3,0-6.4,0C-823.4,706.3-823.4,705.8-823.4,705.4z M-814.8,708.9
	c-3.5,0-7.1,0-10.6,0c0-2.2,0-4.5,0-6.7c0.4,0,0.7,0,1.1,0c0,1.9,0,3.7,0,5.6c2.8,0,5.6,0,8.4,0c0-1.9,0-3.7,0-5.6
	c0.4,0,0.7,0,1.1,0C-814.8,704.5-814.8,706.7-814.8,708.9z M-815.3,700.1c-1.2-1.8-2.4-3.5-3.6-5.3c0.4-0.3,0.8-0.5,1.1-0.8
	c1.2,1.8,2.4,3.5,3.6,5.3C-814.6,699.5-815,699.8-815.3,700.1z M-814,699.2c-0.4-2.1-0.7-4.2-1.1-6.3c0.5-0.1,0.9-0.2,1.4-0.2
	c0.4,2.1,0.7,4.2,1.1,6.3C-813.1,699-813.5,699.1-814,699.2z"/>
</svg>
