<?xml version="1.0" encoding="utf-8"?>
<!-- Generator: Adobe Illustrator 16.0.0, SVG Export Plug-In . SVG Version: 6.00 Build 0)  -->
<!DOCTYPE svg PUBLIC "-//W3C//DTD SVG 1.1//EN" "http://www.w3.org/Graphics/SVG/1.1/DTD/svg11.dtd">
<svg version="1.1" id="Layer_1" xmlns="http://www.w3.org/2000/svg" xmlns:xlink="http://www.w3.org/1999/xlink" x="0px" y="0px"
	 width="613.433px" height="438.806px" viewBox="0 0 613.433 438.806" enable-background="new 0 0 613.433 438.806"
	 xml:space="preserve">
<g>
	<g>
		<polygon fill="#74BF12" points="17.707,191.906 17.707,82.134 112.773,27.248 207.839,82.134 207.839,191.906 112.773,246.792 		
			"/>
		<path fill="#FFFFFF" d="M112.773,32.158l90.814,52.431v104.863l-90.814,52.431l-90.813-52.431V84.588L112.773,32.158z
			 M112.773,251.703l99.318-57.341V79.678l-99.318-57.341L13.455,79.678v114.684"/>
		<g>
			<path fill="#548900" d="M152.146,103.123h-24.064c-1.411,0-2.566-1.154-2.566-2.566s1.155-2.567,2.566-2.567h24.064
				c1.412,0,2.567,1.155,2.567,2.567S153.558,103.123,152.146,103.123"/>
			<path fill="#548900" d="M57.79,121.378L57.79,121.378c-1.412,0-2.566-1.154-2.566-2.566s1.154-2.567,2.566-2.567
				s2.567,1.155,2.567,2.567S59.202,121.378,57.79,121.378"/>
			<path fill="#548900" d="M136.732,193.597L136.732,193.597c-0.825,0-1.5-0.675-1.5-1.5s0.675-1.5,1.5-1.5s1.5,0.675,1.5,1.5
				S137.557,193.597,136.732,193.597"/>
			<path fill="#548900" d="M93.798,169.361H69.735c-1.412,0-2.567-1.155-2.567-2.567c0-1.411,1.155-2.566,2.567-2.566h24.063
				c1.412,0,2.567,1.155,2.567,2.566C96.366,168.206,95.21,169.361,93.798,169.361"/>
			<path fill="#548900" d="M115.548,181.266H91.484c-1.412,0-2.567-1.155-2.567-2.567s1.155-2.567,2.567-2.567h24.064
				c1.411,0,2.566,1.155,2.566,2.567S116.959,181.266,115.548,181.266"/>
			<path fill="#548900" d="M138.539,122.127h-12.846c-0.753,0-1.37-0.616-1.37-1.369c0-0.755,0.617-1.371,1.37-1.371h12.846
				c0.754,0,1.37,0.616,1.37,1.371C139.909,121.511,139.292,122.127,138.539,122.127"/>
			<path fill="#548900" d="M130.746,114.334v12.846c0,0.753,0.616,1.37,1.369,1.37c0.755,0,1.371-0.617,1.371-1.37v-12.846
				c0-0.754-0.616-1.37-1.371-1.37C131.362,112.964,130.746,113.581,130.746,114.334"/>
			<path fill="#548900" d="M64.321,106.839H51.474c-0.753,0-1.369-0.617-1.369-1.37c0-0.754,0.616-1.371,1.369-1.371h12.847
				c0.754,0,1.37,0.617,1.37,1.371C65.691,106.222,65.075,106.839,64.321,106.839"/>
			<path fill="#548900" d="M56.419,98.708v12.847c0,0.753,0.617,1.37,1.37,1.37c0.754,0,1.371-0.617,1.371-1.37V98.708
				c0-0.754-0.617-1.369-1.371-1.369C57.037,97.339,56.419,97.955,56.419,98.708"/>
			<path fill="none" stroke="#FFFFFF" stroke-width="2.5" stroke-miterlimit="10" d="M165.666,138.009l-8.813-8.814
				c-0.394-0.393-0.926-0.613-1.48-0.613c-0.556,0-1.087,0.221-1.48,0.613l-8.813,8.814c-0.817,0.818-0.817,2.143,0,2.959
				l1.595,1.596c-4.054,1.847-8.33,2.689-13.513,2.689c-6.946,0-11.514-1.57-14.979-3.396l1.701-1.701
				c0.817-0.817,0.817-2.144,0-2.96l-8.814-8.814c-0.392-0.393-0.924-0.613-1.479-0.613c-0.555,0-1.088,0.221-1.48,0.613
				l-2.927,2.928l-23.41-23.412c0.568-1.022,0.896-2.197,0.896-3.448c0-3.925-3.193-7.118-7.118-7.118s-7.118,3.193-7.118,7.118
				s3.193,7.118,7.118,7.118c1.151,0,2.237-0.281,3.202-0.77l18.758,18.759c-3.097-0.972-6.872-1.646-11.562-1.646
				c-6.802,0-12.311,1.33-17.662,4.283l-3-3c-0.393-0.393-0.925-0.613-1.479-0.613c-0.556,0-1.088,0.221-1.48,0.613l-8.813,8.814
				c-0.818,0.818-0.818,2.143,0,2.959l8.814,8.814c0.392,0.393,0.925,0.614,1.479,0.614c0.556,0,1.087-0.222,1.48-0.614l8.813-8.814
				c0.817-0.816,0.817-2.143,0-2.959l-2.721-2.721c3.286-1.662,7.824-3.189,14.568-3.189c6.985,0,11.559,1.587,15.024,3.42
				l-1.676,1.678c-0.818,0.817-0.818,2.144,0,2.96l8.813,8.813c0.393,0.394,0.925,0.613,1.479,0.613c0.556,0,1.088-0.22,1.48-0.613
				l2.927-2.927l23.873,23.874c-0.528,0.993-0.83,2.126-0.83,3.327c0,3.926,3.193,7.118,7.118,7.118s7.118-3.192,7.118-7.118
				c0-3.925-3.193-7.117-7.118-7.117c-1.202,0-2.334,0.302-3.328,0.83l-19.131-19.131c3.08,0.955,6.825,1.614,11.462,1.614
				c6.318,0,11.652-1.199,16.646-3.745l4.086,4.087c0.394,0.393,0.926,0.614,1.48,0.614c0.556,0,1.088-0.222,1.48-0.614l8.813-8.814
				C166.483,140.152,166.483,138.826,165.666,138.009z"/>
			<path fill="#548900" d="M158.732,163.111L158.732,163.111c-1.658,0-3.014-1.355-3.014-3.014s1.355-3.014,3.014-3.014
				c1.657,0,3.013,1.355,3.013,3.014S160.389,163.111,158.732,163.111"/>
			<path fill="#548900" d="M98.732,109.597L98.732,109.597c-0.825,0-1.5-0.675-1.5-1.5s0.675-1.5,1.5-1.5s1.5,0.675,1.5,1.5
				S99.557,109.597,98.732,109.597"/>
			<path fill="#548900" d="M87.732,152.393L87.732,152.393c-1.264,0-2.296-1.033-2.296-2.296s1.032-2.296,2.296-2.296
				c1.263,0,2.296,1.033,2.296,2.296S88.995,152.393,87.732,152.393"/>
			<path fill="#548900" d="M158.732,120.431L158.732,120.431c-1.284,0-2.334-1.05-2.334-2.334s1.05-2.334,2.334-2.334
				s2.334,1.05,2.334,2.334S160.016,120.431,158.732,120.431"/>
		</g>
	</g>
	<g>
		<polygon fill="#74BF12" points="111.204,362.642 111.204,252.871 206.27,197.984 301.336,252.871 301.336,362.642 206.27,417.531 
					"/>
		<path fill="#FFFFFF" d="M206.27,202.894l90.814,52.432v104.863l-90.814,52.432l-90.813-52.432V255.326L206.27,202.894z
			 M206.27,193.075l-99.318,57.341v114.684l99.318,57.34l99.318-57.34V250.416L206.27,193.075z"/>
		<g>
			<path fill="#548900" d="M266.595,299.287h-24.064c-1.411,0-2.566-1.154-2.566-2.566s1.155-2.566,2.566-2.566h24.064
				c1.412,0,2.567,1.154,2.567,2.566S268.007,299.287,266.595,299.287"/>
			<path fill="#548900" d="M164.295,342.097h-24.063c-1.412,0-2.567-1.154-2.567-2.566s1.155-2.566,2.567-2.566h24.063
				c1.412,0,2.567,1.154,2.567,2.566S165.708,342.097,164.295,342.097"/>
			<path fill="#548900" d="M173.387,332.003h-24.064c-1.412,0-2.567-1.156-2.567-2.568s1.155-2.566,2.567-2.566h24.064
				c1.411,0,2.566,1.154,2.566,2.566S174.798,332.003,173.387,332.003"/>
			<rect x="161.338" y="275.576" fill="#74BF12" width="87.877" height="66.521"/>
			<path fill="#548900" d="M172.953,361.333L172.953,361.333c-1.412,0-2.566-1.156-2.566-2.566c0-1.412,1.154-2.568,2.566-2.568
				s2.567,1.156,2.567,2.568C175.52,360.177,174.365,361.333,172.953,361.333"/>
			<path fill="#548900" d="M230.229,364.333L230.229,364.333c-0.825,0-1.5-0.674-1.5-1.5c0-0.824,0.675-1.5,1.5-1.5
				s1.5,0.676,1.5,1.5C231.729,363.66,231.054,364.333,230.229,364.333"/>
			<path fill="#548900" d="M264,269.445h-12.846c-0.753,0-1.37-0.615-1.37-1.369s0.617-1.371,1.37-1.371H264
				c0.754,0,1.37,0.617,1.37,1.371S264.753,269.445,264,269.445"/>
			<path fill="#548900" d="M256.207,261.652v12.846c0,0.754,0.616,1.371,1.369,1.371c0.755,0,1.371-0.617,1.371-1.371v-12.846
				c0-0.754-0.616-1.369-1.371-1.369C256.823,260.283,256.207,260.898,256.207,261.652"/>
			<path fill="#548900" d="M209.613,356.189h-6.686c-0.393,0-0.714-0.32-0.714-0.711c0-0.395,0.321-0.715,0.714-0.715h6.686
				c0.393,0,0.713,0.32,0.713,0.715C210.326,355.869,210.005,356.189,209.613,356.189"/>
			<path fill="#548900" d="M205.557,352.134v6.686c0,0.393,0.32,0.713,0.712,0.713c0.394,0,0.714-0.32,0.714-0.713v-6.686
				c0-0.393-0.32-0.713-0.714-0.713C205.877,351.421,205.557,351.742,205.557,352.134"/>
			<path fill="#548900" d="M151.818,271.576h-12.847c-0.753,0-1.369-0.617-1.369-1.369c0-0.754,0.616-1.371,1.369-1.371h12.847
				c0.754,0,1.37,0.617,1.37,1.371C153.188,270.958,152.572,271.576,151.818,271.576"/>
			<path fill="#548900" d="M143.917,263.447v12.846c0,0.752,0.617,1.369,1.37,1.369c0.754,0,1.371-0.617,1.371-1.369v-12.846
				c0-0.754-0.617-1.371-1.371-1.371C144.534,262.076,143.917,262.693,143.917,263.447"/>
			<path fill="#548900" d="M262.229,323.847L262.229,323.847c-1.658,0-3.014-1.355-3.014-3.014s1.355-3.014,3.014-3.014
				c1.657,0,3.013,1.355,3.013,3.014S263.886,323.847,262.229,323.847"/>
			<path fill="#548900" d="M174.454,268.076L174.454,268.076c-0.825,0-1.5-0.676-1.5-1.5c0-0.826,0.675-1.5,1.5-1.5
				s1.5,0.674,1.5,1.5C175.954,267.4,175.279,268.076,174.454,268.076"/>
			<path fill="#548900" d="M146.755,312.349L146.755,312.349c-1.264,0-2.296-1.033-2.296-2.297c0-1.262,1.032-2.295,2.296-2.295
				c1.263,0,2.296,1.033,2.296,2.295C149.051,311.316,148.018,312.349,146.755,312.349"/>
			<path fill="#548900" d="M257.576,348.835L257.576,348.835c-1.284,0-2.334-1.051-2.334-2.336c0-1.283,1.05-2.334,2.334-2.334
				s2.335,1.051,2.335,2.334C259.911,347.785,258.86,348.835,257.576,348.835"/>
			<g>
				<g>
					<path fill="#FFFFFF" d="M164.097,342.542c-3.816,0-6.921-3.105-6.921-6.922v-53.947c0-3.815,3.104-6.92,6.921-6.92h21.466
						v-4.457c0-3.958,3.22-7.178,7.178-7.178h25.64c3.958,0,7.178,3.22,7.178,7.178v4.457h21.467c3.815,0,6.92,3.104,6.92,6.92
						v53.947c0,3.816-3.104,6.922-6.921,6.922H164.097z M162.375,335.621c0,0.95,0.772,1.723,1.722,1.723h82.928
						c0.949,0,1.722-0.772,1.722-1.723v-30.308l-0.985,0.326c-9.365,3.098-21.936,5.073-35.398,5.564l-0.723,0.025v0.752
						l0.005,0.086l0.001,1.479c0,2.355-1.917,4.271-4.272,4.271h-3.625c-2.356,0-4.272-1.916-4.272-4.271v-1.477l0.019-0.741
						l-0.736-0.126c-13.455-0.484-26.026-2.454-35.398-5.546l-0.985-0.325V335.621z M164.097,279.953
						c-0.949,0-1.722,0.771-1.722,1.721v18.12l0.49,0.181c10.57,3.91,26.122,6.152,42.667,6.152c16.581,0,32.153-2.25,42.725-6.172
						l0.489-0.182v-18.1c0-0.949-0.772-1.721-1.722-1.721H164.097z M192.741,268.318c-1.091,0-1.979,0.888-1.979,1.979v4.457h29.598
						v-4.457c0-1.091-0.888-1.979-1.979-1.979H192.741z"/>
					<path fill="#74BF12" d="M218.38,263.869c3.544,0,6.428,2.884,6.428,6.428v3.707v1.5h1.5h20.717c3.402,0,6.17,2.768,6.17,6.17
						v53.947c0,3.403-2.768,6.172-6.171,6.172h-82.927c-3.403,0-6.171-2.769-6.171-6.172v-53.947c0-3.402,2.768-6.17,6.171-6.17
						h20.716h1.5v-1.5v-3.707c0-3.544,2.883-6.428,6.428-6.428H218.38 M190.012,275.503h1.5h28.098h1.5v-1.5v-3.707
						c0-1.505-1.224-2.729-2.729-2.729h-25.641c-1.504,0-2.729,1.224-2.729,2.729v3.707V275.503 M205.533,306.876
						c16.666,0,32.334-2.267,42.986-6.219l0.978-0.363v-1.043v-17.578c0-1.362-1.109-2.471-2.472-2.471h-82.928
						c-1.363,0-2.472,1.108-2.472,2.471v17.598v1.045l0.979,0.362C173.255,304.617,188.901,306.876,205.533,306.876
						 M210.896,312.105v1.441c0,1.941-1.58,3.521-3.522,3.521h-3.625c-1.942,0-3.522-1.58-3.522-3.521l0-1.438
						c0.002-0.04,0.005-0.079,0.006-0.119l0.037-1.482l-1.482-0.054c-13.386-0.482-25.883-2.438-35.19-5.51l-1.97-0.649v2.074
						v29.252c0,1.363,1.109,2.473,2.472,2.473h82.928c1.363,0,2.472-1.109,2.472-2.473v-29.27v-2.076l-1.971,0.652
						c-9.299,3.076-21.796,5.039-35.19,5.526l-1.445,0.053v1.446C210.89,312.002,210.892,312.051,210.896,312.105 M218.38,262.369
						h-25.64c-4.371,0-7.928,3.557-7.928,7.928v3.707h-20.716c-4.229,0-7.671,3.441-7.671,7.67v53.947
						c0,4.23,3.441,7.672,7.671,7.672h82.927c4.229,0,7.671-3.441,7.671-7.672v-53.947c0-4.229-3.44-7.67-7.67-7.67h-20.717v-3.707
						C226.308,265.925,222.752,262.369,218.38,262.369L218.38,262.369z M191.512,274.003v-3.707c0-0.678,0.552-1.229,1.229-1.229
						h25.641c0.677,0,1.229,0.551,1.229,1.229v3.707H191.512L191.512,274.003z M205.533,305.376
						c-16.391,0-32.026-2.266-42.407-6.105v-17.598c0-0.535,0.436-0.971,0.972-0.971h82.928c0.535,0,0.972,0.436,0.972,0.971v17.578
						C237.616,303.103,221.959,305.376,205.533,305.376L205.533,305.376z M203.749,318.568h3.625c2.77,0,5.022-2.252,5.022-5.021
						v-1.477c0-0.041-0.006-0.078-0.006-0.117c13.622-0.496,26.112-2.461,35.606-5.602v29.27c0,0.535-0.437,0.973-0.972,0.973
						h-82.928c-0.536,0-0.972-0.438-0.972-0.973v-29.252c9.501,3.135,21.993,5.094,35.606,5.584
						c-0.001,0.039-0.006,0.076-0.006,0.117v1.477C198.726,316.316,200.979,318.568,203.749,318.568L203.749,318.568z"/>
				</g>
			</g>
		</g>
	</g>
	<g>
		<polygon fill="#74BF12" points="309.024,358.166 309.024,248.394 404.09,193.507 499.157,248.394 499.157,358.166 404.09,413.052 
					"/>
		<path fill="#FFFFFF" d="M404.09,198.417l90.814,52.43V355.71l-90.814,52.432l-90.814-52.432V250.847L404.09,198.417z
			 M404.09,188.597l-99.317,57.34v114.684l99.317,57.342l99.318-57.342V245.937L404.09,188.597z"/>
		<g>
			<path fill="#548900" d="M450.172,306.337h-24.064c-1.412,0-2.566-1.154-2.566-2.566s1.154-2.566,2.566-2.566h24.064
				c1.412,0,2.566,1.154,2.566,2.566S451.584,306.337,450.172,306.337"/>
			<path fill="#548900" d="M385.932,313.89h-24.064c-1.412,0-2.568-1.154-2.568-2.566s1.156-2.566,2.568-2.566h24.064
				c1.41,0,2.566,1.154,2.566,2.566S387.342,313.89,385.932,313.89"/>
			<polygon fill="#74BF12" points="432.254,316.179 379.608,316.179 379.608,298.513 440.254,298.513 			"/>
			<path fill="#548900" d="M368.313,281.32h-24.064c-1.412,0-2.566-1.154-2.566-2.566s1.154-2.568,2.566-2.568h24.064
				c1.412,0,2.566,1.156,2.566,2.568S369.725,281.32,368.313,281.32"/>
			<path fill="#548900" d="M457.434,306.337L457.434,306.337c-1.412,0-2.566-1.154-2.566-2.566s1.154-2.566,2.566-2.566
				s2.566,1.154,2.566,2.566S458.846,306.337,457.434,306.337"/>
			<path fill="#548900" d="M431.754,237.347L431.754,237.347c-0.824,0-1.5-0.676-1.5-1.5c0-0.826,0.676-1.5,1.5-1.5
				c0.826,0,1.5,0.674,1.5,1.5C433.254,236.671,432.581,237.347,431.754,237.347"/>
			<path fill="#548900" d="M414.895,335.785L414.895,335.785c-0.824,0-1.5-0.674-1.5-1.5c0-0.824,0.676-1.5,1.5-1.5
				c0.826,0,1.5,0.676,1.5,1.5C416.395,335.111,415.721,335.785,414.895,335.785"/>
			<path fill="#548900" d="M354.782,263.513L354.782,263.513c-0.826,0-1.5-0.674-1.5-1.5c0-0.824,0.674-1.5,1.5-1.5
				c0.824,0,1.5,0.676,1.5,1.5C356.282,262.839,355.606,263.513,354.782,263.513"/>
			<path fill="#548900" d="M464.891,291.763h-8.176c-0.48,0-0.873-0.395-0.873-0.873c0-0.48,0.393-0.871,0.873-0.871h8.176
				c0.48,0,0.873,0.391,0.873,0.871C465.764,291.369,465.372,291.763,464.891,291.763"/>
			<path fill="#548900" d="M459.93,286.802v8.176c0,0.48,0.393,0.873,0.873,0.873c0.479,0,0.871-0.393,0.871-0.873v-8.176
				c0-0.48-0.393-0.873-0.871-0.873C460.323,285.929,459.93,286.322,459.93,286.802"/>
			<path fill="#548900" d="M368.17,338.527h-12.846c-0.752,0-1.369-0.617-1.369-1.371s0.617-1.371,1.369-1.371h12.846
				c0.754,0,1.371,0.617,1.371,1.371S368.924,338.527,368.17,338.527"/>
			<path fill="#548900" d="M360.377,330.732v12.848c0,0.752,0.617,1.369,1.371,1.369s1.371-0.617,1.371-1.369v-12.848
				c0-0.754-0.617-1.369-1.371-1.369S360.377,329.978,360.377,330.732"/>
			<g>
				<path fill="none" stroke="#FFFFFF" stroke-width="3" stroke-miterlimit="10" d="M447.198,258.847
					c-2.895-2.893-6.408-4.34-10.543-4.34c-4.133,0-7.646,1.447-10.541,4.34c-2.893,2.895-4.338,6.406-4.338,10.541
					c0,2.688,0.67,5.18,2.012,7.48c1.344,2.299,3.15,4.094,5.426,5.387c0,2.686-0.219,5.051-0.656,7.092
					c-0.441,2.041-1.164,3.836-2.17,5.387c-1.01,1.551-2.055,2.867-3.141,3.953c-1.086,1.084-2.609,2.105-4.574,3.061
					c-1.963,0.957-3.785,1.756-5.465,2.404c-1.678,0.645-3.939,1.406-6.781,2.285c-5.168,1.602-9.146,3.072-11.936,4.418v-38.521
					c2.273-1.291,4.082-3.088,5.424-5.387c1.344-2.299,2.016-4.793,2.016-7.48c0-4.133-1.445-7.646-4.34-10.541
					c-2.893-2.893-6.406-4.34-10.541-4.34s-7.648,1.447-10.541,4.34c-2.893,2.895-4.34,6.408-4.34,10.541
					c0,2.688,0.672,5.182,2.014,7.48c1.344,2.299,3.152,4.096,5.426,5.387v63.557c-2.273,1.291-4.082,3.088-5.426,5.387
					c-1.342,2.301-2.014,4.793-2.014,7.48c0,4.133,1.445,7.646,4.34,10.539c2.893,2.893,6.408,4.34,10.541,4.34
					c4.135,0,7.648-1.447,10.541-4.34s4.34-6.406,4.34-10.539c0-2.688-0.672-5.18-2.016-7.48c-1.342-2.299-3.15-4.096-5.424-5.387
					v-2.016c0-3.564,1.072-6.146,3.215-7.748c2.145-1.604,6.523-3.438,13.139-5.504c6.977-2.223,12.223-4.316,15.736-6.281
					c11.574-6.561,17.412-17.256,17.516-32.088c2.275-1.291,4.082-3.086,5.426-5.387c1.342-2.299,2.016-4.791,2.016-7.479
					C451.538,265.255,450.09,261.742,447.198,258.847z M392.321,354.029c-1.447,1.447-3.203,2.17-5.27,2.17
					c-2.068,0-3.824-0.723-5.271-2.17c-1.447-1.445-2.17-3.203-2.17-5.27c0-2.068,0.723-3.824,2.17-5.271
					c1.447-1.445,3.203-2.17,5.271-2.17c2.066,0,3.822,0.725,5.27,2.17c1.447,1.447,2.17,3.203,2.17,5.271
					C394.491,350.826,393.768,352.583,392.321,354.029z M392.321,264.738c-1.447,1.447-3.203,2.17-5.27,2.17
					c-2.068,0-3.824-0.723-5.271-2.17s-2.17-3.203-2.17-5.27c0-2.068,0.723-3.824,2.17-5.27c1.447-1.447,3.203-2.172,5.271-2.172
					c2.066,0,3.822,0.725,5.27,2.172c1.447,1.445,2.17,3.201,2.17,5.27C394.491,261.535,393.768,263.292,392.321,264.738z
					 M441.926,274.66c-1.447,1.445-3.203,2.17-5.27,2.17c-2.068,0-3.826-0.725-5.271-2.17s-2.17-3.203-2.17-5.27
					c0-2.068,0.725-3.824,2.17-5.271c1.447-1.447,3.203-2.17,5.271-2.17c2.066,0,3.822,0.723,5.27,2.17
					c1.445,1.447,2.17,3.203,2.17,5.271C444.096,271.457,443.374,273.214,441.926,274.66z"/>
			</g>
			<path fill="#548900" d="M420.17,246.527h-12.846c-0.752,0-1.369-0.617-1.369-1.371s0.617-1.371,1.369-1.371h12.846
				c0.754,0,1.371,0.617,1.371,1.371S420.924,246.527,420.17,246.527"/>
			<path fill="#548900" d="M412.377,238.732v12.848c0,0.752,0.617,1.369,1.371,1.369s1.371-0.617,1.371-1.369v-12.848
				c0-0.754-0.617-1.369-1.371-1.369S412.377,237.978,412.377,238.732"/>
			<path fill="#548900" d="M434.622,339.558L434.622,339.558c-3.631,0-6.598-2.971-6.598-6.6c0-3.631,2.967-6.598,6.598-6.598
				c3.629,0,6.598,2.967,6.598,6.598C441.219,336.587,438.25,339.558,434.622,339.558"/>
		</g>
	</g>
	<g>
		<polygon fill="#74BF12" points="405.592,193.013 405.592,83.242 500.659,28.355 595.727,83.242 595.727,193.013 500.659,247.9 		
			"/>
		<path fill="#FFFFFF" d="M500.659,33.265l90.816,52.431v104.863l-90.816,52.431l-90.812-52.431V85.696L500.659,33.265z
			 M500.659,23.445L401.34,80.786v114.684l99.318,57.341l99.32-57.341V80.786L500.659,23.445z"/>
		<g>
			<path fill="#548900" d="M464.807,152.917h-24.062c-1.412,0-2.568-1.155-2.568-2.567s1.156-2.567,2.568-2.567h24.062
				c1.412,0,2.568,1.155,2.568,2.567S466.219,152.917,464.807,152.917"/>
			<path fill="#548900" d="M565.161,112.085h-24.064c-1.41,0-2.566-1.154-2.566-2.566s1.156-2.567,2.566-2.567h24.064
				c1.412,0,2.568,1.155,2.568,2.567S566.573,112.085,565.161,112.085"/>
			<path fill="#548900" d="M472.606,144.482h-24.062c-1.412,0-2.568-1.155-2.568-2.567s1.156-2.567,2.568-2.567h24.062
				c1.412,0,2.568,1.155,2.568,2.567S474.018,144.482,472.606,144.482"/>
			<path fill="#548900" d="M565.161,166.778h-24.064c-1.41,0-2.566-1.155-2.566-2.567s1.156-2.566,2.566-2.566h24.064
				c1.412,0,2.568,1.154,2.568,2.566S566.573,166.778,565.161,166.778"/>
			<rect x="451.588" y="98.556" fill="#74BF12" width="97" height="79.555"/>
			<path fill="#548900" d="M537.014,187.708H512.95c-1.412,0-2.566-1.154-2.566-2.566s1.154-2.567,2.566-2.567h24.064
				c1.412,0,2.566,1.155,2.566,2.567S538.426,187.708,537.014,187.708"/>
			<path fill="#548900" d="M564.86,120.606L564.86,120.606c-1.412,0-2.566-1.155-2.566-2.567s1.154-2.566,2.566-2.566
				s2.566,1.154,2.566,2.566S566.272,120.606,564.86,120.606"/>
			<path fill="#548900" d="M559.551,159.038L559.551,159.038c-0.824,0-1.5-0.675-1.5-1.5s0.676-1.5,1.5-1.5
				c0.826,0,1.5,0.675,1.5,1.5S560.377,159.038,559.551,159.038"/>
			<path fill="#548900" d="M567.344,89.451h-12.846c-0.752,0-1.369-0.617-1.369-1.37c0-0.754,0.617-1.37,1.369-1.37h12.846
				c0.756,0,1.371,0.616,1.371,1.37C568.715,88.833,568.1,89.451,567.344,89.451"/>
			<path fill="#548900" d="M559.551,81.658v12.846c0,0.753,0.617,1.37,1.371,1.37s1.371-0.617,1.371-1.37V81.658
				c0-0.754-0.617-1.37-1.371-1.37S559.551,80.904,559.551,81.658"/>
			<path fill="#548900" d="M465.014,178.111h-5.293c-0.311,0-0.564-0.254-0.564-0.564s0.254-0.564,0.564-0.564h5.293
				c0.311,0,0.564,0.254,0.564,0.564S465.325,178.111,465.014,178.111"/>
			<path fill="#548900" d="M461.803,174.9v5.293c0,0.311,0.254,0.564,0.564,0.564s0.564-0.254,0.564-0.564V174.9
				c0-0.312-0.254-0.565-0.564-0.565S461.803,174.588,461.803,174.9"/>
			<path fill="#548900" d="M445.411,114.166h-5.293c-0.311,0-0.564-0.254-0.564-0.564s0.254-0.564,0.564-0.564h5.293
				c0.311,0,0.564,0.254,0.564,0.564S445.721,114.166,445.411,114.166"/>
			<path fill="#548900" d="M442.2,110.955v5.293c0,0.311,0.254,0.564,0.564,0.564s0.564-0.254,0.564-0.564v-5.293
				c0-0.312-0.254-0.566-0.564-0.566S442.2,110.643,442.2,110.955"/>
			<g>
				<g>
					<path fill="#FFFFFF" d="M548.53,96.458h-96.77c-1,0-1.668,0.667-1.668,1.668v80.084c0,1.001,0.668,1.668,1.668,1.668h30.033
						v-3.337H453.43v-63.399h93.43v63.399h-28.361v3.337h30.031c1,0,1.668-0.667,1.668-1.668V98.126
						C550.198,97.125,549.53,96.458,548.53,96.458z M453.43,109.805V99.794h93.43v10.011H453.43z"/>
					<rect x="456.766" y="103.132" fill="#FFFFFF" width="6.674" height="3.336"/>
					<rect x="466.776" y="103.132" fill="#FFFFFF" width="6.674" height="3.336"/>
					<path fill="#FFFFFF" d="M518.499,143.173c0-10.177-8.176-18.353-18.354-18.353s-18.352,8.176-18.352,18.353
						c0,4.838,1.834,9.344,5.004,12.681v39.04c0,0.667,0.334,1.168,0.834,1.502c0.334,0.166,0.502,0.166,0.836,0.166
						c0.332,0,0.666-0.166,1-0.333l10.678-7.675l10.678,7.675c0.334,0.167,0.668,0.333,1.002,0.333s0.5,0,0.834-0.166
						c0.5-0.334,0.834-0.835,0.834-1.502v-39.04C516.663,152.517,518.499,148.011,518.499,143.173z M500.145,128.158
						c8.342,0,15.016,6.674,15.016,15.016c0,8.343-6.674,15.016-15.016,15.016s-15.016-6.673-15.016-15.016
						C485.129,134.832,491.803,128.158,500.145,128.158z M490.135,158.523c2.502,1.502,5.338,2.67,8.342,2.836v24.359l-8.342,6.006
						V158.523z M501.813,185.718v-24.359c3.004-0.333,5.84-1.334,8.342-2.836v33.201L501.813,185.718z"/>
					<rect x="458.434" y="168.2" fill="#FFFFFF" width="3.338" height="3.337"/>
					<rect x="465.108" y="168.2" fill="#FFFFFF" width="3.338" height="3.337"/>
					<rect x="471.782" y="168.2" fill="#FFFFFF" width="3.338" height="3.337"/>
					<rect x="478.456" y="168.2" fill="#FFFFFF" width="3.338" height="3.337"/>
					<rect x="458.434" y="161.526" fill="#FFFFFF" width="3.338" height="3.337"/>
					<rect x="465.108" y="161.526" fill="#FFFFFF" width="3.338" height="3.337"/>
					<rect x="471.782" y="161.526" fill="#FFFFFF" width="3.338" height="3.337"/>
					<rect x="478.456" y="161.526" fill="#FFFFFF" width="3.338" height="3.337"/>
					<rect x="458.434" y="154.852" fill="#FFFFFF" width="3.338" height="3.337"/>
					<rect x="465.108" y="154.852" fill="#FFFFFF" width="3.338" height="3.337"/>
					<rect x="471.782" y="154.852" fill="#FFFFFF" width="3.338" height="3.337"/>
					<rect x="458.434" y="148.179" fill="#FFFFFF" width="3.338" height="3.337"/>
					<rect x="465.108" y="148.179" fill="#FFFFFF" width="3.338" height="3.337"/>
					<rect x="458.434" y="141.505" fill="#FFFFFF" width="3.338" height="3.337"/>
					<rect x="458.434" y="134.832" fill="#FFFFFF" width="3.338" height="3.337"/>
					<rect x="465.108" y="141.505" fill="#FFFFFF" width="3.338" height="3.337"/>
					<rect x="471.782" y="148.179" fill="#FFFFFF" width="3.338" height="3.337"/>
					<rect x="478.456" y="154.852" fill="#FFFFFF" width="3.338" height="3.337"/>
					<rect x="518.499" y="168.2" fill="#FFFFFF" width="3.336" height="3.337"/>
					<rect x="525.172" y="168.2" fill="#FFFFFF" width="3.336" height="3.337"/>
					<rect x="531.844" y="168.2" fill="#FFFFFF" width="3.338" height="3.337"/>
					<rect x="538.518" y="168.2" fill="#FFFFFF" width="3.338" height="3.337"/>
					<rect x="518.499" y="161.526" fill="#FFFFFF" width="3.336" height="3.337"/>
					<rect x="525.172" y="161.526" fill="#FFFFFF" width="3.336" height="3.337"/>
					<rect x="531.844" y="161.526" fill="#FFFFFF" width="3.338" height="3.337"/>
					<rect x="538.518" y="161.526" fill="#FFFFFF" width="3.338" height="3.337"/>
					<rect x="518.499" y="154.852" fill="#FFFFFF" width="3.336" height="3.337"/>
					<rect x="525.172" y="154.852" fill="#FFFFFF" width="3.336" height="3.337"/>
					<rect x="531.844" y="154.852" fill="#FFFFFF" width="3.338" height="3.337"/>
					<rect x="538.518" y="154.852" fill="#FFFFFF" width="3.338" height="3.337"/>
					<rect x="525.172" y="148.179" fill="#FFFFFF" width="3.336" height="3.337"/>
					<rect x="531.844" y="148.179" fill="#FFFFFF" width="3.338" height="3.337"/>
					<rect x="538.518" y="148.179" fill="#FFFFFF" width="3.338" height="3.337"/>
					<rect x="531.844" y="141.505" fill="#FFFFFF" width="3.338" height="3.337"/>
					<rect x="538.518" y="141.505" fill="#FFFFFF" width="3.338" height="3.337"/>
					<rect x="538.518" y="134.832" fill="#FFFFFF" width="3.338" height="3.337"/>
				</g>
			</g>
		</g>
	</g>
	<g>
		<polygon fill="#74BF12" points="211.707,192.013 211.707,82.242 306.773,27.355 401.838,82.242 401.838,192.013 306.773,246.9 		
			"/>
		<path fill="#FFFFFF" d="M306.773,32.265l90.813,52.431v104.863l-90.813,52.431l-90.813-52.431V84.696L306.773,32.265z
			 M306.773,22.445l-99.318,57.341v114.684l99.318,57.341l99.317-57.341V79.786L306.773,22.445z"/>
		<g>
			<path fill="#548900" d="M371.272,165.778h-24.064c-1.41,0-2.566-1.155-2.566-2.567s1.156-2.566,2.566-2.566h24.064
				c1.412,0,2.568,1.154,2.568,2.566S372.684,165.778,371.272,165.778"/>
			<path fill="#548900" d="M333.125,180.708h-24.064c-1.412,0-2.565-1.154-2.565-2.566s1.153-2.567,2.565-2.567h24.064
				c1.412,0,2.566,1.155,2.566,2.567S334.538,180.708,333.125,180.708"/>
			<path fill="#548900" d="M262.921,164.917h-24.063c-1.412,0-2.567-1.155-2.567-2.567s1.155-2.567,2.567-2.567h24.063
				c1.412,0,2.567,1.155,2.567,2.567S264.333,164.917,262.921,164.917"/>
			<path fill="#548900" d="M319.719,137.482h-24.062c-1.412,0-2.567-1.155-2.567-2.567s1.155-2.567,2.567-2.567h24.062
				c1.412,0,2.568,1.155,2.568,2.567S321.131,137.482,319.719,137.482"/>
			<path fill="#548900" d="M341.272,111.085h-24.064c-1.41,0-2.566-1.154-2.566-2.566s1.156-2.567,2.566-2.567h24.064
				c1.412,0,2.568,1.155,2.568,2.567S342.684,111.085,341.272,111.085"/>
			<circle fill="#74BF12" cx="308.102" cy="101.529" r="20.885"/>
			<circle fill="#74BF12" cx="274.551" cy="163.21" r="20.885"/>
			<circle fill="#74BF12" cx="341.284" cy="163.21" r="20.885"/>
			<path fill="#548900" d="M329.073,131.917L329.073,131.917c-1.412,0-2.566-1.155-2.566-2.566c0-1.412,1.154-2.568,2.566-2.568
				s2.566,1.156,2.566,2.568C331.639,130.762,330.485,131.917,329.073,131.917"/>
			<path fill="#548900" d="M365.663,158.038L365.663,158.038c-0.824,0-1.5-0.675-1.5-1.5s0.676-1.5,1.5-1.5
				c0.826,0,1.5,0.675,1.5,1.5S366.489,158.038,365.663,158.038"/>
			<path fill="#548900" d="M286.437,135.52L286.437,135.52c-0.824,0-1.5-0.675-1.5-1.5s0.676-1.5,1.5-1.5c0.826,0,1.5,0.675,1.5,1.5
				S287.263,135.52,286.437,135.52"/>
			<path fill="#548900" d="M273.179,99.529h-12.846c-0.752,0-1.369-0.617-1.369-1.37c0-0.754,0.617-1.37,1.369-1.37h12.846
				c0.756,0,1.371,0.616,1.371,1.37C274.55,98.912,273.935,99.529,273.179,99.529"/>
			<path fill="#548900" d="M265.386,91.736v12.846c0,0.753,0.617,1.37,1.371,1.37s1.371-0.617,1.371-1.37V91.736
				c0-0.754-0.617-1.37-1.371-1.37S265.386,90.982,265.386,91.736"/>
			<path fill="#548900" d="M309.127,169.111h-5.292c-0.311,0-0.564-0.254-0.564-0.564s0.254-0.564,0.564-0.564h5.292
				c0.311,0,0.564,0.254,0.564,0.564S309.438,169.111,309.127,169.111"/>
			<path fill="#548900" d="M305.917,165.9v5.293c0,0.311,0.254,0.564,0.564,0.564s0.564-0.254,0.564-0.564V165.9
				c0-0.312-0.254-0.565-0.564-0.565S305.917,165.588,305.917,165.9"/>
			<path fill="#548900" d="M271.525,123.166h-5.293c-0.311,0-0.565-0.254-0.565-0.564s0.255-0.564,0.565-0.564h5.293
				c0.311,0,0.564,0.254,0.564,0.564S271.835,123.166,271.525,123.166"/>
			<path fill="#548900" d="M268.313,119.955v5.293c0,0.311,0.255,0.564,0.565,0.564c0.31,0,0.564-0.254,0.564-0.564v-5.293
				c0-0.312-0.255-0.566-0.564-0.566C268.568,119.388,268.313,119.643,268.313,119.955"/>
			<g>
				<g>
					<g>
						<path fill="#FFFFFF" d="M308.102,102.095c-4.437,0-7.912-3.476-7.912-7.914c0-4.437,3.476-7.912,7.912-7.912
							s7.912,3.476,7.912,7.912C316.014,98.471,312.391,102.095,308.102,102.095z M308.102,90.058c-2.193,0-3.847,1.654-3.847,3.847
							c0,2.157,1.689,3.847,3.847,3.847c2.05,0,3.848-1.797,3.848-3.847C311.95,91.712,310.295,90.058,308.102,90.058z"/>
						<path fill="#2BC000" d="M308.102,86.519c4.297,0,7.662,3.366,7.662,7.662c0,4.154-3.509,7.664-7.662,7.664
							c-4.296,0-7.662-3.366-7.662-7.664C300.44,89.885,303.806,86.519,308.102,86.519 M308.102,98.001
							c2.183,0,4.098-1.915,4.098-4.097c0-2.335-1.762-4.097-4.098-4.097c-2.335,0-4.097,1.761-4.097,4.097
							C304.005,96.202,305.805,98.001,308.102,98.001 M308.102,86.019c-4.565,0-8.162,3.598-8.162,8.162
							c0,4.543,3.597,8.164,8.162,8.164c4.564,0,8.162-3.852,8.162-8.164C316.264,89.617,312.667,86.019,308.102,86.019
							L308.102,86.019z M308.102,97.501c-1.914,0-3.597-1.452-3.597-3.597c0-1.913,1.43-3.597,3.597-3.597
							c2.168,0,3.598,1.684,3.598,3.597C311.7,95.819,310.016,97.501,308.102,97.501L308.102,97.501z"/>
					</g>
					<g>
						<path fill="#FFFFFF" d="M274.92,164.1c-4.437,0-7.913-3.476-7.913-7.913s3.476-7.913,7.913-7.913s7.913,3.476,7.913,7.913
							C282.833,160.477,279.21,164.1,274.92,164.1z M274.92,152.109c-2.157,0-3.847,1.69-3.847,3.848
							c0,2.049,1.797,3.847,3.847,3.847c2.193,0,3.848-1.654,3.848-3.847C278.768,153.907,276.97,152.109,274.92,152.109z"/>
						<path fill="#2BC000" d="M274.92,148.524c4.297,0,7.663,3.366,7.663,7.663c0,4.154-3.509,7.663-7.663,7.663
							c-4.297,0-7.663-3.366-7.663-7.663S270.624,148.524,274.92,148.524 M274.92,160.053c2.336,0,4.098-1.761,4.098-4.097
							c0-2.183-1.915-4.098-4.098-4.098c-2.297,0-4.097,1.8-4.097,4.098C270.824,158.139,272.738,160.053,274.92,160.053
							 M274.92,148.024c-4.565,0-8.163,3.598-8.163,8.163s3.598,8.163,8.163,8.163c4.335,0,8.163-3.598,8.163-8.163
							S279.486,148.024,274.92,148.024L274.92,148.024z M274.92,159.553c-1.914,0-3.597-1.683-3.597-3.597s1.452-3.598,3.597-3.598
							c1.914,0,3.598,1.684,3.598,3.598S277.088,159.553,274.92,159.553L274.92,159.553z"/>
					</g>
					<g>
						<path fill="#FFFFFF" d="M341.284,185.983c-12.717,0-23.062-10.346-23.062-23.062c0-3.585,0.774-7,2.303-10.153l0.082-0.168
							l-12.597-11.486l-12.434,11.441l0.081,0.167c1.544,3.182,2.327,6.613,2.327,10.198c0,12.717-10.346,23.062-23.062,23.062
							s-23.062-10.346-23.062-23.062c0-12.922,10.13-23.062,23.063-23.086c7.252,0,13.92,3.259,18.294,8.941l0.166,0.216
							l12.804-11.695v-13.413l-0.227-0.021c-11.925-1.101-20.918-10.977-20.918-22.971c0-12.704,10.346-23.039,23.062-23.039
							c12.933,0,23.062,10.13,23.062,23.062c0,11.776-9.188,21.866-20.918,22.971l-0.227,0.021v13.551l12.758,11.626l0.165-0.217
							c4.371-5.726,11.056-9.01,18.341-9.01c12.933,0,23.062,10.13,23.062,23.062S354.216,185.983,341.284,185.983z
							 M339.116,172.032c-3.936,0-7.386,2.544-8.586,6.332l-0.057,0.178l0.155,0.104c3.16,2.14,6.854,3.271,10.679,3.271
							c3.796,0,7.472-1.131,10.631-3.271l0.155-0.105l-0.058-0.178c-1.223-3.787-4.672-6.331-8.584-6.331H339.116z M272.776,172.032
							c-3.937,0-7.387,2.544-8.585,6.332l-0.056,0.178l0.154,0.104c3.16,2.14,6.852,3.271,10.677,3.271
							c3.795,0,7.471-1.131,10.632-3.271l0.155-0.105l-0.058-0.179c-1.222-3.787-4.672-6.331-8.585-6.331H272.776z M343.452,168.197
							c4.864,0,9.338,2.759,11.677,7.2l0.17,0.321l0.239-0.272c3.058-3.472,4.742-7.929,4.742-12.548
							c0-10.475-8.521-18.997-18.996-18.997s-18.996,8.522-18.996,18.997c0,4.534,1.643,8.94,4.625,12.407l0.245,0.286l0.168-0.337
							c2.165-4.352,6.683-7.056,11.79-7.056H343.452z M277.111,168.197c4.865,0,9.339,2.759,11.677,7.199l0.169,0.321l0.24-0.272
							c3.037-3.446,4.721-7.902,4.744-12.546c0-10.299-8.7-18.999-18.997-18.999c-10.475,0-18.997,8.522-18.997,18.997
							c0,4.533,1.643,8.939,4.626,12.407l0.246,0.286l0.167-0.337c2.165-4.352,6.683-7.056,11.79-7.056H277.111z M305.958,110.003
							c-3.937,0-7.387,2.544-8.585,6.332l-0.056,0.178l0.154,0.104c3.16,2.14,6.836,3.271,10.631,3.271
							c3.812,0,7.504-1.131,10.677-3.27l0.156-0.105l-0.058-0.179c-1.223-3.787-4.673-6.331-8.586-6.331H305.958z M310.27,106.168
							c4.864,0,9.338,2.759,11.677,7.2l0.17,0.321l0.239-0.272c3.058-3.471,4.742-7.919,4.742-12.524
							c0-10.475-8.521-18.997-18.996-18.997c-10.475,0-18.997,8.522-18.997,18.997c0,4.566,1.644,8.965,4.628,12.385l0.246,0.281
							l0.166-0.334c2.165-4.352,6.682-7.056,11.79-7.056H310.27z"/>
						<path fill="#2BC000" d="M308.102,78.103c12.792,0,22.812,10.021,22.812,22.812c0,11.648-9.089,21.629-20.691,22.722
							l-0.453,0.043v0.455v13.213v0.221l0.163,0.149l12.475,11.368l0.403,0.367l0.331-0.434c4.323-5.664,10.936-8.912,18.142-8.912
							c12.792,0,22.812,10.021,22.812,22.812s-10.021,22.812-22.812,22.812c-12.579,0-22.812-10.233-22.812-22.812
							c0-3.547,0.767-6.926,2.278-10.043l0.162-0.336l-0.275-0.252l-12.289-11.206l-0.338-0.309l-0.337,0.31l-12.129,11.16
							l-0.274,0.252l0.163,0.334c1.527,3.148,2.301,6.542,2.301,10.089c0,12.579-10.233,22.812-22.812,22.812
							s-22.812-10.233-22.812-22.812c0-12.782,10.021-22.813,22.812-22.836c7.174,0,13.771,3.224,18.097,8.844l0.332,0.431
							l0.402-0.367l12.521-11.438l0.163-0.148v-0.221v-13.074v-0.456l-0.454-0.042c-11.796-1.089-20.691-10.857-20.691-22.722
							C285.29,88.326,295.523,78.103,308.102,78.103 M294.036,114.005l0.333-0.669c2.122-4.267,6.554-6.917,11.566-6.917h4.335
							c4.771,0,9.16,2.708,11.456,7.066l0.338,0.642l0.479-0.544c3.099-3.517,4.805-8.024,4.805-12.69
							c0-10.613-8.634-19.247-19.246-19.247c-10.613,0-19.247,8.634-19.247,19.247c0,4.627,1.666,9.084,4.689,12.549
							L294.036,114.005 M308.102,120.138c3.862,0,7.603-1.146,10.816-3.313l0.312-0.21l-0.115-0.357
							c-1.255-3.89-4.801-6.504-8.823-6.504h-4.334c-4.047,0-7.593,2.615-8.823,6.506l-0.113,0.356l0.309,0.209
							C300.532,118.992,304.257,120.138,308.102,120.138 M327.214,176.038l0.335-0.674c2.123-4.267,6.555-6.917,11.566-6.917h4.336
							c4.771,0,9.16,2.708,11.456,7.066l0.338,0.642l0.479-0.544c3.099-3.518,4.805-8.033,4.805-12.713
							c0-10.613-8.634-19.247-19.246-19.247s-19.246,8.634-19.246,19.247c0,4.594,1.664,9.058,4.686,12.57L327.214,176.038
							 M260.875,176.038l0.335-0.674c2.122-4.267,6.554-6.917,11.566-6.917h4.335c4.771,0,9.162,2.708,11.456,7.066l0.338,0.642
							l0.479-0.544c3.077-3.492,4.783-8.006,4.807-12.713c0-10.433-8.814-19.247-19.247-19.247
							c-10.613,0-19.247,8.634-19.247,19.247c0,4.593,1.664,9.057,4.687,12.57L260.875,176.038 M341.307,182.167
							c3.846,0,7.57-1.146,10.771-3.313l0.311-0.21l-0.115-0.357c-1.255-3.89-4.8-6.504-8.821-6.504h-4.336
							c-4.045,0-7.592,2.615-8.824,6.506l-0.112,0.356l0.309,0.209C333.69,181.021,337.431,182.167,341.307,182.167
							 M274.966,182.167c3.845,0,7.57-1.146,10.772-3.313l0.311-0.21l-0.116-0.357c-1.255-3.89-4.801-6.504-8.823-6.504h-4.335
							c-4.047,0-7.593,2.615-8.823,6.506l-0.113,0.356l0.309,0.209C267.351,181.021,271.091,182.167,274.966,182.167
							 M308.102,77.603c-12.981,0-23.312,10.561-23.312,23.289c0,12.244,9.408,22.136,21.146,23.22v13.074l-12.521,11.438
							c-4.242-5.511-10.93-9.039-18.493-9.039c-12.981,0.023-23.312,10.354-23.312,23.336c0,12.981,10.584,23.312,23.312,23.312
							s23.312-10.331,23.312-23.312c0-3.713-0.853-7.218-2.352-10.308l12.129-11.16l12.289,11.206
							c-1.498,3.09-2.328,6.572-2.328,10.262c0,12.981,10.584,23.312,23.312,23.312c12.982,0,23.312-10.331,23.312-23.312
							c0-12.982-10.33-23.312-23.312-23.312c-7.609,0-14.297,3.551-18.539,9.108l-12.475-11.368v-13.213
							c11.76-1.107,21.145-11.206,21.145-23.22C331.415,87.933,321.084,77.603,308.102,77.603L308.102,77.603z M293.921,113.113
							c-2.837-3.251-4.566-7.54-4.566-12.221c0-10.33,8.417-18.747,18.747-18.747s18.746,8.417,18.746,18.747
							c0,4.727-1.775,9.062-4.68,12.359c-2.283-4.335-6.803-7.333-11.898-7.333h-4.335
							C300.631,105.918,296.088,108.755,293.921,113.113L293.921,113.113z M308.102,119.638c-3.896,0-7.494-1.198-10.491-3.228
							c1.152-3.644,4.45-6.157,8.347-6.157h4.334c3.875,0,7.172,2.514,8.348,6.157C315.596,118.462,311.999,119.638,308.102,119.638
							L308.102,119.638z M327.102,175.141c-2.836-3.297-4.564-7.563-4.564-12.244c0-10.33,8.416-18.747,18.746-18.747
							s18.746,8.417,18.746,18.747c0,4.75-1.775,9.085-4.68,12.383c-2.283-4.335-6.803-7.333-11.898-7.333h-4.336
							C333.813,167.947,329.27,170.783,327.102,175.141L327.102,175.141z M260.762,175.141c-2.836-3.297-4.565-7.563-4.565-12.244
							c0-10.33,8.417-18.747,18.747-18.747c10.1,0,18.747,8.417,18.747,18.747c-0.023,4.75-1.776,9.085-4.682,12.383
							c-2.282-4.335-6.802-7.333-11.898-7.333h-4.335C267.472,167.947,262.93,170.783,260.762,175.141L260.762,175.141z
							 M341.307,181.667c-3.875,0-7.541-1.198-10.539-3.228c1.154-3.644,4.451-6.157,8.348-6.157h4.336
							c3.873,0,7.17,2.514,8.346,6.157C348.801,180.468,345.18,181.667,341.307,181.667L341.307,181.667z M274.966,181.667
							c-3.92,0-7.54-1.198-10.537-3.228c1.152-3.644,4.45-6.157,8.347-6.157h4.335c3.874,0,7.172,2.514,8.348,6.157
							C282.46,180.468,278.84,181.667,274.966,181.667L274.966,181.667z"/>
					</g>
					<g>
						<path fill="#FFFFFF" d="M341.284,164.1c-4.437,0-7.912-3.476-7.912-7.913s3.476-7.913,7.912-7.913s7.912,3.476,7.912,7.913
							S345.72,164.1,341.284,164.1z M341.284,152.109c-2.157,0-3.848,1.69-3.848,3.848c0,2.049,1.798,3.847,3.848,3.847
							c2.193,0,3.848-1.654,3.848-3.847C345.131,153.799,343.441,152.109,341.284,152.109z"/>
						<path fill="#2BC000" d="M341.284,148.524c4.297,0,7.662,3.366,7.662,7.663s-3.365,7.663-7.662,7.663s-7.662-3.366-7.662-7.663
							S336.987,148.524,341.284,148.524 M341.284,160.053c2.336,0,4.098-1.761,4.098-4.097c0-2.298-1.8-4.098-4.098-4.098
							s-4.098,1.8-4.098,4.098C337.186,158.139,339.101,160.053,341.284,160.053 M341.284,148.024c-4.566,0-8.162,3.598-8.162,8.163
							s3.596,8.163,8.162,8.163c4.564,0,8.162-3.598,8.162-8.163S345.848,148.024,341.284,148.024L341.284,148.024z
							 M341.284,159.553c-1.914,0-3.598-1.683-3.598-3.597s1.453-3.598,3.598-3.598s3.598,1.684,3.598,3.598
							S343.452,159.553,341.284,159.553L341.284,159.553z"/>
					</g>
				</g>
			</g>
			<path fill="#548900" d="M346.436,95.52L346.436,95.52c-0.824,0-1.5-0.675-1.5-1.5s0.676-1.5,1.5-1.5c0.826,0,1.5,0.675,1.5,1.5
				S347.262,95.52,346.436,95.52"/>
		</g>
	</g>
</g>
</svg>
