<?xml version="1.0" encoding="utf-8"?>
<!-- Generator: Adobe Illustrator 20.1.0, SVG Export Plug-In . SVG Version: 6.00 Build 0)  -->
<svg version="1.1" id="Layer_1" xmlns="http://www.w3.org/2000/svg" xmlns:xlink="http://www.w3.org/1999/xlink" x="0px" y="0px"
	 viewBox="0 0 108.8 109" style="enable-background:new 0 0 108.8 109;" xml:space="preserve">
<style type="text/css">
	.st0{clip-path:url(#SVGID_2_);}
	.st1{fill:#FFFFFF;}
	.st2{fill:#504A5A;}
	.st3{fill:none;}
</style>
<title>technology-leader</title>
<g id="Layer_2">
	<g id="Layer_1-2">
		<g>
			<defs>
				<circle id="SVGID_1_" cx="54.4" cy="54.4" r="52.6"/>
			</defs>
			<clipPath id="SVGID_2_">
				<use xlink:href="#SVGID_1_"  style="overflow:visible;"/>
			</clipPath>
			<g class="st0">
				<path class="st1" d="M83.3,49c0,3.7-3,6.7-6.7,6.7H30.1c-3.7,0-6.7-3-6.7-6.7c0,0,0,0,0,0l0,0c0-3.7,3-6.7,6.7-6.7h46.5
					C80.3,42.3,83.3,45.3,83.3,49C83.3,49,83.3,49,83.3,49z"/>
				<path class="st2" d="M76.6,57.5H30.1c-4.7,0-8.5-3.8-8.5-8.5s3.8-8.5,8.5-8.5h46.5c4.7,0,8.5,3.8,8.5,8.5S81.3,57.5,76.6,57.5z
					 M30.1,44.1c-2.7,0.1-4.8,2.4-4.7,5.1c0.1,2.5,2.1,4.6,4.7,4.7h46.5c2.7,0.1,5-2,5.1-4.7s-2-5-4.7-5.1c-0.1,0-0.3,0-0.4,0H30.1z
					"/>
				<path class="st3" d="M18.7,109V91.6c0-5.3,4.9-9.6,10.9-9.6h47.7c6,0,10.9,4.3,10.9,9.6V109"/>
				<path class="st2" d="M90,109h-3.6V91.6c0-4.3-4.1-7.8-9.1-7.8H29.6c-5,0-9.1,3.5-9.1,7.8V109h-3.6V91.6
					c0-6.3,5.7-11.4,12.7-11.4h47.7c7,0,12.7,5.1,12.7,11.4L90,109z"/>
				<path class="st1" d="M48.9,15.1H59c10.3,0,18.7,8.4,18.7,18.7v29.4C77.7,73.6,69.3,82,59,82H48.9c-10.3,0-18.7-8.4-18.7-18.7
					V33.9C30.2,23.5,38.6,15.1,48.9,15.1z"/>
				<path class="st2" d="M59,83.8H48.9c-11.3,0-20.5-9.2-20.5-20.5V33.9c0-11.3,9.2-20.5,20.5-20.5H59c11.3,0,20.5,9.2,20.5,20.5
					v29.4C79.5,74.6,70.3,83.8,59,83.8z M48.9,17C39.6,17,32,24.5,32,33.9v29.4c0,9.3,7.6,16.9,16.9,16.9H59
					c9.3,0,16.9-7.6,16.9-16.9V33.9C75.9,24.5,68.3,17,59,17H48.9z"/>
				<path class="st1" d="M77.7,66.6V34.9c0-5.3-2.3-10.3-6.2-13.9c0.1,0.9,0.2,1.9,0.2,2.8v29.4c0,0-1.4,9.3-3.7,12.7
					c-2.2-4.2-7.6-7.2-14-7.2s-11.8,3-14,7.2c-2.3-3.3-3.7-12.7-3.7-12.7V33.4c4.3-4.4,6.7-10.4,6.6-16.6c0-0.2,0-0.5,0-0.7
					c-7.6,2.6-12.7,9.7-12.7,17.7v46.9c0,3.6,2.9,6.4,6.5,6.4h0.6c1.6,0,3.2-0.6,4.3-1.7c0.4,3.3,3.1,5.7,6.4,5.7h0.6
					c2.2,0,4.2-1.1,5.4-2.9c1.2,1.8,3.2,2.9,5.4,2.9H60c3.3,0,6-2.5,6.4-5.7c1.2,1.1,2.7,1.7,4.3,1.7h0.6c3.6,0,6.4-2.9,6.4-6.4
					V67.5C77.8,67.2,77.8,66.9,77.7,66.6z"/>
				<path class="st2" d="M60,93h-0.6c-2,0-3.9-0.7-5.4-2c-1.5,1.3-3.4,2-5.4,2H48c-3.2,0-6.1-1.8-7.5-4.7c-1,0.5-2.2,0.7-3.3,0.7
					h-0.6c-4.6,0-8.2-3.7-8.2-8.2V33.9c0-8.7,5.6-16.5,13.8-19.4l2.3-0.8l0.1,2.7c0,0.2,0,0.3,0,0.5c0.1,6.4-2.3,12.6-6.6,17.3v18.9
					c0.5,3.2,1.2,6.3,2.2,9.3c3.1-3.4,8.2-5.5,13.7-5.5s10.6,2.1,13.7,5.5c1-3,1.7-6.1,2.2-9.3V23.8c0-0.9-0.1-1.8-0.2-2.6l-0.5-4.7
					l3.5,3.2c4.3,3.9,6.8,9.4,6.8,15.2v31.6c0.1,0.4,0.1,0.7,0.1,1.1v13.2c0,4.6-3.7,8.3-8.2,8.3c0,0,0,0,0,0h-0.6
					c-1.1,0-2.3-0.2-3.3-0.7C66.1,91.2,63.2,93,60,93z M54,85l1.5,2.2c0.9,1.3,2.3,2.1,3.9,2.1H60c2.4,0,4.4-1.8,4.6-4.1l0.4-3.5
					l2.6,2.4c0.9,0.8,2,1.2,3.1,1.2h0.6c2.5,0,4.6-2.1,4.6-4.6V67.5c0-0.2,0-0.5-0.1-0.7v-0.3V34.9c0-3.1-0.8-6.1-2.4-8.7v27.3
					c-0.2,1-1.6,9.9-4,13.4l-1.7,2.5l-1.4-2.7c-1.9-3.7-6.9-6.2-12.4-6.2S43.5,63,41.5,66.7l-1.4,2.7l-1.7-2.5
					c-2.5-3.6-3.9-12.4-4-13.4v-0.3V32.7l0.5-0.5c3.5-3.5,5.6-8.2,6-13.2c-5.5,2.9-9,8.7-9,14.9v46.8c0,2.6,2.1,4.6,4.7,4.7h0.6
					c1.2,0,2.3-0.4,3.1-1.2l2.6-2.4l0.4,3.5c0.3,2.3,2.2,4.1,4.6,4.1h0.6c1.6,0,3-0.8,3.9-2.1L54,85z"/>
				<path class="st2" d="M67.4,33.4c-14.8,0-26.4-7-26.4-15.9h3.6c0,6.6,10.4,12.3,22.8,12.3c5,0.1,10-0.9,14.6-2.9l1.5,3.3
					C78.4,32.4,73,33.5,67.4,33.4z"/>
				<path class="st1" d="M77.4,30.4C75.7,21.6,68,15.2,59,15.1H48.9c-2,0-4,0.3-5.9,1c-0.1,0.5-0.1,0.9-0.1,1.4
					c0,7.8,11,14.1,24.6,14.1C70.8,31.6,74.1,31.2,77.4,30.4z"/>
				<path class="st2" d="M67.4,33.4c-14.8,0-26.4-7-26.4-15.9c0-0.6,0.1-1.2,0.2-1.7l0.2-1.1l1-0.3c2.1-0.7,4.3-1.1,6.5-1.1H59
					c9.9,0,18.3,7,20.2,16.7l0.3,1.7l-1.6,0.4C74.4,33,70.9,33.4,67.4,33.4z M44.6,17.5L44.6,17.5c0,6.6,10.4,12.3,22.8,12.3
					c2.6,0,5.2-0.2,7.8-0.8C73.1,21.8,66.5,16.9,59,17H48.9C47.5,16.9,46,17.1,44.6,17.5z"/>
				<path class="st1" d="M58,55.9c0,2.2-1.8,4-4,4l0,0c-2.2,0-4-1.8-4-4"/>
				<path class="st2" d="M54,61.7c-3.2,0-5.7-2.6-5.8-5.8h3.6c0.1,1.2,1.1,2.1,2.3,2c1.1-0.1,1.9-0.9,2-2h3.6
					C59.8,59.1,57.2,61.7,54,61.7z"/>
				<path class="st2" d="M49.5,41.3c-1.7-1.7-4.5-1.7-6.3,0l-2.5-2.5c3.1-3.1,8.2-3.2,11.3,0c0,0,0,0,0,0L49.5,41.3z"/>
				<rect x="44.2" y="43.9" class="st2" width="4.3" height="3.6"/>
				<path class="st2" d="M64.1,41.3c-1.7-1.7-4.5-1.7-6.3,0l-2.5-2.5c3.1-3.1,8.2-3.2,11.3,0c0,0,0,0,0,0L64.1,41.3z"/>
				<rect x="58.8" y="43.9" class="st2" width="4.3" height="3.6"/>
				<path class="st1" d="M49.4,69.1v1.7c0,1.9,1.5,3.3,3.3,3.3h2.3c1.9,0,3.3-1.5,3.3-3.3v-1.7H49.4z"/>
				<path class="st2" d="M55.1,76h-2.3c-2.8,0-5.2-2.3-5.2-5.2l0,0v-3.6h12.6v3.5C60.3,73.7,58,76,55.1,76C55.1,76,55.1,76,55.1,76z
					 M51.2,70.9c0,0.8,0.7,1.5,1.5,1.5h2.3c0.8,0,1.5-0.7,1.5-1.5H51.2z"/>
			</g>
		</g>
		<path class="st2" d="M54.4,108.8C24.3,108.8,0,84.4,0,54.4S24.3,0,54.4,0s54.4,24.3,54.4,54.4l0,0
			C108.7,84.4,84.4,108.7,54.4,108.8z M54.4,3.6c-28,0-50.8,22.7-50.8,50.8s22.7,50.8,50.8,50.8s50.8-22.7,50.8-50.8
			C105.1,26.3,82.4,3.6,54.4,3.6L54.4,3.6z"/>
	</g>
</g>
</svg>
