<?xml version="1.0" encoding="UTF-8"?>
<svg width="27px" height="27px" viewBox="0 0 27 27" version="1.1" xmlns="http://www.w3.org/2000/svg" xmlns:xlink="http://www.w3.org/1999/xlink">
    <!-- Generator: Sketch 48.2 (47327) - http://www.bohemiancoding.com/sketch -->
    <title>twitter</title>
    <desc>Created with Sketch.</desc>
    <defs></defs>
    <g id="Team-Members-Section-Designers" stroke="none" stroke-width="1" fill="none" fill-rule="evenodd" transform="translate(-180.000000, -1898.000000)">
        <g id="Profile-1" transform="translate(114.000000, 1526.000000)" fill="#72C02C" fill-rule="nonzero">
            <g id="Icons-Copy" transform="translate(66.535433, 372.882793)">
                <g id="twitter">
                    <path d="M18.2216121,10.2403589 C18.2216121,10.1113739 18.2192782,9.98355837 18.2134852,9.85691245 C18.7641941,9.44556381 19.2418447,8.93083501 19.6198058,8.34171426 C19.1143156,8.56948478 18.5717336,8.7216938 18.0013119,8.78555977 C18.5833196,8.42650688 19.0296713,7.85250678 19.2406777,7.16347276 C18.6957619,7.49462345 18.0929161,7.73166686 17.4517699,7.85484589 C16.9381945,7.26919203 16.2054858,6.89622981 15.3950511,6.88227871 C13.8391964,6.85671561 12.5778256,8.17438459 12.5778256,9.82550159 C12.5778256,10.0602059 12.6021644,10.2879764 12.6508422,10.5075601 C10.3078081,10.3565206 8.23141808,9.13412845 6.84247646,7.29128824 C6.60017123,7.73283641 6.46105618,8.24873477 6.46105618,8.80184998 C6.46105618,9.84763956 6.95841956,10.7771839 7.7143002,11.3256209 C7.25173643,11.304736 6.81813758,11.164139 6.43788423,10.9340294 L6.43788423,10.972374 C6.43788423,12.4341487 7.40943904,13.6588381 8.69860792,13.9446686 C8.46209567,14.0120433 8.21283051,14.046921 7.95660544,14.0457932 C7.77460562,14.0446237 7.59835711,14.0248666 7.42677633,13.9876497 C7.78502466,15.1856483 8.82613699,16.0605996 10.0585013,16.0896296 C9.09390636,16.8913584 7.87892106,17.3700817 6.55957864,17.3666148 C6.3323185,17.3666148 6.10743391,17.3515359 5.88713369,17.3236337 C7.1346264,18.1811669 8.61508888,18.6807751 10.2068684,18.6807751 C15.3880912,18.6819864 18.2216121,14.1619549 18.2216121,10.2403589 Z" id="Shape"></path>
                    <path d="M25.5058143,12.7815478 C25.5058143,5.72262475 19.795971,0 12.7529071,0 C5.7098016,0 0,5.72262475 0,12.7815478 C0,19.8404291 5.7098016,25.5630956 12.7529071,25.5630956 C19.795971,25.5630956 25.5058143,19.8404291 25.5058143,12.7815478 Z M1.15934762,12.7815478 C1.15934762,6.36404124 6.34978082,1.1619513 12.7529071,1.1619513 C19.1560334,1.1619513 24.3464666,6.36404124 24.3464666,12.7815478 C24.3464666,19.1990543 19.1560334,24.4011443 12.7529071,24.4011443 C6.34978082,24.4011443 1.15934762,19.1990543 1.15934762,12.7815478 Z" id="Shape"></path>
                </g>
            </g>
        </g>
    </g>
</svg>