<?xml version="1.0" encoding="UTF-8" standalone="no"?>
<svg width="20px" height="20px" viewBox="0 0 20 20" version="1.1" xmlns="http://www.w3.org/2000/svg" xmlns:xlink="http://www.w3.org/1999/xlink">
    <!-- Generator: Sketch 3.7.2 (28276) - http://www.bohemiancoding.com/sketch -->
    <title>Shape</title>
    <desc>Created with Sketch.</desc>
    <defs></defs>
    <g id="Welcome" stroke="none" stroke-width="1" fill="none" fill-rule="evenodd">
        <g id="Desktop-HD" transform="translate(-406.000000, -2122.000000)" fill="#72C02C">
            <g id="Group-3" transform="translate(361.000000, 1825.000000)">
                <g id="Group-6-Copy-3" transform="translate(21.000000, 91.000000)">
                    <g id="Group-5" transform="translate(0.000000, 130.000000)">
                        <path d="M42,76 L26,76 C24.9,76 24,76.9 24,78 L24,94 C24,95.1 24.9,96 26,96 L42,96 C43.1,96 44,95.1 44,94 L44,78 C44,76.9 43.1,76 42,76 L42,76 Z M39.7,83.3 C39.6,87.9 36.7,91.1 32.3,91.3 C30.5,91.4 29.2,90.8 28,90.1 C29.3,90.3 31,89.8 31.9,89 C30.6,88.9 29.8,88.2 29.4,87.1 C29.8,87.2 30.2,87.1 30.5,87.1 C29.3,86.7 28.5,86 28.4,84.4 C28.7,84.6 29.1,84.7 29.5,84.7 C28.6,84.2 28,82.3 28.7,81.1 C30,82.5 31.6,83.7 34.2,83.9 C33.5,81.1 37.3,79.6 38.8,81.5 C39.5,81.4 40,81.1 40.5,80.9 C40.3,81.6 39.9,82 39.4,82.4 C39.9,82.3 40.4,82.2 40.8,82 C40.7,82.5 40.2,82.9 39.7,83.3 L39.7,83.3 Z" id="Shape"></path>
                    </g>
                </g>
            </g>
        </g>
    </g>
</svg>