<?xml version="1.0" encoding="utf-8"?>
<!-- Generator: Adobe Illustrator 19.2.1, SVG Export Plug-In . SVG Version: 6.00 Build 0)  -->
<svg version="1.1" id="Capa_1" xmlns="http://www.w3.org/2000/svg" xmlns:xlink="http://www.w3.org/1999/xlink" x="0px" y="0px"
	 viewBox="0 0 20 20" style="enable-background:new 0 0 20 20;" xml:space="preserve">
<style type="text/css">
	.st0{fill:#72C02C;}
</style>
<title>Shape</title>
<desc>Created with Sketch.</desc>
<g id="Welcome">
	<g id="Desktop-HD" transform="translate(-406.000000, -2122.000000)">
		<g id="Group-3" transform="translate(361.000000, 1825.000000)">
			<g id="Group-6-Copy-3" transform="translate(21.000000, 91.000000)">
				<g id="Group-5" transform="translate(0.000000, 130.000000)">
					<path id="Shape" class="st0" d="M42,76H26c-1.1,0-2,0.9-2,2v16c0,1.1,0.9,2,2,2h16c1.1,0,2-0.9,2-2V78C44,76.9,43.1,76,42,76
						L42,76z M39.7,83.3c-0.1,4.6-3,7.8-7.4,8c-1.8,0.1-3.1-0.5-4.3-1.2c1.3,0.2,3-0.3,3.9-1.1c-1.3-0.1-2.1-0.8-2.5-1.9
						c0.4,0.1,0.8,0,1.1,0c-1.2-0.4-2-1.1-2.1-2.7c0.3,0.2,0.7,0.3,1.1,0.3c-0.9-0.5-1.5-2.4-0.8-3.6c1.3,1.4,2.9,2.6,5.5,2.8
						c-0.7-2.8,3.1-4.3,4.6-2.4c0.7-0.1,1.2-0.4,1.7-0.6c-0.2,0.7-0.6,1.1-1.1,1.5c0.5-0.1,1-0.2,1.4-0.4
						C40.7,82.5,40.2,82.9,39.7,83.3L39.7,83.3z"/>
				</g>
			</g>
		</g>
	</g>
</g>
</svg>
