<?xml version="1.0" encoding="UTF-8"?>
<svg width="31px" height="32px" viewBox="0 0 31 32" version="1.1" xmlns="http://www.w3.org/2000/svg" xmlns:xlink="http://www.w3.org/1999/xlink">
    <!-- Generator: Sketch 44.1 (41455) - http://www.bohemiancoding.com/sketch -->
    <title>twitter</title>
    <desc>Created with Sketch.</desc>
    <defs></defs>
    <g id="Symbols" stroke="none" stroke-width="1" fill="none" fill-rule="evenodd">
        <g id="footer" transform="translate(-1148.000000, -102.000000)" fill-rule="nonzero" fill="#FFFFFF">
            <g id="FOLLOW-US" transform="translate(1148.000000, 57.500000)">
                <g id="Icons" transform="translate(0.000000, 45.000000)">
                    <g id="twitter">
                        <path d="M22.1467141,12.4183366 C22.1467141,12.2619183 22.1438775,12.1069183 22.1368366,11.9533366 C22.8061732,11.4545 23.3867141,10.8302958 23.8460915,10.1158775 C23.2317141,10.3920915 22.5722549,10.5766732 21.8789592,10.6541225 C22.5863366,10.2187042 23.1288366,9.52262255 23.3852958,8.68704085 C22.723,9.08862255 21.9902958,9.3760817 21.2110408,9.52545915 C20.5868366,8.8152451 19.6962958,8.36295915 18.7112859,8.34604085 C16.8202859,8.31504085 15.2872042,9.91295915 15.2872042,11.9152451 C15.2872042,12.1998676 15.3167859,12.4760817 15.3759493,12.7423676 C12.5282042,12.5592042 10.0045408,11.0768268 8.3164085,8.84204085 C8.0219085,9.3775 7.8528268,10.0031225 7.8528268,10.6738775 C7.8528268,11.9420915 8.4573268,13.0693366 9.37603105,13.7344183 C8.8138268,13.7090915 8.2868268,13.5385915 7.8246634,13.2595408 L7.8246634,13.3060408 C7.8246634,15.0787141 9.0055,16.5638775 10.5723676,16.9105 C10.2849085,16.9922042 9.98194935,17.0345 9.67053105,17.0331324 C9.4493268,17.0317141 9.23511275,17.0077549 9.0265719,16.9626225 C9.4619902,18.4154183 10.7273676,19.4764592 12.2251944,19.5116634 C11.052817,20.4839085 9.57611275,21.0644493 7.9725719,21.0602451 C7.69635784,21.0602451 7.42303105,21.0419592 7.15527614,21.0081225 C8.6714902,22.0480408 10.4708578,22.6539085 12.4055212,22.6539085 C18.7028268,22.6553775 22.1467141,17.174 22.1467141,12.4183366 Z" id="Shape"></path>
                        <path d="M31,15.5 C31,6.9397451 24.0602042,0 15.5,0 C6.9397451,0 0,6.9397451 0,15.5 C0,24.0602042 6.9397451,31 15.5,31 C24.0602042,31 31,24.0602042 31,15.5 Z M1.4090817,15.5 C1.4090817,7.7175817 7.7175817,1.4090817 15.5,1.4090817 C23.2824183,1.4090817 29.5909183,7.7175817 29.5909183,15.5 C29.5909183,23.2824183 23.2824183,29.5909183 15.5,29.5909183 C7.7175817,29.5909183 1.4090817,23.2824183 1.4090817,15.5 Z" id="Shape"></path>
                    </g>
                </g>
            </g>
        </g>
    </g>
</svg>